<svg xmlns="http://www.w3.org/2000/svg" width="426.667" height="333.333" viewBox="0 0 426.66666 333.33334">
    <defs>
        <clipPath id="a">
            <path d="M0 250h320V0H0z"/>
        </clipPath>
        <clipPath id="b">
            <path d="M0 250h320V0H0z"/>
        </clipPath>
    </defs>
    <g clip-path="url(#a)" transform="matrix(1.33333 0 0 -1.33333 0 333.333)">
        <path d="M124.15 74.15c3.29-.987 5.432-1.929 6.425-2.825-.993.896-3.134 1.838-6.425 2.825m4.075-7.15c.065.302.09.635.075 1-.01.161-.026.328-.05.5-.21.285-.452.56-.725.825-1.257 1.28-3.15 2.387-5.675 3.325 2.526-.938 4.418-2.046 5.675-3.325.273-.266.515-.54.725-.825.024-.172.04-.339.05-.5a3.93 3.93 0 0 0-.075-1m-13.075 4.6c.672-.185 1.28-.385 1.825-.6.43-.166.822-.34 1.175-.526 1.193-.614 1.977-1.33 2.35-2.149a2.66 2.66 0 0 0 .275-1.075 3.43 3.43 0 0 0-.125-1.05c-.08-.416-.254-.749-.525-1 .27.251.445.584.525 1 .098.362.14.713.125 1.05a2.66 2.66 0 0 1-.275 1.075c-.373.818-1.157 1.535-2.35 2.15-.353.184-.745.36-1.175.525-.545.215-1.153.415-1.825.6m-35.025-4.9c-.046 1.115.496 2.182 1.625 3.2.358.32 1.025.587 2 .8-.975-.213-1.642-.48-2-.8-1.13-1.018-1.671-2.085-1.625-3.2m15.65 20.45c.01.026.019.052.025.074.416 1.492.117 3.517-.9 6.075 1.017-2.558 1.316-4.583.9-6.075a.809.809 0 0 0-.025-.074m8.025-.5c-.713 1.681-1.164 3.73-1.35 6.15.186-2.42.637-4.469 1.35-6.15m3.3 0c-.761 1.49-1.22 3.35-1.375 5.574.193-4.553-.45-6.41-1.925-5.574-1.412.134-2.261 1.56-2.55 4.274.289-2.715 1.138-4.14 2.55-4.274.078-.117.152-.226.225-.325.94-1.179 1.966-1.07 3.075.325m-15.35 51.2c4.127 2.141 8.11 2.508 11.95 1.1-3.84 1.408-7.823 1.041-11.95-1.1m15.55-6.6c-2.978-4.224-7.07-5.765-12.275-4.625-5.211 1.136-8.22 2.928-9.025 5.375.805-2.447 3.814-4.239 9.025-5.375 5.205-1.14 9.297.401 12.275 4.625m-8.65 4.4c2.817 1.173 4.017 2.023 3.6 2.55-2.142.765-4.508.765-7.1 0-1.198-.569-.031-1.419 3.5-2.55v-3.1zM74.5 72.3c-1.941.517-3.841-.417-5.7-2.8-.05-.065-.1-.148-.15-.25-.131-.34-.215-.89-.25-1.65.035.76.119 1.31.25 1.65.05.102.1.185.15.25 1.859 2.383 3.759 3.317 5.7 2.8m5.65-5.9c.035-.306.185-.605.45-.9-.265.295-.415.594-.45.9l.075.024c-.036.088-.07.18-.1.276.004-.1.012-.2.025-.3m-2.6 5c-1.022-.766-1.856-1.449-2.5-2.05-.92-.878-1.445-1.586-1.575-2.126a3.432 3.432 0 0 0 0 0c.13.54.655 1.248 1.575 2.125.644.602 1.478 1.285 2.5 2.051m15.575 20.625c.3-2.525.275-4.35-.075-5.476-.455-.27-.855-.404-1.2-.399-1.324-.002-1.84 1.998-1.55 6-1.693.33-3.143 1.146-4.35 2.45l-.025.025c1.157.372 1.282 1.347.375 2.924 2.187-.699 3.62-.915 4.3-.649.9.362.467 1.58-1.3 3.65 1.057-.495 1.89-.745 2.5-.75.845-.017 1.262.433 1.25 1.35a19.488 19.488 0 0 1-3.45 2.824 21.659 21.659 0 0 1-3.375 1.75c2.122 5.713 5.263 8.68 9.425 8.901.148.015.298.023.45.025 4.377.04 7.994-2.853 10.85-8.676-1.372-.74-2.488-1.565-3.35-2.474a8.217 8.217 0 0 1-1.4-1.925c-.402-.779-.635-1.379-.7-1.8-.087-.475.03-.732.35-.775.542-.08 1.642.436 3.3 1.55-1.696-2.176-2.038-3.426-1.025-3.75.777-.239 2.369.08 4.775.95-1.278-1.954-.911-2.97 1.1-3.05.278-2.458.295-4.383.05-5.776-.354-2.018-1.254-2.926-2.7-2.724-.878-2.307-3.003-4.08-6.375-5.325-3.375-1.246-6.983-.47-10.825 2.325-.657 2.8-1.84 5.533-3.55 8.2l-.65 3.2c1.207-1.304 2.657-2.12 4.35-2.45-.29-4.002.226-6.002 1.55-6 .345-.005.745.128 1.2.4 1.165-.847 1.99-.856 2.475-.025.097.177.18.386.25.625 1.364-.533 2.122.268 2.275 2.4.359 4.735-1.308 8.601-5 11.6 3.692-2.999 5.359-6.865 5-11.6-.153-2.132-.911-2.933-2.275-2.4a3.14 3.14 0 0 0-.25-.625c-1.055-.144-1.855 1.69-2.4 5.5m11.75 49.774a34.47 34.47 0 0 0 5.225-.324c.8-.105 1.609-.239 2.425-.4.817 1.351 1.225 2.91 1.225 4.675 0 2.166-.617 4.016-1.85 5.55-1.2 1.533-2.65 2.3-4.35 2.3-1.7 0-3.167-.767-4.4-2.3-1.2-1.534-1.8-3.384-1.8-5.55 0-1.525.3-2.892.9-4.1.86.085 1.736.135 2.625.15m-23.25 0a34.47 34.47 0 0 0 5.225-.325c.8-.105 1.609-.239 2.425-.4.817 1.351 1.225 2.91 1.225 4.675 0 2.166-.617 4.016-1.85 5.55-1.2 1.533-2.65 2.3-4.35 2.3-1.7 0-3.167-.767-4.4-2.3-1.2-1.534-1.8-3.384-1.8-5.55 0-1.525.3-2.892.9-4.1.86.085 1.736.135 2.625.15m-.65-17.8l.075.125c-.302.185-.602.377-.9.575-2.702 2.44-3.785 5.564-3.25 9.375.106.756.273 1.54.5 2.35.107.351.224.71.35 1.075-.535.427-1.026.885-1.475 1.375-1.495 1.645-2.487 3.636-2.975 5.975-.633 2.9-.267 5.633 1.1 8.2 1.434 2.633 3.5 4.533 6.2 5.7 3 1.3 5.984 1.266 8.95-.1a33.015 33.015 0 0 0 6.7-4c.177.083.352.167.525.25l-.075.1c7.293 5.584 13.51 6.543 18.65 2.875 1.153-.822 2.06-1.78 2.725-2.875 2.325-3.892 1.516-9.509-2.425-16.85.855-2.182 1.289-4.165 1.3-5.95.017-2.078-.533-3.886-1.65-5.425-1.757-2.41-4.9-4.17-9.425-5.275a39.553 39.553 0 0 0-2.125-.45 53.087 53.087 0 0 0-3.95-.55c-2.883-.296-5.516-.355-7.9-.175-1.702.138-3.277.396-4.725.774-.96.246-1.86.546-2.7.901-1.3.54-2.467 1.207-3.5 2m-13.95 30.55c-.95-3.662-.892-7.329.175-11 .089-.322.189-.647.3-.975-1.761-.572-3.361-.939-4.8-1.1-2.416-.267-4.374.05-5.875.95-1.71 1.022-2.825 2.797-3.35 5.325-1.263 6.083.087 10.208 4.05 12.375 3.968 2.16 7.593 1.602 10.875-1.675a23.239 23.239 0 0 1-1.375-3.9c-1.261.76-2.678 1.017-4.25.775-1.2-.18-2.491-.655-3.875-1.425 1.384.77 2.676 1.245 3.875 1.425 1.572.242 2.989-.016 4.25-.776M90.4 74l.075-.076c.029-.61.204-.968.525-1.075.258-1.566.092-3.134-.5-4.699-1.735-1.675-3.536-2.792-5.4-3.35a10.08 10.08 0 0 0-2.05-.376c-.708-.049-1.141.01-1.3.175-.505.295-.888.595-1.15.901-3.932-1.783-6.157-2.166-6.675-1.15a4.126 4.126 0 0 0-.2.45c-3.558-.622-5.341-.088-5.35 1.6-.004.444.004.845.025 1.2-.931.196-1.356 1.112-1.275 2.75.085 1.632 1.01 2.624 2.775 2.975a11.508 11.508 0 0 1 4.8 2.175 2.342 2.342 0 0 1 1.05-.65c1.07-.302 2.405.248 4 1.65-.323-1.369-.29-2.277.1-2.725.637-.752 2.27-.21 4.9 1.625 1.372-2.479 2.713-3.446 4.025-2.9.545.235 1.087.735 1.625 1.5m18.3.25c.17-.125.337-.226.5-.3.649-.33 1.24-.322 1.775.024.555.374 1.047 1.124 1.475 2.25.065.2.13.41.2.625.884-2.179 2.434-2.179 4.65 0a6.507 6.507 0 0 1 3.15-.599.47.47 0 0 1 .075 0c1.129.066 1.795.191 2 .375 4.574-1.44 7.257-3.207 8.05-5.3.338-.273.58-.639.725-1.1V70.2c.142-.46.042-1.228-.3-2.3-.352-1.096-1.278-1.396-2.775-.9-.462-2.28-3.162-2.879-8.1-1.8-.423-.38-1.082-.547-1.975-.5a8.565 8.565 0 0 0-1.55.224c-.888.204-1.922.537-3.1 1-3.133 1.238-4.75 3.546-4.85 6.925-.007.448.009.915.05 1.401m12.925 87.525c2.987 3.787 6.278 4.28 9.875 1.475 3.33-2.597 4.539-6.189 3.625-10.775a8.823 8.823 0 0 1-.05-.275 10.581 10.581 0 0 0-.6-1.85c-.79-1.838-2.08-3.197-3.875-4.075-1.36-.678-3.01-1.078-4.95-1.2.179 2.736-.071 5.511-.75 8.325-.128.532-.27 1.065-.425 1.6a36.104 36.104 0 0 1-.825 2.424c1.096 1.934 2.596 2.85 4.5 2.75.754-.03 1.57-.222 2.45-.574-.88.352-1.696.544-2.45.574-1.904.1-3.404-.816-4.5-2.75a34.24 34.24 0 0 1-.95 2.301 20.378 20.378 0 0 1-1.075 2.05M191.9 79.55c-1.135-.139-2.893.002-5.275.425l.05.075a15.179 15.179 0 0 0-.675 0c.192-.009.4-.035.625-.075 2.382-.423 4.14-.564 5.275-.425m-3.15 3.526c.162-.212.329-.42.5-.625a30.075 30.075 0 0 1 3.625-3.8 35.028 35.028 0 0 1 6-4.275c-7.543-.792-12.601-.134-15.175 1.974-.044.284-.077.551-.1.801-.117 2.014.666 2.98 2.35 2.9-.238 1.647.696 2.656 2.8 3.025m46.875-8.7c-3.243-.654-5.868-.738-7.875-.25 3.158 1.85 5.949 4.266 8.375 7.25.7.847 1.366 1.74 2 2.674 1.917.137 3.025-.663 3.325-2.399a25.67 25.67 0 0 0-.9-1.45c-.567.778-1.783 1.18-3.65 1.2 1.867-.02 3.083-.422 3.65-1.2a32.644 32.644 0 0 0-2.55-3.35 46.27 46.27 0 0 0-2.375-2.475m-53.425 77.6c-.507-3.266-.207-6.533.9-9.8-6.323-2.054-10.556-1.445-12.7 1.825-.608.906-1.05 2.023-1.325 3.35a22.784 22.784 0 0 0-.35 2.2c-.533 4.888.934 8.28 4.4 10.175 3.968 2.16 7.593 1.602 10.875-1.676a23.22 23.22 0 0 1-1.375-3.899v-.025a23.844 23.844 0 0 1-.175-.725 21.067 21.067 0 0 1-.1-.45c-.052-.212-.102-.42-.15-.625a4.993 4.993 0 0 0-.1-.325zm68.55.25a1.017 1.017 0 0 0-.075-.05l.05-.1c-.911-4.592-4.071-7.059-9.475-7.4.264 4.02-.403 8.128-2 12.325v.025a34.655 34.655 0 0 1-.95 2.3 20.487 20.487 0 0 1-1.075 2.05c2.987 3.787 6.279 4.28 9.875 1.475 1.696-1.322 2.838-2.897 3.425-4.725.569-1.742.644-3.708.225-5.9" fill="#ea9e44" fill-rule="evenodd"/>
        <path d="M90.475 73.925L90.4 74c.036.217.07.434.1.65-.025-.272-.034-.513-.025-.725M93.05 86.55c.35 1.125.375 2.95.075 5.476.545-3.811 1.345-5.644 2.4-5.5-.485-.831-1.31-.823-2.475.024m12.675 5.675c.155-2.226.614-4.084 1.375-5.574-1.109-1.396-2.134-1.504-3.075-.326-.073.1-.148.208-.225.326 1.476-.837 2.117 1.02 1.925 5.574M80.125 66.7c.03-.095.063-.187.1-.275l-.075-.024a2.988 2.988 0 0 0-.025.299m.025 58c.298-.198.597-.39.9-.575l-.075-.125c-.292.225-.567.458-.825.7M96.7 155l.075-.1-.525-.25c.151.119.301.235.45.35M186 80.05c.237-.006.462-.006.675 0l-.05-.075c-.225.04-.433.065-.625.075m-3.8 72.275c.048.205.098.414.15.625a9.568 9.568 0 0 1-.075-.425 1.95 1.95 0 0 1-.025-.2z" fill="#dc8a38" fill-rule="evenodd"/>
        <path d="M182.2 152.325h.05a6.853 6.853 0 0 1-.05-.35l-.1.025c.037.11.071.22.1.325m68.55-.1a2.123 2.123 0 0 0-.026-.15l-.049.1a.88.88 0 0 1 .075.05" fill="#cf7a25" fill-rule="evenodd"/>
        <path d="M110.05 88.925c.807-1.198.89-3.54.25-7.024a50.396 50.396 0 0 0-1-4.401c-.061-.22-.336-.662-.825-1.325-.28-.382-.372-.757-.275-1.125-.097.368-.005.743.275 1.125.489.663.764 1.105.825 1.325a50.396 50.396 0 0 1 1 4.4c.64 3.486.557 5.827-.25 7.025M87.125 102.55l.075.075c-.097.075-.197.15-.3.225l.225-.3M68.65 128.5c1.63-2.922 2.222-6.422 1.775-10.5A29.303 29.303 0 0 0 70 115.4c-.391-1.73-.983-3.521-1.775-5.375a38.28 38.28 0 0 1-1.725-4.875 27.629 27.629 0 0 1-.8-3.951c-.232-1.851-.332-3.543-.3-5.075.036-1.535.786-3.943 2.25-7.224 1.466-3.278 4.324-5.736 8.575-7.375-.761 1.812-1.278 2.937-1.55 3.375A29.46 29.46 0 0 0 72.9 88.2c-.03.067-.063.134-.1.2-1.781 4.115-1.498 7.115.85 9-2.472 1.207-4.038 2.773-4.7 4.7a7.01 7.01 0 0 0-.325 1.676c-.21 2.924 1.008 5.658 3.65 8.199a108.04 108.04 0 0 0 3.775 3.45 145.26 145.26 0 0 0 2.125 1.825c.283.247.574.497.875.75 1.167.99 2.426 2.04 3.775 3.15.29.23.583.463.875.7l-.6.15a35.424 35.424 0 0 0-4.5 1.475c-.383.068-.65.16-.8.275-.15.113-.233.17-.25.175-2.28 1.075-4.08 2.35-5.4 3.825-.375-1.131-.5-1.93-.375-2.4-1.048 1.908-1.622 3.825-1.725 5.75-.708-1.038-1.174-1.904-1.4-2.6l-.6-.9c-.194.783-.311 1.458-.35 2.025.039-.567.156-1.242.35-2.025zm26.6 36.25c3.883.855 4.583 2.154 2.1 3.9 3.896.077 6.313.56 7.25 1.45.215.208.348.442.4.7a1.241 1.241 0 0 0 0 0 1.332 1.332 0 0 0-.4-.7c-.937-.89-3.354-1.373-7.25-1.45 2.483-1.746 1.783-3.045-2.1-3.9M76.225 81.526l.2-.476c.07-.171.129-.338.175-.5.41-1.306.144-2.264-.8-2.875.944.61 1.21 1.569.8 2.875a4.754 4.754 0 0 1-.175.5l-.2.476m49.425 63.549a26.344 26.344 0 0 0-.7-4.525c2.103-2.578 2.887-5.978 2.35-10.2l-1.65 1.4c.348-2.09-.735-4.24-3.25-6.45v1.7c-1.002-2.761-4.602-4.57-10.8-5.425l-.05.2c-.87-.15-1.78-.25-2.725-.3a29.806 29.806 0 0 0-2.95.025c4.526 1.106 7.668 2.864 9.425 5.275 1.117 1.539 1.667 3.347 1.65 5.425-.011 1.786-.444 3.769-1.3 5.95 3.94 7.34 4.75 12.958 2.425 16.85-.664 1.095-1.572 2.053-2.725 2.875-5.14 3.668-11.357 2.71-18.65-2.875a56.144 56.144 0 0 1-.45-.35 32.969 32.969 0 0 1-6.7 4c-2.966 1.367-5.95 1.4-8.95.1-2.7-1.166-4.766-3.067-6.2-5.7-1.367-2.566-1.733-5.3-1.1-8.2.488-2.338 1.48-4.33 2.975-5.975.449-.49.94-.947 1.475-1.375a30.339 30.339 0 0 1-.35-1.075 18.174 18.174 0 0 1-.5-2.35c-.535-3.811.548-6.936 3.25-9.375.258-.242.533-.475.825-.7 1.033-.793 2.2-1.46 3.5-2a19.335 19.335 0 0 1 2.7-.9c1.448-.378 3.023-.636 4.725-.775 2.384-.18 5.017-.121 7.9.175a53.07 53.07 0 0 1 3.95.55c1.825.032 3.517.115 5.075.25.586.039 1.153.09 1.7.15 2.232-1.14 4.198-2.291 5.9-3.45 5.817-3.973 8.509-8.056 8.075-12.25-.166-1.606-.566-3.04-1.2-4.3 6-2.861 5.117-10.128-2.65-21.8 1.886-1.442 2.51-2.451 1.875-3.025-.204-.183-.871-.308-2-.375a.47.47 0 0 0-.075 0 6.52 6.52 0 0 0-3.15.6c-2.216-2.18-3.766-2.18-4.65 0l-.2-.625c-.428-1.126-.92-1.876-1.475-2.25-.534-.347-1.126-.355-1.775-.025a2.926 2.926 0 0 0-.5.3c-.268.263-.435.529-.5.8-3.26-3.127-8.992-3.86-17.2-2.2-.321.106-.496.465-.525 1.075-.008.212 0 .453.025.726a23.53 23.53 0 0 1 .225 3.099 22.854 22.854 0 0 1-.575 5.45c3.842-2.795 7.45-3.57 10.825-2.325 3.372 1.244 5.497 3.019 6.375 5.325 1.447-.202 2.346.706 2.7 2.725.245 1.393.229 3.317-.05 5.775 1.106-.04 2.706.203 4.8.725 3.13.78 5.514 2.114 7.15 4-1.636-1.886-4.02-3.22-7.15-4-2.094-.522-3.694-.764-4.8-.725-2.011.08-2.378 1.097-1.1 3.05-2.406-.871-3.997-1.188-4.775-.95-1.013.324-.671 1.574 1.025 3.75-1.658-1.113-2.758-1.63-3.3-1.55-.32.043-.437.3-.35.776.065.42.298 1.02.7 1.799.35.68.818 1.322 1.4 1.925.862.909 1.978 1.735 3.35 2.475 1.346.73 2.929 1.38 4.75 1.95-.282 1.893-.916 3.435-1.9 4.625.984-1.19 1.618-2.732 1.9-4.625-1.821-.57-3.404-1.22-4.75-1.95-2.856 5.823-6.473 8.715-10.85 8.676a4.77 4.77 0 0 1-.45-.026c-4.162-.221-7.303-3.187-9.425-8.9-.462.19-.937.365-1.425.525-.937.324-1.92.599-2.95.825.313 2.199 1.155 4.132 2.525 5.8-1.37-1.668-2.212-3.601-2.525-5.8a26.206 26.206 0 0 0 2.95-.825c.488-.16.963-.335 1.425-.525a21.659 21.659 0 0 0 3.375-1.75 19.532 19.532 0 0 0 3.45-2.824c.012-.917-.405-1.368-1.25-1.351-.61.006-1.443.256-2.5.75 1.767-2.07 2.2-3.287 1.3-3.65-.68-.265-2.113-.05-4.3.65.907-1.577.782-2.553-.375-2.925-.45-.144-1.066-.194-1.85-.15A21.947 21.947 0 0 0 80.55 95a47.94 47.94 0 0 0-1.375.375 37.31 37.31 0 0 0-3.5 1.175 56.041 56.041 0 0 1 0 0 37.31 37.31 0 0 1 3.5-1.175c.472-.136.93-.261 1.375-.375a21.947 21.947 0 0 1 3.525-.525c.784-.044 1.4.006 1.85.15l.025-.025.65-3.2c1.71-2.666 2.893-5.4 3.55-8.2.41-1.793.602-3.61.575-5.45A23.53 23.53 0 0 0 90.4 74c-.538-.764-1.08-1.264-1.625-1.5-1.311-.546-2.653.42-4.025 2.9-2.63-1.834-4.263-2.376-4.9-1.624-.39.448-.423 1.356-.1 2.724-1.595-1.401-2.93-1.951-4-1.65-.383.107-.733.324-1.05.65-.255.605-.072 1.188.55 1.75-3.212.846-6.57 3.329-10.075 7.45-3.503 4.118-4.87 8.976-4.1 14.576.77 5.6 1.487 10.668 2.15 15.199.185 1.274.31 2.449.375 3.525.139 2.749-.136 4.849-.825 6.3-.958 2.02-2.325 3.57-4.1 4.65-1.765 1.076-3.265.609-4.5-1.4-1.24-2.007-2.19-3.225-2.85-3.65-.655-.421-1.972-.563-3.95-.425-1.468.098-2.168.949-2.1 2.55.035.558.16 1.208.375 1.95.64 2.198 1.64 4.023 3 5.475.317.336.65.653 1 .95a12.45 12.45 0 0 0 2.625 1.65c4.007 1.896 7.332 1.87 9.975-.075.224-.164.44-.331.65-.5 2.888-2.21 4.487-4.16 4.8-5.85-.32 3.732.379 6.374 2.1 7.925-.977 1.672-1.744 3.347-2.3 5.025-.111.329-.211.654-.3.975-1.067 3.672-1.125 7.338-.175 11a23.26 23.26 0 0 0 1.375 3.9 30.87 30.87 0 0 0 2.425 4.3c5.598 8.376 11.839 13.55 18.725 15.525 5.304 1.525 9.004 2.116 11.1 1.775a4.075 4.075 0 0 0 1-.275c.173-.083.323-.175.45-.275 1.478-1.162 1.01-2.487-1.4-3.975-2.406-1.492-4.556-2.384-6.45-2.675 5.955.669 9.447.377 10.475-.875 8.004-1.393 13.638-4.794 16.9-10.2.39-.652.75-1.335 1.075-2.05.35-.771.668-1.538.95-2.3.308-.811.584-1.62.825-2.425.156-.534.297-1.068.425-1.6.679-2.814.929-5.59.75-8.325M193.575 103.85a45.651 45.651 0 0 1-.5-5.8 39.8 39.8 0 0 0 0 0 45.651 45.651 0 0 0 .5 5.8m-6.424.55c1.33-.404 3.47-.587 6.424-.55.076.516.16 1.025.25 1.525a44.609 44.609 0 0 1 0 0c-.09-.5-.174-1.01-.25-1.525-2.953-.037-5.094.146-6.424.55m49.424-1.9c.8.085 1.493.25 2.076.5-.583-.25-1.276-.415-2.076-.5m-3.775 6.2c.105-.974.197-1.95.275-2.924.059-.79.109-1.582.15-2.375.02-.301.037-.601.05-.901 1.243-.113 2.342-.113 3.3 0-.958-.113-2.057-.113-3.3 0-.013.3-.03.6-.05.9a103.99 103.99 0 0 1-.15 2.376c-.078.975-.17 1.95-.275 2.924m-36.774 13.675c1.59-.484 3.533-.876 5.824-1.175 2.296-.31 4.945-.527 7.95-.65-3.005.123-5.654.34-7.95.65-2.291.299-4.233.69-5.824 1.175m31.724-48.25c-2.83-1.656-5.947-2.864-9.35-3.625a36.846 36.846 0 0 1-.5-.1c5.316-3.134 10.649-2.334 16 2.4a74.54 74.54 0 0 1 1.725 1.575c.856.83 1.647 1.655 2.375 2.475a32.6 32.6 0 0 1 2.55 3.35c.323.486.624.969.9 1.45.969 1.705 1.644 3.397 2.025 5.075.225.996.392 2.17.5 3.525.402 4.858.069 12.025-1 21.5-.734 6.508.225 11.616 2.875 15.325.426.595.892 1.153 1.4 1.675 1.318 1.336 2.917 2.436 4.8 3.3 6.532 3 12.174 2.592 16.925-1.225 1.728-1.382 2.962-2.84 3.7-4.375.047-.085.089-.17.125-.25.797-1.75.972-3.6.525-5.55a9.71 9.71 0 0 0-.25-.925c-1.343-4.152-3.218-5.718-5.625-4.7-1.56.664-2.642 3.222-3.25 7.675-.506 3.698-3.615 4.348-9.325 1.95-5.283-2.21-6.983-9.868-5.1-22.975 1.868-12.94-1.032-22.772-8.7-29.5-6.657-5.831-12.582-8.564-17.775-8.2-5.187.364-9.404 2.273-12.65 5.725-4.43 1.155-8.355 2.713-11.775 4.675a35.087 35.087 0 0 0-6 4.276c-.332.292-.657.592-.974.899a30.063 30.063 0 0 0-2.651 2.9 17.76 17.76 0 0 0-.5.625 31.623 31.623 0 0 0-2.825 4.35c-4.722 8.746-4.313 14.404 1.226 16.976-1.338.398-2.105 1.723-2.301 3.974-.368 4.316 3.357 8.983 11.176 14-3.672 1.205-6.397 2.697-8.176 4.475-.603-1.086-.677-1.862-.225-2.324-1.18.92-2.07 2.395-2.675 4.424-.617.568-1.042.459-1.275-.325-.085-.295-.143-.687-.175-1.175a21.58 21.58 0 0 0-.2 1.775c-.32 3.732.38 6.374 2.1 7.925-.977 1.672-1.744 3.347-2.3 5.025-1.107 3.268-1.406 6.535-.9 9.8.014.117.03.234.05.35a8.321 8.321 0 0 0 .1.625c.032.15.065.302.1.45.054.242.113.484.175.725v.025a23.26 23.26 0 0 0 1.375 3.9c.436.95.936 1.9 1.5 2.85.293.483.602.967.925 1.45 2.977 4.453 6.135 8.003 9.476 10.65 2.94 2.325 6.025 3.95 9.25 4.875.675.195 1.325.369 1.949.525 2.266.604 4.19 1.004 5.775 1.2 1.546.194 2.763.194 3.65 0 .496-.107.887-.274 1.175-.5a.449.449 0 0 0 .076-.075c1.38-1.14.89-2.44-1.476-3.9-2.406-1.492-4.556-2.384-6.45-2.675 5.956.669 9.447.377 10.475-.875 2.99-.52 5.648-1.32 7.975-2.4 3.906-1.812 6.88-4.413 8.925-7.8.39-.652.75-1.335 1.075-2.05.352-.771.668-1.538.95-2.3V157c1.597-4.197 2.264-8.305 2-12.325a26.344 26.344 0 0 0-.7-4.525c2.104-2.578 2.97-6.294 2.6-11.15l-1.9 2.35c.348-2.09-.735-4.424-3.25-7v2.25c-.738-2.034-2.888-3.551-6.45-4.55-1.543-.43-3.352-.763-5.425-1a69.8 69.8 0 0 0-5.974-.375 43.724 43.724 0 0 0-.601-.024v.024a2.662 2.662 0 0 0-.2-.024h.2c.21.007.41.015.6.024a69.8 69.8 0 0 1 5.975.375c2.073.237 3.882.57 5.425 1 3.392-2.348 5.908-4.522 7.55-6.524 1.239-1.517 1.98-2.933 2.225-4.25.389-2.106.18-4.19-.625-6.25-.302-.77-.837-1.37-1.6-1.801a5.081 5.081 0 0 0-.45-.225l.45-.25c2.186-1.333 3.436-3.15 3.75-5.45.396-2.985-.787-6.785-3.55-11.4a39.51 39.51 0 0 0-1.175-1.85 35.247 35.247 0 0 0-2-2.675c-2.426-2.983-5.217-5.4-8.375-7.25" fill="#aa290f" fill-rule="evenodd"/>
        <path d="M87.125 102.55l-.225.3c.102-.074.203-.15.3-.225zm23.4 18.9a39.87 39.87 0 0 0-1.7-.15 74.094 74.094 0 0 0-5.075-.25c.743.137 1.451.287 2.125.45a29.804 29.804 0 0 1 2.95-.025c.946.05 1.855.15 2.725.3l.05-.2c-.351-.042-.709-.083-1.075-.125m109.025-.8a6.667 6.667 0 0 1-.2 0c.067.006.133.015.2.025z" fill="#881c0d" fill-rule="evenodd"/>
        <path d="M82.85 147.35c.4 0 .75-.15 1.05-.45.3-.3.45-.65.45-1.05s-.15-.75-.45-1.05c-.3-.3-.65-.45-1.05-.45s-.75.15-1.05.45c-.3.3-.45.65-.45 1.05s.15.75.45 1.05c.3.3.65.45 1.05.45m24.75-1.5c0-.4-.15-.75-.45-1.05-.3-.3-.65-.45-1.05-.45s-.75.15-1.05.45c-.3.3-.45.65-.45 1.05s.15.75.45 1.05c.3.3.65.45 1.05.45s.75-.15 1.05-.45c.3-.3.45-.65.45-1.05m2.5-4.375c.068.073.135.148.2.225.767.833 1.15 1.85 1.15 3.05 0 1.2-.383 2.233-1.15 3.1-.733.833-1.617 1.25-2.65 1.25s-1.933-.417-2.7-1.25c-.733-.867-1.1-1.9-1.1-3.1 0-1.152.342-2.136 1.025-2.95a31.373 31.373 0 0 1-2.625-.15c-.6 1.21-.9 2.575-.9 4.1 0 2.166.6 4.017 1.8 5.55 1.233 1.533 2.7 2.3 4.4 2.3 1.7 0 3.15-.767 4.35-2.3 1.233-1.533 1.85-3.384 1.85-5.55 0-1.765-.408-3.323-1.225-4.675-.817.162-1.625.295-2.425.4m-23.25 0c.068.073.135.148.2.225.767.833 1.15 1.85 1.15 3.05 0 1.2-.383 2.233-1.15 3.1-.733.833-1.617 1.25-2.65 1.25s-1.933-.417-2.7-1.25c-.733-.867-1.1-1.9-1.1-3.1 0-1.152.342-2.136 1.025-2.95a31.373 31.373 0 0 1-2.625-.15c-.6 1.21-.9 2.575-.9 4.1 0 2.166.6 4.017 1.8 5.55 1.233 1.533 2.7 2.3 4.4 2.3 1.7 0 3.15-.767 4.35-2.3 1.233-1.533 1.85-3.384 1.85-5.55 0-1.765-.408-3.323-1.225-4.675-.817.162-1.625.295-2.425.4" fill="#fff" fill-rule="evenodd"/>
        <path d="M107.6 145.85c0 .4-.15.75-.45 1.05-.3.3-.65.45-1.05.45s-.75-.15-1.05-.45c-.3-.3-.45-.65-.45-1.05s.15-.75.45-1.05c.3-.3.65-.45 1.05-.45s.75.15 1.05.45c.3.3.45.65.45 1.05m-24.75 1.5c-.4 0-.75-.15-1.05-.45-.3-.3-.45-.65-.45-1.05s.15-.75.45-1.05c.3-.3.65-.45 1.05-.45s.75.15 1.05.45c.3.3.45.65.45 1.05s-.15.75-.45 1.05c-.3.3-.65.45-1.05.45m22.025-5.55c-.683.814-1.025 1.798-1.025 2.95 0 1.2.367 2.233 1.1 3.1.767.833 1.667 1.25 2.7 1.25 1.033 0 1.917-.417 2.65-1.25.767-.867 1.15-1.9 1.15-3.1 0-1.2-.383-2.217-1.15-3.05a6.166 6.166 0 0 0-.2-.225 34.474 34.474 0 0 1-5.225.325m-18.025-.325a34.474 34.474 0 0 1-5.225.325c-.683.814-1.025 1.798-1.025 2.95 0 1.2.367 2.233 1.1 3.1.767.833 1.667 1.25 2.7 1.25 1.033 0 1.917-.417 2.65-1.25.767-.867 1.15-1.9 1.15-3.1 0-1.2-.383-2.217-1.15-3.05a6.166 6.166 0 0 0-.2-.225" fill-rule="evenodd"/>
        <path d="M98.65 135.65c-3.531 1.132-4.698 1.98-3.5 2.55 2.592.766 4.958.766 7.1 0 .417-.527-.783-1.377-3.6-2.55" fill="#b45a25" fill-rule="evenodd"/>
        <path d="M124.15 74.15c3.29-.987 5.432-1.929 6.425-2.825M128.225 67c.065.302.09.635.075 1-.01.161-.026.328-.05.5-.21.285-.452.56-.725.825-1.257 1.28-3.15 2.387-5.675 3.325m-6.7-1.05c.672-.185 1.28-.385 1.825-.6.43-.166.822-.34 1.175-.526 1.193-.614 1.977-1.33 2.35-2.149a2.66 2.66 0 0 0 .275-1.075 3.43 3.43 0 0 0-.125-1.05c-.08-.416-.254-.749-.525-1m-40 1.5c-.046 1.115.496 2.182 1.625 3.2.358.32 1.025.587 2 .8m6.75 3.95a5.496 5.496 0 0 1-.025-.726c.029-.61.204-.968.525-1.075m2.05 13.7c.35 1.125.375 2.951.075 5.476m2.65-4.875c.01.026.019.052.025.074.416 1.492.117 3.517-.9 6.075m-1.85 7.851c3.692-2.999 5.359-6.865 5-11.6-.153-2.132-.911-2.933-2.275-2.4a3.14 3.14 0 0 0-.25-.625c-.485-.83-1.31-.822-2.475.024-.455-.27-.855-.404-1.2-.399-1.324-.002-1.84 1.998-1.55 6-1.693.33-3.143 1.146-4.35 2.45m21.15-7.95c-.761 1.49-1.22 3.35-1.375 5.574M103.8 86.65c-.713 1.681-1.164 3.73-1.35 6.15m4.65-6.15c.083-.156.166-.306.25-.45m0 0c1.446-.202 2.346.706 2.7 2.724.245 1.393.228 3.318-.05 5.776m-2.9-8.05c-1.11-1.396-2.134-1.504-3.075-.325a8.481 8.481 0 0 0-.225.325c-1.412.134-2.261 1.56-2.55 4.274a22.357 22.357 0 0 0 .6 8.076m-10.1 38.85c4.127 2.141 8.11 2.508 11.95 1.1m3.6-7.7c-2.978-4.224-7.07-5.765-12.275-4.625-5.211 1.136-8.22 2.928-9.025 5.375m12.65 3.65v-3.1m-11.8 8.925a34.47 34.47 0 0 1-5.225.324M74.5 72.3c-1.941.518-3.841-.416-5.7-2.799-.05-.065-.1-.148-.15-.25-.131-.34-.215-.89-.25-1.65m11.725-.9c.004-.1.012-.2.025-.3m0 0c.035-.306.185-.605.45-.9m-3.05 5.9c-1.022-.766-1.856-1.449-2.5-2.05-.92-.878-1.445-1.586-1.575-2.126a3.432 3.432 0 0 1-.025-1.474c.048-.31.14-.626.275-.95M58.9 153.9c1.384.77 2.676 1.245 3.875 1.425 1.572.242 2.989-.016 4.25-.776m56.625 2.875c1.096 1.934 2.596 2.85 4.5 2.75.754-.03 1.57-.222 2.45-.574m-25.725-17.8a31.807 31.807 0 0 1-2.625-.15c-.6 1.208-.9 2.575-.9 4.1 0 2.166.6 4.016 1.8 5.55 1.233 1.533 2.7 2.3 4.4 2.3 1.7 0 3.15-.767 4.35-2.3 1.233-1.534 1.85-3.384 1.85-5.55 0-1.765-.408-3.324-1.225-4.675-.816.161-1.625.295-2.425.4a34.47 34.47 0 0 1-5.225.324zm-18.025-.325c.8-.105 1.609-.239 2.425-.4.817 1.351 1.225 2.91 1.225 4.675 0 2.166-.617 4.016-1.85 5.55-1.2 1.533-2.65 2.3-4.35 2.3-1.7 0-3.167-.767-4.4-2.3-1.2-1.534-1.8-3.384-1.8-5.55 0-1.525.3-2.892.9-4.1.86.085 1.736.135 2.625.15m-1.475-17.1c-2.702 2.44-3.785 5.564-3.25 9.375.106.756.273 1.54.5 2.35.107.351.224.71.35 1.075-.535.427-1.026.885-1.475 1.375-1.495 1.645-2.487 3.636-2.975 5.975-.633 2.9-.267 5.633 1.1 8.2 1.434 2.633 3.5 4.533 6.2 5.7 3 1.3 5.984 1.266 8.95-.1a33.015 33.015 0 0 0 6.7-4c.15.118.3.235.45.35 7.293 5.584 13.51 6.543 18.65 2.875 1.153-.822 2.06-1.78 2.725-2.875 2.325-3.892 1.516-9.509-2.425-16.85.855-2.182 1.289-4.165 1.3-5.95.017-2.078-.533-3.886-1.65-5.425-1.757-2.41-4.9-4.17-9.425-5.275a39.553 39.553 0 0 0-2.125-.45 53.087 53.087 0 0 0-3.95-.55c-2.883-.296-5.516-.355-7.9-.175-1.702.138-3.277.396-4.725.774-.96.246-1.86.546-2.7.901-1.3.54-2.467 1.207-3.5 2-.292.224-.567.458-.825.7zM67.5 142.575c-1.761-.572-3.361-.939-4.8-1.1-2.416-.267-4.374.05-5.875.95-1.71 1.022-2.825 2.797-3.35 5.325-1.263 6.083.087 10.208 4.05 12.375 3.968 2.16 7.593 1.602 10.875-1.675M91 72.85c.258-1.567.092-3.135-.5-4.7-1.735-1.675-3.536-2.792-5.4-3.35a10.08 10.08 0 0 0-2.05-.376c-.708-.049-1.141.01-1.3.175-.505.295-.888.595-1.15.901-3.932-1.783-6.157-2.166-6.675-1.15a4.126 4.126 0 0 0-.2.45c-3.558-.622-5.341-.088-5.35 1.6-.004.444.004.845.025 1.2-.931.196-1.356 1.112-1.275 2.75.085 1.632 1.01 2.624 2.775 2.975a11.508 11.508 0 0 1 4.8 2.175m47.825 1.125c4.574-1.44 7.257-3.207 8.05-5.3.338-.273.58-.639.725-1.1V70.2c.142-.46.042-1.228-.3-2.3-.352-1.096-1.278-1.396-2.775-.9-.462-2.28-3.162-2.879-8.1-1.8-.423-.38-1.082-.547-1.975-.5a8.565 8.565 0 0 0-1.55.224c-.888.204-1.922.537-3.1 1-3.133 1.238-4.75 3.546-4.85 6.925-.007.448.009.915.05 1.401m12.925 87.525c2.987 3.787 6.278 4.28 9.875 1.475 3.33-2.597 4.539-6.189 3.625-10.775a8.823 8.823 0 0 1-.05-.275 10.581 10.581 0 0 0-.6-1.85c-.79-1.838-2.08-3.197-3.875-4.075-1.36-.678-3.01-1.078-4.95-1.2m102.1-70.95c2.007-.488 4.632-.404 7.875.25m.5 7c.27.011.528.02.775.025 1.867-.02 3.083-.422 3.65-1.2m-48.65-.65c-1.135-.14-2.893.001-5.275.424m-.625.075c.192-.009.4-.035.625-.075m12.25-5.599c-7.543-.792-12.601-.134-15.175 1.974-.044.284-.077.551-.1.801-.117 2.014.666 2.98 2.35 2.9-.238 1.647.696 2.656 2.8 3.025m49.375.974c1.917.137 3.025-.663 3.325-2.399M184 158.05c-3.282 3.277-6.907 3.835-10.875 1.675-3.466-1.896-4.933-5.287-4.4-10.176.075-.703.192-1.436.35-2.199.276-1.327.717-2.444 1.325-3.35 2.144-3.27 6.377-3.879 12.7-1.826m58.15 2.5c5.404.342 8.564 2.81 9.475 7.401.009.048.018.098.025.15m0 0c.419 2.192.344 4.158-.225 5.9-.587 1.828-1.73 3.403-3.425 4.725-3.596 2.804-6.888 2.312-9.875-1.475" fill="none" stroke="#be6f21" stroke-width=".6" stroke-linecap="round" stroke-linejoin="round" stroke-miterlimit="3"/>
        <path d="M233.275 102.5a92.19 92.19 0 0 0-.476-14m0 20.2c.106-.974.198-1.949.276-2.925.058-.79.108-1.582.15-2.375.02-.3.036-.6.05-.9 1.242-.113 2.342-.113 3.3 0" fill="none" stroke="#320a04" stroke-width=".6" stroke-linecap="round" stroke-linejoin="round" stroke-miterlimit="3"/>
        <path d="M108.7 74.25c.17-.125.337-.226.5-.3.648-.33 1.24-.322 1.775.025.555.374 1.047 1.124 1.475 2.25l.2.625c.883-2.18 2.433-2.18 4.65 0a6.52 6.52 0 0 1 3.15-.6.47.47 0 0 1 .075 0c1.13.066 1.795.191 2 .375M90.4 74c.036.217.07.434.1.65m0 0c.144 1.038.22 2.072.225 3.1a22.854 22.854 0 0 1-.575 5.45m-3.55 8.2c1.71-2.667 2.893-5.4 3.55-8.2m19.9 5.725c.807-1.198.89-3.539.25-7.025a50.463 50.463 0 0 0-1-4.4c-.06-.22-.336-.662-.825-1.325-.28-.382-.372-.757-.275-1.125m3.5 32.875c.694.22 1.427.429 2.2.625m-6.95-2.575c-1.373-.741-2.489-1.566-3.35-2.475a8.196 8.196 0 0 1-1.4-1.925c-.402-.778-.635-1.379-.7-1.8-.087-.474.03-.732.35-.775.542-.08 1.642.437 3.3 1.55-1.697-2.176-2.038-3.426-1.025-3.75.777-.238 2.37.079 4.775.95-1.278-1.953-.91-2.97 1.1-3.05 1.105-.039 2.705.202 4.8.725 3.13.78 5.513 2.114 7.15 4 .527.615.977 1.29 1.35 2.025m-19.55 19.6c1.825.032 3.516.115 5.075.25.585.039 1.152.09 1.7.15m-3.575-15.475c1.345.73 2.93 1.38 4.75 1.95-.283 1.892-.916 3.434-1.9 4.625M90.4 74c-.538-.765-1.08-1.265-1.625-1.5-1.312-.546-2.654.421-4.025 2.9-2.63-1.835-4.263-2.377-4.9-1.625-.39.449-.423 1.357-.1 2.725-1.595-1.401-2.929-1.951-4-1.65a2.334 2.334 0 0 0-1.05.65m1.525 6.025l.2-.475c.07-.171.13-.338.175-.5.41-1.306.143-2.264-.8-2.875a4.234 4.234 0 0 1-.55-.425m-1.6 20.15c.26-.118.526-.234.8-.35a54.08 54.08 0 0 1 1.225-.5 37.214 37.214 0 0 1 3.5-1.175c.472-.136.93-.261 1.375-.375a21.947 21.947 0 0 1 3.525-.525c.783-.044 1.4.005 1.85.15 1.156.372 1.281 1.348.375 2.925 2.187-.699 3.62-.915 4.3-.65.9.363.466 1.579-1.3 3.65 1.057-.494 1.89-.744 2.5-.75.845-.017 1.261.433 1.25 1.35a19.493 19.493 0 0 1-3.45 2.825 21.659 21.659 0 0 1-3.375 1.75c-.463.19-.938.365-1.425.525-.937.324-1.92.599-2.95.825.313 2.198 1.155 4.132 2.525 5.8.111.168.228.318.35.45m-17.025 16.3c.04-.567.156-1.243.35-2.025l.6.9c1.63-2.922 2.221-6.422 1.775-10.5-.039-.363-.089-.73-.15-1.1-.078-.497-.17-.997-.275-1.5-.392-1.728-.984-3.52-1.775-5.375a37.867 37.867 0 0 1-1.725-4.875 27.452 27.452 0 0 1-.8-3.95c-.232-1.851-.332-3.543-.3-5.075.036-1.535.786-3.943 2.25-7.225 1.466-3.277 4.324-5.735 8.575-7.375-.76 1.813-1.278 2.938-1.55 3.375a29.391 29.391 0 0 0-1.775 3.3c-.03.067-.063.134-.1.2-1.78 4.115-1.498 7.115.85 9-2.472 1.206-4.039 2.773-4.7 4.7a6.954 6.954 0 0 0-.325 1.675c-.209 2.925 1.008 5.659 3.65 8.2a109.04 109.04 0 0 0 3.775 3.45c.664.583 1.373 1.191 2.125 1.825.282.247.574.497.875.75 1.167.99 2.425 2.04 3.775 3.15.291.23.583.463.875.7m-15.05 6.65c.226.695.692 1.562 1.4 2.6.102-1.925.677-3.842 1.725-5.75-.126.469 0 1.269.375 2.4 1.32-1.475 3.12-2.75 5.4-3.825.017-.004.1-.062.25-.175.15-.115.417-.207.8-.275a35.424 35.424 0 0 1 5.1-1.625 66.968 66.968 0 0 1 3.475-.75m-20.15 33.45c-.95-3.662-.892-7.328.175-11 .088-.321.188-.646.3-.975m-.475 11.975a23.172 23.172 0 0 0 1.375 3.9m26.85 6.3c3.883.854 4.583 2.154 2.1 3.9 3.896.077 6.312.56 7.25 1.45.214.208.348.442.4.7.048.184.048.384 0 .6a1.45 1.45 0 0 1-.275.575M74.7 75.5c-.256.604-.072 1.188.55 1.75-3.212.846-6.57 3.329-10.075 7.45-3.503 4.117-4.87 8.976-4.1 14.575.77 5.601 1.486 10.668 2.15 15.2.185 1.274.31 2.449.375 3.525.14 2.749-.136 4.849-.825 6.3-.958 2.021-2.325 3.571-4.1 4.65-1.765 1.076-3.265.609-4.5-1.4-1.24-2.008-2.19-3.225-2.85-3.65-.656-.421-1.972-.563-3.95-.425-1.468.098-2.169.949-2.1 2.55.034.558.16 1.208.375 1.95.64 2.197 1.64 4.023 3 5.475.317.336.65.653 1 .95a12.45 12.45 0 0 0 2.625 1.65c4.007 1.895 7.331 1.87 9.975-.075.223-.164.44-.331.65-.5 2.887-2.21 4.487-4.16 4.8-5.85-.32 3.732.38 6.374 2.1 7.925-.977 1.672-1.744 3.347-2.3 5.025m41.2-68.325c-.269.263-.435.529-.5.8-3.259-3.127-8.993-3.861-17.2-2.2m-22.6 85.6a30.87 30.87 0 0 0 2.425 4.3c5.597 8.375 11.84 13.55 18.725 15.525 5.303 1.524 9.004 2.116 11.1 1.775a4.088 4.088 0 0 0 1-.275c.173-.083.322-.175.45-.275 1.477-1.163 1.011-2.487-1.4-3.975-2.406-1.492-4.556-2.384-6.45-2.675 5.955.669 9.447.377 10.475-.875 8.004-1.393 13.637-4.794 16.9-10.2.391-.652.75-1.335 1.075-2.05.351-.771.668-1.538.95-2.3.308-.811.583-1.619.825-2.425.155-.535.297-1.068.425-1.6.68-2.814.93-5.589.75-8.325a26.427 26.427 0 0 0-.7-4.525c2.103-2.578 2.886-5.978 2.35-10.2l-1.65 1.4c.348-2.09-.736-4.24-3.25-6.45v1.7c-1.002-2.761-4.602-4.569-10.8-5.425-.35-.042-.709-.083-1.075-.125 2.231-1.14 4.198-2.291 5.9-3.45 5.817-3.974 8.51-8.057 8.075-12.25-.166-1.606-.566-3.039-1.2-4.3 6-2.861 5.117-10.128-2.65-21.8 1.885-1.442 2.51-2.451 1.875-3.025M240.55 80.2a32.744 32.744 0 0 0-2.55-3.35 46.693 46.693 0 0 0-2.375-2.475A70.534 70.534 0 0 0 233.9 72.8c-5.35-4.735-10.684-5.534-16-2.4.166.035.332.068.5.1 3.403.761 6.52 1.969 9.35 3.625m12.8 6.075c.323.486.624.969.9 1.45m-13.7-7.525c3.158 1.85 5.95 4.267 8.375 7.25.7.848 1.366 1.739 2 2.675m-49.375-.975c.162-.212.33-.421.5-.625a30.053 30.053 0 0 1 2.65-2.9c.318-.307.643-.608.975-.9a35.137 35.137 0 0 1 6-4.275m-5.3 29.475a45.648 45.648 0 0 1-.5-5.8 36.5 36.5 0 0 1-.025-1.15 61.97 61.97 0 0 1 .35-7m-6.25 14.5c1.33-.404 3.472-.587 6.425-.55.075.516.16 1.025.25 1.525.08.423.164.831.25 1.225.208.956.45 1.889.725 2.8m41.775-6.9c.8.085 1.492.251 2.075.5m-49.9-19.925a31.47 31.47 0 0 0-2.825 4.35c-4.722 8.746-4.314 14.404 1.225 16.975-1.338.399-2.104 1.724-2.3 3.975-.369 4.315 3.357 8.982 11.175 14-3.672 1.205-6.396 2.697-8.176 4.475-.602-1.086-.676-1.862-.224-2.325-1.179.921-2.07 2.396-2.675 4.425-.617.568-1.042.459-1.275-.325-.085-.295-.143-.687-.175-1.175a21.58 21.58 0 0 0-.2 1.775c-.32 3.732.38 6.374 2.1 7.925-.977 1.672-1.744 3.347-2.3 5.025m89.7-15.975c.796-1.75.971-3.6.525-5.55a9.772 9.772 0 0 0-.25-.925c-1.344-4.152-3.219-5.718-5.625-4.7-1.56.663-2.643 3.222-3.25 7.675-.507 3.697-3.615 4.347-9.325 1.95-5.283-2.21-6.984-9.868-5.1-22.975 1.867-12.94-1.032-22.773-8.7-29.5-6.657-5.831-12.582-8.565-17.775-8.2-5.188.364-9.405 2.273-12.65 5.725-4.43 1.154-8.355 2.713-11.775 4.675m42.575 7.275c.97 1.704 1.644 3.397 2.024 5.075.226.996.393 2.171.5 3.525.403 4.857.07 12.024-1 21.5-.733 6.508.226 11.616 2.875 15.325a14.59 14.59 0 0 0 1.401 1.675c1.317 1.335 2.917 2.436 4.8 3.3 6.532 3 12.173 2.592 16.924-1.225 1.73-1.382 2.962-2.841 3.701-4.375m-53.125-5.8c.21.008.41.016.6.025a69.8 69.8 0 0 1 5.975.375c2.073.237 3.882.57 5.425 1 3.391-2.348 5.908-4.523 7.55-6.525 1.24-1.516 1.981-2.932 2.225-4.25.39-2.105.18-4.189-.625-6.25-.303-.768-.837-1.369-1.6-1.8a4.7 4.7 0 0 0-.45-.225l.45-.25c2.186-1.333 3.436-3.149 3.75-5.45.396-2.986-.788-6.785-3.55-11.4a39.477 39.477 0 0 0-1.175-1.85m-42.1 38.325c1.592-.484 3.533-.876 5.824-1.175 2.296-.31 4.946-.527 7.951-.65.963-.045 1.963-.078 3-.1m18.75 1.6c3.561.999 5.712 2.515 6.45 4.55v-2.25c2.514 2.576 3.597 4.91 3.25 7l1.9-2.35c.37 4.855-.497 8.572-2.6 11.15.366 1.498.6 3.007.7 4.525m-58.15-2.5c-1.107 3.268-1.407 6.534-.9 9.8m.425 2.175a23.26 23.26 0 0 0 1.375 3.9m0 0c.435.95.935 1.9 1.5 2.85.293.483.601.967.925 1.45 2.976 4.453 6.134 8.003 9.475 10.65 2.942 2.325 6.026 3.95 9.25 4.875.676.194 1.325.369 1.95.525 2.266.603 4.191 1.003 5.775 1.2 1.546.193 2.763.193 3.65 0 .495-.107.887-.274 1.175-.5a.443.443 0 0 0 .075-.075c1.382-1.14.891-2.44-1.475-3.9-2.407-1.492-4.556-2.384-6.45-2.675 5.955.669 9.447.377 10.475-.875 2.99-.52 5.647-1.321 7.975-2.4 3.906-1.813 6.88-4.413 8.924-7.8m-55.024-9.4c.014.117.03.234.05.35.005.067.013.133.025.2.023.146.047.288.074.425m54.875 8.425c.392-.652.75-1.335 1.076-2.05.351-.771.668-1.538.95-2.3V157c1.596-4.197 2.263-8.305 2-12.325" fill="none" stroke="#320a04" stroke-width=".6" stroke-linecap="round" stroke-linejoin="round" stroke-miterlimit="3"/>
        <path d="M85.95 94.6l-.025.025M82.85 147.35c.4 0 .75-.15 1.05-.45.3-.3.45-.65.45-1.05s-.15-.75-.45-1.05c-.3-.3-.65-.45-1.05-.45s-.75.15-1.05.45c-.3.3-.45.65-.45 1.05s.15.75.45 1.05c.3.3.65.45 1.05.45zm24.75-1.5c0-.4-.15-.75-.45-1.05-.3-.3-.65-.45-1.05-.45s-.75.15-1.05.45c-.3.3-.45.65-.45 1.05s.15.75.45 1.05c.3.3.65.45 1.05.45s.75-.15 1.05-.45c.3-.3.45-.65.45-1.05zm-2.725-4.05c-.683.815-1.025 1.798-1.025 2.95 0 1.2.367 2.234 1.1 3.1.767.833 1.667 1.25 2.7 1.25 1.033 0 1.917-.417 2.65-1.25.767-.866 1.15-1.9 1.15-3.1 0-1.2-.383-2.216-1.15-3.05a5.46 5.46 0 0 0-.2-.225m-28.475.325c-.683.815-1.025 1.798-1.025 2.95 0 1.2.367 2.234 1.1 3.1.767.833 1.667 1.25 2.7 1.25 1.033 0 1.917-.417 2.65-1.25.767-.866 1.15-1.9 1.15-3.1 0-1.2-.383-2.216-1.15-3.05a5.46 5.46 0 0 0-.2-.225" fill="none" stroke="#000" stroke-width=".1" stroke-linecap="round" stroke-linejoin="round" stroke-miterlimit="3"/>
        <path d="M98.65 135.65c2.817 1.173 4.017 2.023 3.6 2.55-2.142.766-4.508.766-7.1 0-1.198-.57-.031-1.418 3.5-2.55z" fill="none" stroke="#743a18" stroke-width=".6" stroke-linecap="round" stroke-linejoin="round" stroke-miterlimit="3"/>
    </g>
    <g clip-path="url(#b)" transform="matrix(1.33333 0 0 -1.33333 0 333.333)">
        <path d="M240.55 80.2a35.556 35.556 0 0 0-2.55-3.35c-3.8-.933-5.266-.716-4.4.65 1.167 1.866 2.266 3.167 3.3 3.9 1.867-.034 3.084-.433 3.65-1.2M184 158.05c-.6-1.3-1.05-2.6-1.35-3.9v-.05l-.2-.7a11.426 11.426 0 0 1-.1-.45 3.753 3.753 0 0 1-.15-.65l-.1-.3-.05.05c-.733-.967-1.666-1.8-2.8-2.5-1.134-.667-2.316-1.067-3.55-1.2a48.24 48.24 0 0 0-3.8-.15c-1.466-.034-2.516.417-3.15 1.35-.533 4.9.934 8.283 4.4 10.15 3.966 2.167 7.584 1.617 10.85-1.65m8.9-79.4c1.2-3.766-1.9-4.266-9.3-1.5-.133 2 .65 2.966 2.35 2.9-.233 1.633.7 2.633 2.8 3l.5-.6c.363-1.649-.695-2.449-3.175-2.4.18-.009.37-.042.576-.1 2.366-.4 4.116-.533 5.25-.4l1-.9m43.25 2.7a97.86 97.86 0 0 1 2 2.7c1.899.133 3-.666 3.299-2.4-.266-.467-.566-.95-.9-1.45-.566.767-1.783 1.166-3.65 1.2-.233 0-.483-.016-.75-.05m3.1 75.65a22.217 22.217 0 0 1-.95 2.3 23.591 23.591 0 0 1-1.05 2.05c2.967 3.8 6.25 4.3 9.85 1.5 1.7-1.334 2.85-2.917 3.45-4.75-.2-.3-.383-.584-.55-.85-.7-1.167-1.667-1.783-2.9-1.85a14.803 14.803 0 0 0-3.65.25c-1.2.266-2.6.717-4.2 1.35" fill="#ea9e44" fill-rule="evenodd"/>
        <path d="M227.75 74.1c3.167 1.867 5.967 4.284 8.4 7.25.267.034.517.05.75.05-1.034-.733-2.133-2.033-3.3-3.9-.867-1.366.6-1.583 4.4-.65a54.37 54.37 0 0 0-2.35-2.5c-3.266-.633-5.9-.716-7.9-.25m-38.5 8.35c.8-1.033 1.684-2 2.65-2.9-1.133-.133-2.883 0-5.25.4-.204.058-.395.09-.575.1 2.48-.05 3.538.75 3.175 2.4m-7 69.85h-.05c.033.234.083.45.15.65a1.837 1.837 0 0 1-.05-.45.448.448 0 0 1-.05-.2m1.35-75.15c7.4-2.766 10.5-2.266 9.3 1.5 1.767-1.6 3.767-3.033 6-4.3-7.567-.767-12.633-.1-15.2 2-.033.3-.066.567-.1.8m67.15 75.05c-4.6-3.333-8.434-1.733-11.5 4.8 1.6-.633 3-1.083 4.2-1.35 1.2-.233 2.416-.316 3.65-.25 1.233.067 2.2.684 2.9 1.85.167.267.35.55.55.85.566-1.733.634-3.7.2-5.9M170.4 144c-.6.9-1.034 2.017-1.3 3.35a18.75 18.75 0 0 0-.35 2.2c.634-.933 1.684-1.383 3.15-1.35 1.267 0 2.534.05 3.8.15 1.234.134 2.416.534 3.55 1.2 1.134.7 2.066 1.534 2.8 2.5l.05-.05c-2.034-7.233-5.933-9.9-11.7-8" fill="#dc8a38" fill-rule="evenodd"/>
        <path d="M228.75 67a30.849 30.849 0 0 0-6.55-1c-4.867 0-8.733 1.9-11.6 5.7-16.534 5.4-24.4 13.166-23.6 23.3-.7 5.566 1.35 7.184 6.15 4.85-.034-.6-.05-1.2-.05-1.8-1.633-.067-2.683-.8-3.15-2.2a13.481 13.481 0 0 1-.8-3.65 7.723 7.723 0 0 1 .55-3.6c.467-1.133 1-2.267 1.6-3.4a11.837 11.837 0 0 1 2.25-3.1c.933-.933 2-1.65 3.2-2.15a34.065 34.065 0 0 1 3.55-1.2c1.233-.333 2.467-.684 3.7-1.05a98.625 98.625 0 0 0 3.35-1.05 23.79 23.79 0 0 0 3.6-1.4c1.234-.6 2.467-.75 3.7-.45.6.134 1.25.167 1.95.1-.8-.6-1.416-1.25-1.85-1.95a1.753 1.753 0 0 1-.25-.95c-.033-.9.267-1.634.9-2.2a8.797 8.797 0 0 1 2.25-1.3 9.08 9.08 0 0 1 2.65-.5 4.885 4.885 0 0 0 1.45-.3c.434-.2.917-.334 1.45-.4a10.626 10.626 0 0 1 1.8-.05c.566.033 1.134.05 1.7.05.6.033 1.283-.067 2.05-.3m4.5 36.4c-.066.8-.116 1.583-.15 2.35.233.1.466.184.7.25 1.066.3 1.533 1.033 1.4 2.2a3.212 3.212 0 0 1-1.15 2.15c-.467.367-.75.716-.85 1.05.9.3.833.9-.2 1.8a17.518 17.518 0 0 1-3 2.1l-3.4 1.8a30.873 30.873 0 0 1-3.4 1.5 15.96 15.96 0 0 0-3.6 2l.55.05c11.367-1.1 17.5-5.183 18.4-12.25.5-3.766-1.267-5.433-5.3-5m-13.9 17.25v-.05l-6.55-.15c-1.033.033-2.033.067-3 .1-12.666 1.5-19.366 5.083-20.1 10.75-1.066-2.9-2.016-3.9-2.85-3-.767 1.267-.767 2.533 0 3.8-1.1-.033-2.067-.617-2.9-1.75.3 3.367 1.366 5.533 3.2 6.5-5.1 11.567-3.367 21.567 5.2 30 8.534 8.467 16.784 12.133 24.75 11-1.6-2.267-4.85-4.383-9.75-6.35 11.9.6 20.633-1.967 26.2-7.7 5.134-7.667 6.483-15.333 4.05-23 2.8-1.167 4.433-3.833 4.9-8l-2.8 1.55c1.133-2.3 1.133-4.583 0-6.85-.9-.767-1.683.3-2.35 3.2 0-5.533-6-8.884-18-10.05M201.75 172c-.5-.333-1.066-.683-1.7-1.05-1.4-.833-2.7-1.867-3.9-3.1-.9-.967-1.75-1.967-2.55-3a66.43 66.43 0 0 1-2-2.75 27.424 27.424 0 0 1-2.15-3.75c-.766-1.567-1.134-3.25-1.1-5.05a86.831 86.831 0 0 0-.1-8c-.033-1.3.366-2.383 1.2-3.25.567-.533.866-1.15.9-1.85a7.936 7.936 0 0 0-.55-3.4c-.4-1.067-.166-1.55.7-1.45.733.067 1.384-.033 1.95-.3.567-.267.817-.817.75-1.65-.1-1.4.25-2.567 1.05-3.5.634-.767 1.417-1.45 2.35-2.05 1.133-.7 2.25-1.333 3.35-1.9.9-.467 1.85-.867 2.85-1.2 1.467-.5 3-.816 4.6-.95a85.163 85.163 0 0 1 2.9-.15 76.33 76.33 0 0 1 7.3.15c1.266.1 2.483.3 3.65.6.8.2 1.583.4 2.35.6 2.733.7 5.05 2.083 6.95 4.15 1.033 1.167 2.367 1.967 4 2.4.566.8.55 1.883-.05 3.25a30.713 30.713 0 0 1 3.35-.25c.466 1.1.216 2.017-.75 2.75a14.788 14.788 0 0 1-5.6 2.55c-1.767.4-3.566.65-5.4.75.4.367.867.617 1.4.75 1.2.367 2.4.7 3.6 1 1.167.333 2.317.633 3.45.9.7.167.9.8.6 1.9-.334 1.2-.683 2.417-1.05 3.65-.267.933-.433 1.9-.5 2.9a10.528 10.528 0 0 1-.85 3.6 16.28 16.28 0 0 1-1.85 3.3 15.781 15.781 0 0 1-2.5 2.85 24.776 24.776 0 0 1-3.05 2.25 42.332 42.332 0 0 1-3.15 1.7 16.303 16.303 0 0 0-3.2 2.15c-.934.8-2.05 1.367-3.35 1.7-1.167.267-2.417.367-3.75.3a25.193 25.193 0 0 0-3.9.1c-.4.033-.733.067-1 .1-.634.033-.8.35-.5.95.634 1.1 1.3 2.183 2 3.25.833 1.3.3 1.783-1.6 1.45.5-.533.6-.85.3-.95a25.111 25.111 0 0 1-2.25-.6 5.208 5.208 0 0 1-1.5-.7c-.533-.4-1.1-.783-1.7-1.15m34.4-90.65c-2.433-2.966-5.233-5.383-8.4-7.25-2.833-1.633-5.95-2.833-9.35-3.6a129.8 129.8 0 0 0-.9 1.55c.566.334 1.333.617 2.3.85 1.233.3 2.384.75 3.45 1.35 1.1.634 2.2 1.3 3.3 2 1.066.7 2.033 1.533 2.9 2.5a34.389 34.389 0 0 0 2.7 2.7 11.317 11.317 0 0 1 2.25 2.85c.6 1.066 1.234 2.15 1.9 3.25.6 1.1.983 2.233 1.15 3.4a21.18 21.18 0 0 1 .15 3.85c-.034.667-.15 1.3-.35 1.9-.566 1.633-.116 2.5 1.35 2.6.966.033 1.266.35.9.95-.7 1.066-1.667 1.816-2.9 2.25.8.1 1.483.267 2.05.5.166-.1.317-.184.45-.25 2.2-1.333 3.45-3.15 3.75-5.45.4-3-.784-6.8-3.55-11.4-.366-.633-.75-1.25-1.15-1.85a96.3 96.3 0 0 0-2-2.7" fill="#9e2110" fill-rule="evenodd"/>
        <path d="M201.75 172c.6.367 1.167.75 1.7 1.15.434.3.934.533 1.5.7.734.233 1.484.433 2.25.6.3.1.2.417-.3.95 1.9.333 2.433-.15 1.6-1.45a66.053 66.053 0 0 1-2-3.25c-.3-.6-.134-.917.5-.95.267-.033.6-.067 1-.1a25.206 25.206 0 0 1 3.9-.1c1.334.067 2.584-.033 3.75-.3 1.3-.333 2.417-.9 3.35-1.7a16.303 16.303 0 0 1 3.2-2.15 42.134 42.134 0 0 0 3.15-1.7 24.863 24.863 0 0 0 3.05-2.25 15.859 15.859 0 0 0 2.5-2.85 16.323 16.323 0 0 0 1.85-3.3c.5-1.167.783-2.367.85-3.6.067-1 .233-1.967.5-2.9.367-1.233.717-2.45 1.05-3.65.3-1.1.1-1.733-.6-1.9a76.657 76.657 0 0 1-3.45-.9c-1.2-.3-2.4-.633-3.6-1-.533-.133-1-.383-1.4-.75 1.834-.1 3.634-.35 5.4-.75a14.78 14.78 0 0 0 5.6-2.55c.967-.733 1.217-1.65.75-2.75a30.713 30.713 0 0 0-3.35.25c.6-1.367.616-2.45.05-3.25-1.633-.433-2.967-1.233-4-2.4-1.9-2.067-4.217-3.45-6.95-4.15-.767-.2-1.55-.4-2.35-.6-1.167-.3-2.384-.5-3.65-.6a76.323 76.323 0 0 0-7.3-.15c-.967.034-1.934.083-2.9.15-1.6.134-3.133.45-4.6.95-1 .333-1.95.733-2.85 1.2-1.1.567-2.216 1.2-3.35 1.9-.933.6-1.716 1.283-2.35 2.05-.8.933-1.15 2.1-1.05 3.5.067.833-.183 1.383-.75 1.65-.566.267-1.216.367-1.95.3-.866-.1-1.1.383-.7 1.45a7.92 7.92 0 0 1 .55 3.4c-.033.7-.333 1.317-.9 1.85-.834.867-1.233 1.95-1.2 3.25.1 1.7.15 3.4.15 5.1 0 .967-.016 1.933-.05 2.9-.033 1.8.334 3.483 1.1 5.05a27.424 27.424 0 0 0 2.15 3.75 66.43 66.43 0 0 0 2 2.75 43.484 43.484 0 0 0 2.55 3 18.98 18.98 0 0 0 3.9 3.1c.634.367 1.2.717 1.7 1.05M244 90.25c1.033 1.866 1.65 3.45 1.85 4.75a29.04 29.04 0 0 1 .25 3.8c0 1.266-.083 2.516-.25 3.75-.166 1.2-.317 2.45-.45 3.75a29.983 29.983 0 0 0-.15 3.9c.033 1.267.083 2.533.15 3.8.067 1.267.234 2.533.5 3.8.234 1.1.5 2.25.8 3.45.333 1.233.8 2.4 1.4 3.5a8.677 8.677 0 0 0 2.3 2.75 12.419 12.419 0 0 0 3.25 1.85c1.167.467 2.383.75 3.65.85 1.233.133 2.467.2 3.7.2 1.234 0 2.417-.133 3.55-.4 1.267-.333 2.283-.867 3.05-1.6.867-.8 1.467-1.733 1.8-2.8.334-1.067 1.034-1.6 2.1-1.6.467 0 .783.167.95.5.367.7.484 1.267.35 1.7.8-1.766.983-3.617.55-5.55-3.067-3.667-4.85-4.3-5.35-1.9.167 6.4-.95 9.817-3.35 10.25-8.4-.2-13.716-3.167-15.95-8.9-2.233-5.734-2.233-12.966 0-21.7.434-3 .383-5.966-.15-8.9a41.943 41.943 0 0 0-1-3.75l-.2-.5c-1.567-4.333-4.25-8.616-8.05-12.85-2.566-2-5.283-3.534-8.15-4.6a.402.402 0 0 0-.15-.05c-.7-.233-1.384-.467-2.05-.7a.451.451 0 0 1-.2-.05c-.766.233-1.45.333-2.05.3-.566 0-1.133-.017-1.7-.05a10.626 10.626 0 0 0-1.8.05c-.533.066-1.016.2-1.45.4a4.878 4.878 0 0 1-1.45.3c-.9.033-1.783.2-2.65.5a8.797 8.797 0 0 0-2.25 1.3c-.633.566-.933 1.3-.9 2.2 0 .366.083.684.25.95.434.7 1.05 1.35 1.85 1.95a6.198 6.198 0 0 1-1.95-.1c-1.233-.3-2.466-.15-3.7.45a23.79 23.79 0 0 1-3.6 1.4c-1.1.367-2.216.716-3.35 1.05-1.233.366-2.467.717-3.7 1.05-1.2.333-2.383.733-3.55 1.2a9.852 9.852 0 0 0-3.2 2.15 11.837 11.837 0 0 0-2.25 3.1 39.129 39.129 0 0 0-1.6 3.4 7.722 7.722 0 0 0-.55 3.6c.1 1.267.367 2.484.8 3.65.467 1.4 1.517 2.133 3.15 2.2 0 .6.016 1.2.05 1.8.1 1.367.25 2.7.45 4 .067.5.15 1 .25 1.5a2.766 2.766 0 0 1-1.05 0 45.346 45.346 0 0 1-1.95-.25c-.9-.1-1.333.2-1.3.9.066.7-.217 1.217-.85 1.55-.367.233-.633.55-.8.95-.233.6-.25 1.217-.05 1.85.167.567.367 1.15.6 1.75.234.567.517 1.084.85 1.55.367.466.816.883 1.35 1.25l1.5 1.1c.466.333.9.733 1.3 1.2.4.467.867.833 1.4 1.1.5.233 1.034.45 1.6.65.434.2.6.5.5.9-.167.733.2 1.084 1.1 1.05h1.85c.633 0 1.284.1 1.95.3 2.3-.3 4.95-.516 7.95-.65.967-.033 1.967-.067 3-.1l6.55.15v.05h.8l-.55-.05a15.981 15.981 0 0 1 3.6-2c1.166-.433 2.3-.933 3.4-1.5l3.4-1.8a17.518 17.518 0 0 0 3-2.1c1.033-.9 1.1-1.5.2-1.8.1-.334.383-.683.85-1.05a3.212 3.212 0 0 0 1.15-2.15c.133-1.167-.334-1.9-1.4-2.2a5.757 5.757 0 0 1-.7-.25c.034-.767.084-1.55.15-2.35 0-.3.017-.6.05-.9 1.233-.1 2.316-.1 3.25 0h.05c1.233-.434 2.2-1.184 2.9-2.25.366-.6.067-.917-.9-.95-1.466-.1-1.916-.967-1.35-2.6.2-.6.317-1.233.35-1.9a21.18 21.18 0 0 0-.15-3.85 10.005 10.005 0 0 0-1.15-3.4c-.666-1.1-1.3-2.184-1.9-3.25a11.362 11.362 0 0 0-2.25-2.85 34.4 34.4 0 0 1-2.7-2.7 14.774 14.774 0 0 0-2.9-2.5c-1.1-.7-2.2-1.366-3.3-2a13.51 13.51 0 0 0-3.45-1.35c-.967-.233-1.733-.516-2.3-.85.267-.467.567-.984.9-1.55l-.5-.1c5.3-3.133 10.633-2.334 16 2.4.6.533 1.183 1.05 1.75 1.55a54.336 54.336 0 0 1 2.35 2.5 35.547 35.547 0 0 1 2.55 3.35c.334.5.634.984.9 1.45.967 1.7 1.65 3.383 2.05 5.05.2 1 .366 2.184.5 3.55" fill="#aa290f" fill-rule="evenodd"/>
        <path d="M187.15 104.4c1.333-.4 3.483-.584 6.45-.55a51.032 51.032 0 0 1-.45-4c-4.8 2.333-6.85.716-6.15-4.85-.8-10.134 7.066-17.9 23.6-23.3 2.866-3.8 6.733-5.7 11.6-5.7 2.233.1 4.416.433 6.55 1a.443.443 0 0 0 .2.05c.666.233 1.35.466 2.05.7.033 0 .083.016.15.05 2.866 1.066 5.583 2.6 8.15 4.6 3.8 4.233 6.483 8.517 8.05 12.85l.2.5a41.104 41.104 0 0 1 1 3.75c.533 2.933.583 5.9.15 8.9-2.234 8.733-2.234 15.966 0 21.7 2.233 5.733 7.55 8.7 15.95 8.9 2.4-.433 3.517-3.85 3.35-10.25.5-2.4 2.283-1.767 5.35 1.9a8.442 8.442 0 0 1-.25-.95c-1.367-4.134-3.25-5.7-5.65-4.7-1.567.667-2.65 3.233-3.25 7.7-.5 3.7-3.6 4.35-9.3 1.95-5.3-2.2-7-9.867-5.1-23 1.867-12.934-1.034-22.767-8.7-29.5-6.667-5.8-12.6-8.534-17.8-8.2-5.2.366-9.417 2.283-12.65 5.75-4.434 1.166-8.35 2.717-11.75 4.65-2.233 1.266-4.233 2.7-6 4.3l-1 .9a24.192 24.192 0 0 0-2.65 2.9l-.5.6a28.446 28.446 0 0 0-2.8 4.35c-4.734 8.767-4.334 14.433 1.2 17m52.1 52.6c1.6-4.2 2.266-8.317 2-12.35-.1-1.5-.333-3-.7-4.5 2.1-2.567 2.966-6.284 2.6-11.15l-1.9 2.35c.333-2.1-.75-4.434-3.25-7v2.25c-.734-2.034-2.884-3.55-6.45-4.55 3.4-2.334 5.916-4.517 7.55-6.55 1.233-1.5 1.983-2.917 2.25-4.25.366-2.1.15-4.184-.65-6.25-.3-.767-.834-1.367-1.6-1.8a5.607 5.607 0 0 0-.45-.2c-.567-.234-1.25-.4-2.05-.5h-.05c-.934-.1-2.017-.1-3.25 0a8.197 8.197 0 0 0-.05.9c4.033-.434 5.8 1.233 5.3 5-.9 7.066-7.034 11.15-18.4 12.25h-.8c12 1.166 18 4.516 18 10.05.666-2.9 1.45-3.967 2.35-3.2 1.133 2.266 1.133 4.55 0 6.85l2.8-1.55c-.467 4.166-2.1 6.833-4.9 8 2.433 7.666 1.083 15.333-4.05 23-5.567 5.733-14.3 8.3-26.2 7.7 4.9 1.966 8.15 4.083 9.75 6.35-7.967 1.133-16.217-2.533-24.75-11-8.567-8.434-10.3-18.434-5.2-30-1.834-.967-2.9-3.134-3.2-6.5.833 1.133 1.8 1.717 2.9 1.75-.767-1.267-.767-2.533 0-3.8.833-.9 1.783.1 2.85 3 .733-5.667 7.433-9.25 20.1-10.75-3 .133-5.65.35-7.95.65-2.3.3-4.234.683-5.8 1.15-3.7 1.233-6.434 2.733-8.2 4.5-.6-1.1-.667-1.884-.2-2.35-1.2.933-2.1 2.416-2.7 4.45-.634.566-1.05.45-1.25-.35-.1-.267-.167-.65-.2-1.15-.1.6-.167 1.183-.2 1.75-.334 3.733.367 6.383 2.1 7.95a27.914 27.914 0 0 0-2.3 5c-1.134 3.4-1.417 6.783-.85 10.15a.45.45 0 0 0 .05.2c0 .166.016.317.05.45.033.166.067.316.1.45l.2.7v.05c.3 1.3.75 2.6 1.35 3.9.433.933.933 1.883 1.5 2.85.3.466.616.95.95 1.45 2.967 4.467 6.116 8.016 9.45 10.65 2.933 2.333 6.017 3.95 9.25 4.85.666.2 1.316.383 1.95.55 2.266.6 4.2 1 5.8 1.2 1.533.2 2.75.2 3.65 0 .466-.1.85-.267 1.15-.5l.1-.1c1.367-1.134.867-2.433-1.5-3.9-2.4-1.467-4.55-2.35-6.45-2.65 5.966.666 9.466.367 10.5-.9 2.966-.5 5.616-1.3 7.95-2.4 3.9-1.8 6.883-4.4 8.95-7.8.366-.634.716-1.317 1.05-2.05.367-.767.683-1.534.95-2.3" fill="#881c0d" fill-rule="evenodd"/>
    <path d="M187.15 104.4c-1.334.4-2.1 1.716-2.3 3.95-.367 4.333 3.366 9 11.2 14 1.566-.467 3.5-.85 5.8-1.15a6.76 6.76 0 0 0-1.95-.3h-1.85c-.9.033-1.267-.317-1.1-1.05.1-.4-.067-.7-.5-.9-.567-.2-1.1-.417-1.6-.65-.534-.267-1-.633-1.4-1.1a7.343 7.343 0 0 0-1.3-1.2l-1.5-1.1a6.122 6.122 0 0 1-1.35-1.25 7.674 7.674 0 0 1-.85-1.55 21.413 21.413 0 0 1-.6-1.75 2.716 2.716 0 0 1 .05-1.85c.166-.4.433-.717.8-.95.633-.334.916-.85.85-1.55-.034-.7.4-1 1.3-.9.666.1 1.317.183 1.95.25.333.067.683.067 1.05 0-.1-.5-.183-1-.25-1.5-2.967-.034-5.117.15-6.45.55m85.65 21.8c.133-.434.016-1-.35-1.7-.167-.333-.484-.5-.95-.5-1.067 0-1.767.533-2.1 1.6-.334 1.066-.934 2-1.8 2.8-.767.733-1.784 1.266-3.05 1.6-1.133.266-2.317.4-3.55.4-1.234 0-2.467-.067-3.7-.2a12.381 12.381 0 0 1-3.65-.85 12.48 12.48 0 0 1-3.25-1.85 8.69 8.69 0 0 1-2.3-2.75 16.035 16.035 0 0 1-1.4-3.5 97.95 97.95 0 0 1-.8-3.45 24.596 24.596 0 0 1-.5-3.8 142.07 142.07 0 0 1-.15-3.8 29.832 29.832 0 0 1 .15-3.9c.133-1.3.283-2.55.45-3.75.166-1.234.25-2.484.25-3.75 0-1.267-.084-2.534-.25-3.8-.2-1.3-.817-2.884-1.85-4.75.4 4.866.066 12.033-1 21.5-.767 6.5.183 11.6 2.85 15.3.433.6.9 1.166 1.4 1.7 1.333 1.333 2.933 2.433 4.8 3.3 6.533 3 12.183 2.583 16.95-1.25 1.7-1.367 2.933-2.817 3.7-4.35.033-.1.066-.184.1-.25" fill="#da2d14" fill-rule="evenodd"/>
    <path d="M183.1 142.15c-6.333-2.033-10.566-1.417-12.7 1.85 5.767-1.9 9.667.767 11.7 8l.1.3h.05c-.566-3.367-.283-6.75.85-10.15m67.65 10.05v-.15c-.933-4.567-4.1-7.033-9.5-7.4.267 4.033-.4 8.15-2 12.35 3.067-6.533 6.9-8.133 11.5-4.8" fill="#cf7a25" fill-rule="evenodd"/>
    <path d="M227.75 74.1c2-.466 4.634-.383 7.9.25m.5 7c.267.034.517.05.75.05 1.867-.033 3.083-.433 3.65-1.2m-48.65-.65c-1.133-.133-2.883 0-5.25.4-.204.058-.395.09-.575.1m64.675 72.15c.434 2.2.366 4.167-.2 5.9m-67.45-15.95c-6.333-2.033-10.567-1.416-12.7 1.85-.6.9-1.034 2.017-1.3 3.35a18.75 18.75 0 0 0-.35 2.2c-.533 4.9.934 8.284 4.4 10.15 3.966 2.167 7.583 1.617 10.85-1.65m14.9-83.7c-7.567-.767-12.633-.1-15.2 2-.033.3-.066.567-.1.8-.133 2 .65 2.967 2.35 2.9-.233 1.634.7 2.634 2.8 3m49.4 1c1.9.134 3-.666 3.3-2.4m9.3 70.55v-.15c-.934-4.566-4.1-7.033-9.5-7.4m9.3 13.45c-.6 1.833-1.75 3.417-3.45 4.75-3.6 2.8-6.883 2.3-9.85-1.5" fill="none" stroke="#be6f21" stroke-width=".6" stroke-linecap="round" stroke-linejoin="round" stroke-miterlimit="3"/>
    <path d="M233.3 102.5c.167-4.7 0-9.366-.5-14m0 20.2c.1-.967.2-1.95.3-2.95m0 0c.034-.767.084-1.55.15-2.35m0 0c0-.3.017-.6.05-.9 1.233-.1 2.316-.1 3.25 0" fill="none" stroke="#320a04" stroke-width=".6" stroke-linecap="round" stroke-linejoin="round" stroke-miterlimit="3"/>
    <path d="M193.6 103.85c-.2-1.3-.35-2.633-.45-4-.033-.6-.05-1.2-.05-1.8-.033-.366-.05-.75-.05-1.15a56.545 56.545 0 0 1 .35-7m-6.25 14.5c1.334-.4 3.484-.583 6.45-.55.067.5.15 1 .25 1.5.067.434.15.85.25 1.25.2.967.434 1.9.7 2.8m41.8-6.9c.8.1 1.483.267 2.05.5m-25.85 17.45l-3 .1c-3 .134-5.65.35-7.95.65-2.3.3-4.233.684-5.8 1.15m23.55-1.7h.55c2.2.067 4.2.2 6 .4 2.067.234 3.867.567 5.4 1m41.25 4.15c.8-1.766.984-3.617.55-5.55a8.035 8.035 0 0 1-.25-.95c-1.366-4.133-3.25-5.7-5.65-4.7-1.566.667-2.65 3.234-3.25 7.7-.5 3.7-3.6 4.35-9.3 1.95-5.3-2.2-7-9.866-5.1-23 1.867-12.933-1.033-22.766-8.7-29.5-6.666-5.8-12.6-8.533-17.8-8.2-5.2.367-9.416 2.284-12.65 5.75-4.433 1.167-8.35 2.717-11.75 4.65-2.233 1.267-4.233 2.7-6 4.3l-1 .9a24.208 24.208 0 0 0-2.65 2.9l-.5.6a28.391 28.391 0 0 0-2.8 4.35c-4.733 8.767-4.333 14.433 1.2 17-1.333.4-2.1 1.717-2.3 3.95-.366 4.334 3.367 9 11.2 14-3.7 1.233-6.433 2.734-8.2 4.5-.6-1.1-.666-1.883-.2-2.35-1.2.933-2.1 2.417-2.7 4.45-.633.567-1.05.45-1.25-.35-.1-.266-.166-.65-.2-1.15a16.703 16.703 0 0 0-.2 1.75c-.333 3.733.367 6.384 2.1 7.95a27.876 27.876 0 0 0-2.3 5c-1.133 3.4-1.416 6.783-.85 10.15 0 .067.017.133.05.2 0 .167.117.717.35 1.65.3 1.3.75 2.6 1.35 3.9.434.934.934 1.883 1.5 2.85.3.467.617.95.95 1.45 2.967 4.467 6.117 8.017 9.45 10.65 2.933 2.334 6.017 3.95 9.25 4.85.667.2 1.317.384 1.95.55 2.267.6 4.2 1 5.8 1.2 1.534.2 2.75.2 3.65 0 .467-.1.85-.266 1.15-.5l.1-.1c1.367-1.133.867-2.433-1.5-3.9-2.4-1.466-4.55-2.35-6.45-2.65 5.967.667 9.467.367 10.5-.9 2.967-.5 5.617-1.3 7.95-2.4 3.9-1.8 6.884-4.4 8.95-7.8.367-.633.717-1.316 1.05-2.05.367-.766.684-1.533.95-2.3 1.6-4.2 2.267-8.317 2-12.35-.1-1.5-.333-3-.7-4.5 2.1-2.566 2.967-6.283 2.6-11.15l-1.9 2.35c.333-2.1-.75-4.433-3.25-7v2.25c-.733-2.033-2.883-3.55-6.45-4.55 3.4-2.333 5.917-4.516 7.55-6.55 1.233-1.5 1.983-2.917 2.25-4.25.367-2.1.15-4.183-.65-6.25-.3-.766-.833-1.366-1.6-1.8a5.973 5.973 0 0 0-.45-.2c.167-.1.317-.183.45-.25 2.2-1.333 3.45-3.15 3.75-5.45.4-3-.783-6.8-3.55-11.4-.366-.633-.75-1.25-1.15-1.85a97.79 97.79 0 0 0-2-2.7c-2.433-2.966-5.233-5.383-8.4-7.25-2.833-1.633-5.95-2.833-9.35-3.6l-.5-.1c5.3-3.133 10.634-2.333 16 2.4.6.533 1.183 1.05 1.75 1.55a54.336 54.336 0 0 1 2.35 2.5 35.556 35.556 0 0 1 2.55 3.35c.334.5.634.984.9 1.45.967 1.7 1.65 3.384 2.05 5.05.2 1 .367 2.184.5 3.55.4 4.867.067 12.034-1 21.5-.766 6.5.184 11.6 2.85 15.3.434.6.9 1.167 1.4 1.7 1.333 1.334 2.934 2.433 4.8 3.3 6.533 3 12.184 2.584 16.95-1.25 1.7-1.367 2.934-2.816 3.7-4.35" fill="none" stroke="#320a04" stroke-width=".6" stroke-linecap="round" stroke-linejoin="round" stroke-miterlimit="3"/>
    <path d="M86.225 105.725a21.659 21.659 0 0 0 3.375-1.75 19.488 19.488 0 0 0 3.45-2.824c-.459-.327-1.017-.47-1.675-.426-.896.078-1.98.512-3.25 1.3-.395.244-.803.518-1.225.825l.225-.3c-.837.483-1.828.966-2.975 1.45a38.34 38.34 0 0 1-3.95 1.4 28.37 28.37 0 0 1-4.425.975 7.484 7.484 0 0 1-1.225.076 52.72 52.72 0 0 0 3.15.774c1.122.233 2.505.183 4.15-.15.313 2.199 1.155 4.132 2.525 5.8.111.168.228.319.35.45.633.598 1.475.69 2.525.275-.334-.933-1.05-1.616-2.15-2.05-1.6-.633-1.617-1.35-.05-2.15.8-.433.85-1.05.15-1.85-.233-.3-.367-.733-.4-1.3a20.9 20.9 0 0 0 1.425-.525M103.6 103.5c.861.91 1.978 1.735 3.35 2.475 1.345.73 2.93 1.38 4.75 1.95-.283 1.893-.916 3.435-1.9 4.625 1.2-.033 2.017-.683 2.45-1.95.3-.8.767-1.15 1.4-1.05.4.067.817.15 1.25.25 1.8.334 2.65-.05 2.55-1.15-1.633-.333-3.05-.7-4.25-1.1a13.26 13.26 0 0 1-3.25-1.75c-.967-.7-2-1.35-3.1-1.95a5.808 5.808 0 0 1-1.1-.774c-.034.007-.067.016-.1.024-.567.134-1.25.267-2.05.4m-26.05 20.425c-2.28 1.075-4.08 2.35-5.4 3.825-.376-1.13-.5-1.93-.375-2.4-1.048 1.909-1.623 3.825-1.725 5.75-.708-1.038-1.174-1.904-1.4-2.6 1.63-2.922 2.221-6.421 1.775-10.5-.039-.363-.089-.73-.15-1.1-.078-.496-.17-.996-.275-1.5-.733-.033-1.334.2-1.8.7-.867.867-1.367 1.934-1.5 3.2a129.159 129.159 0 0 1-.45 3.75c-.2 1.167-.383 2.35-.55 3.55-.167 1.2-.5 2.333-1 3.4a9.373 9.373 0 0 1-2.2 3.1c-1 .867-2.2 1.167-3.6.9a35.315 35.315 0 0 0-3.7-.5c-.8-.067-1.45-.3-1.95-.7-1.033-.833-2.3-1.25-3.8-1.25-.61 1.027-.543 1.977.2 2.85a12.45 12.45 0 0 0 2.625 1.65c4.007 1.896 7.331 1.87 9.975-.075.224-.164.44-.331.65-.5 2.887-2.21 4.487-4.16 4.8-5.85-.32 3.732.38 6.374 2.1 7.925-.977 1.673-1.744 3.347-2.3 5.026-.11.328-.212.653-.3.974-1.067 3.672-1.125 7.339-.175 11 .327 1.3.786 2.599 1.375 3.9a30.919 30.919 0 0 0 2.425 4.3c5.597 8.376 11.84 13.55 18.725 15.525 5.303 1.525 9.004 2.116 11.1 1.775a4.088 4.088 0 0 0 1-.275c.131-.768-.136-1.527-.8-2.275-.5.4-1.083.617-1.75.65-.633.033-1.283.033-1.95 0l-1.45-.1c-.6-.066-1.183-.183-1.75-.35a15.036 15.036 0 0 1-1.6-.5 8.405 8.405 0 0 1-1.65-.75 8.19 8.19 0 0 1-1.45-1c-.433-.333-.9-.666-1.4-1-.467-.267-.95-.533-1.45-.8-.567-.3-1.1-.633-1.6-1a9.55 9.55 0 0 0-1.4-.75 52.236 52.236 0 0 1-1.35-.7 38.752 38.752 0 0 1-1.6-.85 9.202 9.202 0 0 1-1.5-1.05c-.534-.4-1.05-.816-1.55-1.25a48.819 48.819 0 0 1-1.35-1.1 8.746 8.746 0 0 1-1.3-1.4c-.3-.433-.617-.867-.95-1.3a6.149 6.149 0 0 1-.85-1.6 7.63 7.63 0 0 0-.8-1.55 7.158 7.158 0 0 1-.9-1.65 14.046 14.046 0 0 1-.6-1.65 27.313 27.313 0 0 0-.55-1.75 3.687 3.687 0 0 0-.4-.9c-.267-1.2-.383-2.483-.35-3.85 0-1.266.1-2.5.3-3.7.233-1.3.317-2.6.25-3.9-.1-1.433.317-2.616 1.25-3.55.833-.9 1.883-1.333 3.15-1.3.66.018 1.318.026 1.975.025.45-.49.94-.947 1.475-1.375a27.84 27.84 0 0 1-.35-1.075.332.332 0 0 0-.05-.025 14 14 0 0 1-3.65-1.35c-1.5-.8-1.567-1.617-.2-2.45 1.067-.667 1.217-1.5.45-2.5a7.5 7.5 0 0 0 1.9-3.35c.294-1.211.861-2.153 1.7-2.825m2.3-50.15c-.39.449-.423 1.357-.1 2.725-1.595-1.401-2.929-1.951-4-1.65-.383.107-.733.324-1.05.65-.256.605-.072 1.188.55 1.75.155.144.338.286.55.425.944.612 1.21 1.57.8 2.875a4.754 4.754 0 0 1-.175.5l-.2.476c-.76 1.812-1.278 2.937-1.55 3.375a29.305 29.305 0 0 0-1.775 3.3c-.03.066-.063.133-.1.2-1.78 4.114-1.498 7.114.85 9 .26-.118.526-.235.8-.351.418-.176.826-.343 1.225-.5-1.15-.927-1.742-2.11-1.775-3.55-.033-1.333.317-2.583 1.05-3.75.7-1.066 1.317-2.15 1.85-3.25.533-1.167.733-2.433.6-3.8-.167-1.5.067-2.65.7-3.45.2-.266.5-.4.9-.4 1.3 0 2.2-.65 2.7-1.95.1-.3.333-.516.7-.65.39-.161.882-.27 1.475-.325-.967-1.191-2.308-1.741-4.025-1.65m42.1 25.626a.033.033 0 0 0 0 .024c.527.615.977 1.29 1.35 2.026 6-2.862 5.117-10.128-2.65-21.8 1.886-1.443 2.511-2.451 1.875-3.026-.205-.183-.87-.308-2-.375a.47.47 0 0 0-.075 0c-.567.833-1.25 1.367-2.05 1.6-1.767.467-1.984 1.167-.65 2.1a9.095 9.095 0 0 1 2.6 2.7A35.804 35.804 0 0 1 122.2 86c.533 1.1.966 2.217 1.3 3.35.333 1.2.65 2.417.95 3.65a9.112 9.112 0 0 1 0 3.8c-.3 1.434-1.133 2.3-2.5 2.6" fill="#da2d14" fill-rule="evenodd"/>
    <path d="M95.25 164.75c3.883.854 4.583 2.154 2.1 3.9 3.896.077 6.313.56 7.25 1.45-.228-1.78-1.778-2.647-4.65-2.6 1.298-1.508-.269-2.424-4.7-2.75M76.6 80.55c.41-1.306.144-2.264-.8-2.875a4.234 4.234 0 0 1-.55-.425c-3.212.846-6.57 3.329-10.075 7.45-3.503 4.117-4.87 8.976-4.1 14.575.77 5.601 1.487 10.668 2.15 15.2.185 1.274.31 2.449.375 3.525.139 2.749-.136 4.849-.825 6.3-.958 2.021-2.325 3.571-4.1 4.65-1.765 1.076-3.265.609-4.5-1.4-1.24-2.008-2.19-3.225-2.85-3.65-.656-.421-1.972-.563-3.95-.425-1.468.098-2.168.949-2.1 2.55 1.422-.534 2.73.007 3.925 1.625 5.95 4.622 10.008 5.456 12.175 2.5 2.167-2.952 3.459-6.252 3.875-9.9.689-5.008-.145-11.791-2.5-20.35-1.384-4.357.216-10.041 4.8-17.05 3.869-3.27 6.886-4.037 9.05-2.3m34.375-6.575c-.535-.347-1.126-.355-1.775-.025a2.863 2.863 0 0 0-.5.3c-.268.263-.435.529-.5.8-.097.368-.005.743.275 1.125.489.663.764 1.105.825 1.325a50.463 50.463 0 0 1 1 4.4c.64 3.486.557 5.827-.25 7.025.245 1.392.228 3.317-.05 5.775-2.011.08-2.378 1.097-1.1 3.05-2.406-.871-3.998-1.188-4.775-.95-1.013.324-.671 1.574 1.025 3.75-1.658-1.113-2.758-1.63-3.3-1.55-.32.043-.437.301-.35.775 1.5-.051 3.067.69 4.7 2.225l-1.7-4.35c2.034-.428 4.017.322 5.95 2.25-1.418-2.054-1.535-3.571-.35-4.55 11.932 3.088 15.565 8.539 10.9 16.35-3.433 5.144-6.983 7.427-10.65 6.85-10.259-.904-19.125-.137-26.6 2.3a146.378 146.378 0 0 1-4.3-3.4 198.355 198.355 0 0 1-4.675-3.975c-3.206-2.821-4.965-5.746-5.275-8.775-.184-.91-.042-1.777.425-2.6 1.488-2.651 6.329-4.851 14.525-6.6 1.397-.446.963.937-1.3 4.15 2.133-.921 4.267-1.521 6.4-1.8.54.217-.268 1.785-2.425 4.7l-.225.3c.422-.307.83-.581 1.225-.825 1.271-.789 2.354-1.222 3.25-1.3.658-.043 1.216.098 1.675.425.012-.917-.405-1.367-1.25-1.35-.61.006-1.443.256-2.5.75 1.766-2.071 2.2-3.287 1.3-3.65-.68-.265-2.113-.049-4.3.65.907-1.577.782-2.553-.375-2.925l.025-.025.65-3.2c1.71-2.667 2.893-5.4 3.55-8.2.41-1.793.602-3.609.575-5.45A23.545 23.545 0 0 0 90.4 74c-.538-.765-1.08-1.265-1.625-1.5-1.312-.546-2.653.421-4.025 2.9-2.629-1.835-4.263-2.377-4.9-1.625 1.717-.091 3.058.458 4.025 1.65.338.418.629.91.875 1.475 2.151-3.635 3.702-3.902 4.65-.8-.114 10.698-3.065 16.998-8.85 18.9a47.94 47.94 0 0 0-1.375.375c-1.111.309-2.278.7-3.5 1.175-.399.157-.807.324-1.225.5-.274.116-.541.232-.8.35-2.472 1.206-4.039 2.773-4.7 4.7a6.954 6.954 0 0 0-.325 1.675c-.209 2.925 1.008 5.659 3.65 8.2a109.04 109.04 0 0 0 3.775 3.45c.664.583 1.373 1.191 2.125 1.825.283.247.574.497.875.75 1.167.99 2.426 2.04 3.775 3.15.291.23.583.463.875.7a66.968 66.968 0 0 1 3.475-.75c1.448-.378 3.023-.636 4.725-.775 2.384-.179 5.017-.121 7.9.175a53.07 53.07 0 0 1 3.95.55c.743.137 1.451.287 2.125.45 8.152-.46 13.894 2.439 17.225 8.7.078-.955.061-1.822-.05-2.6.977.833 1.844 2.216 2.6 4.15.348-2.09-.735-4.24-3.25-6.45v1.7c-1.059-2.916-5.017-4.767-11.875-5.55 2.231-1.14 4.198-2.291 5.9-3.45 5.817-3.974 8.509-8.057 8.075-12.25-.166-1.606-.566-3.039-1.2-4.3a10.177 10.177 0 0 0-1.35-2.025.036.036 0 0 1 0-.025c-1.461-4.089-5.061-6.656-10.8-7.7 1.228-1.374 1.228-5.357 0-11.95-2.232-5.08-1.798-6.255 1.3-3.525-.428-1.126-.92-1.876-1.475-2.25M127.3 130.35c-.544 5.514-2.294 8.931-5.25 10.25h1.7c1.652 16.331-4.598 26.398-18.75 30.2.048.184.048.384 0 .6a1.437 1.437 0 0 1-.275.575c8.004-1.393 13.637-4.794 16.9-10.2.391-.652.75-1.335 1.075-2.05.351-.771.668-1.538.95-2.3.308-.811.583-1.619.825-2.425.155-.535.297-1.068.425-1.6.679-2.814.929-5.589.75-8.325a26.427 26.427 0 0 0-.7-4.525c2.103-2.578 2.886-5.978 2.35-10.2m-26.45 47.15c.664.748.931 1.506.8 2.275.173-.083.323-.175.45-.275 1.478-1.163 1.011-2.487-1.4-3.975-2.406-1.492-4.556-2.384-6.45-2.675H91.1c5.074 1.501 8.324 3.051 9.75 4.65" fill="#881c0d" fill-rule="evenodd"/>
    <path d="M83.875 75.425c-.593.056-1.084.164-1.475.325-.367.134-.6.35-.7.65-.5 1.3-1.4 1.95-2.7 1.95-.4 0-.7.134-.9.4-.633.8-.867 1.95-.7 3.45.133 1.367-.067 2.633-.6 3.8a28.811 28.811 0 0 1-1.85 3.25c-.733 1.167-1.083 2.417-1.05 3.75.033 1.44.624 2.623 1.775 3.55a37.214 37.214 0 0 1 3.5-1.175c.472-.136.93-.261 1.375-.375 5.785-1.902 8.736-8.202 8.85-18.9-.948-3.102-2.499-2.835-4.65.8a6.369 6.369 0 0 0-.875-1.475M90.15 83.2c3.842-2.795 7.45-3.57 10.825-2.325 3.372 1.244 5.497 3.019 6.375 5.325 1.446-.202 2.346.706 2.7 2.725.807-1.198.89-3.54.25-7.024a13.882 13.882 0 0 0-1.6-1.25 29.666 29.666 0 0 0-3.05-1.901c-1.133-.6-2.233-1.183-3.3-1.75-1.167-.6-2.383-.866-3.65-.8a23.685 23.685 0 0 0-3.75.5c-1.159.265-2.567.615-4.225 1.05a22.854 22.854 0 0 1-.575 5.45m30.3-6.95a6.52 6.52 0 0 0-3.15.6c-2.217-2.18-3.766-2.18-4.65 0l-.2-.625c-3.098-2.73-3.532-1.555-1.3 3.525 1.228 6.593 1.228 10.576 0 11.95 5.739 1.044 9.339 3.61 10.8 7.7 1.367-.3 2.2-1.166 2.5-2.6a9.112 9.112 0 0 0 0-3.8c-.3-1.233-.617-2.45-.95-3.65a21.73 21.73 0 0 0-1.3-3.35 35.804 35.804 0 0 0-1.85-3.35 9.11 9.11 0 0 0-2.6-2.7c-1.333-.933-1.117-1.633.65-2.1.8-.234 1.483-.767 2.05-1.6m-14.8 26.85l.1-.025c.322.29.688.549 1.1.775 1.1.6 2.133 1.25 3.1 1.95 1 .733 2.083 1.316 3.25 1.75 1.2.4 2.617.767 4.25 1.1.1 1.1-.75 1.484-2.55 1.15-.433-.1-.85-.184-1.25-.25-.633-.1-1.1.25-1.4 1.05-.433 1.266-1.25 1.917-2.45 1.95.984-1.19 1.617-2.732 1.9-4.625-1.821-.57-3.405-1.22-4.75-1.95-2.856 5.823-6.473 8.715-10.85 8.676a4.77 4.77 0 0 1-.45-.026c-4.162-.221-7.303-3.187-9.425-8.9-.462.19-.937.365-1.425.525.033.567.167 1 .4 1.3.7.8.65 1.417-.15 1.85-1.567.8-1.55 1.517.05 2.15 1.1.434 1.817 1.117 2.15 2.05-1.05.415-1.892.323-2.525-.275a3.453 3.453 0 0 1-.35-.45c-1.37-1.668-2.212-3.601-2.525-5.8-1.644.332-3.028.383-4.15.15a52.818 52.818 0 0 1-3.15-.775c.343.013.751-.012 1.225-.075a28.37 28.37 0 0 0 4.425-.974c1.488-.448 2.805-.914 3.95-1.401a27.07 27.07 0 0 0 2.975-1.45c2.157-2.915 2.965-4.482 2.425-4.7-2.133.279-4.267.88-6.4 1.8 2.263-3.213 2.697-4.596 1.3-4.15-8.196 1.749-13.037 3.949-14.525 6.6-.467.823-.609 1.69-.425 2.6.31 3.03 2.069 5.954 5.275 8.775a198.355 198.355 0 0 0 4.675 3.975c.598.118 1.182.285 1.75.5a19.54 19.54 0 0 0 3.5.95 14.223 14.223 0 0 0 3.5-1.1c.433-.233.967-.35 1.6-.35a27.71 27.71 0 0 0 3.7-.25l3.8-.5a422.5 422.5 0 0 0 3.85-.5 24.65 24.65 0 0 1 3.85-.3c1.3 0 2.6.034 3.9.1 1.133.1 2.083-.1 2.85-.6-.6-.534-.35-.867.75-1a8.236 8.236 0 0 0 3.45-1.3 246.67 246.67 0 0 0 3.05-1.9c1.167-.7 1.767-1.733 1.8-3.1.067-1.4-.233-2.65-.9-3.75a13.264 13.264 0 0 0-2.4-2.95 18.504 18.504 0 0 0-2.95-2.4c-1.033-.7-2.217-.917-3.55-.65-.233.034-.233.233 0 .6 1 1.534.967 2.583-.1 3.15a4.35 4.35 0 0 1-1.6.4 22.642 22.642 0 0 0-3.55.575.124.124 0 0 0-.05-.025zM77.4 136.425a18.008 18.008 0 0 1-.5-2.35c-.535-3.811.548-6.936 3.25-9.375.258-.242.533-.475.825-.7 1.033-.793 2.2-1.46 3.5-2 .84-.354 1.74-.654 2.7-.9a66.968 66.968 0 0 0-3.475.75l-.6.15a35.424 35.424 0 0 0-4.5 1.475c-.383.068-.649.16-.8.275-.15.113-.233.17-.25.175-.839.672-1.405 1.614-1.7 2.825a7.506 7.506 0 0 1-1.9 3.35c.767 1 .617 1.833-.45 2.5-1.367.833-1.3 1.65.2 2.45a14 14 0 0 0 3.65 1.35.259.259 0 0 1 .05.025m-1.175-54.9l.2-.475c.07-.171.129-.338.175-.5-2.164-1.736-5.181-.97-9.05 2.3-4.584 7.01-6.184 12.693-4.8 17.05 2.355 8.559 3.189 15.342 2.5 20.35-.416 3.649-1.708 6.948-3.875 9.9-2.167 2.956-6.225 2.123-12.175-2.5-1.195-1.618-2.503-2.16-3.925-1.625.035.558.16 1.208.375 1.95.641 2.198 1.641 4.023 3 5.475.317.336.65.653 1 .95-.743-.873-.81-1.823-.2-2.85 1.5 0 2.767.417 3.8 1.25.5.4 1.15.633 1.95.7 1.233.1 2.467.267 3.7.5 1.4.267 2.6-.033 3.6-.9a9.368 9.368 0 0 0 2.2-3.1c.5-1.067.833-2.2 1-3.4.167-1.2.35-2.383.55-3.55.167-1.233.317-2.483.45-3.75s.633-2.333 1.5-3.2c.467-.5 1.067-.734 1.8-.7-.392-1.728-.983-3.52-1.775-5.374a38.127 38.127 0 0 1-1.725-4.875 27.629 27.629 0 0 1-.8-3.951c-.232-1.851-.332-3.543-.3-5.075.036-1.535.786-3.943 2.25-7.224 1.466-3.278 4.324-5.736 8.575-7.375M100.85 177.5c-1.426-1.598-4.676-3.15-9.75-4.65h3.15c5.955.669 9.447.377 10.475-.875.136-.174.228-.365.275-.575a1.266 1.266 0 0 0 0-.6 1.339 1.339 0 0 0-.4-.7c-.937-.89-3.354-1.373-7.25-1.45 2.483-1.746 1.783-3.045-2.1-3.9.4-.7 1.217-1.067 2.45-1.1a15.221 15.221 0 0 0 3.65-.65c1.5-.433 2.667-.25 3.5.55.4.434.55.983.45 1.65-.267 1.534.433 2.217 2.1 2.05 1-.067 1.85-.3 2.55-.7a2.64 2.64 0 0 0 1.05-.85c.833-1.1 1.7-2.017 2.6-2.75a60.233 60.233 0 0 0 2.7-2.25c1-.8 1.85-1.65 2.55-2.55a13.375 13.375 0 0 0 1.8-3.25 21.943 21.943 0 0 0 1.05-3.7c.233-1.267.333-2.567.3-3.9 0-1.233.017-2.466.05-3.7.067-1.333-.333-2.483-1.2-3.45-.4-.433-.817-.833-1.25-1.2-.5-.4-.25-.8.75-1.2.867-.367 1.55-.916 2.05-1.65.433-1.3.35-2.4-.25-3.3-.567.067-1.05.2-1.45.4.367-1.933-.1-3.417-1.4-4.45-.8-.633-1.583-1.117-2.35-1.45a7.422 7.422 0 0 0-1.65-.525c1.117 1.539 1.667 3.347 1.65 5.425-.012 1.786-.445 3.769-1.3 5.95 3.941 7.34 4.749 12.958 2.425 16.85-.664 1.095-1.572 2.053-2.725 2.875-5.141 3.668-11.357 2.71-18.65-2.875a56.144 56.144 0 0 1-.45-.35 32.969 32.969 0 0 1-6.7 4c-2.967 1.367-5.95 1.4-8.95.1-2.7-1.166-4.767-3.067-6.2-5.7-1.367-2.566-1.733-5.3-1.1-8.2.488-2.338 1.48-4.33 2.975-5.975a72.407 72.407 0 0 1-1.975-.025c-1.267-.033-2.317.4-3.15 1.3-.933.934-1.35 2.117-1.25 3.55.067 1.3-.017 2.6-.25 3.9-.2 1.2-.3 2.433-.3 3.7-.033 1.367.083 2.65.35 3.85.167.267.3.567.4.9.2.567.383 1.15.55 1.75.167.567.367 1.117.6 1.65.233.6.533 1.15.9 1.65.333.5.6 1.017.8 1.55.2.567.483 1.1.85 1.6.333.433.65.867.95 1.3.4.534.833 1 1.3 1.4.433.367.883.733 1.35 1.1.5.434 1.017.85 1.55 1.25.467.4.967.75 1.5 1.05.533.3 1.067.583 1.6.85.433.233.883.467 1.35.7.467.2.933.45 1.4.75.5.367 1.033.7 1.6 1 .5.267.983.533 1.45.8.5.333.967.667 1.4 1 .467.4.95.733 1.45 1 .5.3 1.05.55 1.65.75.533.2 1.067.367 1.6.5.567.167 1.15.284 1.75.35l1.45.1c.667.033 1.317.033 1.95 0a2.963 2.963 0 0 0 1.75-.65" fill="#aa290f" fill-rule="evenodd"/>
    <path d="M105 170.8c14.152-3.802 20.402-13.87 18.75-30.2h-1.7c2.956-1.32 4.706-4.736 5.25-10.25l-1.65 1.4c-.756-1.934-1.623-3.317-2.6-4.15.111.778.128 1.645.05 2.6-3.331-6.26-9.073-9.16-17.225-8.7 4.526 1.106 7.667 2.864 9.425 5.275a7.422 7.422 0 0 1 1.65.525c.767.333 1.55.817 2.35 1.45 1.3 1.033 1.767 2.517 1.4 4.45.4-.2.883-.333 1.45-.4.6.9.683 2 .25 3.3-.5.734-1.183 1.283-2.05 1.65-1 .4-1.25.8-.75 1.2.433.367.85.767 1.25 1.2.867.967 1.267 2.117 1.2 3.45-.033 1.234-.05 2.467-.05 3.7a18.919 18.919 0 0 1-.3 3.9 21.943 21.943 0 0 1-1.05 3.7 13.375 13.375 0 0 1-1.8 3.25c-.7.9-1.55 1.75-2.55 2.55a60.233 60.233 0 0 1-2.7 2.25c-.9.733-1.767 1.65-2.6 2.75a2.64 2.64 0 0 1-1.05.85c-.7.4-1.55.633-2.55.7-1.667.167-2.367-.516-2.1-2.05.1-.667-.05-1.216-.45-1.65-.833-.8-2-.983-3.5-.55-1.2.367-2.417.584-3.65.65-1.233.033-2.05.4-2.45 1.1 4.431.326 5.998 1.242 4.7 2.75 2.872-.047 4.422.82 4.65 2.6.214.208.348.442.4.7" fill="#9e2110" fill-rule="evenodd"/>
    <path d="M107.3 131.25c-2.978-4.223-7.07-5.765-12.275-4.625-5.211 1.137-8.22 2.929-9.025 5.375.805-2.446 3.814-4.238 9.025-5.375 5.205-1.14 9.297.402 12.275 4.625m16.85-57.1c3.29-.987 5.432-1.928 6.425-2.825-.993.897-3.134 1.838-6.425 2.825m-3.65-5.825c-.373.819-1.157 1.535-2.35 2.15a11.435 11.435 0 0 0 0 0c1.193-.615 1.977-1.331 2.35-2.15m7.025 1c-1.257 1.279-3.15 2.388-5.675 3.325 2.526-.937 4.418-2.046 5.675-3.325M103.8 86.65c-.713 1.681-1.164 3.731-1.35 6.15.186-2.419.637-4.469 1.35-6.15m-8.025.5c.01.027.019.052.025.075.417 1.492.117 3.516-.9 6.075 1.017-2.559 1.317-4.583.9-6.075a.822.822 0 0 0-.025-.075m9.95 5.075c.193-4.553-.45-6.412-1.925-5.575-1.412.134-2.261 1.559-2.55 4.275a22.351 22.351 0 0 0 .6 8.075c.542-.08 1.642.437 3.3 1.55-1.696-2.176-2.038-3.426-1.025-3.75.618-.973 1.476-1.357 2.575-1.15.567-1.178 1.134-1.695 1.7-1.55.97-4.718.538-7.202-1.3-7.45-.761 1.491-1.22 3.349-1.375 5.575m-10.2-5.7c-1.055-.143-1.855 1.69-2.4 5.5.3-2.525.275-4.35-.075-5.475-1.75-.582-2.417 1.484-2 6.2-3.35.796-4.365 1.763-3.05 2.9 1.546.021 2.412.437 2.6 1.25.9.363.467 1.579-1.3 3.65 1.057-.494 1.89-.744 2.5-.75.845-.017 1.262.433 1.25 1.35 3.692-2.999 5.359-6.865 5-11.6-.153-2.132-.911-2.933-2.275-2.4a3.14 3.14 0 0 0-.25-.625m11.425 19.45c-1.372-.741-2.488-1.566-3.35-2.475a8.196 8.196 0 0 1-1.4-1.925c-.402-.778-.635-1.379-.7-1.8-.087-.474.03-.732.35-.775a22.351 22.351 0 0 1-.6-8.075c.289-2.716 1.138-4.141 2.55-4.275a9.35 9.35 0 0 1 .225-.325 4.476 4.476 0 0 1-1.175-1.075c-.233-.3-.5-.55-.8-.75a7.4 7.4 0 0 0-1.75-.7 9.412 9.412 0 0 0-1.9-.3 37.458 37.458 0 0 0-1.95-.05 17.295 17.295 0 0 0-1.85 0c-.667 0-1.266.217-1.8.65-.6.466-.917 1.15-.95 2.05.346-.004.745.128 1.2.4 1.165-.847 1.99-.856 2.475-.025.097.177.18.386.25.625 1.364-.533 2.122.268 2.275 2.4.359 4.735-1.308 8.601-5 11.6a19.493 19.493 0 0 1-3.45 2.825c.134 1.053.183 1.912.15 2.575 0 .134.033.25.1.35.3.534.75.95 1.35 1.25.333.2.45.45.35.75-.167.666-.133 1.284.1 1.85a5.79 5.79 0 0 0 1.05 1.6c.367.433.767.834 1.2 1.2.5.467 1.084.825 1.75 1.075.148.016.298.023.45.025 4.377.039 7.994-2.852 10.85-8.675m19.55 47.2c-.322 1.084-.231 2.11.275 3.075a18.286 18.286 0 0 1-.275-3.075M91.75 137.85c4.127 2.141 8.11 2.508 11.95 1.1-3.84 1.408-7.823 1.041-11.95-1.1m6.9-2.2v-3.1zm3.6 2.55c-2.141.766-4.508.766-7.1 0-1.198-.569-.031-1.418 3.5-2.55 2.817 1.173 4.017 2.023 3.6 2.55m2.625 3.6c1.7.027 3.442-.081 5.225-.325a37.435 37.435 0 0 0 2.425-.4c.817 1.352 1.225 2.91 1.225 4.675 0 2.167-.617 4.017-1.85 5.55-1.2 1.533-2.65 2.3-4.35 2.3-1.7 0-3.167-.767-4.4-2.3-1.2-1.533-1.8-3.383-1.8-5.55 0-1.524.3-2.891.9-4.1.86.086 1.736.136 2.625.15m-23.25 0c1.7.027 3.442-.081 5.225-.325a37.435 37.435 0 0 0 2.425-.4c.817 1.352 1.225 2.91 1.225 4.675 0 2.167-.617 4.017-1.85 5.55-1.2 1.533-2.65 2.3-4.35 2.3-1.7 0-3.167-.767-4.4-2.3-1.2-1.533-1.8-3.383-1.8-5.55 0-1.524.3-2.891.9-4.1.86.086 1.736.136 2.625.15m14.625 12.85c8.058 3.805 14.359 3.805 18.9 0 3.3-4.195 2.767-9.628-1.6-16.3 3.937-9.965-2.546-15.615-19.45-16.95-5.372-.41-10.022.691-13.95 3.3-2.702 2.439-3.785 5.564-3.25 9.375.107.756.273 1.539.5 2.35.107.352.224.71.35 1.075-.534.428-1.026.886-1.475 1.375-1.495 1.645-2.487 3.637-2.975 5.975-.633 2.9-.267 5.633 1.1 8.2 1.434 2.633 3.5 4.533 6.2 5.7 3 1.3 5.984 1.267 8.95-.1a32.969 32.969 0 0 0 6.7-4m-37.35-.75c1.434-.4 2.217-1.367 2.35-2.9a9.658 9.658 0 0 0-.3-3.65 6.597 6.597 0 0 0-1.8-3 40.27 40.27 0 0 0-2.325-1.925c-1.71 1.022-2.825 2.797-3.35 5.325-1.263 6.083.087 10.208 4.05 12.375 3.968 2.161 7.593 1.602 10.875-1.675a23.26 23.26 0 0 1-1.375-3.9c-1.261.759-2.678 1.017-4.25.775-1.2-.179-2.491-.655-3.875-1.425m24.85-83.2c-.975-.213-1.642-.479-2-.8-1.13-1.017-1.671-2.085-1.625-3.2-.046 1.115.496 2.183 1.625 3.2.358.321 1.025.587 2 .8m5.025 1.8c.939-3.372-.136-5.598-3.225-6.675-3.092-1.07-4.901-.778-5.425.875-4.046-2.231-6.27-2.548-6.675-.95-.098.508-.09.999.025 1.475.13.54.655 1.248 1.575 2.125.645.601 1.478 1.285 2.5 2.05-1.022-.765-1.855-1.449-2.5-2.05-4.4-2.979-6.532-3.012-6.4-.1.05.103.1.186.15.25 1.859 2.384 3.759 3.317 5.7 2.8-1.941.517-3.841-.416-5.7-2.8-.05-.064-.1-.147-.15-.25-.131-.341-.215-.891-.25-1.65-.931.196-1.356 1.112-1.275 2.75.085 1.632 1.01 2.625 2.775 2.975a11.52 11.52 0 0 1 4.8 2.175c.317-.326.667-.543 1.05-.65 1.07-.301 2.405.249 4 1.65-.323-1.368-.29-2.276.1-2.725.637-.752 2.27-.21 4.9 1.625 1.372-2.479 2.714-3.446 4.025-2.9M128.3 68c-2.393-3.304-4.993-3.195-7.8.325a2.66 2.66 0 0 0 .275-1.075c-.4-1.884-2.616-2.143-6.65-.775-4.028 1.366-5.078 3.866-3.15 7.5.555.374 1.047 1.124 1.475 2.25l.2.625c.884-2.18 2.434-2.18 4.65 0a6.52 6.52 0 0 1 3.15-.6.47.47 0 0 1 .075 0c1.129.066 1.796.191 2 .375 4.574-1.44 7.257-3.207 8.05-5.3.338-.272.58-.638.725-1.1V70.2c-.264-1.618-1.522-1.91-3.775-.875.273-.265.514-.54.725-.825.024-.172.04-.339.05-.5m-.15 92.175c-1.904.099-3.404-.817-4.5-2.75a34.218 34.218 0 0 1-.95 2.3 20.378 20.378 0 0 1-1.075 2.05c2.987 3.788 6.279 4.279 9.875 1.475 3.33-2.597 4.539-6.188 3.625-10.775a12.132 12.132 0 0 1-.05-.275 10.581 10.581 0 0 0-.6-1.85c.128.618.22 1.234.275 1.85.194 1.84.077 3.639-.35 5.4.044-2.247-.132-4.03-.525-5.35a14.879 14.879 0 0 0-3.725 1.5c-1.066.6-1.533 1.517-1.4 2.75s.75 2.267 1.85 3.1c-.88.353-1.696.545-2.45.575" fill="#ea9e44" fill-rule="evenodd"/>
    <path d="M120.775 67.25a3.43 3.43 0 0 0-.125-1.05c-.08-.416-.254-.749-.525-1 .27.251.445.584.525 1 .098.362.14.713.125 1.05M85.95 94.6c1.207-1.303 2.657-2.12 4.35-2.45-.29-4.002.226-6.002 1.55-6-1.324-.002-1.84 1.998-1.55 6-1.693.33-3.143 1.147-4.35 2.45m3.65 9.375a21.659 21.659 0 0 1-3.375 1.75c2.122 5.713 5.263 8.679 9.425 8.9a5.214 5.214 0 0 1-1.75-1.075 10.225 10.225 0 0 1-1.2-1.2 5.79 5.79 0 0 1-1.05-1.6c-.233-.566-.267-1.184-.1-1.85.1-.3-.017-.55-.35-.75-.6-.3-1.05-.716-1.35-1.25a.612.612 0 0 1-.1-.35c.033-.663-.017-1.522-.15-2.575m14.2-17.325c1.476-.837 2.118 1.022 1.925 5.575.155-2.226.614-4.084 1.375-5.575-1.11-1.395-2.134-1.504-3.075-.325.94-1.179 1.966-1.07 3.075.325 1.838.248 2.27 2.732 1.3 7.45-.566-.145-1.133.372-1.7 1.55-1.1-.207-1.957.177-2.575 1.15.777-.238 2.369.079 4.775.95-1.278-1.953-.911-2.97 1.1-3.05.278-2.458.295-4.383.05-5.775-.354-2.019-1.254-2.927-2.7-2.725-.878-2.306-3.003-4.081-6.375-5.325-3.375-1.245-6.983-.47-10.825 2.325-.657 2.8-1.84 5.533-3.55 8.2l-.65 3.2-.025.025c1.157.372 1.282 1.348.375 2.925 2.187-.699 3.62-.915 4.3-.65-.188-.813-1.054-1.229-2.6-1.25-1.315-1.137-.3-2.104 3.05-2.9-.417-4.716.25-6.782 2-6.2.35 1.125.375 2.95.075 5.475.545-3.81 1.345-5.643 2.4-5.5-.485-.831-1.31-.822-2.475.025-.455-.272-.855-.404-1.2-.4.033-.9.35-1.584.95-2.05a2.783 2.783 0 0 1 1.8-.65c.6-.033 1.217-.033 1.85 0 .667 0 1.317.017 1.95.05a9.412 9.412 0 0 1 1.9.3 7.4 7.4 0 0 1 1.75.7c.3.2.567.45.8.75.333.434.725.792 1.175 1.075a9.35 9.35 0 0 0-.225.325m2.075 34.85a39.573 39.573 0 0 0-2.125-.45 53.07 53.07 0 0 0-3.95-.55c-2.883-.296-5.516-.354-7.9-.175-1.702.139-3.277.397-4.725.775-.96.246-1.86.546-2.7.9-1.3.54-2.467 1.207-3.5 2-.292.225-.567.458-.825.7 3.928-2.609 8.578-3.71 13.95-3.3 16.904 1.335 23.387 6.985 19.45 16.95 4.367 6.672 4.9 12.105 1.6 16.3-4.542 3.805-10.842 3.805-18.9 0 .15.119.3.235.45.35 7.293 5.584 13.51 6.543 18.65 2.875 1.153-.822 2.06-1.78 2.725-2.875 2.325-3.892 1.516-9.509-2.425-16.85.855-2.181 1.289-4.165 1.3-5.95.017-2.078-.533-3.886-1.65-5.425-1.757-2.411-4.9-4.17-9.425-5.275m-49.05 20.925a40.27 40.27 0 0 1 2.325 1.925 6.597 6.597 0 0 1 1.8 3c.333 1.2.433 2.417.3 3.65-.133 1.533-.916 2.5-2.35 2.9 1.384.77 2.676 1.246 3.875 1.425.886-.564 1.46-1.456 1.725-2.675a16.757 16.757 0 0 0 .4-3.725 38.931 38.931 0 0 1-.25-3.425c0-1.2-.35-2.267-1.05-3.2-.286-.372-.586-.647-.9-.825-2.416-.267-4.374.05-5.875.95m23.3-75.725c.524-1.653 2.333-1.945 5.425-.875 3.089 1.077 4.164 3.303 3.225 6.675.545.235 1.087.735 1.625 1.5.036.217.069.434.1.65-.1-1.057.067-1.657.5-1.8.258-1.567.092-3.134-.5-4.7-1.735-1.674-3.536-2.792-5.4-3.35a10.176 10.176 0 0 0-1.75-.35l-.3-.025c-.708-.05-1.141.009-1.3.175-.505.295-.888.594-1.15.9-3.932-1.782-6.157-2.166-6.675-1.15a3.962 3.962 0 0 0-.2.45c-3.558-.621-5.341-.088-5.35 1.6-.004.445.004.845.025 1.2.035.759.119 1.309.25 1.65-.132-2.912 2-2.879 6.4.1-.92-.877-1.445-1.585-1.575-2.125a3.437 3.437 0 0 1-.025-1.475c.405-1.598 2.629-1.281 6.675.95.004-.1.012-.2.025-.3.035-.305.185-.605.45-.9-.265.295-.415.595-.45.9-.013.1-.021.2-.025.3m40.375 1.625c2.807-3.52 5.407-3.629 7.8-.325-.01.161-.026.328-.05.5-.211.285-.452.56-.725.825 2.253-1.035 3.51-.743 3.775.875.142-.461.042-1.227-.3-2.3-.352-1.095-1.278-1.395-2.775-.9-.462-2.279-3.162-2.879-8.1-1.8-.423-.381-1.082-.547-1.975-.5a8.574 8.574 0 0 0-1.55.225c-.888.203-1.922.536-3.1 1-3.133 1.237-4.75 3.546-4.85 6.925-.007.448.009.915.05 1.4.17-.125.337-.226.5-.3.649-.33 1.24-.322 1.775.025-1.93-3.634-.878-6.134 3.15-7.5 4.034-1.368 6.25-1.109 6.65.775a2.66 2.66 0 0 1-.275 1.075m10.1 77.95c-.3.272-.583.564-.85.875-.767.833-1.467 1.7-2.1 2.6-.7 1.033-1.083 2.133-1.15 3.3v.125c.007 1.057.099 2.082.275 3.075.01.037.02.07.025.1-.233 1.367.217 2.642 1.35 3.825.754-.03 1.57-.222 2.45-.575-1.1-.833-1.717-1.867-1.85-3.1s.334-2.15 1.4-2.75a14.879 14.879 0 0 1 3.725-1.5c.393 1.32.568 3.103.525 5.35.427-1.761.543-3.56.35-5.4a16.228 16.228 0 0 0-.275-1.85c-.79-1.838-2.08-3.196-3.875-4.075" fill="#dc8a38" fill-rule="evenodd"/>
    <path d="M107.15 146.9c.3-.3.45-.65.45-1.05s-.15-.75-.45-1.05c-.3-.3-.65-.45-1.05-.45s-.75.15-1.05.45c-.3.3-.45.65-.45 1.05s.15.75.45 1.05c.3.3.65.45 1.05.45s.75-.15 1.05-.45m2.95-5.425c.069.073.135.148.2.225.767.833 1.15 1.85 1.15 3.05 0 1.2-.383 2.233-1.15 3.1-.733.833-1.617 1.25-2.65 1.25s-1.933-.417-2.7-1.25c-.733-.867-1.1-1.9-1.1-3.1 0-1.152.342-2.136 1.025-2.95a31.373 31.373 0 0 1-2.625-.15c-.6 1.209-.9 2.576-.9 4.1 0 2.167.6 4.017 1.8 5.55 1.233 1.534 2.7 2.3 4.4 2.3 1.7 0 3.15-.766 4.35-2.3 1.233-1.533 1.85-3.383 1.85-5.55 0-1.765-.408-3.323-1.225-4.675-.816.162-1.625.295-2.425.4m-28.75 4.375c0 .4.15.75.45 1.05.3.3.65.45 1.05.45s.75-.15 1.05-.45c.3-.3.45-.65.45-1.05s-.15-.75-.45-1.05c-.3-.3-.65-.45-1.05-.45s-.75.15-1.05.45c-.3.3-.45.65-.45 1.05m.275-4.05a31.373 31.373 0 0 1-2.625-.15c-.6 1.209-.9 2.576-.9 4.1 0 2.167.6 4.017 1.8 5.55 1.233 1.534 2.7 2.3 4.4 2.3 1.7 0 3.15-.766 4.35-2.3 1.233-1.533 1.85-3.383 1.85-5.55 0-1.765-.408-3.323-1.225-4.675-.816.162-1.625.295-2.425.4.069.073.135.148.2.225.767.833 1.15 1.85 1.15 3.05 0 1.2-.383 2.233-1.15 3.1-.733.833-1.617 1.25-2.65 1.25s-1.933-.417-2.7-1.25c-.733-.867-1.1-1.9-1.1-3.1 0-1.152.342-2.136 1.025-2.95" fill="#fff" fill-rule="evenodd"/>
    <path d="M107.15 146.9c-.3.3-.65.45-1.05.45s-.75-.15-1.05-.45c-.3-.3-.45-.65-.45-1.05s.15-.75.45-1.05c.3-.3.65-.45 1.05-.45s.75.15 1.05.45c.3.3.45.65.45 1.05s-.15.75-.45 1.05m-2.275-5.1c-.683.814-1.025 1.798-1.025 2.95 0 1.2.367 2.233 1.1 3.1.767.833 1.667 1.25 2.7 1.25 1.033 0 1.917-.417 2.65-1.25.767-.867 1.15-1.9 1.15-3.1 0-1.2-.383-2.217-1.15-3.05a5.35 5.35 0 0 0-.2-.225 34.474 34.474 0 0 1-5.225.325m-23.525 4.05c0-.4.15-.75.45-1.05.3-.3.65-.45 1.05-.45s.75.15 1.05.45c.3.3.45.65.45 1.05s-.15.75-.45 1.05c-.3.3-.65.45-1.05.45s-.75-.15-1.05-.45c-.3-.3-.45-.65-.45-1.05m5.5-4.375a34.474 34.474 0 0 1-5.225.325c-.683.814-1.025 1.798-1.025 2.95 0 1.2.367 2.233 1.1 3.1.767.833 1.667 1.25 2.7 1.25 1.033 0 1.917-.417 2.65-1.25.767-.867 1.15-1.9 1.15-3.1 0-1.2-.383-2.217-1.15-3.05a5.35 5.35 0 0 0-.2-.225" fill-rule="evenodd"/>
    <path d="M62.7 141.475c.313.178.613.453.9.825.7.933 1.05 2 1.05 3.2.032 1.143.116 2.285.25 3.425a16.819 16.819 0 0 1-.4 3.725c-.264 1.22-.839 2.111-1.725 2.675 1.572.242 2.988-.016 4.25-.775-.95-3.662-.892-7.328.175-11 .088-.322.188-.646.3-.975-1.76-.572-3.36-.939-4.8-1.1m64.075 14.775c-.506-.965-.597-1.99-.275-3.075v-.125c.067-1.167.45-2.267 1.15-3.3.633-.9 1.333-1.767 2.1-2.6.267-.31.55-.603.85-.875-1.36-.677-3.01-1.077-4.95-1.2.18 2.736-.07 5.511-.75 8.325-.128.532-.27 1.065-.425 1.6a35.938 35.938 0 0 1-.825 2.425c1.095 1.933 2.595 2.85 4.5 2.75-1.134-1.183-1.583-2.458-1.35-3.825a1.12 1.12 0 0 0-.025-.1" fill="#ca7624" fill-rule="evenodd"/>
    <path d="M102.25 138.2c.417-.527-.783-1.377-3.6-2.55-3.531 1.132-4.698 1.981-3.5 2.55 2.592.766 4.958.766 7.1 0" fill="#b45a25" fill-rule="evenodd"/>
    <path d="M79.45 117.45a143.345 143.345 0 0 0 4.3 3.4c7.474-2.437 16.341-3.205 26.6-2.3 3.666.577 7.217-1.706 10.65-6.85 4.665-7.812 1.032-13.262-10.9-16.35-1.185.98-1.068 2.496.35 4.55-1.933-1.929-3.916-2.679-5.95-2.25l1.7 4.35c-1.633-1.535-3.2-2.277-4.7-2.225.065.421.298 1.022.7 1.8.351.68.818 1.321 1.4 1.925.8-.134 1.483-.267 2.05-.4l.05-.05c.02.004.037.013.05.025a22.507 22.507 0 0 1 3.55-.575 4.332 4.332 0 0 0 1.6-.4c1.067-.567 1.1-1.617.1-3.15-.234-.367-.234-.566 0-.6 1.333-.267 2.516-.05 3.55.65 1.067.7 2.05 1.5 2.95 2.4.967.9 1.766 1.883 2.4 2.95.667 1.1.967 2.35.9 3.75-.034 1.367-.634 2.4-1.8 3.1-1 .633-2.017 1.267-3.05 1.9a8.222 8.222 0 0 1-3.45 1.3c-1.1.133-1.35.466-.75 1-.767.5-1.717.7-2.85.6-1.3-.067-2.6-.1-3.9-.1-1.3 0-2.584.1-3.85.3-1.234.166-2.517.333-3.85.5l-3.8.5a27.72 27.72 0 0 1-3.7.25c-.634 0-1.167.116-1.6.35-1.167.533-2.333.9-3.5 1.1a19.453 19.453 0 0 1-3.5-.95 10.695 10.695 0 0 0-1.75-.5M91 72.85c-.433.143-.599.743-.5 1.8.144 1.038.22 2.071.225 3.1 1.658-.436 3.066-.785 4.225-1.05a23.456 23.456 0 0 1 3.75-.5 7.052 7.052 0 0 1 3.65.8c1.066.566 2.166 1.15 3.3 1.75 1.1.6 2.116 1.233 3.05 1.9.633.433 1.167.85 1.6 1.25a50.463 50.463 0 0 0-1-4.4c-.06-.22-.336-.662-.825-1.325-.28-.382-.372-.757-.275-1.125-3.259-3.127-8.993-3.86-17.2-2.2" fill="#a52210" fill-rule="evenodd"/>
    <path d="M107.3 131.25c-2.978-4.223-7.07-5.765-12.275-4.625-5.211 1.137-8.22 2.929-9.025 5.375m38.15-57.85c3.29-.987 5.432-1.928 6.425-2.825m-9.8-4.075a3.43 3.43 0 0 0-.125-1.05c-.08-.416-.254-.749-.525-1m.65 2.05a2.66 2.66 0 0 1-.275 1.075m0 0c-.373.819-1.157 1.535-2.35 2.15-.352.184-.745.359-1.175.525a17.78 17.78 0 0 1-1.825.6M128.3 68c-.01.161-.026.328-.05.5-.211.285-.452.56-.725.825-1.257 1.279-3.15 2.388-5.675 3.325M128.3 68a3.938 3.938 0 0 0-.075-1m-48.1-.3c.004-.1.012-.2.025-.3.035-.305.185-.605.45-.9m-5.55 3.85c-.92-.877-1.445-1.585-1.575-2.125a3.437 3.437 0 0 1-.025-1.475c.048-.31.14-.626.275-.95m1.325 4.55c.645.601 1.478 1.285 2.5 2.05m-3.05.9c-1.941.517-3.841-.416-5.7-2.8-.05-.064-.1-.147-.15-.25-.131-.341-.215-.891-.25-1.65m11.725-.9c-.046 1.115.496 2.183 1.625 3.2.358.321 1.025.587 2 .8m6.75 3.95c-.1-1.057.068-1.657.5-1.8M85.95 94.6c1.207-1.303 2.657-2.12 4.35-2.45-.29-4.002.227-6.002 1.55-6m11.95.5c-.713 1.681-1.164 3.731-1.35 6.15m1.575-6.475c.942-1.179 1.966-1.07 3.075.325-.761 1.491-1.22 3.349-1.375 5.575m-9.95-5.075c.01.027.019.052.025.075.417 1.492.117 3.516-.9 6.075m-1.85-6.75c.35 1.125.375 2.95.075 5.475M107.1 86.65c.083-.156.166-.305.25-.45 1.447-.202 2.346.706 2.7 2.725m-6.025-2.6a9.35 9.35 0 0 0-.225.325c-1.412.134-2.261 1.559-2.55 4.275a22.351 22.351 0 0 0 .6 8.075m-8.8 2.15c3.692-2.999 5.359-6.865 5-11.6-.153-2.132-.911-2.933-2.275-2.4a3.14 3.14 0 0 0-.25-.625c-.485-.831-1.31-.822-2.475.025-.455-.272-.854-.404-1.2-.4M110 94.7c.279-2.458.295-4.383.05-5.775M58.9 153.9c1.384.77 2.676 1.246 3.875 1.425 1.572.242 2.989-.016 4.25-.775m56.625 2.875c1.096 1.933 2.596 2.849 4.5 2.75m0 0c.754-.03 1.57-.222 2.45-.575m-38.85-21.75c4.127 2.141 8.11 2.508 11.95 1.1m-5.05-3.3v-3.1m6.225 9.25a31.373 31.373 0 0 1-2.625-.15c-.6 1.209-.9 2.576-.9 4.1 0 2.167.6 4.017 1.8 5.55 1.233 1.533 2.7 2.3 4.4 2.3 1.7 0 3.15-.767 4.35-2.3 1.233-1.533 1.85-3.383 1.85-5.55 0-1.765-.408-3.323-1.225-4.675-.816.162-1.624.295-2.425.4a34.474 34.474 0 0 1-5.225.325zm-18.025-.325a34.474 34.474 0 0 1-5.225.325m5.225-.325a37.435 37.435 0 0 0 2.425-.4c.817 1.352 1.225 2.91 1.225 4.675 0 2.167-.617 4.017-1.85 5.55-1.2 1.533-2.65 2.3-4.35 2.3-1.7 0-3.167-.767-4.4-2.3-1.2-1.533-1.8-3.383-1.8-5.55 0-1.524.3-2.891.9-4.1.86.086 1.736.136 2.625.15m33.675-15.025c-1.757-2.411-4.9-4.17-9.425-5.275a39.573 39.573 0 0 0-2.125-.45 53.07 53.07 0 0 0-3.95-.55c-2.883-.296-5.516-.354-7.9-.175-1.702.139-3.277.397-4.725.775-.96.246-1.86.546-2.7.9-1.3.54-2.467 1.207-3.5 2-.292.225-.567.458-.825.7-2.702 2.439-3.785 5.564-3.25 9.375.107.756.273 1.539.5 2.35.107.352.224.71.35 1.075-.534.428-1.026.886-1.475 1.375-1.495 1.645-2.487 3.637-2.975 5.975-.633 2.9-.267 5.633 1.1 8.2 1.434 2.633 3.5 4.533 6.2 5.7 3 1.3 5.984 1.267 8.95-.1a32.969 32.969 0 0 0 6.7-4c.15.119.3.235.45.35 7.293 5.584 13.51 6.543 18.65 2.875 1.153-.822 2.06-1.78 2.725-2.875 2.325-3.892 1.516-9.509-2.425-16.85.856-2.181 1.289-4.165 1.3-5.95.017-2.078-.533-3.886-1.65-5.425zm-47.8 15.8c-1.761-.572-3.361-.939-4.8-1.1-2.416-.267-4.374.05-5.875.95-1.71 1.022-2.825 2.797-3.35 5.325-1.263 6.083.087 10.208 4.05 12.375 3.968 2.161 7.593 1.602 10.875-1.675M91 72.85c.258-1.567.092-3.134-.5-4.7-1.735-1.674-3.535-2.792-5.4-3.35a10.176 10.176 0 0 0-1.75-.35 25.982 25.982 0 0 0-.3-.025c-.708-.05-1.141.009-1.3.175-.505.295-.888.594-1.15.9-3.932-1.782-6.157-2.166-6.675-1.15a3.962 3.962 0 0 0-.2.45c-3.558-.621-5.341-.088-5.35 1.6-.004.445.004.845.025 1.2-.931.196-1.356 1.112-1.275 2.75.085 1.632 1.01 2.625 2.775 2.975a11.52 11.52 0 0 1 4.8 2.175m47.825 1.125c4.574-1.44 7.257-3.207 8.05-5.3.338-.272.58-.638.725-1.1V70.2c.142-.461.042-1.227-.3-2.3-.352-1.095-1.278-1.395-2.775-.9-.462-2.279-3.162-2.879-8.1-1.8-.423-.381-1.082-.547-1.975-.5a8.574 8.574 0 0 0-1.55.225c-.888.203-1.922.536-3.1 1-3.133 1.237-4.75 3.546-4.85 6.925-.007.448.009.915.05 1.4m12.925 87.525c2.987 3.788 6.279 4.279 9.875 1.475 3.33-2.597 4.539-6.188 3.625-10.775a12.132 12.132 0 0 1-.05-.275 10.581 10.581 0 0 0-.6-1.85c-.79-1.838-2.08-3.196-3.875-4.075-1.36-.677-3.01-1.077-4.95-1.2" fill="none" stroke="#be6f21" stroke-width=".6" stroke-linecap="round" stroke-linejoin="round" stroke-miterlimit="3"/>
    <path d="M85.95 94.6l-.025.025M107.15 146.9c.3-.3.45-.65.45-1.05s-.15-.75-.45-1.05c-.3-.3-.65-.45-1.05-.45s-.75.15-1.05.45c-.3.3-.45.65-.45 1.05s.15.75.45 1.05c.3.3.65.45 1.05.45s.75-.15 1.05-.45zm-2.275-5.1c-.683.815-1.025 1.798-1.025 2.95 0 1.2.367 2.234 1.1 3.1.767.833 1.667 1.25 2.7 1.25 1.033 0 1.917-.417 2.65-1.25.767-.866 1.15-1.9 1.15-3.1 0-1.2-.383-2.216-1.15-3.05a5.46 5.46 0 0 0-.2-.225m-28.75 4.375c0 .4.15.75.45 1.05.3.3.65.45 1.05.45s.75-.15 1.05-.45c.3-.3.45-.65.45-1.05s-.15-.75-.45-1.05c-.3-.3-.65-.45-1.05-.45s-.75.15-1.05.45c-.3.3-.45.65-.45 1.05zm.275-4.05c-.683.815-1.025 1.798-1.025 2.95 0 1.2.367 2.234 1.1 3.1.767.833 1.667 1.25 2.7 1.25 1.033 0 1.917-.417 2.65-1.25.767-.866 1.15-1.9 1.15-3.1 0-1.2-.383-2.216-1.15-3.05a5.46 5.46 0 0 0-.2-.225" fill="none" stroke="#000" stroke-width=".1" stroke-linecap="round" stroke-linejoin="round" stroke-miterlimit="3"/>
    <path d="M102.25 138.2c-2.142.766-4.508.766-7.1 0-1.198-.569-.031-1.418 3.5-2.55 2.817 1.173 4.017 2.023 3.6 2.55z" fill="none" stroke="#743a18" stroke-width=".6" stroke-linecap="round" stroke-linejoin="round" stroke-miterlimit="3"/>
    <path d="M103.75 121.05c2.51.044 4.768.178 6.775.4m-26.825.4a66.968 66.968 0 0 1 3.475-.75m-10.95-39.574l.2-.476c.07-.171.129-.338.175-.5.41-1.306.144-2.264-.8-2.875a4.234 4.234 0 0 1-.55-.425m-1.6 20.15c.259-.118.526-.234.8-.35.418-.176.826-.343 1.225-.5a37.214 37.214 0 0 1 3.5-1.175c.472-.136.93-.261 1.375-.375a21.947 21.947 0 0 1 3.525-.525c.783-.044 1.4.006 1.85.15 1.157.372 1.282 1.348.375 2.925 2.187-.7 3.62-.915 4.3-.65.9.363.466 1.58-1.3 3.65 1.057-.494 1.89-.744 2.5-.75.845-.017 1.262.434 1.25 1.35a19.532 19.532 0 0 1-3.45 2.825 21.659 21.659 0 0 1-3.375 1.75c-.462.19-.937.365-1.425.525-.937.324-1.921.599-2.95.825.313 2.199 1.155 4.132 2.525 5.8.111.168.228.319.35.45m-17.025 16.3c.039-.567.156-1.242.35-2.025l.6.9m43.05-20.575c-1.821-.57-3.405-1.22-4.75-1.95-1.372-.74-2.489-1.566-3.35-2.475a8.176 8.176 0 0 1-1.4-1.925c-.402-.778-.635-1.38-.7-1.8-.087-.474.03-.732.35-.775.542-.08 1.642.437 3.3 1.55-1.696-2.176-2.038-3.426-1.025-3.75.777-.238 2.369.079 4.775.95-1.278-1.953-.911-2.97 1.1-3.05 1.105-.04 2.706.203 4.8.725 3.13.78 5.513 2.114 7.15 4 .527.615.977 1.29 1.35 2.025m-15.1-26.4c-.097.368-.005.743.275 1.125.489.663.764 1.105.825 1.325a50.396 50.396 0 0 1 1 4.4c.64 3.486.557 5.827-.25 7.025m-.25 23.625c.984-1.19 1.617-2.732 1.9-4.625.694.22 1.427.429 2.2.625M65.4 96.125c.036-1.535.786-3.943 2.25-7.224 1.466-3.278 4.324-5.736 8.575-7.375-.761 1.812-1.278 2.937-1.55 3.375A29.46 29.46 0 0 0 72.9 88.2c-.03.067-.063.134-.1.2-1.781 4.115-1.498 7.115.85 9-2.472 1.207-4.039 2.773-4.7 4.7a6.962 6.962 0 0 0-.325 1.676c-.209 2.924 1.008 5.658 3.65 8.199a108.04 108.04 0 0 0 3.775 3.45c.664.583 1.373 1.19 2.125 1.825.283.247.574.497.875.75 1.167.99 2.426 2.04 3.775 3.15.291.23.583.463.875.7l-.6.15a35.424 35.424 0 0 0-4.5 1.475c-.383.068-.649.16-.8.275-.15.113-.233.17-.25.175-2.28 1.075-4.08 2.35-5.4 3.825-.376-1.131-.501-1.93-.375-2.4-1.048 1.908-1.623 3.825-1.725 5.75-.708-1.038-1.174-1.904-1.4-2.6 1.63-2.922 2.222-6.422 1.775-10.5-.039-.363-.089-.73-.15-1.1-.078-.496-.17-.996-.275-1.5-.392-1.728-.983-3.52-1.775-5.374a38.127 38.127 0 0 1-1.725-4.875 27.629 27.629 0 0 1-.8-3.951c-.232-1.851-.332-3.543-.3-5.075zm29.85 68.625c3.883.855 4.583 2.154 2.1 3.9 3.896.077 6.313.56 7.25 1.45.214.208.348.442.4.7.048.184.048.384 0 .6-.047.21-.139.4-.275.575M86.6 91.4c1.71-2.667 2.893-5.401 3.55-8.201.41-1.793.602-3.61.575-5.45A23.53 23.53 0 0 0 90.4 74c-.538-.764-1.08-1.264-1.625-1.5-1.312-.546-2.653.42-4.025 2.9-2.629-1.834-4.263-2.376-4.9-1.624-.39.448-.423 1.356-.1 2.724-1.595-1.401-2.929-1.951-4-1.65-.383.107-.733.324-1.05.65-.256.605-.072 1.188.55 1.75-3.212.846-6.57 3.329-10.075 7.45-3.503 4.118-4.87 8.976-4.1 14.576.77 5.6 1.487 10.668 2.15 15.199.185 1.274.31 2.449.375 3.525.139 2.749-.136 4.849-.825 6.3-.958 2.02-2.325 3.57-4.1 4.65-1.765 1.076-3.265.609-4.5-1.4-1.24-2.007-2.19-3.225-2.85-3.65-.656-.421-1.972-.563-3.95-.425-1.468.098-2.168.949-2.1 2.55.035.558.16 1.208.375 1.95.641 2.198 1.641 4.023 3 5.475.317.336.65.653 1 .95a12.45 12.45 0 0 0 2.625 1.65c4.007 1.896 7.331 1.87 9.975-.075.224-.164.44-.331.65-.5 2.888-2.21 4.487-4.16 4.8-5.85-.321 3.732.379 6.374 2.1 7.925-.977 1.672-1.744 3.347-2.3 5.025-.111.329-.211.654-.3.975-1.067 3.672-1.125 7.338-.175 11a23.26 23.26 0 0 0 1.375 3.9 30.87 30.87 0 0 0 2.425 4.3c5.597 8.376 11.839 13.55 18.725 15.525 5.304 1.525 9.004 2.116 11.1 1.775a4.075 4.075 0 0 0 1-.275c.173-.083.323-.175.45-.275 1.478-1.162 1.011-2.487-1.4-3.975-2.406-1.492-4.556-2.384-6.45-2.675 5.955.669 9.447.377 10.475-.875 8.004-1.393 13.637-4.794 16.9-10.2.391-.652.75-1.335 1.075-2.05.351-.771.668-1.538.95-2.3.308-.811.583-1.62.825-2.425.155-.534.297-1.068.425-1.6.679-2.814.929-5.59.75-8.325a26.442 26.442 0 0 0-.7-4.525c2.103-2.578 2.886-5.978 2.35-10.2l-1.65 1.4c.348-2.09-.735-4.24-3.25-6.45v1.7c-1.059-2.916-5.017-4.766-11.875-5.55 2.231-1.14 4.198-2.291 5.9-3.45 5.817-3.973 8.509-8.056 8.075-12.25-.166-1.606-.566-3.04-1.2-4.3 6-2.861 5.117-10.128-2.65-21.8 1.886-1.442 2.511-2.451 1.875-3.025-.205-.183-.871-.308-2-.375a.47.47 0 0 0-.075 0 6.52 6.52 0 0 0-3.15.6c-2.217-2.18-3.766-2.18-4.65 0l-.2-.625c-.428-1.126-.92-1.876-1.475-2.25-.535-.347-1.126-.355-1.775-.025a2.926 2.926 0 0 0-.5.3c-.268.263-.435.529-.5.8-3.259-3.127-8.992-3.86-17.2-2.2" fill="none" stroke="#320a04" stroke-width=".6" stroke-linecap="round" stroke-linejoin="round" stroke-miterlimit="3"/>
    </g></svg>