<svg xmlns="http://www.w3.org/2000/svg" width="426.667" height="333.333" viewBox="0 0 426.66666 333.33334"><defs><clipPath id="a"><path d="M0 250h320V0H0z"/></clipPath><clipPath id="b"><path d="M0 250h320V0H0z"/></clipPath></defs><g clip-path="url(#a)" transform="matrix(1.33333 0 0 -1.33333 0 333.333)"><path d="M187.425 70.55c-.562.219-1.17.527-1.825.925l.05.1a11.966 11.966 0 0 1 1.775-1zm-23.5 60.1a3.437 3.437 0 0 0-.25-.075l-.05.125.3-.05" fill="#881c0d" fill-rule="evenodd"/><path d="M149.85 73.1a15.263 15.263 0 0 0 0 0m-10.55 60.825c1.757-.92 3.698-1.637 5.825-2.15 4.426-1.071 9.642-1.262 15.65-.574-6.008-.688-11.224-.497-15.65.574-2.127.513-4.068 1.23-5.825 2.15M173 195.9c.178-1.158-.372-2.017-1.65-2.574a8.135 8.135 0 0 0-1.425-.426c1.577-1.641.577-2.524-3-2.65 3.577.126 4.577 1.009 3 2.65a8.135 8.135 0 0 1 1.425.426c1.278.557 1.828 1.416 1.65 2.574m-7.9-144.725c-1.742.147-2.474 1.147-2.2 3-3.002-.488-4.344.554-4.025 3.125-1.043.29-1.918.632-2.625 1.026-.795.453-1.387.969-1.775 1.549a3.296 3.296 0 0 0-.575 1.875c3.623 1.93 6.574 4.648 8.85 8.15-2.433-.04-4.64.152-6.625.575-11.756-7.826-23.557-9.068-35.4-3.725-11.858 5.35-18.942 13.109-21.25 23.276-2.28 10.173-3.28 21.022-3 32.55.274 11.523-1.9 18.43-6.525 20.724-4.617 2.289-7.725.514-9.325-5.325-1.42-5.13-3.346-7.154-5.775-6.075a5.233 5.233 0 0 0-1.025.65c-1.254.938-2.154 1.988-2.7 3.15-.73 1.587-.83 3.379-.3 5.376.928 3.5 3.687 6.493 8.275 8.974 4.58 2.488 9.337 2.796 14.275.925 4.643-1.753 7.86-5.678 9.65-11.774.11-.414.218-.84.325-1.276 1.68-6.822 2.096-17.18 1.25-31.075-.837-13.89 3.663-24.35 13.5-31.375 9.827-7.036 20.41-7.828 31.75-2.375a13.908 13.908 0 0 0-2.725 2.525c-5.259 6.408-6.993 13.758-5.2 22.05 1.78 8.28 1.487 14.656-.875 19.125-2.552-3.51-4.344-7.492-5.375-11.95a6.253 6.253 0 0 0-.475-.475c-1.76-1.58-3.678-1.421-5.75.475-2.557-2.024-4.99-1.708-7.3.95a14.84 14.84 0 0 0-.875 1.15c-1.012-1.914-2.396-2.865-4.15-2.85-.86 0-1.81.233-2.85.7-.606 10.734 7.736 20.442 25.025 29.125a25.444 25.444 0 0 0-6.3 4.526c-.92-1.45-.92-3.067 0-4.851-2.719 1.274-4.402 3.324-5.05 6.15-.41-.69-.41-1.79 0-3.3-3.667 2.919-5.184 7.727-4.55 14.425.007.125.015.25.025.375l6.1 2.576c.442 2.94.718 6.006.825 9.199.092 2.72 0 5.31-.275 7.775-4.085 3.526-7.685 5.368-10.8 5.526-1.227.066-2.377-.125-3.45-.576.731 13.133 8.823 21.374 24.275 24.725 15.461 3.36 26.011 4.502 31.65 3.425 1.343-.258 2.476-.641 3.4-1.15 4.783-2.655 3.833-4.355-2.85-5.1.383-.646.617-1.23.7-1.75 4.02-2.201 6.754-5.284 8.2-9.25-1.15.695-2.492.828-4.025.4-1.982-.55-4.282-2.024-6.9-4.425-.18-.17-.363-.345-.55-.525-3.714 1.326-6.989 2.109-9.825 2.35-.136.01-.269.019-.4.025-.154.012-.304.02-.45.025-3.194.169-5.802-.39-7.825-1.674-3.928-2.483-5.845-6-5.75-10.551.082-4.566 1.632-9.124 4.65-13.675-1.753-3.556-2.444-7.314-2.075-11.274.36-3.64 1.667-6.914 3.925-9.826.448-.6.906-1.2 1.375-1.8 2.018-2.227 4.143-3.644 6.375-4.25.354-.091.704-.174 1.05-.25a28.302 28.302 0 0 1 2-.4c.281-.036.564-.07.85-.1l.05-.124c.085.022.168.046.25.074a26.25 26.25 0 0 1 1.175-.1c1.55-.073 3 .036 4.35.325a135.583 135.583 0 0 0 5.35-6.65c3.895-1.205 7.796-.588 11.7 1.85 2 .722 3.258.655 3.775-.2.37-.653.32-1.754-.15-3.3 2.535-3.315 2.86-5.257.975-5.825 2.197-3.063 2.78-5.322 1.75-6.775-1.084-1.47-3.875-2.086-8.375-1.85-1.398 3.24-3.23 6.616-5.5 10.125a99.187 99.187 0 0 1-2.85 4.175c-.188.264-.379.53-.575.8-1.322.599-2.588 1.049-3.8 1.35-3.87.93-7.237.388-10.1-1.624-3.757-2.622-5.107-6.247-4.05-10.875 1.042-4.636 2.45-9.028 4.225-13.175 1.778-4.161 3.08-7.178 3.9-9.051.664-1.507 1.438-2.007 2.325-1.5.19.116.39.282.6.5 2.963 1.132 5.697 1.939 8.2 2.426 4.47.91 8.203.793 11.2-.351 4.986-1.937 7.952-6.687 8.9-14.25-.129-2.963-1.12-4.23-2.975-3.8-.55.123-1.175.399-1.875.826-.212-2.647-1.254-3.847-3.125-3.601-.466.056-.984.206-1.55.45v.026c-.629.288-1.22.622-1.775 1l-.05-.101c-1.287-1.174-2.42-1.882-3.4-2.125-1.732-.433-2.982.6-3.75 3.1-6.006-1.646-11.238-2.496-15.7-2.55 4.462.054 9.694.904 15.7 2.55.768-2.5 2.018-3.533 3.75-3.1a28.071 28.071 0 0 1 .15-3.175v-.024a29.156 29.156 0 0 0-1-3.026c-2.578-6.321-7.252-10.254-14.025-11.8-.87-.156-1.612-.205-2.225-.15" fill="#aa290f" fill-rule="evenodd"/><path d="M163.175 152.675c-.981-.072-1.532-.28-1.65-.625.118.345.669.553 1.65.625m-18.05-110.95c2.967-.706 6.817 1.053 11.55 5.275-4.733-4.222-8.583-5.981-11.55-5.275m11.8 9.725c-2.146-3.123-4.221-4.34-6.225-3.65-1.467.477-2.567 1.385-3.3 2.726.733-1.341 1.833-2.25 3.3-2.726 2.004-.69 4.079.527 6.225 3.65m-23.575 46.1c-.198-1.385-.5-2.552-.9-3.5.4.948.702 2.115.9 3.5m-3 65.475c-2.315 5.78-6.874 7.247-13.675 4.4 6.8 2.847 11.36 1.38 13.675-4.4m31.176-10.975c-.905-.314-1.488-.631-1.751-.95.263.319.846.636 1.75.95m37.35-77.375c2.57.993 4.988 1.343 7.25 1.05-2.262.293-4.68-.057-7.25-1.05m9.225-4.7c-.065.104-.14.213-.225.325-1.67 2.748-5.594 2.84-11.775.275 6.18 2.565 10.106 2.473 11.775-.275.085-.112.16-.221.225-.325M199 113.75c-.181-.39-.198-1.29-.05-2.7-.148 1.41-.131 2.31.05 2.7m-1.75 5.975a7.89 7.89 0 0 1 0 0m-35.375 26.525c.417-3.387 1.2-5.786 2.35-7.2 1.737-2.117 4.304-3.133 7.7-3.05 3.398.083 6.349 3.4 8.85 9.95-7.451-2.223-13.868-.19-19.25 6.1.028-2.186.144-4.12.35-5.8m41.05-27c.196.955.263 2.13.2 3.526-.06 1.566-.393 2.816-1 3.749.607-.933.94-2.183 1-3.75.063-1.395-.004-2.57-.2-3.525m4.95 2.1c-.77-1.03-2.421-1.73-4.95-2.1-.29-1.36-.847-2.235-1.675-2.625a2.587 2.587 0 0 0-.575-.224 5.47 5.47 0 0 0-.7-.076c-1.017-.015-1.741.459-2.175 1.425-.242-2.034.158-3.367 1.2-4 .786-.471 1.928-.555 3.425-.25a.47.47 0 0 1 .1.026c2.77.565 4.578 1.548 5.425 2.949-.847-1.401-2.655-2.384-5.424-2.95a.47.47 0 0 0-.101-.025c-1.497-.305-2.64-.221-3.425.25-1.042.633-1.442 1.966-1.2 4 .434-.966 1.158-1.44 2.175-1.425.22.009.455.034.7.076.199.05.39.126.575.224.828.39 1.386 1.265 1.675 2.625 2.529.37 4.18 1.07 4.95 2.1m-36.025 39.525c3.266 1.56 6.866 2.018 10.8 1.375-3.934.643-7.534.185-10.8-1.375M181 157l1.2 2.85c-2.01.29-4.076-.051-6.2-1.025l5-1.825m-11.15 5.925c1.059 2.25 1.635 4.226 1.725 5.925.148 2.78-.994 4.83-3.424 6.15-4.143 2.253-7.46 1.728-9.951-1.575-2.491-3.302-2.533-7.385-.125-12.25 1.735.484 3.552.367 5.45-.35l5.8 1.025c.184.365.359.723.525 1.075m-39.775 7.875c.276-2.464.367-5.055.275-7.775a79.871 79.871 0 0 0-.825-9.2l-6.1-2.575a6.066 6.066 0 0 0-.175-.1 11.674 11.674 0 0 0-.675-.25c-4.853-1.82-8.27-.978-10.25 2.525-.798 1.413-1.365 3.254-1.7 5.525-1.19 8.236-.173 13.377 3.05 15.425a8.923 8.923 0 0 0 2.15 1.375c1.073.45 2.223.642 3.45.575 3.115-.157 6.715-2 10.8-5.525m-15.8-66c1.04-.467 1.99-.7 2.85-.7 1.755-.015 3.138.935 4.15 2.85.29-.42.58-.802.875-1.15 2.31-2.658 4.743-2.975 7.3-.95 2.072-1.897 3.989-2.055 5.75-.475 2.353-6.052 2.053-9.443-.9-10.175-.527-.134-1.144-.184-1.85-.15-1.266-2.968-3.566-3.793-6.9-2.475-2.546-1.095-4.88-.27-7 2.475-4.426-.223-6.026 2.652-4.8 8.625.137.668.312 1.376.525 2.125m40.2-44.925c.388-.58.98-1.096 1.775-1.55.708-.393 1.583-.735 2.625-1.025-.32-2.571 1.023-3.613 4.026-3.125-.275-1.854.458-2.854 2.199-3-.152-2.104-.52-3.763-1.1-4.975-2.56-5.518-5.477-7.476-8.75-5.875-.26-.186-.517-.37-.775-.55a5.145 5.145 0 0 0-.2-.124c-3.314-1.621-5.981-1.621-8 0-.397.565-.781 1.256-1.15 2.074-1.512.662-2.17 1.753-1.975 3.275.198 1.525.806 2.692 1.825 3.5a43.112 43.112 0 0 1 2.425 2.026 6.81 6.81 0 0 0 0 1.324c.13 1.68.93 3.08 2.4 4.2 1.503 1.074 3.062 2.35 4.675 3.825m27.875 6.3a28.307 28.307 0 0 0-.15 3.175c.98.243 2.114.95 3.4 2.125a11.843 11.843 0 0 1 1.825-.925c.566-.244 1.084-.395 1.55-.45 1.87-.246 2.913.954 3.125 3.6.7-.426 1.325-.702 1.875-.825 1.854-.43 2.846.837 2.975 3.8 4.092 1.367 7.15 1.05 9.175-.95a11.076 11.076 0 0 0 1.65-.324c.502-.137 1.127-.654 1.876-1.551.756-.887.24-2.178-1.551-3.875v-.05c1.333-2.526 0-4.202-4-5.024-4.206-.861-7.464-1.927-9.775-3.201-2.304-1.271-4.913-1.887-7.825-1.85-2.365.037-3.75 2.137-4.15 6.3zm5.7 24.75c-2.997 1.144-6.73 1.26-11.2.35-2.503-.486-5.237-1.293-8.2-2.425a3.099 3.099 0 0 0-.6-.5c-.887-.507-1.661-.007-2.325 1.5-.821 1.873-2.121 4.889-3.9 9.05-1.775 4.148-3.183 8.54-4.225 13.175-1.056 4.628.293 8.253 4.05 10.875 2.863 2.013 6.229 2.555 10.1 1.625 1.212-.301 2.479-.752 3.8-1.35.196-.27.388-.536.575-.8a99.842 99.842 0 0 0 2.85-4.175c2.269-3.51 4.102-6.885 5.5-10.125 2.589-5.912 3.78-11.645 3.575-17.2m4.8 19.05c1.03 1.453.447 3.712-1.75 6.775 1.886.568 1.56 2.51-.975 5.825.47 1.546.52 2.646.15 3.3.222.284.472.542.75.775 1.51 1.288 3.735 1.929 6.675 1.925 2.058-.007 3.533-.691 4.425-2.05 1.709.65 3.117.79 4.225.425 1.096-.364 1.77-1.598 2.025-3.7.086-.73-.081-1.364-.5-1.9.616-.443.859-1.293.725-2.55a8.825 8.825 0 0 0-.225-1.3 3.698 3.698 0 0 0-.425-1.025c.279-2.677-.221-4.577-1.5-5.7-.646-.585-1.504-.96-2.575-1.124-2.594-.41-4.17-.168-4.724.724-1.152-1.124-2.335-1.648-3.551-1.575-.896.049-1.812.44-2.75 1.175m-7.225 54.825c.304.113.587.263.85.45a121.418 121.418 0 0 0-.175-3.9c2.953-3.805 3.986-8.055 3.1-12.75-.93-4.806-3.255-8.722-6.975-11.75-3.88-3.072-8.205-5.064-12.975-5.975-1.35-.29-2.8-.398-4.35-.325a26.25 26.25 0 0 0-1.175.1l-.3.05c-.286.03-.57.064-.85.1a28.63 28.63 0 0 0-2 .4c-.346.076-.696.159-1.05.25-2.232.606-4.357 2.023-6.375 4.25-.468.6-.926 1.2-1.375 1.8-2.258 2.91-3.566 6.186-3.925 9.825-.37 3.96.323 7.719 2.075 11.275-3.018 4.55-4.568 9.109-4.65 13.675-.094 4.55 1.822 8.067 5.75 10.55 2.023 1.285 4.632 1.844 7.825 1.675.146-.005.296-.013.45-.025.13-.007.264-.015.4-.025 2.837-.241 6.11-1.024 9.825-2.35.187.179.37.355.55.525 2.619 2.4 4.919 3.876 6.9 4.425 1.533.428 2.875.295 4.025-.4.22-.124.437-.266.65-.425 2.245-1.734 3.678-5.392 4.3-10.975-1.346.923-2.546 1.482-3.6 1.675-1.075.174-2-.025-2.774-.6-1.527-1.125-2.393-2.625-2.601-4.5-.224-1.885.46-4.127 2.05-6.725l3.65-.15.125-.075a3.46 3.46 0 0 1 1.425-.3c.43.01.83.085 1.2.225" fill="#ea9e44" fill-rule="evenodd"/><path d="M161.875 146.25c1.887-2.56 3.895-4.143 6.025-4.75-2.13.607-4.138 2.19-6.025 4.75-.206 1.68-.322 3.614-.35 5.8 5.382-6.29 11.799-8.323 19.25-6.1-2.502-6.551-5.452-9.867-8.85-9.95-3.397-.083-5.963.933-7.7 3.05-1.15 1.413-1.933 3.813-2.35 7.2m22.425 23.575c.302-.299.451-.64.45-1.025a1.228 1.228 0 0 0-.45-.975 1.231 1.231 0 0 0-.975-.45c-.385-.001-.726.149-1.025.45-.263.26-.397.585-.4.975.003.385.137.726.4 1.025.299.263.64.396 1.025.4.39-.004.715-.137.975-.4m-19.475-3.55c-.255.26-.38.585-.375.975a1.5 1.5 0 0 0 .375 1.025c.307.263.656.396 1.05.4a1.395 1.395 0 0 0 1-.4c.302-.298.451-.64.45-1.025a1.228 1.228 0 0 0-.45-.975 1.282 1.282 0 0 0-1-.45c-.394-.001-.743.149-1.05.45m5.025-3.35c-.166-.352-.341-.71-.525-1.075l-5.8-1.025c-1.898.717-3.715.834-5.45.35-2.408 4.865-2.367 8.948.125 12.25 2.491 3.303 5.808 3.828 9.95 1.575 2.431-1.319 3.573-3.369 3.425-6.15a4.507 4.507 0 0 1-.825 1.125c-.864.858-1.923 1.282-3.175 1.275-1.262.007-2.328-.417-3.2-1.275-.857-.864-1.282-1.922-1.275-3.175-.007-1.261.418-2.328 1.275-3.2.872-.866 1.938-1.299 3.2-1.3.843.014 1.602.222 2.275.625m13.025 2.025l-3.65.15c-1.59 2.598-2.274 4.84-2.05 6.725.208 1.875 1.074 3.375 2.6 4.5.775.574 1.7.774 2.775.6 1.054-.194 2.254-.752 3.6-1.675.121-1.12.211-2.312.275-3.575a3.743 3.743 0 0 1-2 .575c-1.038-.007-1.946-.382-2.725-1.125-.734-.779-1.1-1.687-1.1-2.725 0-1.026.366-1.901 1.1-2.625.36-.362.752-.637 1.175-.825" fill="#fff" fill-rule="evenodd"/><path d="M184.3 169.825c-.26.263-.585.396-.975.4a1.534 1.534 0 0 1-1.025-.4 1.526 1.526 0 0 1-.4-1.025 1.33 1.33 0 0 1 .4-.975c.299-.3.64-.452 1.025-.45.39-.002.715.15.975.45.302.26.45.585.45.975 0 .385-.148.726-.45 1.025m-19.475-3.55c.307-.302.657-.45 1.05-.45.399 0 .732.148 1 .45.302.26.45.585.45.975 0 .385-.148.726-.45 1.025a1.391 1.391 0 0 1-1 .4 1.595 1.595 0 0 1-1.05-.4 1.512 1.512 0 0 1-.375-1.025c-.004-.39.12-.715.375-.975m6.75 2.575c-.09-1.7-.666-3.675-1.725-5.925-.673-.403-1.432-.61-2.275-.625-1.261.001-2.328.434-3.2 1.3-.857.872-1.282 1.938-1.275 3.2-.007 1.253.418 2.311 1.275 3.175.872.857 1.939 1.282 3.2 1.275 1.252.007 2.31-.418 3.175-1.275.344-.346.618-.72.825-1.125m14.9-3.6a3.624 3.624 0 0 0-.85-.45l-2.75.15 2.75-.15a3.594 3.594 0 0 0-1.2-.225c-.516.002-.99.103-1.425.3l-.125.075a3.843 3.843 0 0 0-1.175.825 3.548 3.548 0 0 0-1.1 2.625c0 1.038.366 1.946 1.1 2.725.779.742 1.687 1.117 2.725 1.125.74-.008 1.407-.2 2-.575.095-1.965.11-4.107.05-6.425" fill-rule="evenodd"/><path d="M181 157l-5 1.825c2.124.973 4.19 1.315 6.2 1.025z" fill="#b45a25" fill-rule="evenodd"/><path d="M149.85 73.1c.76-.53 1.583-.997 2.475-1.4a18.93 18.93 0 0 1 3.8-1.225m-1.65-10.6c.388-.58.98-1.096 1.775-1.55.707-.393 1.582-.735 2.625-1.025-.319-2.571 1.023-3.613 4.025-3.125-.274-1.853.458-2.853 2.2-3m-18.55 71.55a33.393 33.393 0 0 1-5.5-5.925m-26.775-12c1.04-.467 1.99-.7 2.85-.7 1.754-.015 3.138.936 4.15 2.85.29-.418.581-.802.875-1.15 2.31-2.658 4.743-2.974 7.3-.95 2.072-1.896 3.99-2.055 5.75-.475m4.1 29.55c1.757-.92 3.698-1.637 5.825-2.15 4.426-1.071 9.642-1.262 15.65-.574m-30.7 39.599a64.578 64.578 0 0 1-.425 3m.425-3c.275-2.464.367-5.055.275-7.775a79.854 79.854 0 0 0-.825-9.2m52.825-87.65v-.024m-19.6 3.75c4.462.053 9.694.903 15.7 2.55.768-2.5 2.018-3.534 3.75-3.101.98.243 2.113.95 3.4 2.125a11.934 11.934 0 0 1 1.825-.925c.566-.244 1.084-.394 1.55-.45 1.871-.246 2.913.954 3.125 3.6.7-.426 1.325-.702 1.875-.825 1.854-.43 2.846.837 2.975 3.8m-28.3 12.175c2.963 1.132 5.697 1.939 8.2 2.426 4.47.91 8.203.793 11.2-.351m4.8 19.05c1.03 1.453.447 3.712-1.75 6.775 1.885.568 1.56 2.51-.975 5.826.47 1.545.52 2.646.15 3.299m-14.15-3.45a99.187 99.187 0 0 0 2.85-4.175c2.27-3.51 4.102-6.884 5.5-10.125m-8.925 15.1c-.244.33-.494.664-.75 1m-4.875 68.675c-.31-.067-.643-.125-1-.175M173 195.9c.178-1.158-.372-2.017-1.65-2.574a8.135 8.135 0 0 0-1.425-.426c1.577-1.641.577-2.524-3-2.65m-52.65-85.45c-.606 10.734 7.736 20.442 25.025 29.125a25.444 25.444 0 0 0-6.3 4.526c-.92-1.45-.92-3.067 0-4.851-2.719 1.274-4.402 3.324-5.05 6.15-.41-.69-.41-1.79 0-3.3-3.667 2.919-5.184 7.727-4.55 14.425.007.125.015.25.025.375m31.05-91.375a3.296 3.296 0 0 0-.575 1.875c3.623 1.93 6.574 4.648 8.85 8.15-2.433-.04-4.64.152-6.625.575-11.756-7.826-23.557-9.068-35.4-3.725-11.858 5.35-18.942 13.109-21.25 23.276-2.28 10.173-3.28 21.022-3 32.55.274 11.523-1.9 18.43-6.525 20.724-4.617 2.289-7.725.514-9.325-5.325-1.42-5.13-3.346-7.154-5.775-6.075a5.233 5.233 0 0 0-1.025.65c-1.254.938-2.154 1.988-2.7 3.15-.73 1.587-.83 3.379-.3 5.376.928 3.5 3.687 6.493 8.275 8.974 4.58 2.488 9.337 2.796 14.275.925 4.643-1.753 7.86-5.678 9.65-11.774.11-.414.218-.84.325-1.276 1.68-6.822 2.096-17.18 1.25-31.075-.837-13.89 3.663-24.35 13.5-31.375 9.827-7.036 20.41-7.828 31.75-2.375a13.908 13.908 0 0 0-2.725 2.525c-5.259 6.408-6.993 13.758-5.2 22.05 1.78 8.28 1.487 14.656-.875 19.125-2.552-3.51-4.344-7.492-5.375-11.95a6.253 6.253 0 0 0-.475-.475m47.15-38.224a29.156 29.156 0 0 0-1-3.026c-2.578-6.321-7.252-10.254-14.025-11.8-.87-.156-1.612-.205-2.225-.15m27.75 58.8c-1.084-1.47-3.875-2.086-8.375-1.85 2.588-5.912 3.781-11.645 3.575-17.2 4.986-1.937 7.952-6.687 8.9-14.25m-27.5 54.2a135.583 135.583 0 0 0 5.35-6.65c3.895-1.205 7.796-.588 11.7 1.85 2 .722 3.258.655 3.775-.2m-74.45 49.875c.731 13.133 8.823 21.374 24.275 24.725 15.461 3.36 26.011 4.502 31.65 3.425 1.343-.258 2.476-.641 3.4-1.15 4.783-2.655 3.833-4.355-2.85-5.1.383-.646.617-1.23.7-1.75 4.02-2.201 6.754-5.284 8.2-9.25" fill="none" stroke="#320a04" stroke-width=".6" stroke-linecap="round" stroke-linejoin="round" stroke-miterlimit="3"/><path d="M163.175 152.675c-.981-.072-1.532-.28-1.65-.625m-16.4-110.325c2.967-.706 6.817 1.053 11.55 5.275m.25 4.45c-2.146-3.123-4.221-4.34-6.225-3.65-1.467.477-2.567 1.385-3.3 2.726m7.85-10.201a28.083 28.083 0 0 1 3.55 3.275m-25.45 53.95c-.198-1.385-.5-2.552-.9-3.5m-2.1 68.975c-2.315 5.78-6.874 7.247-13.675 4.4m44.85-15.375c-.904-.314-1.487-.631-1.75-.95m-2.8 9.725c.36.145.728.262 1.1.35m-28.55-7.35l-6.1-2.575m6.65 19.55c-4.085 3.526-7.685 5.368-10.8 5.525-1.227.067-2.377-.125-3.45-.575m83.05-101.075c2.57.993 4.988 1.343 7.25 1.05m1.975-5.75c-.065.104-.14.213-.225.325-1.67 2.748-5.594 2.84-11.775.275m-13.9-1.225a28.307 28.307 0 0 1 .15-3.175m-1.574 79.775c.962.289 1.946.647 2.949 1.075M199 113.75c-.181-.39-.198-1.29-.05-2.7.026-.256.092-.481.2-.675m-1.9 9.35a7.89 7.89 0 0 0 .175-.824c.09-.444.215-.828.375-1.151m-29.15-28.9a3.099 3.099 0 0 0-.6-.5c-.887-.507-1.661-.007-2.325 1.5-.821 1.873-2.121 4.889-3.9 9.05-1.775 4.148-3.183 8.54-4.225 13.175-1.056 4.628.293 8.253 4.05 10.875 2.863 2.013 6.229 2.555 10.1 1.625 1.212-.301 2.479-.752 3.8-1.35.196-.27.388-.536.575-.8m-14.25 23.825c.417-3.387 1.2-5.786 2.35-7.2 1.737-2.117 4.304-3.133 7.7-3.05 3.398.083 6.349 3.4 8.85 9.95-7.451-2.223-13.868-.19-19.25 6.1.028-2.186.144-4.12.35-5.8zm41.05-27c.196.955.263 2.13.2 3.526-.06 1.566-.393 2.816-1 3.749m5.75-5.175c-.77-1.03-2.421-1.73-4.95-2.1-.29-1.36-.847-2.235-1.675-2.625a2.587 2.587 0 0 0-.575-.224 5.47 5.47 0 0 0-.7-.076c-1.017-.015-1.741.459-2.175 1.425-.242-2.034.158-3.367 1.2-4 .786-.471 1.928-.555 3.425-.25a.47.47 0 0 1 .1.026c2.77.565 4.578 1.548 5.425 2.949m-36.1 44.4c3.266 1.56 6.866 2.018 10.8 1.375m.225 2.7l2.75-.15c.304.113.587.263.85.45M181 157a10.266 10.266 0 0 0-.974-4.325m-8.451 16.175c.148 2.78-.994 4.83-3.424 6.15-4.143 2.253-7.46 1.728-9.951-1.575-2.491-3.302-2.533-7.385-.125-12.25 1.735.484 3.552.367 5.45-.35l5.8 1.025m13.55 3.1l-3.65.15c-1.59 2.598-2.274 4.84-2.05 6.725.208 1.875 1.074 3.375 2.6 4.5.775.575 1.7.774 2.775.6 1.054-.193 2.254-.752 3.6-1.675m-26.65 9.225c-.154.012-.304.02-.45.025-3.193.169-5.802-.39-7.825-1.675-3.928-2.483-5.844-6-5.75-10.55.082-4.566 1.632-9.124 4.65-13.675-1.752-3.556-2.444-7.314-2.075-11.275.359-3.64 1.667-6.914 3.925-9.825.449-.6.907-1.2 1.375-1.8 2.018-2.227 4.143-3.644 6.375-4.25.354-.091.704-.174 1.05-.25a28.63 28.63 0 0 1 2-.4c.28-.036.564-.07.85-.1l.3-.05a26.25 26.25 0 0 1 1.175-.1c1.55-.073 3 .036 4.35.325m11.75 55.775c-1.15.695-2.492.828-4.025.4-1.981-.55-4.281-2.024-6.9-4.425-.18-.17-.363-.346-.55-.525-3.714 1.326-6.988 2.109-9.825 2.35m-36.475-33.2a6.066 6.066 0 0 0-.175-.1 11.674 11.674 0 0 0-.675-.25c-4.853-1.82-8.27-.978-10.25 2.525-.798 1.413-1.365 3.254-1.7 5.525-1.19 8.236-.173 13.377 3.05 15.425a8.923 8.923 0 0 0 2.15 1.375m19.375-71.375c2.353-6.052 2.053-9.443-.9-10.175-.527-.134-1.144-.184-1.85-.15-1.266-2.968-3.566-3.793-6.9-2.475-2.546-1.095-4.88-.27-7 2.475-4.426-.223-6.026 2.652-4.8 8.625.137.668.312 1.376.525 2.125M165.1 51.175c-.152-2.104-.52-3.763-1.1-4.975-2.56-5.518-5.477-7.476-8.75-5.875-.26-.186-.517-.37-.775-.55a5.145 5.145 0 0 0-.2-.124c-3.314-1.621-5.981-1.621-8 0-.397.565-.781 1.256-1.15 2.074-1.512.662-2.17 1.753-1.975 3.275.198 1.525.806 2.692 1.825 3.5a43.112 43.112 0 0 1 2.425 2.026 6.81 6.81 0 0 0 0 1.324c.13 1.68.93 3.08 2.4 4.2 1.503 1.074 3.062 2.35 4.675 3.825m42.475 16.8c4.092 1.367 7.15 1.05 9.175-.95a11.076 11.076 0 0 0 1.65-.324c.502-.137 1.127-.654 1.876-1.551.756-.887.24-2.178-1.551-3.875v-.05c1.333-2.526 0-4.202-4-5.024-4.206-.861-7.464-1.927-9.775-3.201-2.304-1.271-4.913-1.887-7.825-1.85-2.365.037-3.75 2.137-4.15 6.3m7.926 59.725c.22.284.47.542.75.775 1.509 1.288 3.734 1.929 6.674 1.925 2.058-.007 3.533-.691 4.425-2.05 1.709.65 3.117.79 4.225.425 1.096-.364 1.77-1.598 2.025-3.7.086-.73-.081-1.364-.5-1.9.616-.443.859-1.293.725-2.55a8.825 8.825 0 0 0-.225-1.3 3.698 3.698 0 0 0-.425-1.025c.279-2.677-.221-4.577-1.5-5.7-.646-.585-1.504-.96-2.575-1.124-2.594-.41-4.17-.168-4.724.724-1.152-1.124-2.335-1.648-3.551-1.575-.896.049-1.812.44-2.75 1.175m-6.375 55.275a121.418 121.418 0 0 0-.175-3.9c2.953-3.805 3.986-8.055 3.1-12.75-.93-4.806-3.255-8.722-6.975-11.75-3.88-3.072-8.205-5.064-12.975-5.975m11.75 55.775c.22-.124.437-.266.65-.425 2.245-1.734 3.678-5.392 4.3-10.975a63.2 63.2 0 0 0 .275-3.575" fill="none" stroke="#be6f21" stroke-width=".6" stroke-linecap="round" stroke-linejoin="round" stroke-miterlimit="3"/><path d="M169.325 161.85c.184.365.358.723.524 1.075m0 0c-.672-.403-1.43-.61-2.274-.625-1.262.001-2.328.434-3.2 1.3-.858.872-1.282 1.938-1.276 3.2-.006 1.253.418 2.311 1.276 3.175.872.857 1.938 1.282 3.2 1.275 1.252.007 2.311-.418 3.175-1.275.344-.346.618-.72.825-1.125-.09-1.7-.666-3.675-1.726-5.925zm13.026 2.025a3.866 3.866 0 0 0-1.175.825c-.734.723-1.1 1.598-1.1 2.625 0 1.038.366 1.946 1.1 2.725.778.743 1.687 1.118 2.725 1.125.74-.008 1.407-.2 2-.575m0 0c.094-1.965.111-4.107.05-6.425" fill="none" stroke="#000" stroke-width=".6" stroke-linecap="round" stroke-linejoin="round" stroke-miterlimit="3"/><path d="M181 157l-5 1.825c2.124.973 4.19 1.315 6.2 1.025z" fill="none" stroke="#743a18" stroke-width=".6" stroke-linecap="round" stroke-linejoin="round" stroke-miterlimit="3"/><path d="M161.875 146.25c1.887-2.56 3.895-4.143 6.025-4.75" fill="none" stroke="#666" stroke-width=".6" stroke-linecap="round" stroke-linejoin="round" stroke-miterlimit="3"/></g><g clip-path="url(#b)" transform="matrix(1.33333 0 0 -1.33333 0 333.333)"><path d="M139.29999999999998 133.925c1.757-.92 3.698-1.638 5.825-2.15 4.426-1.07 9.642-1.262 15.65-.575-6.008-.687-11.224-.496-15.65.575-2.127.512-4.068 1.23-5.825 2.15M173 195.9c.178-1.159-.372-2.017-1.65-2.575 1.278.558 1.828 1.416 1.65 2.575m-55.875-91.8c-.86 0-1.81.233-2.85.7-.606 10.733 7.736 20.442 25.025 29.125a25.415 25.415 0 0 0-6.3 4.525c-.92-1.45-.92-3.066 0-4.85-2.719 1.273-4.403 3.324-5.05 6.15-.41-.689-.41-1.789 0-3.3-3.667 2.918-5.184 7.727-4.55 14.425.007.124.015.25.025.375l3.025 1.275c.132-2.07.416-3.905.85-5.5.742-2.373 1.81-2.824 3.2-1.35.55.596 1.1.48 1.65-.35a152.98 152.98 0 0 0 2.725-3.875 13.544 13.544 0 0 1 3.575-3.45c.225 1.3 1.142 1.434 2.75.4 1.635-1.034 3.443-1.7 5.425-2l3.5-.525 1.3-.275c.48-.129 1.121-.096 1.925.1 2.017-2.228 4.142-3.645 6.375-4.25.354-.09.704-.174 1.05-.25a28.287 28.287 0 0 1 2-.4c.28-.037.564-.07.85-.1l.3-.05a179.82 179.82 0 0 0-4.725-1.525c-1.387-.48-2.904-.68-4.55-.6-1.6.09-3.2.115-4.8.075-1.637-.035-3.187.19-4.65.675a16.031 16.031 0 0 0-4.15 2.025c-1.14-.203-2.09-.453-2.85-.75-1.608-.604-3-1.446-4.175-2.525a76.051 76.051 0 0 0-3.875-3.125 248.777 248.777 0 0 1-4.15-3.025 18.818 18.818 0 0 1-3.425-3.25 24.782 24.782 0 0 1-2.85-3.875 18.202 18.202 0 0 1-1.95-4.15 18.543 18.543 0 0 1-1.05-4.775c-.04-.684.094-1.258.4-1.726m39.125-45.774c-.795.453-1.387.97-1.775 1.55a3.292 3.292 0 0 0-.575 1.875c3.623 1.93 6.573 4.647 8.85 8.15-2.433-.04-4.64.152-6.625.574-11.757-7.826-23.557-9.068-35.4-3.724-11.858 5.35-18.942 13.108-21.25 23.275-2.28 10.173-3.28 21.023-3 32.55.274 11.523-1.9 18.431-6.525 20.725-4.617 2.29-7.725.513-9.325-5.325-1.422-5.13-3.346-7.155-5.775-6.075.09 1.308.44 2.616 1.05 3.925a87.249 87.249 0 0 0 2.2 4.1c.813 1.478 1.713 2.761 2.7 3.85 1.088 1.258 2.372 2.042 3.85 2.35 1.59.291 3.263.366 5.025.225a9.5 9.5 0 0 0 4.675-1.75 40.626 40.626 0 0 0 3.7-2.85c1.384-1.206 2.292-2.606 2.725-4.2.386-1.552.578-3.169.575-4.85.012-1.692.045-3.383.1-5.075a61.99 61.99 0 0 1 .3-4.9c.132-1.383.307-2.767.525-4.15.265-1.608.465-3.217.6-4.825.123-1.642.181-3.283.175-4.925V93.925c.002-.313-.006-.629-.025-.95a17.318 17.318 0 0 0-.175-1.85c.144-.876.303-1.742.475-2.6A15.531 15.531 0 0 1 105.05 84a50.812 50.812 0 0 1 2.55-4.15 16.114 16.114 0 0 1 3.425-3.425 81.274 81.274 0 0 1 4.025-2.875 22.978 22.978 0 0 1 4.225-2.25 58.06 58.06 0 0 0 4-1.975 18.65 18.65 0 0 1 4.55-1.726c1.477-.348 3.127-.482 4.95-.399 1.718.094 3.393.252 5.025.475 1.641.17 3.283.362 4.925.575 1.52.213 3.061.662 4.625 1.35a88.737 88.737 0 0 0 4.975 2.1c-.892.402-1.716.87-2.475 1.4a13.885 13.885 0 0 0-2.725 2.525c-5.259 6.407-6.993 13.758-5.2 22.05 1.78 8.281 1.487 14.656-.875 19.125a33.353 33.353 0 0 0 5.5 5.924 37.748 37.748 0 0 0-.7-4.549 20.862 20.862 0 0 1-.45-4.95c-.005-1.683.12-3.367.375-5.05.257-1.687.191-3.287-.2-4.8a11.334 11.334 0 0 0-.9-2.575c1.774-.26 2.641-.912 2.6-1.95-1.166-.872-1.899-1.83-2.2-2.876-.35-1.379-.443-2.846-.275-4.399.784-.606 1.31-1.623 1.575-3.05a8.134 8.134 0 0 1 .975-2.65 61.49 61.49 0 0 1 2.625-4.2 12.52 12.52 0 0 1 3.65-3.576 22.502 22.502 0 0 1 4.275-2.274 42.032 42.032 0 0 1 4.675-1.55c1.513-.346 3.005-.672 4.475-.975 1.773-.299 3.481-.165 5.125.4a12.556 12.556 0 0 1 4.15 2.45c1.078.993 2.07 1.36 2.975 1.1.387-.129.646-.387.775-.776.426-1.12 1.284-1.895 2.575-2.324.225-.089.45-.263.675-.525a11.967 11.967 0 0 1 4.1-3.05v-.025c-.562.218-1.17.527-1.826.924-1.286-1.173-2.42-1.88-3.399-2.125-1.732-.432-2.982.601-3.75 3.101-6.006-1.646-11.238-2.496-15.7-2.55 4.462.054 9.694.904 15.7 2.55.768-2.5 2.018-3.533 3.75-3.1a28.303 28.303 0 0 1 .15-3.175v-.025a28.669 28.669 0 0 0-1-3.025c-.885 2.463-2.127 3.996-3.725 4.6-1.469.566-3.11.7-4.925.4a100.902 100.902 0 0 1-4.75-.925 10.203 10.203 0 0 1-4.425-1.925c-.812-.65-1.645-1.3-2.5-1.95a25.3 25.3 0 0 1-3.7-3.175c-.542-.585-.9-1.193-1.075-1.825m28.224 49.8c-1.397 3.24-3.23 6.615-5.5 10.125.914-1.266 2.063-2.39 3.451-3.375 1.43-1.043 2.947-1.352 4.55-.925 1.721.48 3.096 1.413 4.124 2.8 2.198-3.064 2.781-5.322 1.75-6.776-1.084-1.468-3.875-2.086-8.375-1.849M181.2 186.65c-1.15.695-2.492.828-4.025.4v.025c.118 1.814-.39 3.348-1.525 4.6-1.227 1.325-2.66 1.875-4.3 1.65a8.016 8.016 0 0 0-1.425-.425c1.577-1.64.577-2.525-3-2.65-1.165.777-2.265 1.144-3.3 1.1-1.473-.083-2.773.16-3.9.725 1.462.387 3.163.903 5.1 1.55 2.94.998 3.7 2.514 2.274 4.55.131.176.348.31.651.4 1.175.388 2.35.863 3.525 1.425 1.223.554 1.556 1.521 1 2.9a7.22 7.22 0 0 1-.525 1c1.343-.259 2.476-.642 3.4-1.15 4.783-2.655 3.833-4.356-2.85-5.1.383-.647.617-1.23.7-1.75 4.02-2.202 6.754-5.285 8.2-9.25" fill="#881c0d" fill-rule="evenodd"/><path d="M103.025 139.2a109.36 109.36 0 0 0-3.325 3.075 58.768 58.768 0 0 0-2.35 2.2 40.847 40.847 0 0 1-3.625 3.125c-1.164.858-2.631 1.717-4.4 2.575a11.434 11.434 0 0 1-4.675-.575 2.2 2.2 0 0 1-.775-.4 9.097 9.097 0 0 1-2.625-3.525 24.723 24.723 0 0 0-2.175-4.1 43.233 43.233 0 0 0-3.7-3.175 29.55 29.55 0 0 0-4.25-2.7c-.73 1.586-.83 3.378-.3 5.375.929 3.501 3.687 6.493 8.275 8.975 4.579 2.487 9.338 2.796 14.275.925 4.644-1.754 7.86-5.679 9.65-11.775m73.825-47.925c4.469.91 8.203.793 11.2-.35 4.986-1.938 7.952-6.688 8.9-14.25-.13-2.963-1.121-4.23-2.975-3.8-.093.39-.143.8-.15 1.224a16.987 16.987 0 0 1-.275 3.651 18.24 18.24 0 0 1-.25 1.075 6.87 6.87 0 0 1-1.15 2.625 19.148 19.148 0 0 1-3.525 3.7c-1.423 1.132-3.147 1.724-5.175 1.775-1.941.08-3.883.138-5.825.174-1.604.041-3.08-.133-4.425-.524a21.987 21.987 0 0 1-4.325-1.825c-1.125-.592-2.25-.709-3.375-.35a506.561 506.561 0 0 1 2.55 3.95c.19.116.39.282.6.5 2.963 1.131 5.697 1.94 8.2 2.425m-2.05 32.95c.256-.337.506-.67.75-1-1.321.598-2.588 1.048-3.8 1.35.155.637-.195 1.446-1.05 2.425-1.132 1.291-3 2.474-5.6 3.55 1.55-.073 3 .035 4.35.325a135.594 135.594 0 0 0 5.35-6.65m-2.525 78.675A197.458 197.458 0 0 0 147 198.075c-9.66-.928-17.176-5.31-22.55-13.15a38.343 38.343 0 0 1-1.925-3.025l-3.25-5.575c-1.227.066-2.377-.125-3.45-.575.73 13.132 8.823 21.374 24.275 24.725 15.46 3.36 26.01 4.502 31.65 3.425.22-.355.395-.688.525-1" fill="#d02b13" fill-rule="evenodd"/><path d="M188.975 70.1c-.466.056-.983.206-1.55.45v.026c1.035-.213 1.552-.372 1.55-.476m-42.425 52.625a33.43 33.43 0 0 1-5.5-5.925c-2.551-3.51-4.343-7.492-5.375-11.95a6.249 6.249 0 0 0-.474-.475c-1.762-1.58-3.68-1.421-5.75.475-2.558-2.024-4.991-1.708-7.301.95-.141.76-.133 1.445.025 2.05.393 1.519.635 3.103.725 4.75.137 1.722.77 3.205 1.9 4.45a19.07 19.07 0 0 0 3.65 3.325 85.343 85.343 0 0 0 4.1 2.85 16.66 16.66 0 0 0 4.276 2.2 15.34 15.34 0 0 0 4.875.776 48.816 48.816 0 0 0 5.074-.276c1.634-.121 3.267-.221 4.9-.3a27.565 27.565 0 0 1 5 .3 15.74 15.74 0 0 1 4.726 1.375c1.643.738 2.877 1.82 3.699 3.25 2.602-1.075 4.469-2.258 5.6-3.55.855-.98 1.206-1.787 1.05-2.424-3.871.929-7.237.387-10.1-1.625-3.757-2.622-5.106-6.247-4.05-10.875 1.042-4.636 2.45-9.028 4.226-13.175 1.778-4.161 3.079-7.178 3.899-9.051.664-1.507 1.438-2.007 2.325-1.5a462.557 462.557 0 0 0-2.55-3.95c1.125-.36 2.25-.241 3.375.35a21.94 21.94 0 0 0 4.326 1.826c1.344.39 2.82.565 4.424.524 1.942-.036 3.884-.095 5.826-.175 2.027-.051 3.752-.642 5.174-1.774a19.211 19.211 0 0 0 3.526-3.7 6.885 6.885 0 0 0 1.149-2.625c.094-.355.177-.713.25-1.076-.807-.744-1.841-1.277-3.1-1.6-.39-.087-.714-.046-.975.126-1.34.908-2.723 1.816-4.15 2.724-1.51.955-3.084 1.197-4.725.725a39.36 39.36 0 0 1-3.425-1.125 10.956 10.956 0 0 0-5-.5 39.67 39.67 0 0 0-5 1.075 36.256 36.256 0 0 0-4.6 1.825 24.287 24.287 0 0 0-3.95 2.326 12.707 12.707 0 0 0-3.375 3.599 199.171 199.171 0 0 1-2.65 3.875 40.245 40.245 0 0 0-2.675 4.15 14.541 14.541 0 0 0-1.6 4.475 28.892 28.892 0 0 0-.4 4.75c-.05 1.634.009 3.267.175 4.9a22.86 22.86 0 0 0 1.075 4.876c.474 1.509.625 3.085.45 4.724-.182 1.739-1.207 3.089-3.075 4.05M71.125 135.7a29.547 29.547 0 0 1 4.25 2.699 43.437 43.437 0 0 1 3.7 3.176 24.823 24.823 0 0 1 2.175 4.099 9.12 9.12 0 0 0 2.625 3.526c.215.176.474.309.775.399 1.515.516 3.074.708 4.676.575 1.769-.858 3.235-1.716 4.399-2.575a40.682 40.682 0 0 0 3.625-3.125 59.548 59.548 0 0 1 2.35-2.2 109.292 109.292 0 0 1 3.325-3.074c.11-.414.218-.84.325-1.276 1.68-6.822 2.097-17.18 1.25-31.075-.837-13.89 3.663-24.35 13.5-31.375 9.827-7.036 20.41-7.828 31.75-2.375.759-.53 1.584-.997 2.476-1.4a88.776 88.776 0 0 1-4.976-2.1c-1.563-.688-3.104-1.137-4.625-1.35a191.894 191.894 0 0 0-4.925-.575 62.183 62.183 0 0 0-5.025-.474c-1.822-.083-3.472.05-4.95.399-1.602.38-3.12.956-4.55 1.726a57.38 57.38 0 0 1-4 1.974 23.165 23.165 0 0 0-4.225 2.25 82.227 82.227 0 0 0-4.025 2.875 16.142 16.142 0 0 0-3.425 3.425 50.965 50.965 0 0 0-2.55 4.15 15.535 15.535 0 0 0-1.724 4.526 75.159 75.159 0 0 0-.476 2.599c.094.628.152 1.246.175 1.85.019.32.028.638.025.95v14.901a62.31 62.31 0 0 1-.175 4.924 61.132 61.132 0 0 1-.6 4.826 69.047 69.047 0 0 0-.525 4.149 61.962 61.962 0 0 0-.3 4.9 195.32 195.32 0 0 0-.1 5.076 19.82 19.82 0 0 1-.575 4.849c-.432 1.595-1.341 2.995-2.725 4.2a40.31 40.31 0 0 1-3.7 2.85 9.474 9.474 0 0 1-4.675 1.75c-1.761.142-3.436.066-5.025-.225-1.477-.307-2.761-1.091-3.85-2.35-.986-1.09-1.886-2.372-2.7-3.85a89.097 89.097 0 0 1-2.2-4.1c-.61-1.308-.96-2.616-1.05-3.925a5.228 5.228 0 0 0-1.024.65c-1.255.938-2.155 1.988-2.701 3.15M165.1 51.176c-1.741.147-2.474 1.147-2.2 3-3.002-.488-4.343.554-4.025 3.125-1.042.29-1.917.632-2.625 1.026.175.63.534 1.24 1.076 1.825a25.309 25.309 0 0 0 3.7 3.175 125.06 125.06 0 0 1 2.5 1.95 10.198 10.198 0 0 0 4.425 1.925c1.604.35 3.187.66 4.75.924 1.814.299 3.456.166 4.924-.4 1.599-.604 2.84-2.137 3.725-4.6-2.577-6.321-7.252-10.254-14.024-11.8-.871-.156-1.613-.205-2.226-.15m25.176 74.7c.369-.653.319-1.754-.151-3.3 2.536-3.315 2.86-5.257.975-5.825-1.028-1.386-2.403-2.32-4.125-2.8-1.603-.426-3.12-.118-4.55.925-1.388.985-2.537 2.11-3.45 3.375a99.187 99.187 0 0 1-2.85 4.175c-.187.264-.38.53-.575.8-.244.33-.494.664-.75 1 3.896-1.205 7.796-.588 11.7 1.85 2 .722 3.258.655 3.776-.2M153.35 135.7c-.804-.196-1.445-.23-1.925-.101l-1.3.275-3.5.525c-1.981.3-3.79.966-5.424 2-1.61 1.034-2.526.9-2.75-.4a13.552 13.552 0 0 0-3.576 3.45 152.98 152.98 0 0 1-2.725 3.876c-.55.829-1.1.946-1.65.349-1.39-1.473-2.457-1.023-3.2 1.35-.434 1.596-.718 3.429-.85 5.5l3.075 1.3c.443 2.94.718 6.007.825 9.2.092 2.72 0 5.31-.274 7.775-4.085 3.526-7.685 5.368-10.801 5.526l3.25 5.574a38.066 38.066 0 0 0 1.926 3.025c5.374 7.84 12.89 12.223 22.549 13.15a197.502 197.502 0 0 1 25.276 4.825c.555-1.38.222-2.345-1-2.9a30.144 30.144 0 0 0-3.526-1.424c-.302-.091-.52-.224-.65-.401 1.425-2.035.666-3.552-2.274-4.55a85.071 85.071 0 0 0-5.101-1.55c1.128-.565 2.428-.807 3.9-.725 1.036.044 2.135-.322 3.3-1.1 3.577.126 4.577 1.009 3 2.65a8.109 8.109 0 0 1 1.425.426c1.64.225 3.073-.326 4.3-1.651 1.136-1.252 1.643-2.785 1.525-4.6v-.025c-1.981-.55-4.281-2.024-6.9-4.425-.18-.17-.363-.345-.55-.525-3.714 1.326-6.988 2.109-9.825 2.35-.135.01-.27.019-.4.025-.154.012-.304.02-.45.025-3.193.169-5.802-.39-7.825-1.674-3.928-2.483-5.844-6-5.75-10.551.082-4.566 1.632-9.124 4.65-13.675-1.752-3.556-2.444-7.314-2.075-11.274.359-3.64 1.667-6.914 3.925-9.826.449-.6.907-1.2 1.375-1.8" fill="#aa290f" fill-rule="evenodd"/><path d="M163.175 152.675c-.981-.072-1.532-.28-1.65-.625.118.345.669.553 1.65.625m-18.05-110.95c2.967-.706 6.817 1.053 11.55 5.275-4.733-4.222-8.583-5.981-11.55-5.275m11.8 9.725c-2.146-3.123-4.221-4.34-6.225-3.65-1.467.477-2.567 1.385-3.3 2.726.733-1.341 1.833-2.25 3.3-2.726 2.004-.69 4.079.527 6.225 3.65m-23.575 46.1c-.198-1.385-.5-2.552-.9-3.5.4.948.702 2.115.9 3.5m28.176 54.5c-.905-.314-1.488-.631-1.751-.95.263.319.846.636 1.75.95m37.35-77.375c2.57.993 4.988 1.343 7.25 1.05-2.262.293-4.68-.057-7.25-1.05m9.225-4.7c-.065.104-.14.213-.225.325-1.67 2.748-5.594 2.84-11.775.275 6.18 2.565 10.106 2.473 11.775-.275.085-.112.16-.221.225-.325M176.85 91.276c-2.503-.487-5.237-1.294-8.2-2.426a3.099 3.099 0 0 0-.6-.5c-.887-.507-1.661-.007-2.325 1.5-.821 1.873-2.121 4.889-3.9 9.05-1.775 4.148-3.183 8.54-4.225 13.175-1.056 4.628.293 8.253 4.05 10.875 2.863 2.013 6.229 2.555 10.1 1.625-.14-.518-.607-.927-1.4-1.225 1.68-.733 3.299-1.832 4.85-3.3 1.35-1.257 2.483-2.773 3.4-4.55a32.287 32.287 0 0 0 2.625-6.95c.617-2.322.867-4.73.75-7.225a19.962 19.962 0 0 0-.475-3.6 6.673 6.673 0 0 0-1.075-2.574c-.608-.785-1.8-2.077-3.575-3.875m-14.975 54.974c.417-3.387 1.2-5.786 2.35-7.2 1.737-2.117 4.304-3.133 7.7-3.05 3.398.083 6.349 3.4 8.85 9.95-7.451-2.223-13.868-.19-19.25 6.1.028-2.186.144-4.12.35-5.8m9.975 14.625c3.266 1.56 6.866 2.018 10.8 1.375-3.934.643-7.534.185-10.8-1.375M181 157l1.2 2.85c-2.01.29-4.076-.051-6.2-1.025l5-1.825m-11.15 5.925c1.059 2.25 1.635 4.226 1.725 5.925.148 2.78-.994 4.83-3.424 6.15-4.143 2.253-7.46 1.728-9.951-1.575-2.491-3.302-2.533-7.385-.125-12.25 1.735.484 3.552.367 5.45-.35l5.8 1.025c.184.365.359.723.525 1.075m-39.775 7.875c.276-2.464.367-5.055.275-7.775-2.315 5.78-6.874 7.247-13.675 4.4 1.38-.82 2.264-2.027 2.65-3.625.394-1.51.377-3.085-.05-4.725-.396-1.517-1.246-2.775-2.55-3.775-1.337-1.035-2.803-1.66-4.4-1.875-.798 1.413-1.365 3.254-1.7 5.525-1.19 8.236-.173 13.377 3.05 15.425a8.923 8.923 0 0 0 2.15 1.375c1.073.45 2.223.642 3.45.575 3.115-.157 6.715-2 10.8-5.525m-16.325-68.125c1.95-.692 3.792-1.126 5.525-1.3 1.558-.172 3.117-.321 4.675-.45a24.634 24.634 0 0 1 5.05 0c.728.082 1.478-.01 2.25-.274 1.118-.405 1.794-1.054 2.025-1.951.092-.298.125-.631.1-1l-.025-.15c.48-1.092.798-2.208.95-3.35-.527-.134-1.144-.184-1.85-.15-1.266-2.968-3.566-3.793-6.9-2.475-2.546-1.095-4.88-.27-7 2.475-4.426-.223-6.026 2.652-4.8 8.625M149.8 56.05c3.983.267 6.583-.267 7.8-1.6a19.657 19.657 0 0 0 2.625-3.525c.87-1.424 2.128-2.998 3.775-4.725-2.56-5.518-5.477-7.476-8.75-5.875-.26-.186-.517-.37-.775-.55a5.145 5.145 0 0 0-.2-.124c-3.182-1.932-5.848-1.932-8 0-.397.565-.781 1.256-1.15 2.074-1.512.662-2.17 1.753-1.975 3.275.198 1.525.806 2.692 1.825 3.5a43.112 43.112 0 0 1 2.425 2.026 6.81 6.81 0 0 0 0 1.324c.13 1.68.93 3.08 2.4 4.2m58.3 13.875a292.197 292.197 0 0 0-5-2.15 35.784 35.784 0 0 0-4.625-1.475c-1.55-.391-3.1-.675-4.65-.85-1.683-.13-3.584-.13-5.7 0a.681.681 0 0 0 0 .8 6.334 6.334 0 0 0 2.85 2.25c1.637.692 2.712 1.859 3.225 3.5-.1.28-.175.57-.225.875 1.854-.43 2.846.837 2.975 3.8 4.092 1.367 7.15 1.05 9.175-.95a11.076 11.076 0 0 0 1.65-.324c.502-.137 1.127-.654 1.876-1.551.756-.887.24-2.178-1.551-3.875zm-10.85 49.8a7.89 7.89 0 0 0 .175-.824c.09-.444.215-.828.375-1.151-.242-2.034.158-3.367 1.2-4-.181-.39-.198-1.29-.05-2.7.026-.256.092-.481.2-.675-1.151-1.124-2.334-1.648-3.55-1.575a85.95 85.95 0 0 0-.3 2.476 82.078 82.078 0 0 0-.5 4.799c-.21 2.24.608 3.457 2.45 3.65m5.276-6.2c2.769.566 4.577 1.549 5.424 2.95.279-2.677-.221-4.577-1.5-5.7a32.596 32.596 0 0 0-3.924 2.75m5.349 7.825c-.77-1.03-2.421-1.73-4.95-2.1 2.529.37 4.18 1.07 4.95 2.1m-6.625-4.725a2.587 2.587 0 0 0-.575-.224 5.47 5.47 0 0 0-.7-.076c-.731 1.49-.964 3.315-.7 5.475-1.82.13-3.335.673-4.55 1.625a37.875 37.875 0 0 0-3.7 3.225c1.51 1.288 3.735 1.929 6.675 1.925 2.058-.007 3.533-.691 4.425-2.05 1.709.65 3.117.79 4.225.425 1.096-.364 1.77-1.598 2.025-3.7.086-.73-.081-1.364-.5-1.9.616-.443.859-1.293.725-2.55a10.37 10.37 0 0 1-1.925-1.35c-1.125-.943-2.934-1.217-5.425-.825.828.39 1.386 1.265 1.675 2.625.196.955.263 2.13.2 3.526-.06 1.566-.393 2.816-1 3.749.607-.933.94-2.183 1-3.75.063-1.395-.004-2.57-.2-3.525-.29-1.36-.847-2.235-1.675-2.625m-18.375 48.325l.125-.075a3.46 3.46 0 0 1 1.425-.3 3.619 3.619 0 0 1 2.05.675 121.418 121.418 0 0 0-.175-3.9c2.953-3.805 3.986-8.055 3.1-12.75-.93-4.806-3.255-8.722-6.975-11.75-3.88-3.072-8.205-5.064-12.975-5.975-1.35-.29-2.8-.398-4.35-.325a26.25 26.25 0 0 0-1.175.1l-.3.05c-.308.414-.642.664-1 .75-2.232.606-4.358 2.023-6.375 4.25-.46.6-.91 1.2-1.35 1.8-2.267 2.91-3.583 6.186-3.95 9.825-.361 3.96.339 7.719 2.1 11.275-3.026 4.55-4.585 9.109-4.675 13.675-.095 4.55 1.822 8.067 5.75 10.55 1.478.94 3.27 1.49 5.375 1.65.13-.007.264-.015.4-.025 2.837-.241 6.11-1.024 9.825-2.35.187.179.37.355.55.525 2.619 2.4 4.919 3.876 6.9 4.425 1.533.428 2.875.295 4.025-.4.22-.124.437-.266.65-.425 2.245-1.734 3.678-5.392 4.3-10.975-1.346.923-2.546 1.482-3.6 1.675-1.075.174-2-.025-2.774-.6-1.527-1.125-2.393-2.625-2.601-4.5-.224-1.885.46-4.127 2.05-6.725z" fill="#ea9e44" fill-rule="evenodd"/><path d="M161.875 146.25c1.887-2.56 3.895-4.143 6.025-4.75-2.13.607-4.138 2.19-6.025 4.75-.206 1.68-.322 3.614-.35 5.8 5.382-6.29 11.799-8.323 19.25-6.1-2.502-6.551-5.452-9.867-8.85-9.95-3.397-.083-5.963.933-7.7 3.05-1.15 1.413-1.933 3.813-2.35 7.2m22.425 23.575c.302-.299.451-.64.45-1.025a1.228 1.228 0 0 0-.45-.975 1.231 1.231 0 0 0-.975-.45c-.385-.001-.726.149-1.025.45-.263.26-.397.585-.4.975.003.385.137.726.4 1.025.299.263.64.396 1.025.4.39-.004.715-.137.975-.4m-19.475-1.55c.307.263.656.396 1.05.4a1.395 1.395 0 0 0 1-.4c.302-.298.451-.64.45-1.025a1.228 1.228 0 0 0-.45-.975 1.282 1.282 0 0 0-1-.45c-.394-.001-.743.149-1.05.45-.255.26-.38.585-.375.975a1.5 1.5 0 0 0 .375 1.025m5.025-5.35c-.166-.352-.341-.71-.525-1.075l-5.8-1.025c-1.898.717-3.715.834-5.45.35-2.408 4.865-2.367 8.948.125 12.25 2.491 3.303 5.808 3.828 9.95 1.575 2.431-1.319 3.573-3.369 3.425-6.15a4.507 4.507 0 0 1-.825 1.125c-.864.858-1.923 1.282-3.175 1.275-1.262.007-2.328-.417-3.2-1.275-.857-.864-1.282-1.922-1.275-3.175-.007-1.261.418-2.328 1.275-3.2.872-.866 1.938-1.299 3.2-1.3.843.014 1.602.222 2.275.625m13.025 2.025l-3.65.15c-1.59 2.598-2.274 4.84-2.05 6.725.208 1.875 1.074 3.375 2.6 4.5.775.574 1.7.774 2.775.6 1.054-.194 2.254-.752 3.6-1.675.121-1.12.211-2.312.275-3.575a3.743 3.743 0 0 1-2 .575c-1.038-.007-1.946-.382-2.725-1.125-.734-.779-1.1-1.687-1.1-2.725 0-1.026.366-1.901 1.1-2.625.36-.362.752-.637 1.175-.825" fill="#fff" fill-rule="evenodd"/><path d="M184.3 169.825c-.26.263-.585.396-.975.4a1.534 1.534 0 0 1-1.025-.4 1.526 1.526 0 0 1-.4-1.025 1.33 1.33 0 0 1 .4-.975c.299-.3.64-.452 1.025-.45.39-.002.715.15.975.45.302.26.45.585.45.975 0 .385-.148.726-.45 1.025m-19.475-1.55a1.512 1.512 0 0 1-.375-1.025c-.004-.39.12-.715.375-.975.307-.302.657-.45 1.05-.45.399 0 .732.148 1 .45.302.26.45.585.45.975 0 .385-.148.726-.45 1.025a1.391 1.391 0 0 1-1 .4 1.595 1.595 0 0 1-1.05-.4m6.75.575c-.09-1.7-.666-3.675-1.725-5.925-.673-.403-1.432-.61-2.275-.625-1.261.001-2.328.434-3.2 1.3-.857.872-1.282 1.938-1.275 3.2-.007 1.253.418 2.311 1.275 3.175.872.857 1.939 1.282 3.2 1.275 1.252.007 2.31-.418 3.175-1.275.344-.346.618-.72.825-1.125m14.05-4.05a3.594 3.594 0 0 0-1.2-.225c-.516.002-.99.103-1.425.3l-.125.075 2.75-.15-2.75.15a3.843 3.843 0 0 0-1.175.825 3.548 3.548 0 0 0-1.1 2.625c0 1.038.366 1.946 1.1 2.725.779.742 1.687 1.117 2.725 1.125.74-.008 1.407-.2 2-.575.095-1.965.11-4.107.05-6.425a3.624 3.624 0 0 0-.85-.45" fill-rule="evenodd"/><path d="M181 157l-5 1.825c2.124.973 4.19 1.315 6.2 1.025z" fill="#b45a25" fill-rule="evenodd"/><path d="M199 113.75c.786-.472 1.928-.556 3.425-.25-1.497-.306-2.639-.222-3.425.25m.975 2.575c-1.017-.015-1.742.459-2.175 1.425.433-.966 1.158-1.44 2.175-1.425M153.35 135.7c-.469.6-.927 1.2-1.375 1.8-2.258 2.911-3.566 6.186-3.925 9.825-.369 3.961.323 7.719 2.075 11.275-3.018 4.551-4.568 9.109-4.65 13.675-.095 4.55 1.822 8.067 5.75 10.55 2.023 1.285 4.631 1.843 7.825 1.675.146-.005.296-.014.45-.025-2.105-.16-3.897-.71-5.375-1.65-3.928-2.483-5.845-6-5.75-10.55.09-4.566 1.648-9.124 4.675-13.675-1.761-3.556-2.461-7.314-2.1-11.275.367-3.639 1.683-6.914 3.95-9.825.44-.6.89-1.2 1.35-1.8 2.017-2.227 4.143-3.644 6.375-4.25.357-.086.691-.336 1-.75-.286.03-.569.064-.85.1-.654.106-1.321.24-2 .4-.346.076-.696.159-1.05.25-2.232.606-4.357 2.023-6.375 4.25m-41.025 17.725c1.596.215 3.063.84 4.4 1.875 1.304.999 2.154 2.258 2.55 3.775.427 1.64.444 3.215.05 4.725-.387 1.597-1.27 2.806-2.65 3.625 1.43.183 2.947.258 4.55.225 1.764-.092 3.03-.983 3.8-2.675a19.135 19.135 0 0 0 1.425-4.8c.219-1.508.027-2.908-.575-4.2a18.478 18.478 0 0 0-2.275-3.75c-.35-.448-.691-.89-1.025-1.325-4.853-1.82-8.27-.979-10.25 2.525M134.3 94.2a12.338 12.338 0 0 1-.95 3.35l.025.15a2.75 2.75 0 0 1-.1 1c-.232.897-.907 1.546-2.025 1.95-.772.265-1.522.357-2.25.275a24.634 24.634 0 0 0-5.05 0c-1.558.129-3.117.278-4.675.45-1.733.174-3.575.607-5.525 1.3.137.668.312 1.376.525 2.125 1.04-.467 1.99-.7 2.85-.7 1.754-.015 3.138.935 4.15 2.85.289-.419.581-.803.875-1.15 2.309-2.658 4.743-2.975 7.3-.95 2.072-1.897 3.989-2.055 5.75-.475 2.353-6.052 2.053-9.443-.9-10.175m29.7-48c-1.647 1.727-2.905 3.301-3.775 4.725a19.692 19.692 0 0 1-2.625 3.525c-1.217 1.333-3.817 1.866-7.8 1.6 1.503 1.074 3.062 2.349 4.675 3.825.388-.58.98-1.097 1.775-1.55.708-.393 1.583-.735 2.625-1.025-.319-2.571 1.023-3.613 4.025-3.125-.274-1.854.458-2.854 2.2-3-.152-2.104-.519-3.763-1.1-4.975m18.35 19.975a28.071 28.071 0 0 0-.15 3.175c.98.243 2.113.951 3.4 2.125a11.843 11.843 0 0 1 1.825-.925c.566-.244 1.084-.395 1.55-.45 1.871-.246 2.913.954 3.125 3.6.7-.427 1.325-.702 1.875-.825.049-.304.125-.595.225-.875-.513-1.642-1.589-2.809-3.225-3.5a6.328 6.328 0 0 1-2.85-2.25.681.681 0 0 1 0-.8c2.116-.13 4.017-.13 5.7 0 1.55.175 3.1.459 4.65.85 1.563.384 3.105.875 4.625 1.475 1.558.652 3.225 1.369 5 2.15 1.333-2.527 0-4.202-4-5.025-4.206-.86-7.464-1.926-9.775-3.2-2.304-1.271-4.913-1.888-7.825-1.85-2.365.037-3.749 2.136-4.15 6.3zm10.5 43.8c1.03 1.453.447 3.712-1.75 6.775 1.885.567 1.56 2.51-.975 5.825.47 1.546.52 2.646.15 3.3.222.284.472.542.75.775a37.868 37.868 0 0 1 3.7-3.225c1.214-.952 2.731-1.494 4.55-1.625-.264-2.16-.031-3.985.7-5.475.221.009.455.033.7.075.199.052.39.126.575.225 2.491-.393 4.3-.118 5.425.825.597.528 1.239.978 1.925 1.35a8.959 8.959 0 0 0-.225-1.3 3.698 3.698 0 0 0-.425-1.025c-.847-1.401-2.655-2.384-5.425-2.95a32.916 32.916 0 0 1 3.925-2.75c-.646-.586-1.505-.961-2.575-1.125-2.594-.409-4.169-.168-4.725.725a1.727 1.727 0 0 0-.2.675c-.148 1.411-.132 2.31.05 2.7-1.042.633-1.442 1.966-1.2 4-.16.323-.285.707-.375 1.15a8.177 8.177 0 0 1-.175.825c-1.842-.193-2.659-1.41-2.45-3.65.124-1.643.29-3.243.5-4.8.089-.835.189-1.659.3-2.475-.896.049-1.812.441-2.75 1.175" fill="#d78533" fill-rule="evenodd"/><path d="M193.55 77.75c.223-1.2.314-2.417.275-3.65a5.68 5.68 0 0 1 .15-1.225c-.55.123-1.175.398-1.875.825-.212-2.646-1.254-3.846-3.125-3.6.002.104-.515.262-1.55.475a11.989 11.989 0 0 0-4.1 3.05c-.225.262-.45.437-.674.525-1.291.429-2.15 1.204-2.576 2.325a1.162 1.162 0 0 1-.775.775c-.905.26-1.896-.106-2.975-1.1a12.546 12.546 0 0 0-4.15-2.45c-1.644-.565-3.352-.699-5.125-.4-1.47.304-2.962.629-4.475.975a42.31 42.31 0 0 0-4.675 1.55 22.536 22.536 0 0 0-4.275 2.275 12.505 12.505 0 0 0-3.65 3.575 61.49 61.49 0 0 0-2.625 4.2 8.156 8.156 0 0 0-.975 2.65c-.265 1.427-.79 2.444-1.575 3.05-.167 1.553-.076 3.02.275 4.4.3 1.045 1.035 2.004 2.2 2.875.04 1.039-.826 1.689-2.6 1.95.387.772.687 1.631.9 2.575.39 1.514.457 3.113.2 4.8a33.27 33.27 0 0 0-.375 5.05 20.964 20.964 0 0 0 .45 4.95c.342 1.603.575 3.12.7 4.55 1.868-.961 2.893-2.311 3.075-4.05.175-1.64.024-3.215-.45-4.725a22.772 22.772 0 0 1-1.075-4.875 37.164 37.164 0 0 1-.175-4.9c.004-1.605.137-3.189.4-4.75.296-1.6.829-3.091 1.6-4.475a40.23 40.23 0 0 1 2.675-4.15 203.73 203.73 0 0 0 2.65-3.875 12.71 12.71 0 0 1 3.375-3.6 24.387 24.387 0 0 1 3.95-2.325 36.178 36.178 0 0 1 4.6-1.825 39.67 39.67 0 0 1 5-1.075 10.958 10.958 0 0 1 5 .5 39.36 39.36 0 0 0 3.425 1.125c1.64.471 3.215.23 4.725-.725 1.427-.908 2.81-1.816 4.15-2.725.26-.171.585-.213.975-.125 1.259.323 2.292.856 3.1 1.6m-71.4 28.05c-.294.347-.585.731-.875 1.15-1.012-1.915-2.395-2.865-4.15-2.85-.306.467-.44 1.042-.4 1.725a18.56 18.56 0 0 0 1.05 4.775 18.215 18.215 0 0 0 1.95 4.15 24.846 24.846 0 0 0 2.85 3.875 18.85 18.85 0 0 0 3.425 3.25 252.994 252.994 0 0 0 4.15 3.025 76.051 76.051 0 0 1 3.875 3.125c1.175 1.079 2.567 1.921 4.175 2.525.76.298 1.71.548 2.85.75a16.08 16.08 0 0 1 4.15-2.025 13.769 13.769 0 0 1 4.65-.675c1.6.04 3.2.015 4.8-.075 1.647-.081 3.163.119 4.55.6 1.655.51 3.229 1.019 4.725 1.525a26.25 26.25 0 0 1 1.175-.1c-.822-1.429-2.056-2.512-3.7-3.25a15.74 15.74 0 0 0-4.725-1.375 27.565 27.565 0 0 0-5-.3c-1.633.079-3.267.179-4.9.3-1.648.178-3.34.27-5.075.275a15.338 15.338 0 0 1-4.875-.775 16.686 16.686 0 0 1-4.275-2.2 87.354 87.354 0 0 1-4.1-2.85 19.064 19.064 0 0 1-3.65-3.325c-1.13-1.245-1.764-2.729-1.9-4.45a24.17 24.17 0 0 0-.725-4.75c-.158-.606-.167-1.289-.025-2.05" fill="#9e2110" fill-rule="evenodd"/><path d="M188.05 90.925c-2.997 1.144-6.73 1.26-11.2.35 1.775 1.799 2.967 3.09 3.575 3.876a6.673 6.673 0 0 1 1.075 2.574c.267 1.179.425 2.379.475 3.6a23.653 23.653 0 0 1-.75 7.225 32.287 32.287 0 0 1-2.625 6.95c-.917 1.777-2.05 3.293-3.4 4.55-1.551 1.468-3.17 2.567-4.85 3.3.793.298 1.26.707 1.4 1.225 1.212-.301 2.479-.752 3.8-1.35.196-.27.388-.536.575-.8a99.842 99.842 0 0 0 2.85-4.175c2.269-3.51 4.102-6.885 5.5-10.125 2.589-5.912 3.78-11.645 3.575-17.2" fill="#eabe95" fill-rule="evenodd"/><path d="M116.675 167.425c6.8 2.847 11.36 1.38 13.675-4.4a79.871 79.871 0 0 0-.825-9.2l-3.075-1.3-3.025-1.275a6.066 6.066 0 0 0-.175-.1 11.674 11.674 0 0 0-.675-.25c.334.435.676.877 1.025 1.325a18.478 18.478 0 0 1 2.275 3.75c.602 1.292.794 2.692.575 4.2a19.11 19.11 0 0 1-1.425 4.8c-.77 1.692-2.036 2.583-3.8 2.675a30.728 30.728 0 0 1-4.55-.225" fill="#cf7c29" fill-rule="evenodd"/><path d="M154.475 59.875c.388-.58.98-1.097 1.775-1.55M152.325 71.7a18.93 18.93 0 0 1 3.8-1.225m-41.85 34.325c1.04-.467 1.99-.7 2.85-.7 1.754-.015 3.138.935 4.15 2.85.29-.419.581-.803.875-1.15m24.4 16.925a33.393 33.393 0 0 1-5.5-5.925m-1.75 17.125c1.757-.921 3.698-1.637 5.825-2.15 4.426-1.071 9.642-1.262 15.65-.575m-8.45-59.5c-.892.403-1.716.869-2.475 1.4m-19.775 97.7c.275-2.464.367-5.055.275-7.775m-.825-9.2c.442 2.94.718 6.007.825 9.2m-.275 7.775a64.962 64.962 0 0 1-.425 3m52.7-107.625v-.025m-19.6 3.75c4.462.054 9.694.904 15.7 2.55.768-2.5 2.018-3.533 3.75-3.1.98.243 2.113.951 3.4 2.125a11.843 11.843 0 0 1 1.825-.925c.566-.244 1.084-.395 1.55-.45M156.25 58.325c.707-.393 1.582-.735 2.625-1.025-.319-2.571 1.023-3.613 4.025-3.125-.274-1.854.458-2.854 2.2-3M188.975 70.1c1.871-.246 2.913.954 3.125 3.6.7-.427 1.325-.702 1.875-.825 1.854-.431 2.846.837 2.975 3.8m-5.85 40.075c2.197-3.063 2.78-5.322 1.75-6.775m-24.2-21.125c2.963 1.131 5.697 1.939 8.2 2.425 4.47.911 8.203.793 11.2-.35m3.05 25.825c1.885.567 1.56 2.51-.975 5.825.47 1.546.52 2.646.15 3.3m-14.15-3.45a99.842 99.842 0 0 0 2.85-4.175c2.27-3.51 4.102-6.885 5.5-10.125m-8.925 15.1c-.244.331-.494.664-.75 1M122.15 105.8c2.31-2.658 4.743-2.975 7.3-.95 2.072-1.897 3.99-2.055 5.75-.475M173 195.9c.178-1.159-.372-2.017-1.65-2.575m0 0a8.139 8.139 0 0 0-1.425-.425m-54.1-17.15c.731 13.132 8.823 21.374 24.275 24.725 15.461 3.36 26.011 4.502 31.65 3.425m-57.475-99.1c-.606 10.733 7.736 20.442 25.025 29.125a25.44 25.44 0 0 0-6.3 4.525c-.92-1.45-.92-3.066 0-4.85-2.719 1.274-4.402 3.324-5.05 6.15-.41-.689-.41-1.789 0-3.3-3.667 2.918-5.184 7.727-4.55 14.425.007.125.015.25.025.375m31.05-91.375a3.296 3.296 0 0 0-.575 1.875c3.623 1.931 6.574 4.647 8.85 8.15-2.433-.041-4.64.152-6.625.575-11.756-7.827-23.557-9.069-35.4-3.725-11.858 5.351-18.942 13.108-21.25 23.275-2.28 10.173-3.28 21.023-3 32.55.274 11.523-1.9 18.431-6.525 20.725-4.617 2.289-7.725.513-9.325-5.325-1.42-5.13-3.346-7.155-5.775-6.075a5.187 5.187 0 0 0-1.025.65c-1.254.937-2.154 1.987-2.7 3.15-.73 1.587-.83 3.379-.3 5.375.928 3.502 3.687 6.493 8.275 8.975 4.58 2.487 9.337 2.796 14.275.925 4.643-1.754 7.86-5.679 9.65-11.775.11-.414.218-.839.325-1.275 1.68-6.822 2.096-17.18 1.25-31.075-.837-13.89 3.663-24.349 13.5-31.375 9.827-7.037 20.41-7.829 31.75-2.375a13.878 13.878 0 0 0-2.725 2.525c-5.259 6.407-6.993 13.758-5.2 22.05 1.78 8.281 1.487 14.656-.875 19.125-2.552-3.509-4.344-7.492-5.375-11.95a6.253 6.253 0 0 0-.475-.475m47.15-38.225a29.137 29.137 0 0 0-1-3.025c-2.578-6.321-7.252-10.255-14.025-11.8-.87-.156-1.612-.206-2.225-.15m27.75 58.8c-1.084-1.469-3.875-2.086-8.375-1.85 2.588-5.912 3.781-11.646 3.575-17.2 4.986-1.938 7.952-6.688 8.9-14.25m-27.5 54.2a136.059 136.059 0 0 0 5.35-6.65c3.895-1.205 7.796-.588 11.7 1.85 2 .722 3.258.655 3.775-.2M171.75 203.9c1.343-.258 2.476-.642 3.4-1.15 4.783-2.655 3.833-4.355-2.85-5.1.383-.647.617-1.23.7-1.75 4.02-2.202 6.754-5.285 8.2-9.25m-14.275 3.6c3.577.125 4.577 1.009 3 2.65a13.29 13.29 0 0 0-1-.175" fill="none" stroke="#320a04" stroke-width=".6" stroke-linecap="round" stroke-linejoin="round" stroke-miterlimit="3"/><path d="M163.175 152.675c-.981-.072-1.532-.28-1.65-.625m-16.4-110.325c2.967-.706 6.817 1.053 11.55 5.275m.25 4.45c-2.146-3.123-4.221-4.34-6.225-3.65-1.467.477-2.567 1.385-3.3 2.726m7.85-10.201a28.083 28.083 0 0 1 3.55 3.275m-25.45 53.95c-.198-1.385-.5-2.552-.9-3.5m29.076 58c-.905-.314-1.488-.631-1.751-.95m-2.8 9.725c.36.145.728.262 1.1.35m-27.725 1.85c-2.315 5.78-6.874 7.247-13.675 4.4m6.75-16.175l3.025 1.275 3.075 1.3m-10.25 22.5c3.115-.157 6.715-2 10.8-5.525m29.425 13.675c-.154.012-.304.02-.45.025-3.193.169-5.802-.39-7.825-1.675-3.928-2.483-5.844-6-5.75-10.55.082-4.566 1.632-9.124 4.65-13.675-1.752-3.556-2.444-7.314-2.075-11.275.359-3.64 1.667-6.914 3.925-9.825.449-.6.907-1.2 1.375-1.8m-34.075 40.625c-1.227.067-2.377-.125-3.45-.575m83.05-101.075c2.57.993 4.988 1.343 7.25 1.05m1.975-5.75c-.065.104-.14.213-.225.325-1.67 2.748-5.594 2.84-11.775.275m-13.9-1.225a28.307 28.307 0 0 1 .15-3.175m-1.574 79.775c.962.289 1.946.647 2.949 1.075M199 113.75c.786-.471 1.928-.555 3.425-.25a.47.47 0 0 1 .1.026m-2.55 2.799c-1.017-.015-1.741.459-2.175 1.425m1.35-7.375a1.716 1.716 0 0 0-.2.675c-.148 1.41-.131 2.31.05 2.7-1.042.633-1.442 1.966-1.2 4-.16.323-.285.707-.375 1.15a7.89 7.89 0 0 1-.175.825m2.725-3.4c.22.009.455.034.7.076.199.05.39.126.575.224m-29.5 7.95c-3.871.93-7.237.388-10.1-1.625-3.757-2.622-5.106-6.247-4.05-10.875 1.042-4.635 2.45-9.027 4.225-13.174 1.779-4.162 3.079-7.178 3.9-9.051.664-1.507 1.438-2.007 2.325-1.5.19.116.39.282.6.5m3.1 35.725c1.212-.301 2.479-.752 3.8-1.35.196-.27.388-.536.575-.8M153.35 135.7c2.018-2.227 4.143-3.644 6.375-4.25.354-.091.704-.174 1.05-.25a28.63 28.63 0 0 1 2-.4c.28-.036.564-.07.85-.1m-1.75 15.55c.417-3.387 1.2-5.786 2.35-7.2 1.737-2.117 4.304-3.133 7.7-3.05 3.398.083 6.349 3.4 8.85 9.95-7.451-2.223-13.868-.19-19.25 6.1.028-2.186.144-4.12.35-5.8zm46.075-29.775c-.847-1.401-2.655-2.384-5.424-2.95m5.349 7.825c-.77-1.03-2.421-1.73-4.95-2.1m-1.675-2.625c.828.39 1.386 1.265 1.675 2.625.196.955.263 2.13.2 3.526-.06 1.566-.393 2.816-1 3.749m-30.275 34.35c3.266 1.56 6.866 2.018 10.8 1.375m.225 2.7l2.75-.15c.304.113.587.263.85.45M181 157a10.266 10.266 0 0 0-.974-4.325m-8.451 16.175c.148 2.78-.994 4.83-3.424 6.15-4.143 2.253-7.46 1.728-9.951-1.575-2.491-3.302-2.533-7.385-.125-12.25 1.735.484 3.552.367 5.45-.35l5.8 1.025m13.55 3.1l-3.65.15c-1.59 2.598-2.274 4.84-2.05 6.725.208 1.875 1.074 3.375 2.6 4.5.775.575 1.7.774 2.775.6 1.054-.193 2.254-.752 3.6-1.675m-8.975 11.8c1.533.428 2.875.295 4.025-.4m-17.575-55.95l.3-.05a26.25 26.25 0 0 1 1.175-.1c1.55-.073 3 .036 4.35.325m7.725 56.175c-1.981-.55-4.281-2.024-6.9-4.425-.18-.17-.363-.346-.55-.525-3.714 1.326-6.988 2.109-9.825 2.35m-36.475-33.2a6.066 6.066 0 0 0-.175-.1 11.674 11.674 0 0 0-.675-.25c-4.853-1.82-8.27-.978-10.25 2.525-.798 1.413-1.365 3.254-1.7 5.525-1.19 8.236-.173 13.377 3.05 15.425a8.923 8.923 0 0 0 2.15 1.375m19.375-71.375c2.353-6.052 2.053-9.443-.9-10.175-.527-.134-1.144-.184-1.85-.15-1.266-2.968-3.566-3.793-6.9-2.475-2.546-1.095-4.88-.27-7 2.475-4.426-.223-6.026 2.652-4.8 8.625.137.668.312 1.376.525 2.125M165.1 51.175c-.152-2.104-.52-3.763-1.1-4.975-2.56-5.518-5.477-7.476-8.75-5.875-.26-.186-.517-.37-.775-.55a5.145 5.145 0 0 0-.2-.124c-3.182-1.932-5.848-1.932-8 0-.397.565-.781 1.256-1.15 2.074-1.512.662-2.17 1.753-1.975 3.275.198 1.525.806 2.692 1.825 3.5a43.112 43.112 0 0 1 2.425 2.026 6.81 6.81 0 0 0 0 1.324c.13 1.68.93 3.08 2.4 4.2 1.503 1.074 3.062 2.35 4.675 3.825m42.475 16.8c4.092 1.367 7.15 1.05 9.175-.95a11.076 11.076 0 0 0 1.65-.324c.502-.137 1.127-.654 1.876-1.551.756-.887.24-2.178-1.551-3.875v-.05c1.333-2.526 0-4.202-4-5.024-4.206-.861-7.464-1.927-9.775-3.201-2.304-1.271-4.913-1.887-7.825-1.85-2.365.037-3.75 2.137-4.15 6.3m7.926 59.725c.22.284.47.542.75.775 1.509 1.288 3.734 1.929 6.674 1.925 2.058-.007 3.533-.691 4.425-2.05 1.709.65 3.117.79 4.225.425 1.096-.364 1.77-1.598 2.025-3.7.086-.73-.081-1.364-.5-1.9.616-.443.859-1.293.725-2.55a8.825 8.825 0 0 0-.225-1.3 3.698 3.698 0 0 0-.425-1.025c.279-2.677-.221-4.577-1.5-5.7-.646-.585-1.504-.96-2.575-1.124-2.594-.41-4.17-.168-4.724.724-1.152-1.124-2.335-1.648-3.551-1.575-.896.049-1.812.44-2.75 1.175m-6.375 55.275a121.418 121.418 0 0 0-.175-3.9c2.953-3.805 3.986-8.055 3.1-12.75-.93-4.806-3.255-8.722-6.975-11.75-3.88-3.072-8.205-5.064-12.975-5.975m11.75 55.775c.22-.124.437-.266.65-.425 2.245-1.734 3.678-5.392 4.3-10.975a63.2 63.2 0 0 0 .275-3.575" fill="none" stroke="#be6f21" stroke-width=".6" stroke-linecap="round" stroke-linejoin="round" stroke-miterlimit="3"/><path d="M169.325 161.85c.184.365.358.723.524 1.075m0 0c-.672-.403-1.43-.61-2.274-.625-1.262.001-2.328.434-3.2 1.3-.858.872-1.282 1.938-1.276 3.2-.006 1.253.418 2.311 1.276 3.175.872.857 1.938 1.282 3.2 1.275 1.252.007 2.311-.418 3.175-1.275.344-.346.618-.72.825-1.125-.09-1.7-.666-3.675-1.726-5.925zm13.026 2.025a3.866 3.866 0 0 0-1.175.825c-.734.723-1.1 1.598-1.1 2.625 0 1.038.366 1.946 1.1 2.725.778.743 1.687 1.118 2.725 1.125.74-.008 1.407-.2 2-.575m0 0c.094-1.965.111-4.107.05-6.425" fill="none" stroke="#000" stroke-width=".6" stroke-linecap="round" stroke-linejoin="round" stroke-miterlimit="3"/><path d="M181 157l-5 1.825c2.124.973 4.19 1.315 6.2 1.025z" fill="none" stroke="#743a18" stroke-width=".6" stroke-linecap="round" stroke-linejoin="round" stroke-miterlimit="3"/><path d="M161.875 146.25c1.887-2.56 3.895-4.143 6.025-4.75" fill="none" stroke="#666" stroke-width=".6" stroke-linecap="round" stroke-linejoin="round" stroke-miterlimit="3"/></g></svg>