<svg xmlns="http://www.w3.org/2000/svg" width="426.667" height="333.333" viewBox="0 0 426.66666 333.33334"><defs><clipPath id="a"><path d="M0 250h320V0H0z"/></clipPath><clipPath id="b"><path d="M0 250h320V0H0z"/></clipPath></defs><g clip-path="url(#a)" transform="matrix(1.33333 0 0 -1.33333 0 333.333)"><path d="M182.125 47.825c1.008-1.258 1.666-2.499 1.975-3.726-.309 1.227-.967 2.468-1.975 3.726M163.05 45.3c-.381-3.02-.448-5.47-.2-7.35-.248 1.88-.181 4.33.2 7.35m9.5-11.125c.383.234.699.517.95.85.77.958.979 2.308.625 4.05-.298 1.527-1.022 3.352-2.175 5.475 1.153-2.123 1.877-3.948 2.175-5.475.354-1.742.145-3.092-.625-4.05a3.377 3.377 0 0 0-.95-.85m8.825 2.375c.067.352.117.744.15 1.174.073.785-.069 1.626-.425 2.526-.657 1.695-2.039 3.596-4.15 5.7 2.111-2.104 3.493-4.005 4.15-5.7.356-.9.498-1.74.425-2.526-.033-.43-.083-.822-.15-1.174m8.15 16.325c-.281-2.269-1.19-3.993-2.725-5.175-1.537-1.185-2.437-2.385-2.7-3.6.263 1.215 1.163 2.415 2.7 3.6 1.535 1.182 2.444 2.906 2.725 5.175m7.5-3.9c-.551-.36-1.226-.385-2.025-.075-2.793 1.095-4.168 4.136-4.125 9.125-.043-4.989 1.332-8.03 4.125-9.125.799-.31 1.474-.286 2.025.074m-62.8 99.426c5.24 2.72 10.298 3.187 15.175 1.4-4.877 1.787-9.935 1.32-15.175-1.4m22.75-30.325c-4.518-1.239-8.226-3.264-11.125-6.075a21.36 21.36 0 0 1-3.05-3.625l-.875-.175c-.196 3.698.454 6.266 1.95 7.7 1.489 1.437 3.48 2.645 5.975 3.625 2.481.988 4.856.504 7.125-1.45m-.95 27.1c-3.19-5.746-8.024-8.77-14.5-9.075-6.493-.309-10.985 1.208-13.475 4.55 2.49-3.342 6.982-4.859 13.475-4.55 6.476.305 11.31 3.33 14.5 9.075m-8.475 3.675c-2.722.973-5.731.973-9.025 0-1.521-.726-.037-1.809 4.45-3.25 3.579 1.494 5.104 2.577 4.575 3.25m-4.575-3.25v-3.95zm11.125-.125c.731.043 1.372-.057 1.925-.3-.553.243-1.194.343-1.925.3m-3.2 7.925a43.757 43.757 0 0 0 6.625-.4 48.39 48.39 0 0 0 3.075-.5c1.036 1.713 1.552 3.688 1.55 5.925 0 2.752-.784 5.102-2.35 7.05-1.524 1.95-3.366 2.924-5.525 2.925-2.155 0-4.013-.976-5.575-2.925-1.529-1.948-2.296-4.298-2.3-7.05.002-1.933.386-3.667 1.15-5.2 1.098.103 2.215.162 3.35.175m-29.55 0c2.164.038 4.38-.095 6.65-.4a48.39 48.39 0 0 0 3.075-.5c1.035 1.713 1.552 3.688 1.55 5.925 0 2.752-.783 5.102-2.35 7.05-1.524 1.95-3.366 2.924-5.525 2.925-2.155 0-4.013-.976-5.575-2.925-1.529-1.948-2.296-4.298-2.3-7.05.002-1.933.386-3.667 1.15-5.2 1.09.103 2.199.162 3.325.175M92.5 168.775c1.75.983 3.384 1.592 4.9 1.825 1.997.303 3.797-.03 5.4-1-1.603.97-3.403 1.303-5.4 1-1.516-.233-3.15-.842-4.9-1.825m53.75-76.75c4.531 1.394 9.589 4.91 15.175 10.55 1.369-.507 2.719-.766 4.05-.775 1.378.01 2.736.286 4.075.825.322-.666.623-1.317.9-1.95.3-.677.575-1.335.825-1.975a40.457 40.457 0 0 0 1.125-3.275 23.85 23.85 0 0 0 .55-2.35c.47-2.394.429-4.359-.125-5.9-1.168-3.248-4.868-5.557-11.1-6.925-5.711-1.263-10.519 1.93-14.425 9.575a39.062 39.062 0 0 0-1.05 2.2M103.4 154.4c-2.229-.727-4.254-1.194-6.075-1.4-3.073-.34-5.565.06-7.475 1.2-2.169 1.302-3.585 3.561-4.25 6.775-1.603 7.728.114 12.97 5.15 15.725 5.036 2.737 9.636 2.02 13.8-2.15a29.468 29.468 0 0 1-1.75-4.95c-1.206-4.652-1.131-9.31.225-13.975.111-.404.236-.812.375-1.225m56.225-101.075c.588-.303 1.388-.119 2.4.55 4.067-3.234 7.542-3.567 10.425-1 2.033-1.534 3.583-1.684 4.65-.45.687-.49 1.32-.973 1.9-1.45.478-.397.919-.789 1.325-1.175a18.674 18.674 0 0 0 1.8-1.975c1.979.812 3.222 2.43 3.725 4.85-.503-2.42-1.746-4.038-3.725-4.85a18.674 18.674 0 0 1-1.8 1.975c.388.42.738.853 1.05 1.3a10.858 10.858 0 0 1 1.65 3.8c.267 1.18.359 2.437.275 3.775.558.45.967 1.157 1.225 2.125.134.59.218 1.273.25 2.05 2.945.36 3.603 2.3 1.975 5.825.916.008 1.657.191 2.225.55.931.59 1.415 1.64 1.45 3.15a14.933 14.933 0 0 0 1.55-.9 14.162 14.162 0 0 0 2.075-1.626c.216-.21.424-.428.625-.649 2.504-2.739 3.862-6.522 4.075-11.35.21-5.039-.364-7.997-1.725-8.876-3.421-9.16-7.663-11.46-12.725-6.899-.111-1.892-1.086-3.733-2.925-5.525-.31-1.518-.951-2.385-1.925-2.6-1.919-.423-4.219-.348-6.9.225a4.754 4.754 0 0 0-.55-.3c-3.085-1.393-5.535-1.36-7.35.1-.924.737-1.524 2.062-1.8 3.975-1.441-.908-2.682-1.242-3.725-1-1.053.255-1.712.521-1.975.8-1.858 1.946-1.85 5.363.025 10.25.609 1.61 1.425 3.386 2.45 5.325m-7.475 74.3a48.508 48.508 0 0 0-2.7-.575 66.72 66.72 0 0 0-5-.7c-3.667-.378-7.017-.452-10.05-.225-2.162.181-4.162.514-6 1a24.329 24.329 0 0 0-3.425 1.125c-1.653.69-3.137 1.54-4.45 2.55-.372.29-.722.588-1.05.9-3.431 3.095-4.806 7.062-4.125 11.9.14.956.357 1.948.65 2.975.129.45.271.91.425 1.375a16.705 16.705 0 0 0-1.875 1.75c-1.898 2.084-3.156 4.61-3.775 7.575-.804 3.687-.337 7.161 1.4 10.425 1.821 3.348 4.446 5.765 7.875 7.25 3.813 1.652 7.604 1.61 11.375-.125 2.96-1.319 5.794-3.019 8.5-5.1.193.152.384.302.575.45 9.267 7.093 17.167 8.31 23.7 3.65 1.461-1.043 2.611-2.26 3.45-3.65 2.954-4.943 1.929-12.076-3.075-21.4 1.086-2.768 1.636-5.284 1.65-7.55.02-2.643-.68-4.942-2.1-6.9-2.233-3.062-6.225-5.296-11.975-6.7m20.025 51.15c3.788 4.812 7.963 5.437 12.525 1.875 4.238-3.294 5.779-7.853 4.625-13.675a10.365 10.365 0 0 1-.075-.35 13.39 13.39 0 0 0-.75-2.35c-1.003-2.334-2.645-4.059-4.925-5.175-1.732-.86-3.832-1.369-6.3-1.525.229 3.475-.088 7-.95 10.575a44.85 44.85 0 0 1-.55 2.025 44.848 44.848 0 0 1-1.025 3.075c1.386 2.457 3.286 3.624 5.7 3.5.962-.037 2.004-.279 3.125-.725-1.121.446-2.163.688-3.125.725-2.414.124-4.314-1.043-5.7-3.5a43.287 43.287 0 0 1-1.225 2.925 26.01 26.01 0 0 1-1.35 2.6" fill="#ea9e44" fill-rule="evenodd"/><path d="M161.6 128.075a56.407 56.407 0 0 0-3.524-.525 87.99 87.99 0 0 0-5.351-.4 139.405 139.405 0 0 0-3.274-.1c.943.174 1.843.366 2.699.575 3.433-.194 6.525.081 9.275.825z" fill="#881c0d" fill-rule="evenodd"/><path d="M156.975 118.075c.347.091.696.183 1.05.274-.354-.09-.703-.183-1.05-.274M161.425 102.575c-.489.187-.98.404-1.475.65a48.941 48.941 0 0 1-3.275 1.5 47.31 47.31 0 0 1-2.875 1.124c-1.089.37-2.197.703-3.325 1a29.93 29.93 0 0 1-1.55.375 54.564 54.564 0 0 1-6.125 1.151 21.36 21.36 0 0 0 3.05 3.625c2.898 2.811 6.606 4.836 11.125 6.075-2.27 1.954-4.645 2.438-7.125 1.45-2.495-.98-4.486-2.188-5.975-3.625-1.496-1.434-2.146-4.002-1.95-7.7l-.8-.2-3.5-.825-2.9-.7 2.9.7 3.5.825 1.675.375a54.564 54.564 0 0 0 6.125-1.15 29.93 29.93 0 0 0 1.55-.376 49.541 49.541 0 0 0 3.325-1 47.31 47.31 0 0 0 2.875-1.125 48.941 48.941 0 0 0 3.275-1.5c.494-.245.986-.462 1.475-.649M138.65 182.575c4.935 1.083 5.826 2.734 2.675 4.95 4.954.092 8.03.7 9.225 1.825.27.268.437.568.5.9a1.557 1.557 0 0 0 0 0 1.704 1.704 0 0 0-.5-.9c-1.196-1.125-4.27-1.733-9.225-1.825 3.151-2.216 2.26-3.867-2.675-4.95m35.075-103.1c-1.434-2.082-3.576-3.198-6.425-3.35.134-.012.268-.029.4-.05a140.97 140.97 0 0 1 0 0 5.903 5.903 0 0 1-.4.05c2.85.152 4.991 1.268 6.425 3.35m-4.175 23.15a11.051 11.051 0 0 0-4.075-.825c-1.332.01-2.68.268-4.05.775-5.586-5.64-10.644-9.156-15.175-10.55-2.018-.617-3.935-.808-5.75-.575a9.954 9.954 0 0 1 0 0c1.815-.233 3.732-.042 5.75.575.341-.773.691-1.507 1.05-2.2 3.906-7.646 8.714-10.838 14.425-9.575 6.232 1.368 9.932 3.677 11.1 6.925.554 1.541.595 3.506.125 5.9a23.85 23.85 0 0 1-.55 2.35 40.457 40.457 0 0 1-1.125 3.275c-.25.64-.525 1.298-.825 1.975a56.871 56.871 0 0 1-.9 1.95m3.7 2.175a15.744 15.744 0 0 1 0 0m-17.125 19.45c2.371-1.74 4.196-3.484 5.475-5.225a52.446 52.446 0 0 1 0 0c-1.279 1.741-3.104 3.484-5.475 5.225m38.55-55.05c-.2.221-.409.437-.625.65a14.215 14.215 0 0 1-2.075 1.624c1.033 2.911 1.5 7.37 1.4 13.375-.093 5.988-1.435 16.171-4.025 30.551-2.556 14.145-1.23 23.437 3.975 27.875.096.076.188.151.275.225l.625.5c5.19 3.93 9.823 4.962 13.9 3.1 4.242-1.936 6.96-4.402 8.15-7.4.72-1.836.811-3.394.275-4.675-.333-.812-.925-1.512-1.775-2.1a4.405 4.405 0 0 0-.475-.275c-2.163-1.15-5.272-.658-9.325 1.475-2.106 1.111-3.989 1.211-5.65.3-1.812-.99-3.17-3.282-4.075-6.875-.892-3.583-.158-12.692 2.2-27.326 2.346-14.634 1.42-24.976-2.775-31.024m-22.5 109.575a26.01 26.01 0 0 0 1.35-2.6c.452-.98.861-1.956 1.225-2.925a45.4 45.4 0 0 0 1.025-3.075c.2-.677.384-1.352.55-2.025.861-3.575 1.18-7.1.95-10.575a33.614 33.614 0 0 0-.875-5.75c2.668-3.272 3.66-7.589 2.975-12.95l-2.1 1.775c.443-2.658-.932-5.39-4.125-8.2v2.15c-1.148-3.167-4.999-5.342-11.55-6.525l-.175.375c-2.75-.744-5.842-1.019-9.275-.825 5.75 1.404 9.742 3.638 11.975 6.7 1.42 1.958 2.12 4.257 2.1 6.9-.014 2.266-.564 4.782-1.65 7.55 5.004 9.324 6.03 16.457 3.075 21.4-.84 1.39-1.989 2.607-3.45 3.65-6.533 4.66-14.433 3.443-23.7-3.65a92.68 92.68 0 0 1-.575-.45c-2.706 2.081-5.54 3.781-8.5 5.1-3.77 1.735-7.562 1.777-11.375.125-3.429-1.485-6.054-3.902-7.875-7.25-1.737-3.264-2.204-6.738-1.4-10.425.618-2.966 1.877-5.49 3.775-7.575a16.705 16.705 0 0 1 1.875-1.75 36.033 36.033 0 0 1-.425-1.375 22.857 22.857 0 0 1-.65-2.975c-.68-4.838.694-8.805 4.125-11.9.328-.312.678-.61 1.05-.9 1.313-1.01 2.797-1.86 4.45-2.55a24.329 24.329 0 0 1 3.425-1.125c1.838-.486 3.838-.819 6-1 3.033-.227 6.383-.153 10.05.225 1.775.184 3.442.418 5 .7 1.135.022 2.227.055 3.275.1 1.92.09 3.703.222 5.35.4 1.252.15 2.427.323 3.525.525 4.631-3.267 8.214-6.25 10.75-8.95.033-.034.066-.068.1-.1 4.927-5.31 5.794-9.527 2.6-12.65a21.145 21.145 0 0 0-1.8-1.575c4.105-10.109 6.964-20.118 8.575-30.025a91.006 91.006 0 0 0 8.6-1.775c.01-.217.01-.425 0-.625-.035-1.51-.519-2.56-1.45-3.15-.568-.359-1.309-.542-2.225-.55 1.628-3.525.97-5.466-1.975-5.826a11.453 11.453 0 0 0-.25-2.049c-.258-.968-.667-1.676-1.225-2.125-1.008-.818-2.526-.785-4.55.1-.316.128-.64.28-.975.45-7.486-2.004-13.962-2.463-19.425-1.376 5.463-1.087 11.94-.628 19.425 1.375.334-.17.66-.32.975-.449-.187-3.157-.736-5.274-1.65-6.35-1.067-1.234-2.617-1.084-4.65.45-2.883-2.567-6.358-2.234-10.425 1-1.012-.669-1.812-.853-2.4-.55-.9.418-1.326 1.926-1.275 4.524-13.12 2.622-20.396 14.164-21.825 34.625-4.664 1.625-8.113 4.642-10.35 9.051-.384.75-.7 1.625-.95 2.625a.665.665 0 0 0-.025.1v.075c-.082.342-.157.7-.225 1.075l-.425 5.6c-.006 4.387.593 9.895 1.8 16.525-.804.176-1.587.36-2.35.55l-.775.175c-2.104.548-4.012 1.173-5.725 1.875-.479-.079-.896.105-1.25.55-.025.01-.05.017-.075.025-2.894 1.371-5.177 2.996-6.85 4.875-.477-1.437-.635-2.454-.475-3.05-1.334 2.422-2.067 4.856-2.2 7.3-.898-1.318-1.489-2.418-1.775-3.3l-.775-1.15c-.24.994-.382 1.853-.425 2.575-.413 4.734.47 8.084 2.65 10.05-1.243 2.13-2.218 4.263-2.925 6.4-.139.413-.264.821-.375 1.225-1.356 4.664-1.43 9.323-.225 13.975a29.468 29.468 0 0 0 1.75 4.95 39.313 39.313 0 0 0 3.075 5.475c7.115 10.64 15.048 17.215 23.8 19.725 6.737 1.934 11.437 2.684 14.1 2.25a5.222 5.222 0 0 0 1.275-.35c.22-.106.412-.223.575-.35 1.87-1.477 1.27-3.16-1.8-5.05-3.05-1.896-5.775-3.03-8.175-3.4 7.562.853 11.996.487 13.3-1.1 10.17-1.777 17.328-6.1 21.475-12.975" fill="#aa290f" fill-rule="evenodd"/><path d="M142.8 108.375l-1.675-.375.8.2z" fill="#da2d14" fill-rule="evenodd"/><path d="M151.1 159.9c.386.374.836.557 1.35.55.505.007.947-.176 1.325-.55.382-.386.574-.836.575-1.35 0-.505-.193-.947-.575-1.325-.378-.382-.82-.574-1.325-.575-.514 0-.964.193-1.35.575-.374.378-.558.82-.55 1.325-.008.514.176.964.55 1.35m6.425-6.9c.085.089.17.18.25.275.978 1.059 1.47 2.35 1.475 3.875-.005 1.528-.497 2.845-1.475 3.95-.926 1.054-2.043 1.579-3.35 1.575-1.32.004-2.47-.521-3.45-1.575-.933-1.105-1.399-2.422-1.4-3.95.007-1.465.45-2.715 1.325-3.75a40.433 40.433 0 0 1-3.35-.175c-.764 1.533-1.148 3.267-1.15 5.2.004 2.752.771 5.102 2.3 7.05 1.562 1.949 3.42 2.924 5.575 2.925 2.16-.001 4.001-.976 5.525-2.925 1.566-1.948 2.35-4.298 2.35-7.05.002-2.237-.514-4.212-1.55-5.925-1.035.203-2.06.37-3.075.5m-33.275 6.9c.382-.386.574-.836.575-1.35 0-.505-.193-.947-.575-1.325-.387-.382-.837-.574-1.35-.575-.505 0-.947.193-1.325.575-.382.378-.574.82-.575 1.325.001.514.193.964.575 1.35.378.374.82.557 1.325.55.513.007.963-.176 1.35-.55M128 153c.085.089.168.18.25.275.97 1.059 1.454 2.35 1.45 3.875.004 1.528-.48 2.845-1.45 3.95-.935 1.054-2.06 1.579-3.375 1.575-1.31.004-2.453-.521-3.425-1.575-.933-1.105-1.399-2.422-1.4-3.95 0-1.465.432-2.715 1.3-3.75a39.851 39.851 0 0 1-3.325-.175c-.764 1.533-1.148 3.267-1.15 5.2.004 2.752.771 5.102 2.3 7.05 1.562 1.949 3.42 2.924 5.575 2.925 2.16-.001 4.001-.976 5.525-2.925 1.567-1.948 2.35-4.298 2.35-7.05.002-2.237-.515-4.212-1.55-5.925-1.036.203-2.06.37-3.075.5" fill="#fff" fill-rule="evenodd"/><path d="M151.1 159.9c-.374-.386-.558-.836-.55-1.35-.008-.505.176-.947.55-1.325.386-.382.836-.574 1.35-.575.505 0 .947.193 1.325.575.382.378.574.82.575 1.325 0 .514-.193.964-.575 1.35-.378.374-.82.557-1.325.55-.514.007-.964-.176-1.35-.55m-.2-6.5c-.876 1.035-1.318 2.285-1.325 3.75.001 1.528.467 2.845 1.4 3.95.98 1.054 2.13 1.579 3.45 1.575 1.307.004 2.424-.521 3.35-1.575.978-1.105 1.47-2.422 1.475-3.95-.005-1.524-.497-2.816-1.475-3.875a7.283 7.283 0 0 0-.25-.275c-2.26.305-4.47.439-6.625.4m-26.65 6.5c-.387.374-.837.557-1.35.55-.505.007-.947-.176-1.325-.55-.382-.386-.574-.836-.575-1.35.001-.505.193-.947.575-1.325.378-.382.82-.574 1.325-.575.513 0 .963.193 1.35.575.382.378.574.82.575 1.325 0 .514-.193.964-.575 1.35M128 153c-2.27.305-4.486.439-6.65.4-.868 1.035-1.3 2.285-1.3 3.75.001 1.528.467 2.845 1.4 3.95.972 1.054 2.114 1.579 3.425 1.575 1.315.004 2.44-.521 3.375-1.575.97-1.105 1.454-2.422 1.45-3.95.004-1.524-.48-2.816-1.45-3.875A8.247 8.247 0 0 0 128 153" fill-rule="evenodd"/><path d="M147.55 148.85c.529-.673-.996-1.756-4.575-3.25-4.487 1.441-5.97 2.524-4.45 3.25 3.295.973 6.303.973 9.025 0" fill="#b45a25" fill-rule="evenodd"/><path d="M182.125 47.825c1.008-1.258 1.666-2.499 1.975-3.726M163.05 45.3c-.381-3.02-.448-5.47-.2-7.35m9.7-3.775c.383.234.699.517.95.85.77.958.979 2.308.625 4.05-.298 1.527-1.022 3.352-2.175 5.475m9.425-8c.067.352.117.744.15 1.174.073.785-.069 1.626-.425 2.526-.657 1.695-2.039 3.596-4.15 5.7m.15 6.475c.687-.49 1.32-.973 1.9-1.45.478-.397.919-.789 1.325-1.175m9.2 3.075c-.281-2.269-1.19-3.993-2.725-5.175-1.537-1.185-2.437-2.385-2.7-3.6.178-.68.245-1.356.2-2.025m12.725 6.9c-.551-.36-1.226-.385-2.025-.075-2.793 1.095-4.168 4.136-4.125 9.125m-56.65 90.375c5.24 2.72 10.298 3.187 15.175 1.4m-7.475-41.6c-.196 3.698.454 6.266 1.95 7.7 1.489 1.437 3.48 2.645 5.975 3.625 2.481.988 4.856.504 7.125-1.45m-.95 27.1c-3.19-5.746-8.024-8.77-14.5-9.075-6.493-.309-10.985 1.208-13.475 4.55m.35-13.525c1.838-.486 3.838-.819 6-1 3.033-.227 6.383-.153 10.05.225a66.72 66.72 0 0 1 5 .7c.944.174 1.843.366 2.7.575m-9.175 17.975v-3.95m11.125 3.825c.731.043 1.372-.057 1.925-.3a2.998 2.998 0 0 0 1.05-.725M128 153c-2.27.305-4.486.438-6.65.4m29.55 0a40.873 40.873 0 0 1-3.35-.175c-.764 1.533-1.148 3.267-1.15 5.2.004 2.752.771 5.102 2.3 7.05 1.562 1.95 3.42 2.924 5.575 2.925 2.159 0 4.001-.976 5.525-2.925 1.566-1.948 2.35-4.298 2.35-7.05.002-2.237-.514-4.212-1.55-5.925a48.39 48.39 0 0 1-3.075.5c-2.261.305-4.47.438-6.625.4zM128 153a48.39 48.39 0 0 0 3.075-.5c1.035 1.713 1.552 3.688 1.55 5.925 0 2.752-.783 5.102-2.35 7.05-1.524 1.95-3.366 2.924-5.525 2.925-2.155 0-4.013-.976-5.575-2.925-1.529-1.948-2.296-4.298-2.3-7.05.002-1.933.386-3.667 1.15-5.2 1.09.103 2.199.162 3.325.175M92.5 168.775c1.75.983 3.384 1.592 4.9 1.825 1.997.303 3.797-.03 5.4-1m80.5-110.925c.084-1.338-.008-2.596-.275-3.775a10.858 10.858 0 0 0-1.65-3.8 12.338 12.338 0 0 0-1.05-1.3 18.674 18.674 0 0 0 1.8-1.975c1.979.812 3.222 2.43 3.725 4.85m-12.9 40.4c.47-2.394.429-4.359-.125-5.9-1.168-3.248-4.868-5.557-11.1-6.925-5.711-1.263-10.519 1.93-14.425 9.575a39.062 39.062 0 0 0-1.05 2.2m23.3 10.6c.322-.666.623-1.317.9-1.95.3-.677.575-1.335.825-1.975a40.457 40.457 0 0 0 1.125-3.275m18.025-23.05a14.933 14.933 0 0 0 1.55-.9 14.162 14.162 0 0 0 2.075-1.626c.216-.21.424-.428.625-.649M103.4 154.4c-2.229-.727-4.254-1.194-6.075-1.4-3.073-.34-5.565.06-7.475 1.2-2.169 1.302-3.585 3.561-4.25 6.775-1.603 7.728.114 12.97 5.15 15.725 5.036 2.737 9.636 2.02 13.8-2.15M194.675 69.2c2.504-2.739 3.862-6.522 4.075-11.35.21-5.039-.364-7.997-1.725-8.876-3.421-9.16-7.663-11.46-12.725-6.899-.111-1.892-1.086-3.733-2.925-5.525-.31-1.518-.951-2.385-1.925-2.6-1.919-.423-4.219-.348-6.9.225a4.754 4.754 0 0 0-.55-.3c-3.085-1.393-5.535-1.36-7.35.1-.924.737-1.524 2.062-1.8 3.975-1.441-.908-2.682-1.242-3.725-1-1.053.255-1.712.521-1.975.8-1.858 1.946-1.85 5.363.025 10.25.609 1.61 1.425 3.386 2.45 5.325m17.65 104.25c2.468.156 4.568.664 6.3 1.525 2.28 1.116 3.922 2.841 4.925 5.175.31.722.56 1.505.75 2.35.023.117.048.234.075.35 1.154 5.822-.387 10.381-4.625 13.675-4.562 3.562-8.737 2.937-12.525-1.875m-43.775-51.65a24.329 24.329 0 0 0-3.425 1.125c-1.653.69-3.137 1.54-4.45 2.55-.372.29-.722.588-1.05.9-3.431 3.095-4.806 7.062-4.125 11.9.14.956.357 1.948.65 2.975.129.45.271.91.425 1.375a16.705 16.705 0 0 0-1.875 1.75c-1.898 2.084-3.156 4.61-3.775 7.575-.804 3.687-.337 7.161 1.4 10.425 1.821 3.348 4.446 5.765 7.875 7.25 3.813 1.652 7.604 1.61 11.375-.125 2.96-1.319 5.794-3.019 8.5-5.1.193.152.384.302.575.45 9.267 7.093 17.167 8.31 23.7 3.65 1.461-1.043 2.611-2.26 3.45-3.65 2.954-4.943 1.929-12.076-3.075-21.4 1.086-2.768 1.636-5.284 1.65-7.55.02-2.643-.68-4.942-2.1-6.9-2.233-3.062-6.225-5.296-11.975-6.7m22.6 45.625c1.386 2.457 3.286 3.624 5.7 3.5.962-.037 2.004-.279 3.125-.725" fill="none" stroke="#be6f21" stroke-width=".6" stroke-linecap="round" stroke-linejoin="round" stroke-miterlimit="3"/><path d="M150.9 153.4c-.875 1.035-1.317 2.285-1.325 3.75 0 1.528.468 2.845 1.4 3.95.98 1.054 2.13 1.579 3.45 1.575 1.307.004 2.424-.521 3.35-1.575.979-1.105 1.47-2.422 1.475-3.95-.005-1.524-.496-2.816-1.475-3.875a7.283 7.283 0 0 0-.25-.275m-6.425 6.9c.386.374.837.557 1.35.55.505.007.947-.176 1.325-.55.382-.386.574-.836.575-1.35-.001-.505-.193-.947-.575-1.325-.378-.382-.82-.574-1.325-.575-.513 0-.964.193-1.35.575-.374.378-.557.82-.55 1.325-.007.514.176.964.55 1.35zm-26.85 0c.382-.386.574-.836.575-1.35-.001-.505-.193-.947-.575-1.325-.387-.382-.836-.574-1.35-.575-.505 0-.947.193-1.325.575-.382.378-.574.82-.575 1.325 0 .514.193.964.575 1.35.378.374.82.557 1.325.55.514.007.963-.176 1.35-.55zm-2.9-6.5c-.867 1.035-1.301 2.285-1.3 3.75 0 1.528.468 2.845 1.4 3.95.972 1.054 2.114 1.579 3.425 1.575 1.316.004 2.44-.521 3.375-1.575.97-1.105 1.454-2.422 1.45-3.95.004-1.524-.48-2.816-1.45-3.875A7.283 7.283 0 0 0 128 153" fill="none" stroke="#000" stroke-width=".1" stroke-linecap="round" stroke-linejoin="round" stroke-miterlimit="3"/><path d="M147.55 148.85c-2.722.973-5.73.973-9.025 0-1.52-.726-.037-1.809 4.45-3.25 3.579 1.494 5.104 2.577 4.575 3.25z" fill="none" stroke="#743a18" stroke-width=".6" stroke-linecap="round" stroke-linejoin="round" stroke-miterlimit="3"/><path d="M177.1 52.425c-1.066-1.233-2.616-1.084-4.65.45-2.882-2.566-6.358-2.233-10.424 1-1.013-.67-1.813-.852-2.401-.55m1.8 49.25a17.4 17.4 0 0 0-1.474.65 48.966 48.966 0 0 1-3.276 1.5c-.942.404-1.9.779-2.875 1.125a50.554 50.554 0 0 1-3.325 1c-.51.138-1.026.263-1.55.375a54.52 54.52 0 0 1-6.125 1.15m-1.675-.375l1.675.375a21.406 21.406 0 0 0 3.05 3.625c2.899 2.812 6.607 4.836 11.125 6.075m0 0l1.05.275a44.38 44.38 0 0 0 3.575.676m-26.95-5.051a56.831 56.831 0 0 1 2.975-6.8m3.5.825l-3.5-.825-2.9-.7m-8.375 21.05c.67-.138 1.354-.271 2.05-.4m21.05-.075c1.136.022 2.227.055 3.275.1a87.99 87.99 0 0 1 5.35.4 57.16 57.16 0 0 1 3.525.525m-22.95 54.5c4.935 1.084 5.827 2.734 2.676 4.95 4.954.092 8.029.7 9.224 1.825.27.268.437.568.5.9.062.23.062.48 0 .75-.06.273-.177.523-.35.75m28.05-132.974c2.025-.885 3.542-.918 4.55-.101m0 0c.559.449.967 1.157 1.226 2.125.134.59.218 1.273.25 2.05 2.944.359 3.602 2.3 1.974 5.825.916.009 1.658.19 2.225.55.932.59 1.415 1.639 1.45 3.15M177.1 52.425c.914 1.076 1.464 3.193 1.65 6.35-.315.129-.64.279-.974.45-7.487-2.004-13.962-2.462-19.426-1.375m15.375 21.625c-1.434-2.081-3.575-3.197-6.425-3.35a5.29 5.29 0 0 0 .4-.05 140.97 140.97 0 0 0 9.95-.75c1.439-.161 2.832-.343 4.176-.55M173.25 104.8a15.838 15.838 0 0 0-2.525-1.625c-.39-.208-.781-.391-1.175-.55a11.067 11.067 0 0 0-4.075-.825c-1.331.01-2.681.269-4.05.775-5.586-5.64-10.644-9.156-15.175-10.55-2.018-.617-3.934-.808-5.75-.575a9.985 9.985 0 0 0-1.275.225c-.946.234-1.846.5-2.7.8m19.6 31.775c2.372-1.741 4.197-3.483 5.475-5.224.898.136 1.849.253 2.85.349.279-.077.546-.184.8-.325m-5.625-65.725c-.9.418-1.325 1.926-1.275 4.525-13.121 2.622-20.396 14.164-21.825 34.625-4.663 1.625-8.113 4.64-10.35 9.05-.383.75-.7 1.626-.95 2.626a15.244 15.244 0 0 0-.25 1.25L124.55 111c-.006 4.388.594 9.896 1.8 16.525-.804.177-1.587.36-2.35.55l-.775.175c-2.103.548-4.012 1.173-5.725 1.875-.478-.078-.895.105-1.25.55a.824.824 0 0 1-.075.025c-2.893 1.37-5.177 2.996-6.85 4.875-.476-1.437-.635-2.453-.475-3.05-1.333 2.422-2.067 4.856-2.2 7.3-.897-1.317-1.49-2.418-1.775-3.3l-.775-1.15c-.24.995-.381 1.853-.425 2.575-.413 4.735.47 8.085 2.65 10.05-1.242 2.13-2.217 4.263-2.925 6.4-.14.413-.264.82-.375 1.225-1.356 4.665-1.431 9.323-.225 13.975a29.557 29.557 0 0 0 1.75 4.95 39.415 39.415 0 0 0 3.075 5.475c7.115 10.64 15.049 17.215 23.8 19.725 6.737 1.935 11.437 2.685 14.1 2.25a5.209 5.209 0 0 0 1.275-.35c.22-.106.412-.223.575-.35 1.87-1.477 1.27-3.16-1.8-5.05-3.05-1.896-5.775-3.03-8.175-3.4 7.563.854 11.996.487 13.3-1.1 10.17-1.776 17.329-6.101 21.475-12.975m19.8-107.3c1.033 2.91 1.5 7.369 1.4 13.375-.092 5.987-1.434 16.17-4.025 30.55-2.556 14.146-1.23 23.438 3.976 27.875.095.076.187.15.274.225l.625.5c5.189 3.929 9.823 4.962 13.9 3.1 4.243-1.936 6.959-4.402 8.15-7.4.72-1.836.81-3.394.275-4.675-.333-.812-.925-1.512-1.774-2.1a4.517 4.517 0 0 0-.476-.275c-2.163-1.15-5.271-.658-9.325 1.475-2.105 1.112-3.988 1.212-5.65.3-1.812-.99-3.17-3.282-4.075-6.875-.891-3.583-.158-12.691 2.2-27.325 2.346-14.635 1.42-24.977-2.775-31.025m-33.25 59.25l.175-.375c4.632-3.266 8.215-6.25 10.75-8.95l.1-.1c4.927-5.31 5.795-9.527 2.6-12.65a21.167 21.167 0 0 0-1.8-1.575c4.106-10.108 6.964-20.117 8.576-30.024A91.055 91.055 0 0 0 190.425 73a5.92 5.92 0 0 0 0-.625m-28.825 55.7c6.552 1.183 10.402 3.358 11.55 6.525v-2.15c3.193 2.809 4.568 5.543 4.126 8.2l2.099-1.775c.685 5.362-.306 9.678-2.974 12.95.46 1.904.75 3.82.875 5.75.228 3.475-.09 7-.95 10.575-.166.673-.35 1.349-.55 2.025a45.414 45.414 0 0 1-1.026 3.075m-2.575 5.525c.492-.827.942-1.693 1.35-2.6a43.79 43.79 0 0 0 1.225-2.925" fill="none" stroke="#320a04" stroke-width=".6" stroke-linecap="round" stroke-linejoin="round" stroke-miterlimit="3"/></g><g clip-path="url(#b)" transform="matrix(1.33333 0 0 -1.33333 0 333.333)"><path d="M182.125 47.825c1.008-1.258 1.666-2.499 1.975-3.726-.309 1.227-.967 2.468-1.975 3.726m-8-8.75c-.298 1.527-1.022 3.352-2.175 5.475 1.153-2.123 1.877-3.948 2.175-5.475m6.2 10.725a18.674 18.674 0 0 0 1.8-1.975c1.979.812 3.222 2.43 3.725 4.85-.503-2.42-1.746-4.038-3.725-4.85a18.674 18.674 0 0 1-1.8 1.975m9.2 3.075c-.281-2.269-1.19-3.993-2.725-5.175-1.537-1.185-2.437-2.385-2.7-3.6.263 1.215 1.163 2.415 2.7 3.6 1.535 1.182 2.444 2.906 2.725 5.175m7.5-3.9c-.551-.36-1.226-.385-2.025-.075-2.793 1.095-4.168 4.136-4.125 9.125-.043-4.989 1.332-8.03 4.125-9.125.799-.31 1.474-.286 2.025.074m-62.8 99.426c5.24 2.72 10.298 3.187 15.175 1.4-4.877 1.787-9.935 1.32-15.175-1.4m8.575-40.025l-.875-.175c-.196 3.698.454 6.266 1.95 7.7 1.489 1.437 3.48 2.645 5.975 3.625 2.481.988 4.856.504 7.125-1.45-4.518-1.239-8.226-3.264-11.125-6.075a21.36 21.36 0 0 1-3.05-3.625m13.225 36.8c-3.19-5.746-8.024-8.77-14.5-9.075-6.493-.309-10.985 1.208-13.475 4.55 2.49-3.342 6.982-4.859 13.475-4.55 6.476.305 11.31 3.33 14.5 9.075m-8.475 3.675c-2.722.973-5.731.973-9.025 0-1.521-.726-.037-1.809 4.45-3.25 3.579 1.494 5.104 2.577 4.575 3.25m-4.575-3.25v-3.95zm11.125-.125c.731.043 1.372-.057 1.925-.3-.553.243-1.194.343-1.925.3m-3.2 7.925a43.757 43.757 0 0 0 6.625-.4 48.39 48.39 0 0 0 3.075-.5c1.036 1.713 1.552 3.688 1.55 5.925 0 2.752-.784 5.102-2.35 7.05-1.524 1.95-3.366 2.924-5.525 2.925-2.155 0-4.013-.976-5.575-2.925-1.529-1.948-2.296-4.298-2.3-7.05.002-1.933.386-3.667 1.15-5.2 1.098.103 2.215.162 3.35.175m-29.55 0c2.164.038 4.38-.095 6.65-.4a48.39 48.39 0 0 0 3.075-.5c1.035 1.713 1.552 3.688 1.55 5.925 0 2.752-.783 5.102-2.35 7.05-1.524 1.95-3.366 2.924-5.525 2.925-2.155 0-4.013-.976-5.575-2.925-1.529-1.948-2.296-4.298-2.3-7.05.002-1.933.386-3.667 1.15-5.2 1.09.103 2.199.162 3.325.175m49.1-52.725c.3-.677.575-1.335.825-1.975a40.457 40.457 0 0 0 1.125-3.275 23.85 23.85 0 0 0 .55-2.35c.47-2.394.429-4.359-.125-5.9-1.168-3.248-4.868-5.557-11.1-6.925-5.711-1.263-10.519 1.93-14.425 9.575.616.63 1.232 1.204 1.85 1.725a9.907 9.907 0 0 0 4 2.15c1.483.38 2.967.696 4.45.95a9.844 9.844 0 0 1 4.125 1.85 17.538 17.538 0 0 1 1.95 2.025c.841 1.135 1.441 2.227 1.8 3.275 1.378.01 2.736.286 4.075.825.322-.666.623-1.317.9-1.95m-77.95 68.1c1.817-.505 2.809-1.73 2.975-3.675a12.335 12.335 0 0 0-.375-4.65 8.384 8.384 0 0 0-2.3-3.8 51.255 51.255 0 0 0-2.95-2.45c-2.169 1.302-3.585 3.561-4.25 6.775-1.603 7.728.114 12.97 5.15 15.725 5.036 2.737 9.636 2.02 13.8-2.15a29.468 29.468 0 0 1-1.75-4.95c-1.603.97-3.403 1.303-5.4 1-1.516-.233-3.15-.842-4.9-1.825M181.375 36.55c.067.352.117.744.15 1.174.073.785-.069 1.626-.425 2.526-.657 1.695-2.039 3.596-4.15 5.7 2.111-2.104 3.493-4.005 4.15-5.7-.468-.37-1.084-.629-1.85-.776-1.562-.258-3.27-.39-5.125-.399.354-1.742.145-3.092-.625-4.05-.389.001-.78.042-1.175.125-1.652.426-2.943 1.318-3.875 2.675a45.788 45.788 0 0 1-2.85 4 99.894 99.894 0 0 0-2.55 3.475c-.381-3.02-.448-5.47-.2-7.35-1.441-.908-2.682-1.242-3.725-1-1.053.255-1.712.521-1.975.8-1.858 1.946-1.85 5.363.025 10.25 1.592.194 3.301.336 5.125.425 1.604.082 3.187.014 4.75-.2a12.72 12.72 0 0 1 4.9.2 21.72 21.72 0 0 1 4.125 1.45c.987.458 1.963.824 2.925 1.1.478-.397.919-.789 1.325-1.175.388.42.738.853 1.05 1.3a10.858 10.858 0 0 1 1.65 3.8c1.677.555 2.835 1.596 3.475 3.125a20.79 20.79 0 0 0 2.2 4.05c.892 1.316 2.058 2.4 3.5 3.25 1.524.932 2.349 2.224 2.475 3.875 2.504-2.739 3.862-6.522 4.075-11.35.21-5.039-.364-7.997-1.725-8.876-3.421-9.16-7.663-11.46-12.725-6.899-.111-1.892-1.086-3.733-2.925-5.525m-41.45 133.175c10.242 4.832 18.25 4.832 24.025 0 4.187-5.327 3.503-12.227-2.05-20.7 5.002-12.656-3.231-19.83-24.7-21.525-6.825-.518-12.734.882-17.725 4.2-3.431 3.095-4.806 7.062-4.125 11.9.14.956.357 1.948.65 2.975.129.45.271.91.425 1.375a16.705 16.705 0 0 0-1.875 1.75c-1.898 2.084-3.156 4.61-3.775 7.575-.804 3.687-.337 7.161 1.4 10.425 1.821 3.348 4.446 5.765 7.875 7.25 3.813 1.652 7.604 1.61 11.375-.125 2.96-1.319 5.794-3.019 8.5-5.1m38.775 2.05a23.423 23.423 0 0 1-.35-3.925c-.41 1.384-.292 2.692.35 3.925m-6.525 7c3.788 4.812 7.963 5.437 12.525 1.875 4.238-3.294 5.779-7.853 4.625-13.675a10.365 10.365 0 0 1-.075-.35 13.39 13.39 0 0 0-.75-2.35c.163.784.279 1.568.35 2.35a19.985 19.985 0 0 1-.45 6.85c.052-2.856-.172-5.122-.675-6.8A18.88 18.88 0 0 0 183 168.6c-1.354.756-1.945 1.914-1.775 3.475.17 1.571.953 2.887 2.35 3.95-1.121.446-2.163.688-3.125.725-2.414.124-4.314-1.043-5.7-3.5a43.287 43.287 0 0 1-1.225 2.925 26.01 26.01 0 0 1-1.35 2.6" fill="#ea9e44" fill-rule="evenodd"/><path d="M194.675 69.2c-.201.221-.41.438-.625.65.109.337.2.68.275 1.025a11.61 11.61 0 0 1 .35 3.2c-.08 1.65-.097 3.3-.05 4.95.037 1.567.096 3.133.175 4.7.13 1.617.238 3.233.325 4.85a61.8 61.8 0 0 0 .45 4.875c.168 1.57.25 3.162.25 4.774a18.181 18.181 0 0 1-.775 4.75 25.15 25.15 0 0 1-1.825 4.451c-.572 1.1-.905 2.308-1 3.625a8.337 8.337 0 0 0-.025.75 53.953 53.953 0 0 0-.75 3.725 62.486 62.486 0 0 0-.6 4.625 47.557 47.557 0 0 1-.75 4.925c-.335 1.697-.31 3.33.075 4.9.383 1.65 1.042 3.066 1.976 4.25.84 1.143 1.999 2.201 3.474 3.175.639.43 1.214.88 1.725 1.35 1.27 1.136 2.796 1.594 4.575 1.375a9.607 9.607 0 0 0 4.625-1.7 17.606 17.606 0 0 0 3.5-3.125c1.227-1.434 2.643-2.317 4.25-2.65-2.163-1.15-5.271-.658-9.325 1.475-2.106 1.111-3.988 1.211-5.65.3-1.812-.99-3.17-3.282-4.075-6.875-.891-3.583-.158-12.692 2.2-27.326 2.346-14.634 1.42-24.976-2.775-31.024m-29.2 32.6c-1.331.01-2.681.268-4.05.775-5.586-5.64-10.644-9.156-15.175-10.55-2.018-.617-3.934-.808-5.75-.575a891.209 891.209 0 0 0-.125-5.3 11.057 11.057 0 0 1 .95-4.825 20.566 20.566 0 0 1 2.2-3.875c.047-.085.097-.168.15-.25a17.119 17.119 0 0 1 1.6-4.325 18.437 18.437 0 0 1 2.65-3.875c.938-1.058 2.088-1.924 3.45-2.6 1.517-.76 2.484-1.902 2.9-3.426.135-.426.46-.726.975-.899a17.048 17.048 0 0 1 4.875-.825h19.05c1.656-.002 3.439-.152 5.35-.45-.258-.968-.666-1.676-1.225-2.125-1.008-.818-2.525-.785-4.55.1a12.7 12.7 0 0 0-.974.45c-7.487-2.004-13.962-2.463-19.426-1.376-13.121 2.622-20.396 14.164-21.825 34.625-4.663 1.625-8.113 4.642-10.35 9.051-.383.75-.7 1.625-.95 2.625l.1.05c.166-.008.374-.058.625-.15a3.826 3.826 0 0 0 1.975-1.375 7.25 7.25 0 0 0 1.2-1.975 5.547 5.547 0 0 1 1.4-2.05 8.171 8.171 0 0 1 1.975-1.45c.72-.38 1.462-.738 2.225-1.075a10.366 10.366 0 0 1 2.15-.65 15.7 15.7 0 0 1 2.425-.175c.758-.005 1.517.053 2.275.174a9.18 9.18 0 0 1 2.3.576l2.15.775c.762.254 1.546.487 2.35.7a8.071 8.071 0 0 1 2.225.95l1.65.874c.592.342 1.142.725 1.65 1.151a12.698 12.698 0 0 1 1.725 1.65c.467.636.817 1.494 1.05 2.574-.942.405-1.9.78-2.875 1.125-1.088.37-2.197.703-3.325 1a9.055 9.055 0 0 1-1.45.451 1.158 1.158 0 0 1-.1-.076 54.521 54.521 0 0 1-6.125 1.151 21.406 21.406 0 0 0 3.05 3.625c.712-.039 1.446-.247 2.2-.625l.525-.276 1-.5a43.99 43.99 0 0 0 2.05-1.024 18.903 18.903 0 0 1 1.9-.875 35.406 35.406 0 0 1 2.225-.95 11.94 11.94 0 0 1 2.1-.575 20.487 20.487 0 0 0 2.15-.625c.55-.212 1.14-.446 1.776-.7a14.723 14.723 0 0 1 2.349-.575c.68-.129 1.297-.046 1.85.25.719.3 1.35.641 1.9 1.025.255.121.487.262.7.424.213.134.405.267.576.401.17.125.32.25.449.375.167.083.334.208.5.375l.5.625c.472.557.88 1.157 1.225 1.8.125.213.209.445.25.7.037.204.055.43.05.675V116c.007.971.099 1.962.276 2.974l.049.051c4.927-5.31 5.794-9.527 2.6-12.65a20.992 20.992 0 0 0-1.8-1.575 15.744 15.744 0 0 0-2.525-1.625c-.39-.208-.781-.39-1.175-.55a11.047 11.047 0 0 0-4.075-.825m-3.875 26.275a56.331 56.331 0 0 0-3.525-.525 87.894 87.894 0 0 0-5.35-.4 139.327 139.327 0 0 0-3.275-.1c.944.174 1.844.366 2.7.575 3.433-.194 6.525.081 9.275.825 5.582 1.5 9.79 4.91 12.625 10.225.096-1.213.07-2.312-.075-3.3 1.24 1.06 2.34 2.817 3.3 5.275.443-2.658-.932-5.39-4.124-8.2v2.15c-1.15-3.167-5-5.342-11.551-6.525m-15.825 70.675c.847.953 1.189 1.92 1.025 2.9.22-.106.412-.223.575-.35 1.87-1.477 1.27-3.16-1.8-5.05-3.05-1.896-5.775-3.03-8.175-3.4h-4c6.442 1.905 10.567 3.871 12.375 5.9m4.775-9.4c-.295-2.26-2.27-3.36-5.925-3.3 1.647-1.909-.345-3.067-5.975-3.475 4.935 1.083 5.827 2.734 2.675 4.95 4.954.092 8.03.7 9.225 1.825m.15 2.4c10.17-1.777 17.329-6.1 21.475-12.975.492-.827.94-1.694 1.35-2.6a43.79 43.79 0 0 0 1.225-2.925 46.193 46.193 0 0 0 1.575-5.1c.862-3.575 1.179-7.1.95-10.575a33.614 33.614 0 0 0-.874-5.75c2.668-3.272 3.659-7.589 2.974-12.95-.693 6.998-2.918 11.331-6.675 13h2.175c2.096 20.75-5.846 33.541-23.825 38.375.062.23.062.48 0 .75a1.91 1.91 0 0 1-.35.75" fill="#881c0d" fill-rule="evenodd"/><path d="M102.8 169.6c-1.206-4.652-1.131-9.31.225-13.975.11-.404.236-.812.375-1.225-2.23-.727-4.254-1.194-6.075-1.4.392.226.767.576 1.125 1.05.895 1.18 1.345 2.53 1.35 4.05.036 1.452.136 2.902.3 4.35a21.41 21.41 0 0 1-.5 4.75c-.338 1.55-1.071 2.683-2.2 3.4 1.998.303 3.797-.03 5.4-1m77.65 7.15c-1.434-1.5-2.002-3.117-1.7-4.85a1.907 1.907 0 0 0-.05-.125c-.642-1.233-.76-2.54-.35-3.925v-.15c.09-1.485.58-2.885 1.475-4.2a32.418 32.418 0 0 1 2.65-3.3c.346-.392.713-.758 1.1-1.1-1.732-.86-3.832-1.369-6.3-1.525.229 3.475-.088 7-.95 10.575a46.193 46.193 0 0 1-1.575 5.1c1.386 2.457 3.286 3.624 5.7 3.5" fill="#ca7624" fill-rule="evenodd"/><path d="M146.25 92.025c4.531 1.394 9.589 4.91 15.175 10.55 1.369-.507 2.719-.766 4.05-.776-.359-1.047-.959-2.139-1.8-3.274a17.458 17.458 0 0 0-1.95-2.025 9.844 9.844 0 0 0-4.125-1.85 56.031 56.031 0 0 1-4.45-.95 9.897 9.897 0 0 1-4-2.15 26.05 26.05 0 0 1-1.85-1.725 39.062 39.062 0 0 0-1.05 2.2M97.4 170.6c1.129-.718 1.862-1.85 2.2-3.4a21.413 21.413 0 0 0 .5-4.75 49.164 49.164 0 0 1-.3-4.35c-.006-1.52-.455-2.87-1.35-4.05-.358-.474-.733-.824-1.125-1.05-3.073-.34-5.565.06-7.475 1.2a51.255 51.255 0 0 1 2.95 2.45 8.384 8.384 0 0 1 2.3 3.8c.421 1.53.546 3.078.375 4.65-.166 1.945-1.158 3.17-2.975 3.675 1.75.983 3.384 1.591 4.9 1.825m62.225-117.275c.588-.303 1.388-.119 2.4.55 4.067-3.234 7.542-3.567 10.425-1 2.033-1.535 3.583-1.684 4.65-.45.687-.49 1.32-.973 1.9-1.45a20.09 20.09 0 0 1-2.925-1.1 21.724 21.724 0 0 0-4.125-1.45 12.74 12.74 0 0 0-4.9-.2 25.299 25.299 0 0 1-4.75.2 70.602 70.602 0 0 1-5.125-.425c.609 1.61 1.425 3.385 2.45 5.325M181.1 40.25c.356-.9.498-1.742.425-2.526-.033-.43-.083-.822-.15-1.175-.31-1.517-.951-2.384-1.925-2.599-1.919-.423-4.219-.348-6.9.224a4.752 4.752 0 0 0-.55-.299c-3.085-1.393-5.535-1.36-7.35.1-.924.737-1.524 2.062-1.8 3.975-.248 1.88-.181 4.33.2 7.35a99.902 99.902 0 0 1 2.55-3.475 45.788 45.788 0 0 0 2.85-4c.932-1.358 2.223-2.249 3.875-2.675a5.767 5.767 0 0 1 1.175-.125c.77.958.979 2.308.625 4.05 1.855.008 3.563.14 5.125.4.766.146 1.382.404 1.85.775m10.875 31.224a14.162 14.162 0 0 0 2.075-1.625c.216-.212.424-.428.625-.649-.126-1.652-.951-2.944-2.475-3.875-1.442-.85-2.608-1.934-3.5-3.25a20.79 20.79 0 0 1-2.2-4.05c-.64-1.529-1.798-2.57-3.475-3.125.267 1.18.359 2.437.275 3.774.558.45.967 1.158 1.225 2.125.134.591.218 1.274.25 2.05 2.945.36 3.603 2.301 1.975 5.825.916.01 1.657.192 2.225.55.931.59 1.415 1.64 1.45 3.151a15.114 15.114 0 0 0 1.55-.9m-27.85 62.85c-2.233-3.063-6.225-5.296-11.975-6.7a49.412 49.412 0 0 0-2.7-.576 67.26 67.26 0 0 0-5-.699c-3.667-.378-7.017-.452-10.05-.225-2.162.181-4.162.514-6 1a24.329 24.329 0 0 0-3.425 1.125c-1.653.69-3.137 1.54-4.45 2.55-.372.288-.722.588-1.05.9 4.991-3.318 10.9-4.718 17.725-4.2 21.469 1.693 29.702 8.87 24.7 21.525 5.553 8.473 6.237 15.373 2.05 20.7-5.775 4.832-13.783 4.832-24.025 0 .193.152.384.302.575.45 9.267 7.093 17.167 8.31 23.7 3.65 1.461-1.044 2.611-2.26 3.45-3.65 2.954-4.943 1.929-12.076-3.075-21.4 1.086-2.768 1.636-5.285 1.65-7.55.02-2.643-.68-4.943-2.1-6.9m24.375 29.95c-1.003-2.334-2.645-4.06-4.925-5.175-.387.342-.754.708-1.1 1.1a32.31 32.31 0 0 0-2.65 3.3c-.894 1.315-1.386 2.715-1.475 4.2v.15c.009 1.35.126 2.657.35 3.925.02.046.036.087.05.125-.302 1.733.266 3.35 1.7 4.85.962-.037 2.004-.279 3.125-.725-1.397-1.063-2.18-2.379-2.35-3.95-.17-1.56.421-2.719 1.775-3.475a18.921 18.921 0 0 1 4.725-1.926c.503 1.68.727 3.945.675 6.801.543-2.234.694-4.517.45-6.85a20.729 20.729 0 0 0-.35-2.35" fill="#dc8a38" fill-rule="evenodd"/><path d="M171.275 98.7c1.293-.604 1.668-1.694 1.125-3.275a41.247 41.247 0 0 1-1.125 3.275m-27.75-21.25c-.57.906-.813 1.94-.726 3.1.043 1.276.277 2.467.701 3.575a14.732 14.732 0 0 0 2.475 4.25c.44.511.882.994 1.324 1.45 3.907-7.646 8.715-10.838 14.425-9.575 6.233 1.368 9.933 3.677 11.101 6.925.554 1.541.595 3.506.125 5.9a7.73 7.73 0 0 1 1.35-2.025 4.759 4.759 0 0 0 1.075-2.225c.254-1.612.487-3.246.7-4.9.083-.637.166-1.295.25-1.975.173-1.69.472-3.23.9-4.625.247-.805.39-1.47.425-2a140.97 140.97 0 0 1-9.95.75 24.414 24.414 0 0 1-4.575-1.05c-1.404-.46-1.538-1.109-.4-1.95.386-.345.836-.52 1.35-.525 1.65 0 3.26.082 4.825.25 1.65.176 3.3.268 4.95.275 1.608 0 3.216-.04 4.824-.125a11.323 11.323 0 0 0 4.5-1.226 46.483 46.483 0 0 1 4.401-1.949c.47-.195.936-.378 1.4-.55-.568-.359-1.309-.542-2.225-.55-3.006-2.329-5.398-3.579-7.175-3.75a172.849 172.849 0 0 1-4.9-.675 23.735 23.735 0 0 0-1.6-.2 46.15 46.15 0 0 0-4.825-.25h-4.826c-1.564 0-3.022.275-4.375.825a20.744 20.744 0 0 0-4.199 2.35 69.809 69.809 0 0 0-3.55 2.85 134.746 134.746 0 0 0-3.626 3.25 106.57 106.57 0 0 1-3.099 3.1c-.355.32-.655.661-.9 1.025a4.843 4.843 0 0 0-.15.25m27.2 25.725c.028-.914-.064-1.748-.275-2.5a56.937 56.937 0 0 1-.9 1.95c.393.16.785.342 1.174.55m-54.55 27.525c-1.062.857-1.778 2.057-2.149 3.6-.428 1.607-1.236 3.024-2.425 4.25.972 1.27.781 2.328-.575 3.175-1.729 1.055-1.638 2.088.274 3.1 1.394.766 2.936 1.34 4.625 1.725a.423.423 0 0 1 .076.025 22.694 22.694 0 0 1-.65-2.975c-.68-4.838.694-8.805 4.125-11.9.328-.312.677-.61 1.05-.9 1.313-1.01 2.796-1.86 4.45-2.55a24.286 24.286 0 0 1 3.425-1.125c-.697.13-1.38.262-2.05.4-.804.176-1.588.36-2.35.55-.257.057-.515.116-.775.175-2.104.548-4.013 1.173-5.725 1.875-.479-.079-.896.105-1.25.55a1.69 1.69 0 0 1-.076.025m9.026-26.45c.028-.01.07-.027.125-.05l-.1-.05a.665.665 0 0 0-.025.1m51.9-51.825c-1.067-1.234-2.617-1.084-4.65.45-2.883-2.567-6.359-2.234-10.425 1-1.013-.669-1.813-.853-2.4-.55-.9.418-1.326 1.926-1.275 4.524 5.463-1.087 11.94-.628 19.425 1.375.334-.17.66-.32.975-.449-.187-3.157-.737-5.274-1.65-6.35m16.95 17.424a14.109 14.109 0 0 1-2.076 1.625c1.033 2.911 1.5 7.37 1.401 13.375-.093 5.988-1.435 16.171-4.026 30.551-2.555 14.145-1.23 23.437 3.976 27.875-.789-.85-.122-1.325 2-1.425a9.87 9.87 0 0 1 4.425.9 12.648 12.648 0 0 0 4.85 1.075c1.603.04 2.994-.343 4.175-1.15a20.258 20.258 0 0 0 2.55-2.15 136 136 0 0 0 3.375-3.5 56.89 56.89 0 0 1 1.85-2c-.334-.812-.925-1.512-1.775-2.1a4.418 4.418 0 0 0-.476-.275c-1.607.333-3.023 1.216-4.25 2.65a17.55 17.55 0 0 1-3.5 3.125 9.6 9.6 0 0 1-4.625 1.7c-1.779.22-3.303-.239-4.575-1.375a14.363 14.363 0 0 0-1.724-1.35c-1.476-.974-2.634-2.032-3.475-3.175-.934-1.184-1.593-2.6-1.976-4.25-.384-1.57-.41-3.203-.075-4.9.346-1.694.596-3.336.75-4.925a63.02 63.02 0 0 1 .601-4.625c.206-1.249.456-2.49.75-3.725a8.731 8.731 0 0 1 .024-.75c.095-1.317.428-2.525 1-3.625a25.15 25.15 0 0 0 1.825-4.45c.471-1.562.73-3.146.776-4.75a44.589 44.589 0 0 0-.25-4.775 61.328 61.328 0 0 1-.45-4.875 183.953 183.953 0 0 0-.326-4.85 175.457 175.457 0 0 1-.174-4.7c-.047-1.65-.03-3.3.05-4.95a11.61 11.61 0 0 0-.35-3.2 10.22 10.22 0 0 0-.276-1.026m-37.074 48.226c-2.27 1.954-4.645 2.438-7.125 1.45-2.495-.98-4.487-2.188-5.975-3.625-1.496-1.434-2.146-4.002-1.95-7.7l-4.3-1.025a56.499 56.499 0 0 0-2.975 6.8 6.238 6.238 0 0 1-1.45-1.85 3.064 3.064 0 0 1-.45-2.35c.172-.8.24-1.6.2-2.4.002-.43-.164-.838-.5-1.225-.849-.8-.765-1.284.25-1.45a5.417 5.417 0 0 1 2.474.05c.758.172 1.558.28 2.401.325.683.087 1.367.195 2.05.325.762.167 1.545.292 2.35.375a20.94 20.94 0 0 1 2.35.25c.716.125 1.474.25 2.275.375.738.122 1.513.398 2.324.824.037.031.07.056.101.076a9.087 9.087 0 0 0 1.45-.45 49.338 49.338 0 0 0 3.324-1c.03-.213-.038-.364-.199-.45a9.012 9.012 0 0 1-1.926-1.475 21.359 21.359 0 0 1-1.774-1.576 61.216 61.216 0 0 0-1.65-1.599 10.997 10.997 0 0 0-1.85-1.325 20.733 20.733 0 0 0-2.2-1.025 5.818 5.818 0 0 0-2.425-.375 53.53 53.53 0 0 0-2.476.2c-.72.124-1.462.25-2.224.374a8.013 8.013 0 0 0-2.15.625c-.768.345-1.493.754-2.175 1.226a6.648 6.648 0 0 0-1.775 1.65c-.469.628-.852 1.28-1.15 1.95a12.608 12.608 0 0 0-.825 2.1 11.857 11.857 0 0 0-.576 2.1 10.508 10.508 0 0 0-.125 2.3c.001.716-.04 1.433-.125 2.15-.12.8-.26 1.6-.424 2.4a43.242 43.242 0 0 1-.45 2.3 18.825 18.825 0 0 0-.25 2.275c-.003.68.163 1.296.5 1.85.421.632 1.055 1.073 1.9 1.324.72.257 1.503.366 2.35.326a5.812 5.812 0 0 1 2.225.45c.763.337 1.463.736 2.1 1.2.635.467 1.377.658 2.225.575a23.245 23.245 0 0 0 2.475-.25 31.675 31.675 0 0 1 2.1-.2 33.544 33.544 0 0 0 2.025-.3 16.662 16.662 0 0 1 2.1-.275c.638 0 1.254.041 1.85.125a6.63 6.63 0 0 1 2.024.775c.717.34 1.317.964 1.801 1.875 1.92.09 3.702.222 5.35.4 1.251.15 2.427.323 3.524.525 4.632-3.267 8.215-6.25 10.75-8.95a3.17 3.17 0 0 1 .101-.1l-.05-.05a17.886 17.886 0 0 1-.275-2.975V111.925a3.473 3.473 0 0 0-.05-.675 1.993 1.993 0 0 0-.25-.7 10.282 10.282 0 0 0-1.226-1.8l-.5-.625a1.926 1.926 0 0 0-.5-.375 4.235 4.235 0 0 0-.449-.375 6.813 6.813 0 0 0-.575-.4 3.975 3.975 0 0 0-.7-.425 10.014 10.014 0 0 0-1.9-1.025c-.554-.296-1.17-.379-1.85-.25-.805.128-1.588.32-2.35.574-.635.255-1.226.49-1.775.701-.717.251-1.433.46-2.15.625-.72.13-1.422.32-2.1.575-.763.296-1.505.612-2.225.95-.634.25-1.267.541-1.9.875-.642.342-1.325.684-2.05 1.024l-1 .5c.548.297 1.222.572 2.025.826.766.213 1.533.404 2.3.575.804.175 1.587.39 2.35.65.712.254 1.445.488 2.2.7.762.207 1.504.457 2.224.75.767.257 1.534.557 2.3.9a37.16 37.16 0 0 0 1.901.825c.758.333 1.475.667 2.15 1 .51.254.618.528.324.825a4.635 4.635 0 0 1-1.099.9 3.72 3.72 0 0 1-.8.325h-.075a56.19 56.19 0 0 1-2.776-.35c-1.278 1.741-3.103 3.484-5.474 5.225a8.455 8.455 0 0 1 .9-2.1c.418-.717.71-1.474.875-2.275.122-.572.163-1.08.125-1.526-.354-.09-.704-.183-1.05-.274m7.15 16.25c1.42 1.958 2.12 4.257 2.1 6.9-.014 2.266-.564 4.782-1.65 7.55 5.004 9.324 6.03 16.457 3.075 21.4-.84 1.39-1.989 2.607-3.45 3.65-6.533 4.66-14.434 3.443-23.7-3.65a92.716 92.716 0 0 1-.576-.45c-2.706 2.081-5.539 3.781-8.5 5.1-3.77 1.735-7.562 1.777-11.375.125-3.429-1.485-6.054-3.902-7.875-7.25-1.736-3.264-2.203-6.738-1.399-10.425.618-2.966 1.876-5.49 3.774-7.575-9.798 4.464-11.965 12.581-6.5 24.35 4.318 9.317 11.177 16.476 20.576 21.475 5.42 2.832 11.137 3.907 17.15 3.225-1.808-2.029-5.933-3.995-12.375-5.9h4c7.562.853 11.996.487 13.3-1.1.173-.228.29-.478.35-.75a1.533 1.533 0 0 0 0-.75 1.704 1.704 0 0 0-.5-.9c-1.196-1.125-4.27-1.733-9.225-1.825 3.151-2.216 2.26-3.867-2.675-4.95.512-.89 1.554-1.357 3.125-1.4a19.366 19.366 0 0 0 4.625-.825c1.906-.55 3.39-.317 4.45.7.51.544.7 1.235.574 2.075-.336 1.954.556 2.83 2.676 2.625 1.265-.089 2.34-.388 3.225-.9a3.393 3.393 0 0 0 1.35-1.075c1.058-1.4 2.158-2.566 3.3-3.5a76.414 76.414 0 0 0 3.425-2.85c1.273-1.02 2.356-2.103 3.25-3.25a16.895 16.895 0 0 0 2.274-4.125 27.98 27.98 0 0 0 1.326-4.7c.302-1.608.435-3.258.4-4.95-.005-1.567.012-3.134.05-4.7.084-1.69-.424-3.15-1.526-4.375a17.492 17.492 0 0 0-1.575-1.525c-.636-.508-.319-1.017.95-1.525 1.1-.467 1.967-1.167 2.601-2.1.548-1.654.44-3.054-.325-4.2-.715.082-1.322.248-1.825.5.458-2.455-.142-4.338-1.8-5.65-1.013-.799-2.005-1.407-2.976-1.825a9.39 9.39 0 0 0-2.099-.675" fill="#aa290f" fill-rule="evenodd"/><path d="M143.525 77.45a20.566 20.566 0 0 0-2.2 3.875 11.057 11.057 0 0 0-.95 4.825c.042 1.566.084 3.332.125 5.3 1.816-.233 3.732-.042 5.75.575.34-.773.692-1.507 1.05-2.2a32.71 32.71 0 0 1-1.325-1.45 14.732 14.732 0 0 1-2.475-4.25 10.963 10.963 0 0 1-.7-3.575c-.087-1.16.155-2.194.725-3.1m43.225-8.775c1.628-3.525.97-5.466-1.975-5.826a11.453 11.453 0 0 0-.25-2.049c-1.911.298-3.694.448-5.35.45h-19.05a17.048 17.048 0 0 0-4.875.825c-.516.173-.84.473-.975.9-.416 1.523-1.383 2.664-2.9 3.425-1.362.676-2.512 1.542-3.45 2.6a18.437 18.437 0 0 0-2.65 3.875 17.119 17.119 0 0 0-1.6 4.325c.246-.364.546-.705.9-1.025a106.604 106.604 0 0 0 3.1-3.1 131.747 131.747 0 0 1 3.625-3.25 69.792 69.792 0 0 1 3.55-2.85 20.778 20.778 0 0 1 4.2-2.35c1.352-.55 2.81-.825 4.375-.825h4.825a46.135 46.135 0 0 1 4.825.25c.512.046 1.045.112 1.6.2 1.612.246 3.246.471 4.9.675 1.778.171 4.169 1.421 7.175 3.75M125.325 104.2c-.055.023-.096.04-.125.05v.075c-1.163 4.86-.78 12.593 1.15 23.2.67-.138 1.353-.27 2.05-.4 1.838-.486 3.838-.819 6-1 3.033-.227 6.383-.153 10.05.225a66.72 66.72 0 0 1 5 .7c1.136.022 2.227.055 3.275.1-.484-.91-1.083-1.536-1.8-1.875a6.644 6.644 0 0 0-2.025-.775 13.09 13.09 0 0 0-1.85-.125c-.721.05-1.421.14-2.1.275a33.63 33.63 0 0 1-2.025.3c-.721.045-1.421.112-2.1.2-.804.126-1.63.21-2.475.25-.847.083-1.59-.108-2.225-.575a11.284 11.284 0 0 0-2.1-1.2 5.811 5.811 0 0 0-2.225-.45c-.847.04-1.63-.069-2.35-.326-.845-.25-1.478-.692-1.9-1.324a3.466 3.466 0 0 1-.5-1.85c.04-.8.124-1.559.25-2.275.17-.766.32-1.534.45-2.3.163-.8.305-1.6.425-2.4.084-.717.126-1.434.125-2.15a10.508 10.508 0 0 1 .125-2.3c.128-.72.32-1.42.575-2.1.212-.72.486-1.422.825-2.1a10.27 10.27 0 0 1 1.15-1.95 6.663 6.663 0 0 1 1.775-1.65 13.71 13.71 0 0 1 2.175-1.226 8.005 8.005 0 0 1 2.15-.625c.763-.125 1.505-.25 2.225-.375a53.378 53.378 0 0 1 2.475-.199 5.816 5.816 0 0 1 2.425.375c.755.3 1.488.641 2.2 1.025.723.421 1.339.862 1.85 1.325.55.512 1.1 1.046 1.65 1.6a21.214 21.214 0 0 0 1.775 1.575 9.007 9.007 0 0 0 1.925 1.475c.162.086.229.237.2.45.975-.346 1.933-.72 2.875-1.126-.233-1.08-.584-1.938-1.05-2.574a12.698 12.698 0 0 0-1.725-1.65 11.557 11.557 0 0 0-1.65-1.15l-1.65-.876a8.071 8.071 0 0 0-2.225-.949 38.87 38.87 0 0 1-2.35-.7 1850.7 1850.7 0 0 0-2.15-.775 9.202 9.202 0 0 0-2.3-.576 13.836 13.836 0 0 0-2.275-.174 15.7 15.7 0 0 0-2.425.174c-.717.132-1.433.35-2.15.651-.763.337-1.505.695-2.225 1.075-.722.377-1.38.86-1.975 1.45a5.535 5.535 0 0 0-1.4 2.05 7.25 7.25 0 0 1-1.2 1.975 3.83 3.83 0 0 1-1.975 1.375 2.207 2.207 0 0 1-.625.15m26.825 23.425c5.75 1.404 9.742 3.638 11.975 6.7a9.417 9.417 0 0 1 2.1.675c.97.418 1.963 1.026 2.975 1.825 1.658 1.312 2.258 3.195 1.8 5.65.503-.252 1.11-.418 1.825-.5.765 1.146.873 2.546.325 4.2-.633.933-1.5 1.633-2.6 2.1-1.27.508-1.586 1.017-.95 1.525.547.466 1.07.974 1.575 1.525 1.1 1.225 1.609 2.684 1.525 4.375a175.31 175.31 0 0 0-.05 4.7 23.915 23.915 0 0 1-.4 4.95 27.976 27.976 0 0 1-1.325 4.7 16.931 16.931 0 0 1-2.275 4.125c-.893 1.147-1.976 2.23-3.25 3.25a76.383 76.383 0 0 1-3.425 2.85c-1.142.934-2.242 2.1-3.3 3.5a3.396 3.396 0 0 1-1.35 1.075c-.884.512-1.96.811-3.225.9-2.12.204-3.011-.67-2.675-2.625.126-.84-.066-1.53-.575-2.075-1.06-1.017-2.543-1.25-4.45-.7-1.521.465-3.062.74-4.625.825-1.571.043-2.612.51-3.125 1.4 5.63.408 7.622 1.566 5.975 3.475 3.655-.06 5.63 1.04 5.925 3.3.27.268.437.568.5.9 17.979-4.834 25.92-17.626 23.825-38.375H172.7c3.757-1.669 5.982-6.002 6.675-13l-2.1 1.775c-.96-2.458-2.06-4.216-3.3-5.275.145.988.17 2.087.075 3.3-2.834-5.316-7.043-8.725-12.625-10.225-2.75-.744-5.842-1.019-9.275-.825" fill="#9e2110" fill-rule="evenodd"/><path d="M142.8 108.375a54.52 54.52 0 0 0 6.125-1.15c-.812-.427-1.586-.703-2.325-.825-.8-.125-1.56-.25-2.275-.375a20.915 20.915 0 0 0-2.35-.25 21.09 21.09 0 0 1-2.35-.375 34.626 34.626 0 0 0-2.05-.325 14.278 14.278 0 0 1-2.4-.325 5.422 5.422 0 0 0-2.475-.05c-1.015.166-1.098.65-.25 1.45.336.387.503.795.5 1.225.039.8-.027 1.6-.2 2.4a3.073 3.073 0 0 0 .45 2.35 6.259 6.259 0 0 0 1.45 1.85 56.761 56.761 0 0 1 2.975-6.8l4.3 1.025zm3.05 3.625c2.899 2.812 6.607 4.836 11.125 6.075l1.05.275c.039.444-.003.953-.125 1.525a7.426 7.426 0 0 1-.875 2.275 8.493 8.493 0 0 0-.9 2.1c2.372-1.741 4.196-3.483 5.475-5.225.898.137 1.823.253 2.775.35h.075a3.7 3.7 0 0 0 .8-.325 4.62 4.62 0 0 0 1.1-.9c.294-.296.185-.571-.324-.825a52.941 52.941 0 0 0-2.151-1 37.13 37.13 0 0 1-1.9-.825 25.402 25.402 0 0 0-2.3-.9 19.707 19.707 0 0 0-2.225-.75 33.683 33.683 0 0 1-2.2-.7 21.458 21.458 0 0 0-2.35-.65 45.988 45.988 0 0 1-2.3-.575c-.802-.254-1.477-.529-2.025-.825l-.525.275c-.754.378-1.488.586-2.2.625m70.7 23.025a56.915 56.915 0 0 0-1.85 2 132.703 132.703 0 0 1-3.375 3.5 20.25 20.25 0 0 1-2.55 2.15c-1.18.807-2.572 1.19-4.175 1.15a12.653 12.653 0 0 1-4.85-1.075 9.864 9.864 0 0 0-4.425-.9c-2.122.1-2.79.575-2 1.425.096.076.188.151.275.225.212.168.42.335.625.5 5.189 3.929 9.823 4.962 13.9 3.1 4.242-1.936 6.959-4.402 8.15-7.4.719-1.836.81-3.394.275-4.675m-26.125-62.65c-.035-1.511-.52-2.561-1.45-3.15-.463.172-.93.355-1.4.55a46.103 46.103 0 0 0-4.4 1.95 11.347 11.347 0 0 1-4.5 1.225 92.492 92.492 0 0 1-4.825.125c-1.65-.007-3.3-.098-4.95-.275a44.991 44.991 0 0 0-4.825-.25c-.513.006-.963.18-1.35.525-1.137.841-1.003 1.49.4 1.95 1.486.496 3.01.846 4.575 1.05a141 141 0 0 0 9.95-.75c-.036.529-.177 1.196-.425 2-.427 1.394-.727 2.935-.9 4.625-.084.68-.167 1.338-.25 1.975a168.363 168.363 0 0 1-.7 4.9 4.757 4.757 0 0 1-1.075 2.225 7.775 7.775 0 0 0-1.35 2.025 23.768 23.768 0 0 1-.55 2.35c.544 1.581.169 2.672-1.124 3.275a47.95 47.95 0 0 1-.826 1.975c.21.752.303 1.586.275 2.5.848.432 1.69.974 2.525 1.625 4.106-10.109 6.964-20.117 8.575-30.025a91.006 91.006 0 0 0 8.6-1.775 5.92 5.92 0 0 0 0-.625M114.55 149.7a16.799 16.799 0 0 1 1.875-1.75 37.923 37.923 0 0 1-.425-1.375.44.44 0 0 0-.075-.025c-1.69-.384-3.231-.959-4.625-1.725-1.912-1.012-2.004-2.045-.275-3.1 1.357-.847 1.548-1.905.575-3.175 1.19-1.226 1.998-2.643 2.425-4.25.37-1.543 1.088-2.743 2.15-3.6-2.894 1.371-5.177 2.996-6.85 4.875-.477-1.437-.635-2.453-.475-3.05-1.334 2.422-2.067 4.856-2.2 7.3-.897-1.318-1.49-2.418-1.775-3.3l-.775-1.15c-.24.995-.382 1.853-.425 2.575-.413 4.735.47 8.085 2.65 10.05-1.242 2.129-2.217 4.263-2.925 6.4-.14.413-.264.821-.375 1.225-1.356 4.665-1.431 9.323-.225 13.975a29.468 29.468 0 0 0 1.75 4.95 39.415 39.415 0 0 0 3.075 5.475c7.115 10.64 15.049 17.215 23.8 19.725 6.737 1.935 11.437 2.685 14.1 2.25a5.222 5.222 0 0 0 1.275-.35c.164-.98-.178-1.946-1.025-2.9-6.013.682-11.73-.393-17.15-3.225-9.4-4.999-16.257-12.157-20.575-21.475-5.465-11.769-3.3-19.885 6.5-24.35" fill="#da2d14" fill-rule="evenodd"/><path d="M151.1 159.9c.386.374.836.557 1.35.55.505.007.947-.176 1.325-.55.382-.386.574-.836.575-1.35 0-.505-.193-.947-.575-1.325-.378-.382-.82-.574-1.325-.575-.514 0-.964.193-1.35.575-.374.378-.558.82-.55 1.325-.008.514.176.964.55 1.35m6.425-6.9c.085.089.17.18.25.275.978 1.059 1.47 2.35 1.475 3.875-.005 1.528-.497 2.845-1.475 3.95-.926 1.054-2.043 1.579-3.35 1.575-1.32.004-2.47-.521-3.45-1.575-.933-1.105-1.399-2.422-1.4-3.95.007-1.465.45-2.715 1.325-3.75a40.433 40.433 0 0 1-3.35-.175c-.764 1.533-1.148 3.267-1.15 5.2.004 2.752.771 5.102 2.3 7.05 1.562 1.949 3.42 2.924 5.575 2.925 2.16-.001 4.001-.976 5.525-2.925 1.566-1.948 2.35-4.298 2.35-7.05.002-2.237-.514-4.212-1.55-5.925-1.035.203-2.06.37-3.075.5m-33.275 4.225c-.387-.382-.837-.574-1.35-.575-.505 0-.947.193-1.325.575-.382.378-.574.82-.575 1.325.001.514.193.964.575 1.35.378.374.82.557 1.325.55.513.007.963-.176 1.35-.55.382-.386.574-.836.575-1.35 0-.505-.193-.947-.575-1.325M128 153c.085.089.168.18.25.275.97 1.059 1.454 2.35 1.45 3.875.004 1.528-.48 2.845-1.45 3.95-.935 1.054-2.06 1.579-3.375 1.575-1.31.004-2.453-.521-3.425-1.575-.933-1.105-1.399-2.422-1.4-3.95 0-1.465.432-2.715 1.3-3.75a39.851 39.851 0 0 1-3.325-.175c-.764 1.533-1.148 3.267-1.15 5.2.004 2.752.771 5.102 2.3 7.05 1.562 1.949 3.42 2.924 5.575 2.925 2.16-.001 4.001-.976 5.525-2.925 1.567-1.948 2.35-4.298 2.35-7.05.002-2.237-.515-4.212-1.55-5.925-1.036.203-2.06.37-3.075.5" fill="#fff" fill-rule="evenodd"/><path d="M151.1 159.9c-.374-.386-.558-.836-.55-1.35-.008-.505.176-.947.55-1.325.386-.382.836-.574 1.35-.575.505 0 .947.193 1.325.575.382.378.574.82.575 1.325 0 .514-.193.964-.575 1.35-.378.374-.82.557-1.325.55-.514.007-.964-.176-1.35-.55m-.2-6.5c-.876 1.035-1.318 2.285-1.325 3.75.001 1.528.467 2.845 1.4 3.95.98 1.054 2.13 1.579 3.45 1.575 1.307.004 2.424-.521 3.35-1.575.978-1.105 1.47-2.422 1.475-3.95-.005-1.524-.497-2.816-1.475-3.875a7.283 7.283 0 0 0-.25-.275c-2.26.305-4.47.439-6.625.4m-26.65 3.825c.382.378.574.82.575 1.325 0 .514-.193.964-.575 1.35-.387.374-.837.557-1.35.55-.505.007-.947-.176-1.325-.55-.382-.386-.574-.836-.575-1.35.001-.505.193-.947.575-1.325.378-.382.82-.574 1.325-.575.513 0 .963.193 1.35.575M128 153c-2.27.305-4.486.439-6.65.4-.868 1.035-1.3 2.285-1.3 3.75.001 1.528.467 2.845 1.4 3.95.972 1.054 2.114 1.579 3.425 1.575 1.315.004 2.44-.521 3.375-1.575.97-1.105 1.454-2.422 1.45-3.95.004-1.524-.48-2.816-1.45-3.875A8.247 8.247 0 0 0 128 153" fill-rule="evenodd"/><path d="M147.55 148.85c.529-.673-.996-1.756-4.575-3.25-4.487 1.441-5.97 2.524-4.45 3.25 3.295.973 6.303.973 9.025 0" fill="#b45a25" fill-rule="evenodd"/><path d="M152.15 127.625c5.75 1.404 9.742 3.638 11.975 6.7m18-86.5c1.008-1.258 1.666-2.499 1.975-3.725m-9.975-5.025c-.298 1.528-1.022 3.352-2.175 5.475m9.425-8c.067.352.117.744.15 1.175.073.784-.07 1.626-.425 2.525m-6.975-1.175c.354-1.742.145-3.092-.625-4.05m0 0a3.377 3.377 0 0 0-.95-.85m-9.5 11.125c-.381-3.021-.448-5.471-.2-7.35m18.25 2.3c-.657 1.695-2.04 3.596-4.15 5.7m2.05 5.025c.478-.397.919-.788 1.325-1.175.388.42.739.853 1.05 1.3a10.846 10.846 0 0 1 1.65 3.8M179 50.975c-.58.477-1.213.961-1.9 1.45m3.225-2.625a18.577 18.577 0 0 0 1.8-1.975c1.98.812 3.222 2.429 3.725 4.85m3.675.2c-.281-2.269-1.19-3.993-2.725-5.175-1.537-1.184-2.437-2.385-2.7-3.6a6.293 6.293 0 0 0 .2-2.025m12.725 6.9c-.551-.361-1.226-.385-2.025-.075-2.793 1.095-4.168 4.136-4.125 9.125m-44.625 34c.34-.773.692-1.506 1.05-2.2M134.225 148.4c5.24 2.721 10.299 3.187 15.175 1.4m-7.475-41.6c-.195 3.698.454 6.266 1.95 7.7 1.489 1.437 3.48 2.645 5.975 3.625 2.48.988 4.856.504 7.125-1.45m-.95 27.1c-3.19-5.745-8.023-8.77-14.5-9.075-6.493-.308-10.985 1.208-13.475 4.55m.35-13.525a24.329 24.329 0 0 0-3.425 1.125c-1.653.689-3.137 1.54-4.45 2.55-.372.289-.722.589-1.05.9-3.431 3.095-4.806 7.062-4.125 11.9.14.957.357 1.948.65 2.975.129.45.27.909.425 1.375a16.799 16.799 0 0 0-1.875 1.75m13.85-22.575c1.838-.486 3.838-.819 6-1 3.033-.227 6.383-.152 10.05.225 1.776.185 3.442.418 5 .7m-6.475 18.55v-3.95m11.125 3.825c.73.044 1.372-.057 1.925-.3a2.989 2.989 0 0 0 1.05-.725M128 153a44.074 44.074 0 0 1-6.65.4m29.55 0a40.456 40.456 0 0 1-3.35-.175c-.764 1.533-1.148 3.267-1.15 5.2.004 2.752.77 5.102 2.3 7.05 1.562 1.949 3.42 2.924 5.575 2.925 2.159-.001 4-.976 5.525-2.925 1.566-1.948 2.35-4.298 2.35-7.05.002-2.237-.514-4.212-1.55-5.925-1.035.203-2.06.37-3.075.5-2.261.305-4.47.438-6.625.4zM128 153c1.015-.13 2.04-.297 3.075-.5 1.035 1.713 1.552 3.688 1.55 5.925 0 2.752-.783 5.102-2.35 7.05-1.524 1.949-3.366 2.924-5.525 2.925-2.155-.001-4.013-.976-5.575-2.925-1.53-1.948-2.296-4.298-2.3-7.05.003-1.933.386-3.667 1.15-5.2 1.09.104 2.199.162 3.325.175M92.5 168.775c1.75.983 3.384 1.592 4.9 1.825 1.998.303 3.797-.031 5.4-1m80.5-110.925c.084-1.338-.008-2.596-.275-3.775M147.3 89.825c3.906-7.646 8.714-10.838 14.425-9.575 6.232 1.368 9.932 3.677 11.1 6.925.554 1.541.595 3.507.125 5.9a23.785 23.785 0 0 1-.55 2.35 40.457 40.457 0 0 1-1.125 3.275c-.25.64-.525 1.298-.825 1.975m-.9 1.95c.322-.666.623-1.316.9-1.95m-18.3 26.95c-.856-.208-1.756-.4-2.7-.575M103.4 154.4c-2.23-.727-4.254-1.194-6.075-1.4-3.073-.341-5.565.06-7.475 1.2-2.17 1.302-3.585 3.561-4.25 6.775-1.603 7.729.114 12.97 5.15 15.725 5.036 2.737 9.636 2.02 13.8-2.15m85.875-102.175a14.926 14.926 0 0 0 1.55-.9 14.298 14.298 0 0 0 2.075-1.625 15.9 15.9 0 0 0 .625-.65c2.504-2.739 3.862-6.522 4.075-11.35.21-5.038-.364-7.996-1.725-8.875-3.42-9.162-7.663-11.461-12.725-6.9-.11-1.891-1.086-3.733-2.925-5.525-.31-1.518-.951-2.385-1.925-2.6-1.92-.423-4.218-.347-6.9.225a4.754 4.754 0 0 0-.55-.3c-3.085-1.393-5.535-1.359-7.35.1-.924.737-1.524 2.062-1.8 3.975-1.441-.908-2.682-1.242-3.725-1-1.053.255-1.712.522-1.975.8-1.858 1.946-1.85 5.363.025 10.25.609 1.61 1.425 3.386 2.45 5.325M114.55 149.7c-1.898 2.085-3.156 4.61-3.775 7.575-.804 3.687-.337 7.162 1.4 10.425 1.82 3.348 4.446 5.765 7.875 7.25 3.813 1.652 7.604 1.611 11.375-.125 2.96-1.319 5.794-3.019 8.5-5.1.193.152.384.302.575.45 9.267 7.093 17.167 8.31 23.7 3.65 1.46-1.043 2.61-2.26 3.45-3.65 2.955-4.943 1.929-12.076-3.075-21.4 1.086-2.768 1.636-5.284 1.65-7.55.02-2.642-.68-4.942-2.1-6.9m13.15 23.25c2.468.156 4.568.664 6.3 1.525 2.28 1.116 3.922 2.841 4.925 5.175m0 0c.31.722.56 1.505.75 2.35.024.117.048.234.075.35 1.155 5.822-.387 10.381-4.625 13.675-4.562 3.562-8.737 2.937-12.525-1.875m2.575-5.525c1.386 2.458 3.286 3.624 5.7 3.5.962-.037 2.004-.278 3.125-.725" fill="none" stroke="#be6f21" stroke-width=".6" stroke-linecap="round" stroke-linejoin="round" stroke-miterlimit="3"/><path d="M164.45 119.375a3.72 3.72 0 0 0 .8-.325m26.724-47.575c1.034 2.91 1.5 7.369 1.401 13.375-.093 5.987-1.435 16.171-4.026 30.55-2.555 14.145-1.23 23.437 3.976 27.875.096.076.188.151.274.225.212.168.42.335.625.5 5.19 3.929 9.824 4.962 13.901 3.1 4.242-1.936 6.96-4.402 8.15-7.4.72-1.836.811-3.394.275-4.675-.333-.812-.925-1.512-1.775-2.1a4.405 4.405 0 0 0-.475-.275c-2.163-1.15-5.272-.658-9.326 1.475-2.105 1.111-3.988 1.211-5.649.3-1.812-.99-3.17-3.282-4.075-6.875-.892-3.583-.158-12.692 2.2-27.325 2.346-14.635 1.42-24.977-2.775-31.025" fill="none" stroke="#320a04" stroke-width=".6" stroke-linecap="round" stroke-linejoin="round" stroke-miterlimit="3"/><path d="M151.1 159.9c.386.374.836.557 1.35.55.505.007.947-.176 1.325-.55.382-.386.574-.836.575-1.35 0-.505-.193-.947-.575-1.325-.378-.382-.82-.574-1.325-.575-.514 0-.964.193-1.35.575-.374.378-.558.82-.55 1.325-.008.514.176.964.55 1.35zm-.2-6.5c-.876 1.035-1.318 2.285-1.325 3.75.001 1.528.467 2.845 1.4 3.95.98 1.054 2.13 1.579 3.45 1.575 1.307.004 2.424-.521 3.35-1.575.978-1.105 1.47-2.422 1.475-3.95-.005-1.524-.497-2.816-1.475-3.875a7.283 7.283 0 0 0-.25-.275m-33.275 4.225c-.387-.382-.837-.574-1.35-.575-.505 0-.947.193-1.325.575-.382.378-.574.82-.575 1.325.001.514.193.964.575 1.35.378.374.82.557 1.325.55.513.007.963-.176 1.35-.55.382-.386.574-.836.575-1.35 0-.505-.193-.947-.575-1.325zm-2.9-3.825c-.868 1.035-1.3 2.285-1.3 3.75.001 1.528.467 2.845 1.4 3.95.972 1.054 2.114 1.579 3.425 1.575 1.315.004 2.44-.521 3.375-1.575.97-1.105 1.454-2.422 1.45-3.95.004-1.524-.48-2.816-1.45-3.875A8.247 8.247 0 0 0 128 153" fill="none" stroke="#000" stroke-width=".1" stroke-linecap="round" stroke-linejoin="round" stroke-miterlimit="3"/><path d="M147.55 148.85c-2.722.973-5.73.973-9.025 0-1.52-.726-.037-1.809 4.45-3.25 3.579 1.494 5.104 2.577 4.575 3.25z" fill="none" stroke="#743a18" stroke-width=".6" stroke-linecap="round" stroke-linejoin="round" stroke-miterlimit="3"/><path d="M128.405 127.116c-.702.134-1.39.27-2.064.413m52.398-68.753c-.309.127-.626.275-.952.445-7.49-2-13.968-2.456-19.436-1.365m15.37 21.625c-1.43-2.086-3.568-3.208-6.414-3.365.128-.006.255-.016.381-.033 3.55-.152 6.873-.407 9.971-.761 1.434-.158 2.821-.337 4.161-.54m-8.575 30.01a15.613 15.613 0 0 0-2.509-1.62c-.39-.205-.78-.385-1.175-.54a11.197 11.197 0 0 0-4.096-.826c-1.327.007-2.67.26-4.033.764m-23.818 4.604l-2.89-.7m1.81-14.004a29.487 29.487 0 0 1 2.7-.794 9.87 9.87 0 0 1 1.27-.222c1.815-.234 3.731-.045 5.748.57 4.532 1.393 9.591 4.907 15.18 10.546-.495.19-.993.415-1.493.666a48.236 48.236 0 0 1-3.27 1.492c-.937.399-1.889.77-2.859 1.11a51.915 51.915 0 0 1-3.334 1.019c-.512.138-1.03.264-1.557.38a54.586 54.586 0 0 1-6.129 1.142m-8.129 5.59a56.407 56.407 0 0 1 2.953-6.795l5.176 1.205a21.333 21.333 0 0 0 3.05 3.62c2.904 2.81 6.62 4.83 11.146 6.067l1.047.286c1.14.264 2.326.486 3.558.666m-5.463 5.24c2.368-1.747 4.187-3.493 5.463-5.24.904.137 1.835.253 2.793.349m-2.952 9.084l.16-.382a57.683 57.683 0 0 0-3.527-.508 86.882 86.882 0 0 0-5.335-.413 139.682 139.682 0 0 0-3.27-.095m-10.798 55.51c4.933 1.086 5.821 2.737 2.668 4.955 4.948.097 8.018.71 9.21 1.84.272.266.441.563.507.89.062.234.062.488 0 .763-.06.266-.177.509-.349.73m-46.143-17.18a39.285 39.285 0 0 0 3.08 5.462c7.111 10.638 15.04 17.212 23.787 19.72 6.736 1.936 11.436 2.688 14.1 2.255.497-.08.92-.194 1.27-.348.22-.107.41-.222.571-.35 1.877-1.476 1.285-3.16-1.778-5.05-3.057-1.894-5.787-3.027-8.194-3.398 7.566.85 12.001.48 13.307-1.111 10.167-1.771 17.322-6.09 21.467-12.956.497-.83.953-1.697 1.366-2.605.446-.98.848-1.954 1.207-2.921.392-1.03.74-2.057 1.048-3.08.197-.68.377-1.357.54-2.033.863-3.574 1.181-7.1.952-10.574a33.424 33.424 0 0 0-.89-5.75c2.672-3.273 3.667-7.592 2.987-12.956l-2.097 1.779c.441-2.656-.934-5.386-4.128-8.194v2.16c-1.15-3.172-5.005-5.353-11.559-6.542 4.635-3.268 8.224-6.252 10.765-8.955a2.15 2.15 0 0 1 .095-.096c4.93-5.306 5.797-9.52 2.604-12.638a21.12 21.12 0 0 0-1.81-1.588c4.105-10.105 6.963-20.108 8.575-30.01a90.815 90.815 0 0 0 8.605-1.78c.011-.22.011-.43 0-.634-.039-1.508-.526-2.556-1.46-3.143-.567-.357-1.308-.536-2.223-.541 1.63-3.53.974-5.478-1.969-5.843a11.238 11.238 0 0 0-.254-2.032c-.252-.97-.655-1.678-1.207-2.128-1.016-.82-2.54-.787-4.573.095-.187-3.157-.737-5.275-1.652-6.351-1.062-1.236-2.606-1.087-4.636.445-2.88-2.561-6.353-2.223-10.416 1.016-1.016-.676-1.82-.867-2.414-.572-.9.424-1.322 1.938-1.27 4.542-13.118 2.618-20.39 14.156-21.817 34.614-4.664 1.624-8.115 4.64-10.352 9.05-.384.755-.702 1.634-.952 2.637a.616.616 0 0 0-.033.094c-1.165 4.907-.784 12.667 1.144 23.278-.805.174-1.588.354-2.35.54l-.762.19c-2.102.548-4.007 1.173-5.717 1.874-.486-.082-.909.098-1.27.54-.02.012-.042.022-.063.032-2.898 1.366-5.184 2.984-6.86 4.859-.477-1.437-.636-2.453-.477-3.05-1.33 2.425-2.06 4.86-2.19 7.305-.899-1.32-1.493-2.42-1.779-3.303l-.76-1.143c-.249.994-.397 1.852-.447 2.573-.407 4.739.483 8.095 2.668 10.066-1.242 2.124-2.215 4.252-2.922 6.384a21.8 21.8 0 0 0-.38 1.238c-1.356 4.664-1.43 9.32-.223 13.973.417 1.65.998 3.302 1.746 4.954z" fill="none" stroke="#320a04" stroke-width=".6" stroke-linecap="round" stroke-linejoin="round" stroke-miterlimit="3"/></g></svg>