<svg xmlns="http://www.w3.org/2000/svg" width="426.667" height="333.333" viewBox="0 0 426.66666 333.33334"><defs><clipPath id="a"><path d="M0 250h320V0H0z"/></clipPath><clipPath id="b"><path d="M0 250h320V0H0z"/></clipPath></defs><g clip-path="url(#a)" transform="matrix(1.33333 0 0 -1.33333 0 333.333)"><path d="M165.7 37c.547.925.764 1.958.65 3.1v.025-.025c.114-1.142-.103-2.175-.65-3.1m-.125 5.05c-.457.709-1.115 1.483-1.976 2.325.861-.842 1.52-1.616 1.976-2.325m12.9-5.525c.375 1.188.443 2.23.2 3.125-.088.322-.213.63-.375.925.044.196-.039.314-.25.35-1.13 1.576-3.355 2.726-6.675 3.45 3.32-.724 5.545-1.874 6.675-3.45.211-.036.294-.154.25-.35.162-.295.287-.603.375-.925.243-.895.175-1.937-.2-3.125m5.225 6.35c-.046.13-.096.255-.15.375-.647 1.401-3.372 2.285-8.175 2.65 4.803-.365 7.528-1.249 8.175-2.65.054-.12.104-.245.15-.375M127.425 44.05c-3.087-1.299-4.954-2.832-5.6-4.6l-.05-.075.025-.025.025.1c.646 1.768 2.513 3.301 5.6 4.6m5.8-.075c-1.73-.971-3.046-2.197-3.95-3.675a7.948 7.948 0 0 1-.95-3.475 6.104 6.104 0 0 1 .025-1.05c.112-.825.42-1.483.925-1.975-.505.492-.813 1.15-.925 1.975a6.104 6.104 0 0 0-.025 1.05 7.948 7.948 0 0 0 .95 3.475c.904 1.478 2.22 2.704 3.95 3.675m5.225-8.1c-.287.407-.47.924-.55 1.55a3.122 3.122 0 0 0-.05.475c-.05 1.201.325 2.592 1.125 4.175-.8-1.583-1.175-2.974-1.125-4.175.005-.161.021-.319.05-.475.08-.626.263-1.143.55-1.55m-8.9 40.8c.456 1.079.49 2.979.1 5.7l1.35 2.05-1.35-2.05c.39-2.721.356-4.621-.1-5.7m-3.425 3.1l-2.375-.625zm-.85 3.25c.284-1.195.567-2.278.85-3.25.38-1.362.755-2.511 1.125-3.45-.37.939-.745 2.088-1.125 3.45a67.682 67.682 0 0 0-.85 3.25m35.975 64.65c-3.784-5.368-8.984-7.326-15.6-5.875-6.627 1.451-10.452 3.734-11.475 6.85 1.023-3.116 4.848-5.399 11.475-6.85 6.616-1.451 11.816.507 15.6 5.875m-19.775 8.4c5.248 2.723 10.315 3.19 15.2 1.4-4.885 1.79-9.952 1.323-15.2-1.4m8.775-2.8v-3.925 3.925c3.581 1.495 5.106 2.578 4.575 3.25-2.722.974-5.73.974-9.025 0-1.524-.725-.04-1.809 4.45-3.25M128.6 161.1c2.163.03 4.38-.111 6.65-.425a47.913 47.913 0 0 0 3.075-.5c1.044 1.721 1.57 3.704 1.575 5.95.001 2.752-.783 5.103-2.35 7.05-1.532 1.95-3.382 2.925-5.55 2.925-2.155 0-4.013-.975-5.575-2.925-1.53-1.947-2.297-4.298-2.3-7.05.002-1.942.385-3.684 1.15-5.225a39.76 39.76 0 0 0 3.325.2m-28.9 15.375c4.06 2.264 7.51 2.547 10.35.85-2.84 1.697-6.29 1.414-10.35-.85m62.7-95.1c-1.784-2.781-3.892-4.723-6.325-5.825a11.904 11.904 0 0 0-3.85-1.05c-4.117-.413-7.975 1.037-11.575 4.35-3.592 3.31-5.484 8.286-5.675 14.925-.203 6.643 1.414 13.552 4.85 20.725 2.508 5.229 5.225 8.313 8.15 9.25a6.387 6.387 0 0 0 3.325.125c4.225-.921 7.808-4.271 10.75-10.05 2.944-5.782 4.42-11.598 4.424-17.45-.002-5.848-1.36-10.848-4.074-15M209.7 135c-1.41-1.831-4.002-2.915-7.775-3.25 3.773.335 6.364 1.419 7.775 3.25m-8.45-10.075c-.557.162-1.248.545-2.075 1.15-1.14.815-1.499 1.807-1.076 2.975.431 1.175.848 2.042 1.25 2.6-2.492.079-3.834.762-4.024 2.05a7.82 7.82 0 0 0-.075 1.525c.07 1.566.72 2.733 1.95 3.5.112.06.23.118.35.175 1.863.953 2.955 1.461 3.275 1.525-.32-.064-1.412-.572-3.275-1.525a7.609 7.609 0 0 1-.35-.175c-1.23-.767-1.88-1.934-1.95-3.5a7.82 7.82 0 0 1 .075-1.525c.19-1.288 1.532-1.971 4.024-2.05-.402-.558-.819-1.425-1.25-2.6-.423-1.168-.065-2.16 1.076-2.975.827-.605 1.518-.988 2.075-1.15m10.2 4.35a5.896 5.896 0 0 0-.25-.35c-1.885-2.393-4.768-3.735-8.65-4.025a96.54 96.54 0 0 0-.725-.05 2.272 2.272 0 0 0-.575.075c-.757-1.154-1.058-2.12-.9-2.9-.158.78.143 1.746.9 2.9.212-.053.403-.077.575-.075.248.016.49.033.725.05 3.882.29 6.765 1.632 8.65 4.025.088.115.172.231.25.35m-99.65 53a29.38 29.38 0 0 1-1.75-4.95c-1.208-4.66-1.133-9.327.225-14 .111-.412.236-.828.375-1.25-8.232-2.666-13.682-1.791-16.35 2.625-.678 1.105-1.178 2.429-1.5 3.975-1.607 7.731.11 12.973 5.15 15.725 5.053 2.749 9.67 2.041 13.85-2.125M121.9 89c.26-.274.652-.282 1.175-.025a4.551 4.551 0 0 1 1.85 1.575c.267.383.483.816.65 1.3.771-1.911 1.813-2.561 3.125-1.95.496.223 1.03.623 1.6 1.2.013-.401.03-.8.05-1.2.126-1.833.343-3.658.65-5.475.25-1.493.566-2.985.95-4.475-.256-1.962-1.057-3.054-2.4-3.275-.373-.926-1.057-1.251-2.05-.975-.08.196-.163.404-.25.625-2.067-.378-3.809-.019-5.225 1.075-1.416 1.098-1.457 4.964-.125 11.6m3.6-40.875c.633-1.031 2.358-.481 5.175 1.65.78-1.843 1.771-2.627 2.975-2.35.464.1.964.359 1.5.775.653.549 1.362 1.349 2.125 2.4 1.45-1.454 2.683-2.345 3.7-2.675.191-.061.374-.103.55-.125.211-.029.411-.029.6 0 1.084.166 1.801 1.291 2.15 3.375a51.86 51.86 0 0 1 .825-3.375c.136-.534.286-1.076.45-1.625 1.352-4.513 1.377-7.68.075-9.5-.775-1.069-1.859-1.686-3.25-1.85a6.943 6.943 0 0 0-1.6-.025c-.13.001-.264.01-.4.025-.859.115-1.5.465-1.925 1.05-1.587-2.344-3.704-3.401-6.35-3.175-1.26.099-2.203.466-2.825 1.1-4.785-1.88-7.385-1.88-7.8 0a9.742 9.742 0 0 0-.2 1.725c-2.715-.652-3.998.14-3.85 2.375l.05.075a.113.113 0 0 0-.05.025c.156 2.186.415 3.544.775 4.075A15.73 15.73 0 0 0 120.825 45c.182.173.374.339.575.5.584.477 1.21.927 1.875 1.35.395.253.803.494 1.225.725.33.19.663.373 1 .55m48.175 2.45c.783-.177 1.516-.36 2.2-.55a36.245 36.245 0 0 0 2.8-.825 6.52 6.52 0 0 0 .35-.125c1.437-.497 2.495-1.013 3.175-1.55 1.376-1.083 1.876-2.632 1.5-4.65v-.025c.187-.547.278-1.164.274-1.85-.018-.704-.135-1.479-.349-2.325-.487-1.885-2.204-2.602-5.15-2.15a12.59 12.59 0 0 0-.3-.875c-.297-.731-.823-1.322-1.576-1.775-.746-.462-2.054-.57-3.924-.325-1.885.257-4.21 1.407-6.975 3.45-.563-1.029-2.454-1.096-5.675-.2-2.934.814-4.417 4.181-4.45 10.1-.01.397-.01.805 0 1.225a8.7 8.7 0 0 1 .85-1.225c.622-.729 1.238-1.104 1.85-1.125.674-.059 1.34.316 2 1.125.311.386.618.87.925 1.45.21.383.418.817.625 1.3 2.176-1.87 3.784-1.403 4.825 1.4 2.275-1.004 3.758-1.545 4.45-1.625 1.432-.149 2.29.235 2.575 1.15m25.225 70.05c.146.485.138.919-.025 1.3a1.669 1.669 0 0 1-.3.45c-.323.384-.848.692-1.575.925-.567.188-1.249.33-2.05.425.305.406.572.781.8 1.125 1.892 3.102.692 4.169-3.6 3.2a22.915 22.915 0 0 1-1.525-.4c.225 2.135.234 3.643.025 4.525-.154.661-.438.953-.85.875-.543 2.705 0 4.905 1.625 6.6.273.286.514.602.725.95 1.001 1.592 1.31 3.775.925 6.55-.32 2.31.537 3.444 2.575 3.4.587-.011 1.271-.119 2.05-.325 2.893-.759 4.092-3.151 3.6-7.175a20.604 20.604 0 0 0-.475-2.625c3.137.625 5.787.525 7.95-.3 1.83-.708 2.43-1.9 1.8-3.575a5.994 5.994 0 0 0-.5-.975 7.063 7.063 0 0 0-.375-.575c.73-.252 1.322-.552 1.774-.9 1.065-.78 1.373-1.805.926-3.075-.175-.529-.483-1.104-.926-1.725l-.024-.025.024-.025c1.566-.97 2.224-2.07 1.976-3.3-.18-.899-.838-1.866-1.976-2.9-.08-.073-.164-.149-.25-.225-2.956-2.552-5.764-3.46-8.424-2.725-.918.251-1.585.6-2 1.05-.467-.59-1.1-.766-1.9-.525M158.175 161.1c2.164.03 4.38-.111 6.65-.425a47.8 47.8 0 0 0 3.075-.5c1.035 1.721 1.552 3.704 1.55 5.95.001 2.752-.783 5.103-2.35 7.05-1.524 1.95-3.366 2.925-5.525 2.925-2.164 0-4.03-.975-5.6-2.925-1.522-1.947-2.28-4.298-2.275-7.05-.007-1.942.368-3.684 1.125-5.225 1.098.112 2.215.179 3.35.2m-22.5-26.325a24.653 24.653 0 0 0-3.45 1.15c-1.653.689-3.137 1.539-4.45 2.55l.1.15c-.388.232-.77.474-1.15.725-3.433 3.103-4.808 7.078-4.125 11.925.121.838.304 1.704.55 2.6.148.569.323 1.152.525 1.75-.3.248-.592.506-.875.775-2.459 2.258-4.05 5.117-4.775 8.575-.805 3.687-.339 7.162 1.4 10.425 1.82 3.349 4.444 5.766 7.875 7.25 3.813 1.654 7.605 1.612 11.375-.125 2.97-1.31 5.81-3.002 8.525-5.075.192.144.384.286.575.425 9.277 7.108 17.185 8.333 23.725 3.675 1.461-1.051 2.61-2.277 3.45-3.675.26-.429.493-.879.7-1.35.525-1.243.833-2.609.925-4.1.266-4.309-1.3-9.633-4.7-15.975 1.087-2.768 1.637-5.285 1.65-7.55.025-2.595-.65-4.861-2.025-6.8-2.213-3.121-6.23-5.396-12.05-6.825a72.872 72.872 0 0 0-1.375-.3 67.45 67.45 0 0 0-6.35-.95c-3.668-.378-7.018-.452-10.05-.225a36.306 36.306 0 0 0-4.95.725c-.356.078-.706.162-1.05.25m46.375 46.2c1.94 3.423 4.88 4.34 8.825 2.75-3.945 1.59-6.886.673-8.825-2.75a42.861 42.861 0 0 1-1.2 2.925 25.845 25.845 0 0 1-1.376 2.6c3.796 4.816 7.98 5.441 12.551 1.875 4.24-3.301 5.782-7.868 4.625-13.7a13.208 13.208 0 0 0-.7-2.375 7.038 7.038 0 0 0-.125-.325c.018.108.034.217.05.325.594 3.057.544 6.024-.15 8.9.081-4.311-.46-7.278-1.626-8.9a3.956 3.956 0 0 0-.899-.9 26.14 26.14 0 0 1 1.625-1.2 9.57 9.57 0 0 0-2.675-2.675c-1.933-1.306-4.45-2.056-7.55-2.25.221 3.475-.104 7-.975 10.575a43.126 43.126 0 0 1-.526 2.025 45.624 45.624 0 0 1-1.049 3.1" fill="#ea9e44" fill-rule="evenodd"/><path d="M121.8 39.35l-.025.025.05.076-.025-.101m5.975 99.125c-.372.28-.722.572-1.05.875.379-.251.763-.493 1.15-.725zM117.425 38a.147.147 0 0 1 .05-.025l-.05-.074a.817.817 0 0 1 0 .099m78.4 133.975a9.928 9.928 0 0 0-1-1.774c-.505.34-1.047.74-1.625 1.199.334.238.635.538.9.9 1.165 1.623 1.707 4.59 1.625 8.9.694-2.875.744-5.842.15-8.9a12.813 12.813 0 0 0-.05-.325" fill="#dc8a38" fill-rule="evenodd"/><path d="M163.25 135.025a97.815 97.815 0 0 0-4.975-.275h-.05a3.75 3.75 0 0 0-.15 0c-.434-.011-.875-.02-1.325-.025.448.082.889.165 1.325.25.466.097.925.197 1.375.3a32.132 32.132 0 0 1 3.725 0z" fill="#881c0d" fill-rule="evenodd"/><path d="M126.75 112.17500000000001l-.05.025.025-.05zM130.3 91.1c-.043.955-.076 2.663-.1 5.125-.012.674-.02 1.4-.025 2.176-.029 3.657.212 7.15.725 10.475.508 3.33 2.192 7.471 5.05 12.425-2.858-4.954-4.542-9.096-5.05-12.425-.513-3.325-.754-6.818-.725-10.475.004-.777.013-1.502.025-2.176.024-2.462.057-4.17.1-5.125m15.625 99.176c4.94 1.092 5.831 2.75 2.675 4.975 4.956.091 8.031.7 9.225 1.825.27.268.437.568.5.9a1.661 1.661 0 0 0 0 0 1.704 1.704 0 0 0-.5-.9c-1.194-1.125-4.269-1.734-9.225-1.825 3.156-2.225 2.264-3.883-2.675-4.975m16.475-108.9c2.714 4.152 4.072 9.152 4.074 15-.004 5.851-1.48 11.668-4.424 17.45-2.942 5.778-6.525 9.13-10.75 10.05a6.387 6.387 0 0 1-3.325-.125c-2.925-.938-5.642-4.022-8.15-9.25-3.436-7.173-5.053-14.082-4.85-20.725.191-6.639 2.083-11.615 5.675-14.926 3.6-3.312 7.458-4.762 11.575-4.349a11.88 11.88 0 0 1 3.85 1.05c2.433 1.102 4.541 3.044 6.325 5.825m2.55 39.8c2.351-2.96 3.851-5.312 4.5-7.05-.649 1.738-2.149 4.09-4.5 7.05m-39.45-73.05c-.109.183-.184.425-.225.724-.245 1.906.88 3.356 3.375 4.351-.396 2.725-.28 5.758.35 9.1.04.253.081.503.125.75a.656.656 0 0 0-.1.05l-.3.05c-5.025 1.146-9.709 4.271-14.05 9.375-4.45 5.241-6.183 11.424-5.2 18.55.975 7.121 1.884 13.563 2.725 19.325.234 1.617.393 3.11.475 4.475.175 3.497-.225 6.846-1.2 10.05-.972 3.204-2.614 5.07-4.925 5.6-2.314.525-4.265-.567-5.85-3.275-1.582-2.707-2.79-4.332-3.625-4.875-.834-.53-2.509-.706-5.025-.526-1.869.121-2.76 1.195-2.675 3.226a22.487 22.487 0 0 0 1.75 5.25 16.22 16.22 0 0 0 3.525 4.7c.332.31.682.61 1.05.9 1.992 1.651 4.217 2.71 6.675 3.175 2.46.594 4.875.32 7.25-.825a33.76 33.76 0 0 0 5.6-3.5c1.95-1.487 3.433-3.27 4.45-5.35a24.181 24.181 0 0 0 2.1-6.925 21.541 21.541 0 0 0 0-6.6 42.86 42.86 0 0 0-1.6-6.8 188.062 188.062 0 0 0-2.025-5.9 19.35 19.35 0 0 1-.325-.775A40.433 40.433 0 0 1 115.8 95.6a31.948 31.948 0 0 1-.775-6.974 20.612 20.612 0 0 1 1.1-6.55 25.72 25.72 0 0 1 3.05-6.1c1.181-1.788 2.723-3.32 4.625-4.6a24.533 24.533 0 0 1 6.65-3.05 43.238 43.238 0 0 0 2.825 6.825 96.124 96.124 0 0 0-1.325 4.8 52.52 52.52 0 0 0-.95 4.475 55.823 55.823 0 0 0-.65 5.475c-.02.4-.037.8-.05 1.2-.57-.577-1.104-.977-1.6-1.2-1.312-.61-2.354.04-3.125 1.95a5.247 5.247 0 0 0-.65-1.3 4.561 4.561 0 0 0-1.85-1.576c-.523-.256-.915-.249-1.175.026-.338.343-.522 1.634-.55 3.875-.03 2.257.82 7.898 2.55 16.925 1.688 8.771 5.963 17.013 12.825 24.725a36.15 36.15 0 0 1 4.95-.725c3.032-.227 6.382-.153 10.05.225a67.45 67.45 0 0 1 5.025.7c.45.006.891.014 1.325.025h.15l.05-.025 2.275-2.225c6.355-6.095 11.897-8.46 16.625-7.1 5.072 1.464 8.73 3.564 10.975 6.3.68.827 1.23 1.277 1.65 1.35.412.078.696-.214.85-.875.21-.882.2-2.39-.025-4.525.546.161 1.054.295 1.525.4 4.292.968 5.492-.099 3.6-3.2a24.69 24.69 0 0 0-.8-1.126c.801-.094 1.483-.236 2.05-.424.727-.233 1.252-.54 1.575-.925.128-.139.228-.289.3-.45.163-.38.171-.815.025-1.3-.707-.917-2.957-2.417-6.75-4.5a157.148 157.148 0 0 0-3.4-1.825c-5.862-3.04-12.295-3.099-19.3-.175 6.551-16.766 6.867-30.058.95-39.875 1.068-3.495 1.376-7.013.925-10.55-.445-3.543-.854-6.3-1.226-8.275 2.411-.628 3.652-1.912 3.726-3.85v-.226a2.306 2.306 0 0 0-.15-.774c-.285-.915-1.143-1.299-2.576-1.15-.69.08-2.174.621-4.449 1.625-1.04-2.803-2.649-3.27-4.825-1.4a15.52 15.52 0 0 0-.625-1.3 9.117 9.117 0 0 0-.925-1.45c-.66-.809-1.326-1.184-2-1.125-.612.021-1.228.396-1.85 1.125a8.641 8.641 0 0 0-.85 1.225c-.047.203-.297.461-.75.775-.44.33-.365 2.255.225 5.775.314 1.863.422 4.062.325 6.6-.1 1.804-.24 3.321-.425 4.55-2.465-.196-5.916-.063-10.35.4-.182-1.013-.332-2.322-.45-3.925-.319-3.127-.103-5.495.65-7.1l-.05-.05.125-.1c.918-1.799.718-3.09-.6-3.875-.349-2.084-1.066-3.209-2.15-3.375a2.078 2.078 0 0 0-.6 0 3.059 3.059 0 0 0-.55.125c-1.017.33-2.25 1.221-3.7 2.674-.763-1.05-1.472-1.85-2.125-2.399-.536-.416-1.036-.675-1.5-.775-1.204-.277-2.196.506-2.975 2.35-2.817-2.132-4.542-2.68-5.175-1.65m1.225 91.225c.328-.303.678-.595 1.05-.875 1.313-1.01 2.797-1.86 4.45-2.55a24.523 24.523 0 0 1 3.45-1.15c-1.553.293-3.028.61-4.425.95-.257.065-.515.132-.775.2-2.365.613-4.49 1.33-6.375 2.15-3.22 1.413-5.738 3.13-7.55 5.15-.477-1.438-.636-2.454-.475-3.05-1.327 2.431-2.05 4.872-2.175 7.325-.907-1.318-1.507-2.418-1.8-3.3l-.75-1.15c-.249.995-.399 1.853-.45 2.575-.407 4.744.485 8.103 2.675 10.075-1.243 2.121-2.218 4.246-2.925 6.375a23.43 23.43 0 0 0-.375 1.25c-1.358 4.672-1.433 9.34-.225 14a29.38 29.38 0 0 0 1.75 4.95c3.897 6.995 8.94 13.078 15.125 18.25 7.926 6.614 16.977 9.572 27.15 8.875.22-.106.412-.223.575-.35 1.88-1.485 1.29-3.177-1.775-5.075-3.068-1.897-5.809-3.03-8.225-3.4 7.574.854 12.016.488 13.325-1.1 10.181-1.774 17.348-6.099 21.5-12.975.5-.827.958-1.694 1.374-2.6.445-.98.845-1.956 1.201-2.925.392-1.037.742-2.07 1.05-3.1.192-.677.368-1.352.525-2.025.871-3.575 1.196-7.1.974-10.575a33.753 33.753 0 0 0-.899-5.775c1.486-3.274 1.995-7.698 1.524-13.275L183.5 149.4c.086-2.914-.93-6.006-3.05-9.275v2.15c-1.346-3.706-6.38-6.056-15.1-7.05a69.605 69.605 0 0 0-2.1-.2l-.075.25a31.693 31.693 0 0 0-3.725 0c5.82 1.43 9.837 3.704 12.05 6.825 1.375 1.938 2.05 4.205 2.025 6.8-.013 2.265-.563 4.782-1.65 7.55 3.4 6.341 4.966 11.666 4.7 15.975-.092 1.49-.4 2.857-.925 4.1-.207.47-.44.921-.7 1.35-.84 1.398-1.989 2.623-3.45 3.675-6.54 4.657-14.448 3.433-23.725-3.675a49.735 49.735 0 0 1-.575-.425c-2.715 2.073-5.556 3.765-8.525 5.075-3.77 1.737-7.562 1.78-11.375.125-3.43-1.484-6.056-3.9-7.875-7.25-1.739-3.263-2.205-6.739-1.4-10.425.725-3.459 2.316-6.317 4.775-8.575.283-.269.575-.528.875-.775a25.645 25.645 0 0 1-.525-1.75 21.354 21.354 0 0 1-.55-2.6c-.683-4.847.692-8.823 4.125-11.925" fill="#aa290f" fill-rule="evenodd"/><path d="M126.75 112.175l-.025-.024-.025.049zm18.125-57.125l-.125.1.05.05a1.05 1.05 0 0 0 .075-.15" fill="#9b200f" fill-rule="evenodd"/><path d="M159.725 168.15c.513-.001.963-.192 1.35-.575.382-.378.574-.82.575-1.325 0-.505-.193-.947-.575-1.325-.387-.382-.837-.574-1.35-.575-.505 0-.947.193-1.325.575-.383.378-.574.82-.575 1.325.001.505.192.947.575 1.325.378.383.82.574 1.325.575m-30.9-.575c.386.383.836.574 1.35.575.505-.001.947-.192 1.325-.575.382-.378.574-.82.575-1.325 0-.505-.193-.947-.575-1.325-.378-.382-.82-.574-1.325-.575-.514 0-.964.193-1.35.575-.383.378-.574.82-.575 1.325.001.505.192.947.575 1.325m6.425-6.9c.085.098.168.198.25.3.98 1.059 1.471 2.35 1.475 3.875-.004 1.529-.496 2.845-1.475 3.95-.934 1.055-2.059 1.58-3.375 1.575-1.31.005-2.453-.52-3.425-1.575-.933-1.105-1.4-2.421-1.4-3.95 0-1.465.432-2.715 1.3-3.75a39.786 39.786 0 0 1-3.325-.2c-.765 1.542-1.148 3.283-1.15 5.225.003 2.753.77 5.103 2.3 7.05 1.562 1.95 3.42 2.925 5.575 2.925 2.168 0 4.018-.975 5.55-2.925 1.568-1.947 2.351-4.297 2.35-7.05-.006-2.246-.53-4.23-1.575-5.95-1.036.203-2.06.37-3.075.5m29.575 0c.085.098.17.198.25.3.971 1.059 1.454 2.35 1.45 3.875.004 1.529-.479 2.845-1.45 3.95-.934 1.055-2.059 1.58-3.375 1.575-1.31.005-2.453-.52-3.425-1.575-.933-1.105-1.4-2.421-1.4-3.95 0-1.465.432-2.715 1.3-3.75a40.364 40.364 0 0 1-3.35-.2c-.757 1.542-1.132 3.283-1.125 5.225-.005 2.753.754 5.103 2.275 7.05 1.57 1.95 3.437 2.925 5.6 2.925 2.16 0 4.001-.975 5.525-2.925 1.567-1.947 2.351-4.297 2.35-7.05.002-2.246-.515-4.23-1.55-5.95-1.036.203-2.06.37-3.075.5" fill="#fff" fill-rule="evenodd"/><path d="M159.725 168.15c-.505-.001-.947-.192-1.325-.575-.383-.378-.574-.82-.575-1.325.001-.505.192-.947.575-1.325.378-.382.82-.574 1.325-.575.513 0 .963.193 1.35.575.382.378.574.82.575 1.325 0 .505-.193.947-.575 1.325-.387.383-.837.574-1.35.575m-30.9-.575c-.383-.378-.574-.82-.575-1.325.001-.505.192-.947.575-1.325.386-.382.836-.574 1.35-.575.505 0 .947.193 1.325.575.382.378.574.82.575 1.325 0 .505-.193.947-.575 1.325-.378.383-.82.574-1.325.575-.514-.001-.964-.192-1.35-.575m6.425-6.9c-2.27.314-4.486.455-6.65.425-.868 1.035-1.3 2.285-1.3 3.75 0 1.529.467 2.845 1.4 3.95.972 1.055 2.114 1.58 3.425 1.575 1.316.005 2.441-.52 3.375-1.575.98-1.105 1.471-2.421 1.475-3.95-.004-1.525-.496-2.816-1.475-3.875a10.449 10.449 0 0 0-.25-.3m29.575 0a44.026 44.026 0 0 1-6.65.425c-.868 1.035-1.3 2.285-1.3 3.75 0 1.529.467 2.845 1.4 3.95.972 1.055 2.114 1.58 3.425 1.575 1.316.005 2.441-.52 3.375-1.575.971-1.105 1.454-2.421 1.45-3.95.004-1.525-.479-2.816-1.45-3.875a9.024 9.024 0 0 0-.25-.3" fill-rule="evenodd"/><path d="M150.25 153.275c-4.49 1.44-5.974 2.525-4.45 3.25 3.295.974 6.303.974 9.025 0 .531-.672-.994-1.755-4.575-3.25" fill="#b45a25" fill-rule="evenodd"/><path d="M125.5 48.125c.633-1.031 2.358-.481 5.175 1.65.78-1.843 1.771-2.627 2.975-2.35.464.1.964.359 1.5.775.653.549 1.362 1.349 2.125 2.4 1.45-1.454 2.683-2.345 3.7-2.675.191-.061.374-.103.55-.125.211-.029.411-.029.6 0 1.084.166 1.801 1.291 2.15 3.375m11.3-3.05c.281-.479.565-.888.85-1.225.622-.729 1.239-1.104 1.85-1.125.674-.059 1.34.316 2 1.125.311.386.619.87.925 1.45.209.383.418.817.625 1.3 2.176-1.87 3.784-1.403 4.825 1.4 2.275-1.004 3.758-1.545 4.45-1.625 1.432-.149 2.291.235 2.575 1.15m-18.725 15.25c1.221.091 2.387.275 3.5.55m-29.325-3.325a38.697 38.697 0 0 0 1.325 5.275M121.9 89c.26-.274.652-.282 1.175-.025a4.551 4.551 0 0 1 1.85 1.575c.267.383.483.816.65 1.3.772-1.911 1.814-2.561 3.125-1.95.496.223 1.029.623 1.6 1.2.013-.401.03-.8.05-1.2a56.13 56.13 0 0 1 .65-5.475c.25-1.493.566-2.985.95-4.475M130.3 91.1c-.043.954-.076 2.662-.1 5.125-.012.673-.02 1.398-.025 2.175-.029 3.658.213 7.15.725 10.475.509 3.329 2.192 7.471 5.05 12.425m27.3 13.725a96.674 96.674 0 0 0-4.975-.275h-.05m0 0a3.75 3.75 0 0 0-.15 0c-.434-.011-.875-.019-1.325-.025m-10.825 55.55c4.939 1.092 5.831 2.75 2.675 4.975 4.956.091 8.031.7 9.225 1.825.27.268.437.568.5.9.061.238.061.496 0 .775-.06.264-.177.506-.35.725m-46.175-17.2a29.38 29.38 0 0 1-1.75-4.95c-1.208-4.66-1.133-9.327.225-14 .111-.412.236-.828.375-1.25m54.3-40.9c2.351-2.961 3.851-5.312 4.5-7.05m-11.175 20.6l2.275-2.225c6.355-6.095 11.897-8.461 16.625-7.1 5.072 1.464 8.73 3.564 10.975 6.3.679.827 1.23 1.277 1.65 1.35.412.078.696-.214.85-.875.209-.882.201-2.39-.025-4.525.546.162 1.055.295 1.525.4 4.292.969 5.493-.098 3.6-3.2a23.625 23.625 0 0 0-.8-1.125c.801-.095 1.484-.237 2.05-.425.728-.233 1.252-.541 1.575-.925.128-.139.228-.289.3-.45.163-.381.171-.815.025-1.3m-87.1 61.65c3.897 6.995 8.939 13.078 15.125 18.25 7.927 6.614 16.977 9.573 27.15 8.875.22-.106.412-.223.575-.35 1.88-1.485 1.289-3.176-1.775-5.075-3.067-1.897-5.809-3.03-8.225-3.4 7.574.855 12.016.488 13.325-1.1 10.181-1.773 17.348-6.099 21.5-12.975m-43.8-51.725c-1.552.293-3.028.61-4.425.95l-.775.2c-2.365.614-4.49 1.33-6.375 2.15-3.221 1.413-5.738 3.13-7.55 5.15-.477-1.437-.635-2.454-.475-3.05-1.326 2.431-2.051 4.872-2.175 7.325-.906-1.318-1.506-2.418-1.8-3.3l-.75-1.15c-.248.995-.398 1.853-.45 2.575-.406 4.745.485 8.103 2.675 10.075-1.243 2.121-2.218 4.246-2.925 6.375M121.9 89c-.338.343-.522 1.634-.55 3.875-.03 2.257.819 7.898 2.55 16.925 1.688 8.771 5.963 17.013 12.825 24.725m-11.225-86.4c-.109.184-.184.425-.225.725-.245 1.905.88 3.355 3.375 4.35-.396 2.725-.279 5.758.35 9.1.04.253.082.503.125.75a.717.717 0 0 0-.1.05l-.3.05c-5.025 1.146-9.708 4.271-14.05 9.375-4.45 5.242-6.183 11.424-5.2 18.55.976 7.121 1.884 13.564 2.725 19.325a53.73 53.73 0 0 1 .475 4.475c.175 3.497-.225 6.847-1.2 10.05-.972 3.204-2.614 5.071-4.925 5.6-2.314.525-4.264-.567-5.85-3.275-1.581-2.707-2.789-4.332-3.625-4.875-.834-.531-2.509-.706-5.025-.525-1.868.12-2.76 1.194-2.675 3.225a22.487 22.487 0 0 0 1.75 5.25 16.22 16.22 0 0 0 3.525 4.7c.332.309.682.609 1.05.9 1.992 1.652 4.217 2.71 6.675 3.175 2.459.594 4.875.319 7.25-.825a33.76 33.76 0 0 0 5.6-3.5c1.95-1.486 3.433-3.27 4.45-5.35a24.181 24.181 0 0 0 2.1-6.925 21.541 21.541 0 0 0 0-6.6 42.713 42.713 0 0 0-1.6-6.8 187.228 187.228 0 0 0-2.025-5.9 20.937 20.937 0 0 1-.325-.775A40.45 40.45 0 0 1 115.8 95.6a31.964 31.964 0 0 1-.775-6.975 20.612 20.612 0 0 1 1.1-6.55 25.695 25.695 0 0 1 3.05-6.1c1.181-1.787 2.723-3.321 4.625-4.6a24.563 24.563 0 0 1 6.65-3.05 43.333 43.333 0 0 0 2.825 6.825 97.524 97.524 0 0 0-1.325 4.8m23.625-31.825c-.047.203-.297.461-.75.775-.44.33-.365 2.255.225 5.775.314 1.863.422 4.062.325 6.6-.1 1.804-.241 3.321-.425 4.55-2.465-.196-5.915-.062-10.35.4-.182-1.013-.331-2.322-.45-3.925-.319-3.127-.103-5.494.65-7.1.029-.049.054-.098.075-.15.918-1.799.718-3.09-.6-3.875m54.625 69.45c-.707-.917-2.957-2.417-6.75-4.5a161.665 161.665 0 0 0-3.4-1.825c-5.861-3.04-12.295-3.099-19.3-.175 6.551-16.766 6.867-30.058.95-39.875 1.068-3.495 1.376-7.013.925-10.55-.445-3.543-.853-6.301-1.225-8.275 2.41-.628 3.651-1.911 3.725-3.85v-.225a2.288 2.288 0 0 0-.15-.775m-10.425 84.45c.723.058 1.423.125 2.1.2 8.72.994 13.754 3.344 15.1 7.05v-2.15c2.119 3.269 3.136 6.361 3.05 9.275l1.725-3.175c.47 5.577-.038 10.002-1.525 13.275.468 1.912.769 3.837.9 5.775m-5.125 21.225c.5-.827.959-1.693 1.375-2.6a43.36 43.36 0 0 0 1.2-2.925m0 0c.392-1.037.742-2.07 1.05-3.1.192-.677.368-1.352.525-2.025.871-3.575 1.196-7.1.975-10.575" fill="none" stroke="#320a04" stroke-width=".6" stroke-linecap="round" stroke-linejoin="round" stroke-miterlimit="3"/><path d="M164.825 160.675c-2.27.314-4.486.456-6.65.425M165.7 37c.547.925.764 1.958.65 3.1v.025a3.788 3.788 0 0 1-.225.9m-.55 1.025c-.457.709-1.115 1.483-1.976 2.325m14.875-7.85c.376 1.188.444 2.23.201 3.126a4.245 4.245 0 0 1-.375.924c.044.197-.039.314-.25.35-1.13 1.576-3.355 2.727-6.675 3.45m12.325-1.5c-.046.13-.096.255-.15.375-.647 1.402-3.372 2.285-8.175 2.65M121.8 39.35a9.93 9.93 0 0 1-.525-3.824m6.15 8.524c-3.087-1.3-4.954-2.832-5.6-4.6m11.4 4.525c-1.73-.971-3.046-2.196-3.95-3.675a7.948 7.948 0 0 1-.95-3.475 6.09 6.09 0 0 1 .025-1.05c.112-.825.42-1.483.925-1.975m-7.475 5.55l.025.1m16.625-3.575c-.287.407-.47.924-.55 1.55a3.122 3.122 0 0 0-.05.476c-.05 1.2.325 2.59 1.125 4.174.218.445.392.787.525 1.025m10.75 110.175v-3.925m-20.7-72.675c.456 1.079.49 2.979.1 5.7l1.35 2.05m-4.875-4.65l-2.375-.624m1.525 3.875c.284-1.196.567-2.28.85-3.25.38-1.363.755-2.512 1.125-3.451m-.525 63.025c.328-.303.678-.594 1.05-.875m0 0c1.313-1.01 2.797-1.861 4.45-2.55a24.784 24.784 0 0 1 3.45-1.15m25.575 12.9c-3.784-5.368-8.984-7.326-15.6-5.875-6.627 1.45-10.452 3.734-11.475 6.85m22.575-13.925c.448.082.89.165 1.325.25.466.097.924.198 1.375.3m-2.7-.55a67.979 67.979 0 0 0-5.025-.7c-3.668-.377-7.018-.452-10.05-.225a36.306 36.306 0 0 0-4.95.725m4.75 21.55c5.248 2.724 10.315 3.19 15.2 1.4m-21.425 3.2c-2.27.314-4.487.456-6.65.425m6.65-.425a47.223 47.223 0 0 0 3.075-.5c1.044 1.72 1.57 3.705 1.575 5.95.001 2.753-.783 5.103-2.35 7.05-1.532 1.95-3.382 2.925-5.55 2.925-2.155 0-4.013-.975-5.575-2.925-1.53-1.947-2.297-4.297-2.3-7.05.002-1.942.385-3.683 1.15-5.225a39.76 39.76 0 0 0 3.325.2m-28.9 15.375c4.06 2.264 7.51 2.548 10.35.85M209.7 135c-1.41-1.831-4.002-2.914-7.775-3.25a24.396 24.396 0 0 0-2.576-.1m1.901-6.725c-.557.162-1.248.545-2.075 1.15-1.14.815-1.499 1.807-1.076 2.975.431 1.175.848 2.042 1.25 2.6-2.492.079-3.834.762-4.024 2.05a7.823 7.823 0 0 0-.075 1.525c.07 1.566.72 2.733 1.95 3.5.112.06.23.118.35.175 1.863.953 2.955 1.462 3.275 1.525m10.625-11.15a5.896 5.896 0 0 0-.25-.35c-1.885-2.393-4.768-3.735-8.65-4.024a62.052 62.052 0 0 0-.725-.051 2.272 2.272 0 0 0-.575.075c-.757-1.153-1.058-2.12-.9-2.9.07-.326.22-.618.45-.874m-90.15 40.924c-8.232-2.666-13.682-1.791-16.35 2.625-.678 1.105-1.178 2.43-1.5 3.975-1.607 7.73.11 12.973 5.15 15.725 5.053 2.749 9.67 2.04 13.85-2.125m24.925-47.75c-.356.078-.706.162-1.05.25M131.95 79.95c-.256-1.962-1.057-3.053-2.4-3.275-.373-.926-1.057-1.251-2.05-.975-.08.197-.163.405-.25.625-2.067-.378-3.809-.02-5.225 1.076-1.416 1.097-1.457 4.963-.125 11.599m22.375-37.825a51.86 51.86 0 0 1 .825-3.375c.136-.534.286-1.076.45-1.625 1.352-4.513 1.377-7.68.075-9.5-.775-1.068-1.859-1.686-3.25-1.85a6.943 6.943 0 0 0-1.6-.025c-.13 0-.264.01-.4.025-.859.116-1.5.465-1.925 1.05-1.587-2.344-3.704-3.401-6.35-3.175-1.26.099-2.203.466-2.825 1.1-4.785-1.88-7.385-1.88-7.8 0a9.742 9.742 0 0 0-.2 1.726c-2.715-.653-3.998.139-3.85 2.375a.817.817 0 0 1 0 .099c.156 2.186.415 3.544.775 4.075A15.699 15.699 0 0 0 120.825 45c.182.173.374.339.575.5.584.477 1.21.927 1.875 1.35.395.253.803.494 1.225.725.33.19.663.373 1 .55m48.175 2.45a46.81 46.81 0 0 0 2.2-.55 36.22 36.22 0 0 0 2.8-.825 6.52 6.52 0 0 0 .35-.125c1.437-.497 2.495-1.013 3.175-1.55 1.376-1.082 1.876-2.632 1.5-4.65v-.025c.187-.547.278-1.164.274-1.85-.018-.704-.135-1.48-.349-2.325-.487-1.885-2.204-2.602-5.15-2.15-.087-.287-.187-.58-.3-.874-.297-.732-.823-1.323-1.576-1.776-.746-.462-2.054-.57-3.924-.325-1.885.257-4.21 1.407-6.975 3.45-.562-1.03-2.454-1.096-5.675-.2-2.934.814-4.417 4.182-4.45 10.1-.01.397-.01.805 0 1.225M189.8 133.05c-.543 2.706 0 4.905 1.625 6.6.273.286.514.603.725.95 1.001 1.593 1.31 3.776.925 6.55-.32 2.31.537 3.444 2.575 3.4.587-.011 1.271-.12 2.05-.325 2.893-.76 4.092-3.151 3.6-7.175a20.604 20.604 0 0 0-.475-2.625c3.137.625 5.787.525 7.95-.3 1.83-.708 2.43-1.9 1.8-3.575a6.035 6.035 0 0 0-.5-.975 7.427 7.427 0 0 0-.375-.575c.73-.252 1.322-.552 1.774-.9 1.065-.78 1.373-1.805.926-3.075-.175-.53-.483-1.104-.926-1.725l-.024-.025.024-.025c1.566-.97 2.224-2.07 1.976-3.3-.18-.9-.838-1.866-1.976-2.9l-.25-.225c-2.956-2.551-5.764-3.46-8.424-2.725-.918.25-1.585.6-2 1.05-.467-.59-1.1-.766-1.9-.525m-34.075 40.05a47.113 47.113 0 0 0 3.075-.5c1.035 1.72 1.552 3.705 1.55 5.95.001 2.753-.783 5.103-2.35 7.05-1.524 1.95-3.366 2.925-5.525 2.925-2.164 0-4.03-.975-5.6-2.925-1.522-1.947-2.28-4.297-2.275-7.05-.007-1.942.368-3.683 1.125-5.225 1.098.112 2.215.179 3.35.2m-31.45-21.75c-3.433 3.103-4.808 7.078-4.125 11.925.121.838.304 1.705.55 2.6.148.57.323 1.153.525 1.75-.3.248-.592.507-.875.775-2.459 2.258-4.05 5.117-4.775 8.575-.805 3.687-.339 7.162 1.4 10.425 1.82 3.349 4.444 5.766 7.875 7.25 3.813 1.654 7.605 1.612 11.375-.125 2.97-1.31 5.81-3.002 8.525-5.075.192.144.384.286.575.425 9.277 7.108 17.185 8.333 23.725 3.675 1.461-1.051 2.61-2.276 3.45-3.675.26-.43.493-.88.7-1.35.525-1.243.833-2.61.925-4.1.266-4.31-1.3-9.633-4.7-15.975 1.087-2.768 1.637-5.285 1.65-7.55.025-2.595-.65-4.861-2.025-6.8-2.213-3.121-6.23-5.396-12.05-6.825m22.6 45.7c1.94 3.424 4.88 4.34 8.825 2.75m-6.276-18.45c3.101.194 5.618.944 7.551 2.25a9.57 9.57 0 0 1 2.675 2.675 9.972 9.972 0 0 1 1 1.775c.044.107.086.216.125.325.296.73.53 1.52.7 2.375 1.157 5.832-.385 10.399-4.625 13.7-4.57 3.566-8.755 2.94-12.55-1.875" fill="none" stroke="#be6f21" stroke-width=".6" stroke-linecap="round" stroke-linejoin="round" stroke-miterlimit="3"/><path d="M159.725 168.15c.513-.001.963-.192 1.35-.575.382-.378.574-.82.575-1.325 0-.505-.193-.947-.575-1.325-.387-.382-.837-.574-1.35-.575-.505 0-.947.193-1.325.575-.383.378-.574.82-.575 1.325.001.505.192.947.575 1.325.378.383.82.574 1.325.575zm-30.9-.575c.386.383.836.574 1.35.575.505-.001.947-.192 1.325-.575.382-.378.574-.82.575-1.325 0-.505-.193-.947-.575-1.325-.378-.382-.82-.574-1.325-.575-.514 0-.964.193-1.35.575-.383.378-.574.82-.575 1.325.001.505.192.947.575 1.325zm-.225-6.475c-.868 1.035-1.3 2.285-1.3 3.75 0 1.529.467 2.845 1.4 3.95.972 1.055 2.114 1.58 3.425 1.575 1.316.005 2.441-.52 3.375-1.575.98-1.105 1.471-2.421 1.475-3.95-.004-1.525-.496-2.816-1.475-3.875a10.449 10.449 0 0 0-.25-.3m22.925.425c-.868 1.035-1.3 2.285-1.3 3.75 0 1.529.467 2.845 1.4 3.95.972 1.055 2.114 1.58 3.425 1.575 1.316.005 2.441-.52 3.375-1.575.971-1.105 1.454-2.421 1.45-3.95.004-1.525-.479-2.816-1.45-3.875a9.024 9.024 0 0 0-.25-.3" fill="none" stroke="#000" stroke-width=".1" stroke-linecap="round" stroke-linejoin="round" stroke-miterlimit="3"/><path d="M150.25 153.275c3.581 1.495 5.106 2.578 4.575 3.25-2.722.974-5.73.974-9.025 0-1.524-.725-.04-1.81 4.45-3.25z" fill="none" stroke="#743a18" stroke-width=".6" stroke-linecap="round" stroke-linejoin="round" stroke-miterlimit="3"/></g><g clip-path="url(#b)" transform="matrix(1.33333 0 0 -1.33333 0 333.333)"><path d="M147.975 123.75c-2.925-.938-5.642-4.021-8.15-9.25-3.436-7.173-5.053-14.082-4.85-20.725.191-6.639 2.083-11.615 5.675-14.925 3.6-3.313 7.458-4.763 11.575-4.35 1.365.14 2.648.489 3.85 1.05 2.433 1.102 4.541 3.044 6.325 5.825 2.714 4.152 4.073 9.152 4.075 15-.005 5.852-1.48 11.668-4.425 17.45-2.942 5.779-6.525 9.129-10.75 10.05a6.388 6.388 0 0 1-3.325-.125m-21.25 15.6c.328-.303.678-.595 1.05-.875 1.313-1.011 2.797-1.861 4.45-2.55a24.653 24.653 0 0 1 3.45-1.15c-1.553.293-3.028.61-4.425.95l-.775.2c-2.365.614-4.49 1.33-6.375 2.15a11.84 11.84 0 0 1-1.95 2.225c-1.528 1.236-2.186 2.811-1.975 4.725.133.926-.475 1.535-1.825 1.825-1.36.296-1.853 1.079-1.475 2.35.427 1.233 1.194 2.233 2.3 3a10.198 10.198 0 0 0 3.975 1.675 21.354 21.354 0 0 1-.55-2.6c-.683-4.847.692-8.822 4.125-11.925m3.725-71.025c-1.055-.09-1.538-.231-1.45-.425.082-.222.148-.439.2-.65-2.75-2.208-6.583-1.232-11.5 2.925-5.828 8.912-7.86 16.137-6.1 21.675 2.988 10.893 4.205 19.452 3.65 25.675-.54 6.21-2.232 10.968-5.075 14.275-2.852 3.309-8.119 1.759-15.8-4.65-1.523-2.06-3.19-2.752-5-2.075a22.487 22.487 0 0 0 1.75 5.25 16.22 16.22 0 0 0 3.525 4.7c-.874-1.598-.183-2.165 2.075-1.7a9.957 9.957 0 0 1 2.85 1.2c.465.298 1.015.448 1.65.45a46.641 46.641 0 0 0 4.9-.4c.72-.082 1.503-.248 2.35-.5l4.45-1.275c1.532-.422 2.64-1.288 3.325-2.6.676-1.398 1.035-2.923 1.075-4.575.038-1.65.054-3.3.05-4.95a24.894 24.894 0 0 0-.3-4.725 26.362 26.362 0 0 1-.325-4.825c.038-1.655.288-3.247.75-4.775.326-1.044.542-2.095.65-3.15a19.35 19.35 0 0 1-.325-.775A40.45 40.45 0 0 1 115.8 95.6a31.964 31.964 0 0 1-.775-6.975 20.612 20.612 0 0 1 1.1-6.55 25.695 25.695 0 0 1 3.05-6.1c1.181-1.788 2.723-3.321 4.625-4.6a24.563 24.563 0 0 1 6.65-3.05m43.225-17.75c-.284-.915-1.143-1.299-2.575-1.15-.692.08-2.175.621-4.45 1.625-1.04-2.803-2.649-3.27-4.825-1.4a15.342 15.342 0 0 0-.625-1.3 9.13 9.13 0 0 0-.925-1.45c-.66-.809-1.326-1.184-2-1.125-1.296 1.457-2.063 2.849-2.3 4.175-.008 9.137.817 14.612 2.475 16.425a21.107 21.107 0 0 0-3.5-.55c-2.465-.196-5.915-.062-10.35.4-.182-1.013-.332-2.322-.45-3.925-.319-3.127-.103-5.494.65-7.1a3.629 3.629 0 0 1-.575-.725c-.895-1.658-2.128-2.149-3.7-1.475-.595.258-1.253.283-1.975.075-.762-.208-1.546-.691-2.35-1.45-1.1-1.146-2.2-1.021-3.3.375-1.014 1.273-.988 2.398.075 3.375.84.802 1.298 1.752 1.375 2.85.128 1.184.32 2.326.575 3.425a16.45 16.45 0 0 0 1.15 3.45 4.04 4.04 0 0 0 1.15 1.525 4.16 4.16 0 0 0 1.65.75c.633.126 1.267.209 1.9.25a68.23 68.23 0 0 1 4.85.65c-.43.462-1.03.712-1.8.75-1.688.091-3.08.692-4.175 1.8a13.377 13.377 0 0 0-2.75 3.925 45.485 45.485 0 0 0-1.7 4.2 294.25 294.25 0 0 0-1.675 4.7c-.169 1.49-.31 2.956-.425 4.4-1.125 12.974-.174 24.057 2.85 33.25-2.858-4.954-4.54-9.096-5.05-12.425-.512-3.325-.754-6.817-.725-10.475.005-.777.013-1.502.025-2.175-1.073-5.453-2.314-5.236-3.725.65-.74-2.626-1.432-4.418-2.075-5.375a6.017 6.017 0 0 0-.475 1.7c-.17 1.694-.17 3.301 0 4.825.134 1.651.226 3.259.275 4.825.352 1.625.727 3.2 1.125 4.725a98.47 98.47 0 0 0 1.375 4.625l.025-.05a358.554 358.554 0 0 0 2.425 4.125 17.533 17.533 0 0 0 2.925 3.7l3.425 3.425a35.144 35.144 0 0 0 3.45 3.25c1.141.926 2.558 1.535 4.25 1.825a93.66 93.66 0 0 0 4.825.65c1.655.206 3.288.54 4.9 1a10.544 10.544 0 0 1 4.1 2.3v.025h.025c3.315-1.175 5.416-2.474 6.3-3.9a15.45 15.45 0 0 1 2.925-3.5 28.359 28.359 0 0 1 3.75-2.85 18.934 18.934 0 0 1 4.15-1.8c1.475-.424 2.91-.383 4.3.125 1.491.556 2.557 1.514 3.2 2.875.721 1.567 1.888 2.392 3.5 2.475 1.65.085 3.3.044 4.95-.125a8.7 8.7 0 0 0 1.65-.325c.978-.339 2.253-.572 3.825-.7.024.068.075.11.15.125a23.625 23.625 0 0 0-.8-1.125c.801-.095 1.483-.237 2.05-.425.727-.233 1.252-.541 1.575-.925-2.199-1.57-4.34-2.896-6.425-3.975-10.525-5.417-19.592-4.491-27.2 2.775-1.7.463-3.126.671-4.275.625 1.105-1.393 2.146-2.701 3.125-3.925.974-1.188 1.758-2.547 2.35-4.075a25.02 25.02 0 0 0 1.325-4.525c.343-1.562.56-3.145.65-4.75l.25-4.975c.046-1.609.071-3.217.075-4.825a171.314 171.314 0 0 1-.075-4.7 97.14 97.14 0 0 1 .125-4.975c.088-1.648-.12-3.19-.625-4.625-.593-1.569-1.609-2.777-3.05-3.625-.72-.427-.995-.961-.825-1.6.035-.293.22-.502.55-.625 1.654-.763 2.547-1.971 2.675-3.625a99.48 99.48 0 0 0 .125-4.975V59.75c-1.78-1.99-1.74-3.323.125-4 1.105-.426 1.68-1.043 1.725-1.85.04-1.948 1.181-2.773 3.425-2.475.401.041.802.091 1.2.15v-.225a2.288 2.288 0 0 0-.15-.775M171.5 142.1c1.375 1.939 2.05 4.205 2.025 6.8-.013 2.265-.563 4.782-1.65 7.55 3.4 6.342 4.966 11.666 4.7 15.975.025-.129.051-.262.075-.4a16.75 16.75 0 0 0 1.575-4.575 8.133 8.133 0 0 0-.5-4.7 19.605 19.605 0 0 0-2.3-4.25c-.255-.386-.213-.644.125-.775 1.484-.635 2.651-1.652 3.5-3.05.176-.295.268-.653.275-1.075a16.674 16.674 0 0 0-1.1-4.775 45.742 45.742 0 0 0-1.975-4.375c-.544-1.023-1.428-1.665-2.65-1.925l-2.1-.425m4.15 34.425c-.207.471-.44.921-.7 1.35-.84 1.398-1.989 2.624-3.45 3.675-6.54 4.658-14.448 3.433-23.725-3.675a49.735 49.735 0 0 1-.575-.425c-2.715 2.073-5.556 3.765-8.525 5.075-3.77 1.737-7.562 1.779-11.375.125-3.43-1.484-6.055-3.901-7.875-7.25-1.739-3.263-2.205-6.738-1.4-10.425.725-3.458 2.316-6.317 4.775-8.575h-.075a66.699 66.699 0 0 1-4.825-.375 7.08 7.08 0 0 0-2.1 1.325 20.97 20.97 0 0 0-3.05 3.55 4.21 4.21 0 0 0-.775 1.925 43.812 43.812 0 0 0-.375 4.75c-.042 1.613.15 3.164.575 4.65a29.532 29.532 0 0 0 1.65 4.575 30.925 30.925 0 0 0 2.35 4.325 138.03 138.03 0 0 0 2.725 4.125 80.46 80.46 0 0 0 3 3.95 27.488 27.488 0 0 0 3.25 3.425 66.025 66.025 0 0 0 3.675 3.2 96.674 96.674 0 0 0 3.575 2.65 58.444 58.444 0 0 0 4 2.625 38.925 38.925 0 0 0 4 1.975c1.403.592 2.87 1.183 4.4 1.775 1.433.547 2.866.989 4.3 1.325 1.7.381 3.283.889 4.75 1.525-1.09-2.469-5.49-4.844-13.2-7.125h4c7.574.855 12.016.488 13.325-1.1.173-.219.29-.461.35-.725a1.661 1.661 0 0 0 0-.775 1.704 1.704 0 0 0-.5-.9c-1.194-1.125-4.269-1.734-9.225-1.825 3.156-2.225 2.264-3.883-2.675-4.975 1.064-.757 2.53-1.09 4.4-1 1.736.038 3.303.288 4.7.75 1.614.51 2.89 1.402 3.825 2.675.205.258.388.517.55.775.22.296.544.338.975.125a132.18 132.18 0 0 1 4.25-2.225c1.53-.764 2.805-1.697 3.825-2.8A339.114 339.114 0 0 1 171.8 185a13.493 13.493 0 0 0 2.5-3.625 16.606 16.606 0 0 0 1.25-4.575c.03-.088.063-.179.1-.275" fill="#aa290f" fill-rule="evenodd"/><path d="M118.15 103.2a15.943 15.943 0 0 1-.65 3.15 17.851 17.851 0 0 0-.75 4.775c-.04 1.608.068 3.217.325 4.825a24.89 24.89 0 0 1 .3 4.725c.004 1.65-.012 3.3-.05 4.95-.04 1.652-.4 3.177-1.075 4.575-.684 1.312-1.793 2.178-3.325 2.6l-4.45 1.275c-.847.251-1.63.418-2.35.5a46.641 46.641 0 0 1-4.9.4c-.635-.002-1.185-.152-1.65-.45a9.89 9.89 0 0 0-2.85-1.2c-2.258-.465-2.95.102-2.075 1.7.332.31.682.61 1.05.9 1.992 1.651 4.217 2.71 6.675 3.175 2.459.594 4.876.32 7.25-.825a33.76 33.76 0 0 0 5.6-3.5c1.95-1.487 3.433-3.27 4.45-5.35a24.181 24.181 0 0 0 2.1-6.925 21.541 21.541 0 0 0 0-6.6 42.75 42.75 0 0 0-1.6-6.8 185.518 185.518 0 0 0-2.025-5.9m55.675-51.625a25.36 25.36 0 0 0-1.2-.15c-2.244-.298-3.386.527-3.425 2.475-.045.807-.62 1.424-1.725 1.85-1.865.677-1.906 2.01-.125 4v6.225a97.15 97.15 0 0 1-.125 4.975c-.128 1.653-1.021 2.861-2.675 3.625-.331.123-.515.332-.55.625-.17.64.105 1.173.825 1.6 1.44.848 2.457 2.056 3.05 3.625.505 1.435.713 2.977.625 4.625a97.14 97.14 0 0 0-.125 4.975c.004 1.567.028 3.133.075 4.7a184.918 184.918 0 0 1-.075 4.825l-.25 4.975a29.919 29.919 0 0 1-.65 4.75 25.043 25.043 0 0 1-1.325 4.525c-.592 1.528-1.375 2.886-2.35 4.075-.98 1.223-2.02 2.532-3.125 3.925 1.149.046 2.574-.162 4.275-.625 2.35-2.96 3.85-5.312 4.5-7.05 6.55-16.766 6.867-30.058.95-39.875 1.068-3.495 1.376-7.013.925-10.55-.445-3.543-.853-6.3-1.225-8.275 2.41-.628 3.65-1.912 3.725-3.85m-50.675 102.3a10.213 10.213 0 0 1-3.975-1.675c-1.106-.767-1.873-1.767-2.3-3-.377-1.27.114-2.054 1.475-2.35 1.35-.29 1.958-.899 1.825-1.825-.211-1.914.448-3.489 1.975-4.725a11.84 11.84 0 0 0 1.95-2.225c-3.221 1.413-5.738 3.13-7.55 5.15-.477-1.438-.635-2.454-.475-3.05-1.326 2.431-2.051 4.872-2.175 7.325-.906-1.318-1.506-2.418-1.8-3.3l-.75-1.15c-.248.995-.398 1.853-.45 2.575-.406 4.744.485 8.103 2.675 10.075-1.243 2.121-2.218 4.246-2.925 6.375a23.43 23.43 0 0 0-.375 1.25c-1.357 4.672-1.433 9.34-.225 14a29.38 29.38 0 0 0 1.75 4.95c3.897 6.995 8.939 13.078 15.125 18.25 7.927 6.614 16.977 9.572 27.15 8.875a2.936 2.936 0 0 0-.225-1.7 26.466 26.466 0 0 0-4.75-1.525 33.502 33.502 0 0 1-4.3-1.325 157.882 157.882 0 0 1-4.4-1.775 39.026 39.026 0 0 1-4-1.975 59.454 59.454 0 0 1-4-2.625 97.524 97.524 0 0 1-3.575-2.65 66.389 66.389 0 0 1-3.675-3.2 27.635 27.635 0 0 1-3.25-3.425 81.738 81.738 0 0 1-3-3.95 138.03 138.03 0 0 1-2.725-4.125 30.981 30.981 0 0 1-2.35-4.325 29.532 29.532 0 0 1-1.65-4.575 15.426 15.426 0 0 1-.575-4.65c.04-1.605.165-3.188.375-4.75a4.21 4.21 0 0 1 .775-1.925 20.97 20.97 0 0 1 3.05-3.55 7.08 7.08 0 0 1 2.1-1.325c1.396.167 3.005.292 4.825.375h.075c.284-.269.576-.528.875-.775a25.645 25.645 0 0 1-.525-1.75" fill="#e93921" fill-rule="evenodd"/><path d="M165.575 42.05c-.457.709-1.115 1.483-1.976 2.325.861-.842 1.52-1.616 1.976-2.325m12.725-1.425c.044.163-.039.264-.25.3-1.13 1.576-3.355 2.727-6.675 3.45-1.529.037-1.87-.372-1.026-1.224a4.38 4.38 0 0 1 1.976-1.125 3.006 3.006 0 0 1 1.075-.201c1.021-.046 1.554-.538 1.6-1.475.084-1.013.634-1.496 1.65-1.45 1.001.039 1.552.597 1.65 1.675zm-50.875 3.425c-3.087-1.3-4.954-2.832-5.6-4.6.646 1.768 2.513 3.3 5.6 4.6m14.625-2.675c-.38.725-.738 1.49-1.075 2.3-.088-.806-.429-1.506-1.025-2.1-.638-.682-.788-1.408-.45-2.174.177-.382.501-.616.975-.701a4.117 4.117 0 0 1 1.25.076c.176.04.31.165.4.375.42.762.395 1.503-.075 2.224m18.9.5a9.211 9.211 0 0 1 1.774-1.4c.975-.551 1.484-.318 1.526.7.002.854-.357 1.536-1.075 2.05-.346.21-.946.335-1.8.375-.926-.554-1.068-1.128-.425-1.725m-34.825 37.9l-2.375-.624zm-.85 3.25c.284-1.195.567-2.278.85-3.25.38-1.362.755-2.511 1.125-3.45-.37.939-.745 2.088-1.125 3.45a67.068 67.068 0 0 0-.85 3.25m4.275-6.35c.456 1.079.49 2.979.1 5.7l1.35 2.05-1.35-2.05c.39-2.721.356-4.621-.1-5.7m31.7 71c-3.784-5.368-8.984-7.326-15.6-5.875-6.627 1.45-10.452 3.734-11.475 6.85 1.023-3.116 4.848-5.4 11.475-6.85 6.616-1.451 11.816.507 15.6 5.875m-19.775 8.4c5.248 2.724 10.315 3.19 15.2 1.4-4.885 1.79-9.952 1.324-15.2-1.4m8.775-2.8v-3.925 3.925c3.581 1.495 5.106 2.578 4.575 3.25-2.722.974-5.73.974-9.025 0-1.524-.725-.04-1.808 4.45-3.25M128.6 161.1c2.163.03 4.38-.111 6.65-.425a47.223 47.223 0 0 0 3.075-.5c1.044 1.72 1.57 3.705 1.575 5.95.001 2.753-.783 5.103-2.35 7.05-1.532 1.95-3.382 2.925-5.55 2.925-2.155 0-4.013-.975-5.575-2.925-1.53-1.947-2.297-4.297-2.3-7.05.002-1.942.385-3.683 1.15-5.225a39.76 39.76 0 0 0 3.325.2m27.475-85.55c-12.104.007-17.879 4.23-17.325 12.675-3.586 10.482-.51 22.324 9.225 35.525a6.387 6.387 0 0 0 3.325.125c4.225-.921 7.808-4.271 10.75-10.05 2.944-5.782 4.42-11.598 4.424-17.45-.002-5.847-1.36-10.847-4.074-15-1.784-2.781-3.892-4.722-6.325-5.825M110.05 177.325c-2.84 1.698-6.29 1.414-10.35-.85 1.445-1.396 2.211-3.005 2.3-4.825-.002-1.567-.619-2.86-1.85-3.875a24.854 24.854 0 0 0-3.425-2.225 11.64 11.64 0 0 0-2.425-.85c-.678 1.105-1.178 2.43-1.5 3.975-1.607 7.73.11 12.973 5.15 15.725 5.053 2.749 9.67 2.04 13.85-2.125a29.38 29.38 0 0 1-1.75-4.95M121.9 89c.26-.274.652-.282 1.175-.025a4.551 4.551 0 0 1 1.85 1.575c.267.383.483.816.65 1.3.771-1.91 1.813-2.561 3.125-1.95.496.223 1.03.624 1.6 1.2.013-.401.03-.8.05-1.2.126-1.832.343-3.658.65-5.475.25-1.493.566-2.984.95-4.475-.256-1.962-1.057-3.053-2.4-3.275-.373-.926-1.057-1.251-2.05-.975-.08.197-.163.405-.25.625-2.067-.378-3.809-.02-5.225 1.076-1.416 1.097-1.457 4.963-.125 11.599m2.6-47.55c-.8-.296-1.367-.804-1.7-1.525a5.379 5.379 0 0 1-.45-2.175c.04-.596.398-.937 1.075-1.025a5.726 5.726 0 0 1 1.2 0c.762.09 1.312.54 1.65 1.35.298.716.49 1.475.575 2.275.068.659.11 1.317.125 1.975-.974-.334-1.798-.626-2.475-.875m-3.1 4.05c.584.477 1.21.927 1.875 1.35.395.253.803.494 1.225.725.33.19.663.373 1 .55.633-1.031 2.358-.481 5.175 1.65.78-1.843 1.771-2.626 2.975-2.35 2.041-1.232 4.141-1.232 6.3 0 1.182-1.602 2.648-2.176 4.4-1.725 1.782-5.528 1.432-8.703-1.05-9.525-2.497-.823-4.314-.248-5.45 1.726-.05 1.2.325 2.59 1.125 4.174-3.5-6.503-6.775-8.802-9.825-6.9.42.236.628.694.625 1.375.045.592.153 1.184.325 1.775a3.991 3.991 0 0 0 1.275 2.1c.636.509 1.377.742 2.225.7 1.102-.046 1.57.396 1.4 1.325-.168.89-.759 1.399-1.775 1.525-1.73-.971-3.046-2.196-3.95-3.675-3.496-6.034-5.788-8.218-6.875-6.55l-1.125 1.776a9.93 9.93 0 0 0 .525 3.824l.025.1c-1.467-2.182-2.934-2.666-4.4-1.45.156 2.186.415 3.544.775 4.075A15.699 15.699 0 0 0 120.825 45c-.342-.438-.575-.971-.7-1.6-.214-.847.144-1.122 1.075-.825.766.216 1.34.708 1.725 1.475a7.82 7.82 0 0 1 .525 1.726 7.42 7.42 0 0 1-2.05-.276m62.275-4.45c-.26-3.793-2.052-3.951-5.375-.475.162-.295.287-.603.375-.924-.04-1.61-.866-2.666-2.475-3.176-4.359-1.148-7.718.369-10.075 4.55.118-.317.193-.617.224-.9V40.1c-.636-2.65-2.12-3.283-4.449-1.9-3.035.496-4.243 3.02-3.625 7.576.674-.06 1.34.315 2 1.125.311.385.618.869.925 1.449.21.384.418.817.625 1.3 2.176-1.87 3.784-1.403 4.825 1.4 2.275-1.004 3.758-1.545 4.45-1.625 1.432-.148 2.29.235 2.575 1.15a46.81 46.81 0 0 0 2.2-.55c-.765-.166-1.149-.567-1.15-1.2.854-.511 1.688-.812 2.5-.9a38.105 38.105 0 0 0 2.35-.45c.041.639-.15 1.173-.575 1.6-.214-.086-.322-.044-.325.125a6.52 6.52 0 0 0 .35-.125c1.437-.497 2.495-1.013 3.175-1.55 1.376-1.082 1.876-2.632 1.5-4.65-.046.13-.096.255-.15.375-.647 1.402-3.372 2.285-8.175 2.65-.723-.253-.598-.53.375-.825a10.25 10.25 0 0 1 2.1-.525c.804-.125 1.587-.25 2.35-.375a15.33 15.33 0 0 0 2.225-.625c.211-.09.294-.265.25-.524-.17-1.02.146-1.677.95-1.976zm29.775 84.9a55.53 55.53 0 0 0-1.976-1.575c-5.366-4.04-8.54-4.556-9.524-1.55-.523.53-.324 1.223.6 2.076 3.882.289 6.765 1.63 8.65 4.024.088.115.172.23.25.35l.024-.025c1.566-.97 2.224-2.07 1.976-3.3m-13.825 5.7a21.26 21.26 0 0 1 2.3.1c3.773.336 6.364 1.419 7.775 3.25.73-.252 1.322-.552 1.774-.9 1.065-.78 1.373-1.805.926-3.075a306.63 306.63 0 0 0-.926-.55c-9.014-5.145-12.964-4.754-11.849 1.175m-4.375 3.575l-.625-2.875c.297-1.808 1.172-2.524 2.625-2.15-.645-2.22-.437-3.77.625-4.65-.316-1.887.51-3.062 2.474-3.524.07-.327.22-.62.451-.875-.467-.591-1.1-.767-1.9-.526.146.486.138.919-.025 1.3a1.653 1.653 0 0 1-.3.45c-.323.384-.848.693-1.575.925-.567.188-1.249.33-2.05.425.305.406.572.78.8 1.125 1.892 3.102.692 4.169-3.6 3.2a22.915 22.915 0 0 1-1.525-.4c.225 2.135.234 3.644.025 4.525.107 1.854.607 3.679 1.5 5.475.576 1.153 1.32 2.295 2.225 3.425l3.75 1.775-2.475.65c-2.358 3.407-2.358 5.757 0 7.05 1.15-1.865 2.382-3.307 3.7-4.325.504-.421.754-1.095.75-2.025-.003-.913.397-1.296 1.2-1.15a20.604 20.604 0 0 0-.475-2.625c3.137.625 5.787.525 7.95-.3 1.83-.708 2.43-1.9 1.8-3.575-10.933-5.218-15.39-4.493-13.375 2.175.112.06.23.118.35.175 1.863.953 2.955 1.462 3.275 1.525-.32-.063-1.412-.572-3.275-1.525a7.609 7.609 0 0 1-.35-.175c-1.23-.767-1.88-1.934-1.95-3.5m10.55 4.25c-1.81-.083-3.395-.441-4.75-1.075-2.079-.973-1.996-1.798.25-2.475 1.908-.555 3.35-.305 4.325.75.513.515.77 1.156.775 1.925-.059.38-.142.67-.25.875a6.803 6.803 0 0 0-.35 0M158.175 161.1c2.164.03 4.38-.111 6.65-.425a47.113 47.113 0 0 0 3.075-.5c1.035 1.72 1.552 3.705 1.55 5.95.001 2.753-.783 5.103-2.35 7.05-1.524 1.95-3.366 2.925-5.525 2.925-2.164 0-4.03-.975-5.6-2.925-1.522-1.947-2.28-4.297-2.275-7.05-.007-1.942.368-3.683 1.125-5.225 1.098.112 2.215.179 3.35.2m-35.025-7.225c.148.57.323 1.153.525 1.75-.3.248-.592.507-.875.775-2.459 2.258-4.05 5.117-4.775 8.575-.805 3.687-.339 7.162 1.4 10.425 1.82 3.349 4.444 5.766 7.875 7.25 3.813 1.654 7.605 1.612 11.375-.125 2.97-1.31 5.81-3.002 8.525-5.075 10.252 4.838 18.27 4.838 24.05 0 4.191-5.333 3.51-12.242-2.05-20.725 3.957-10.021-.368-16.612-12.975-19.775-3.34-.838-7.257-1.438-11.75-1.8a55.969 55.969 0 0 0-1.525-.075 57.612 57.612 0 0 0-1.95 0c-5.387.113-10.146 1.538-14.275 4.275-3.433 3.103-4.808 7.078-4.125 11.925.121.838.304 1.705.55 2.6m58.9 27.1a42.861 42.861 0 0 1-1.2 2.925 25.737 25.737 0 0 1-1.376 2.6c3.796 4.816 7.98 5.44 12.551 1.875 4.24-3.301 5.782-7.868 4.625-13.7a13.208 13.208 0 0 0-.7-2.375 7.507 7.507 0 0 0-.125-.325c.018.109.034.217.05.325.594 3.058.544 6.024-.15 8.9.081-4.311-.46-7.277-1.626-8.9a3.956 3.956 0 0 0-.899-.9c-.474.4-.974.842-1.5 1.325a13.778 13.778 0 0 0-2.6 3.05c-.759 1.235-1.009 2.618-.75 4.15.3 1.679 1 2.863 2.1 3.55.134.085.275.168.425.25-3.945 1.59-6.886.674-8.825-2.75" fill="#ea9e44" fill-rule="evenodd"/><path d="M165.7 37c.547.925.764 1.958.65 3.1.114-1.142-.103-2.175-.65-3.1m12.975 2.65c.243-.895.175-1.937-.2-3.125.375 1.188.443 2.23.2 3.125m-50.325-3.875c.112-.825.42-1.483.925-1.975-.505.492-.813 1.15-.925 1.975m19.625 87.975c-9.736-13.201-12.81-25.043-9.225-35.525-.554-8.444 5.221-12.668 17.325-12.675a11.904 11.904 0 0 0-3.85-1.05c-4.117-.413-7.975 1.037-11.575 4.35-3.592 3.31-5.484 8.286-5.675 14.925-.203 6.643 1.414 13.552 4.85 20.725 2.508 5.229 5.225 8.313 8.15 9.25m42.675 8.425c-.154.661-.438.953-.85.875-.543 2.705 0 4.905 1.625 6.6.273.286.514.602.725.95 1.001 1.592 1.31 3.775.925 6.55-.32 2.31.537 3.444 2.575 3.4-2.358-1.293-2.358-3.643 0-7.05l2.475-.65-3.75-1.775c-.906-1.131-1.649-2.272-2.225-3.425-.893-1.796-1.393-3.621-1.5-5.475m-90.95 44.3c4.004.004 7.53-4.38 10.575-13.15.111-.412.236-.828.375-1.25-8.232-2.666-13.682-1.791-16.35 2.625a11.64 11.64 0 0 1 2.425.85 24.854 24.854 0 0 1 3.425 2.225c1.231 1.016 1.848 2.308 1.85 3.875-.089 1.82-.855 3.429-2.3 4.825M117.425 38c1.466-1.216 2.933-.732 4.4 1.45a2.912 2.912 0 0 1-.025-.1 9.935 9.935 0 0 1-.525-3.825l1.125-1.775c1.087-1.668 3.38.516 6.875 6.55a7.948 7.948 0 0 1-.95-3.475 6.104 6.104 0 0 1 .025-1.05 7.01 7.01 0 0 1 .8-.6c3.05-1.903 6.325.397 9.825 6.9-.8-1.583-1.175-2.974-1.125-4.175.005-.161.021-.319.05-.475.08-.626.263-1.143.55-1.55-.287.407-.47.924-.55 1.55a3.122 3.122 0 0 0-.05.475c1.136-1.973 2.953-2.548 5.45-1.725 2.482.822 2.832 3.997 1.05 9.525-1.752-.451-3.218.123-4.4 1.725-2.159-1.233-4.259-1.233-6.3 0 .464.1.964.359 1.5.775.653.549 1.362 1.349 2.125 2.4 1.45-1.454 2.683-2.345 3.7-2.675.191-.061.374-.103.55-.125.211-.029.411-.029.6 0 1.084.166 1.801 1.291 2.15 3.375a51.86 51.86 0 0 1 .825-3.375c.136-.534.286-1.076.45-1.625 1.352-4.513 1.377-7.68.075-9.5-.775-1.069-1.859-1.686-3.25-1.85a6.943 6.943 0 0 0-1.6-.025c-.13.001-.264.01-.4.025-.859.115-1.5.465-1.925 1.05-1.587-2.344-3.704-3.401-6.35-3.175-1.26.099-2.203.466-2.825 1.1-4.785-1.88-7.385-1.88-7.8 0a9.742 9.742 0 0 0-.2 1.725c-2.715-.652-3.998.14-3.85 2.375a.834.834 0 0 1 0 .1m60.875 2.575c3.323-3.476 5.115-3.318 5.375.475.041.527.05 1.127.025 1.8.187-.547.278-1.164.274-1.85-.018-.704-.135-1.479-.349-2.325-.487-1.885-2.204-2.602-5.15-2.15a12.59 12.59 0 0 0-.3-.875c-.297-.731-.823-1.322-1.576-1.775-.746-.462-2.054-.57-3.924-.325-1.885.257-4.21 1.407-6.975 3.45-.563-1.029-2.454-1.096-5.675-.2-2.934.814-4.417 4.181-4.45 10.1-.01.397-.01.805 0 1.225a8.7 8.7 0 0 1 .85-1.225c.622-.729 1.238-1.104 1.85-1.125-.618-4.554.59-7.08 3.625-7.575 2.33-1.384 3.813-.75 4.45 1.9v.025a3.77 3.77 0 0 1-.225.9c2.357-4.181 5.716-5.698 10.075-4.55 1.61.509 2.435 1.567 2.475 3.175-.088.322-.213.63-.375.925m18.9 98.15c-2.016-6.668 2.442-7.393 13.375-2.175a5.994 5.994 0 0 0-.5-.975 7.063 7.063 0 0 0-.375-.575c-1.41-1.831-4.002-2.915-7.775-3.25a21.007 21.007 0 0 0-2.3-.1c-1.115-5.929 2.835-6.32 11.85-1.175.302.179.611.362.925.55-.175-.529-.483-1.104-.926-1.725l-.024-.025a5.896 5.896 0 0 0-.25-.35c-1.885-2.393-4.768-3.735-8.65-4.025a96.54 96.54 0 0 1 0 0c-.924-.852-1.123-1.545-.6-2.075.983-3.007 4.158-2.49 9.524 1.55a54.418 54.418 0 0 1 1.976 1.575c-.18-.899-.838-1.866-1.976-2.9-.08-.073-.164-.149-.25-.225-2.956-2.552-5.764-3.46-8.424-2.725-.918.251-1.585.6-2 1.05a1.881 1.881 0 0 0-.45.875c-1.965.462-2.79 1.638-2.475 3.525-1.062.88-1.27 2.43-.625 4.65-1.453-.374-2.328.342-2.625 2.15l.625 2.875a7.82 7.82 0 0 1 .075-1.525c.19-1.288 1.532-1.971 4.024-2.05-.402-.558-.819-1.425-1.25-2.6-.423-1.168-.065-2.16 1.076-2.975.827-.605 1.518-.988 2.075-1.15-.757-1.154-1.058-2.12-.9-2.9-.158.78.143 1.746.9 2.9-.557.162-1.248.545-2.075 1.15-1.14.815-1.499 1.807-1.076 2.975.431 1.175.848 2.042 1.25 2.6-2.492.079-3.834.762-4.024 2.05a7.82 7.82 0 0 0-.075 1.525c.07 1.566.72 2.733 1.95 3.5m-61.525-3.95a24.653 24.653 0 0 0-3.45 1.15c-1.653.689-3.137 1.539-4.45 2.55-.372.28-.722.572-1.05.875 4.13-2.738 8.888-4.162 14.275-4.275a57.612 57.612 0 0 1 1.95 0c.507.018 1.016.043 1.525.075 4.493.362 8.41.962 11.75 1.8 12.607 3.163 16.932 9.754 12.975 19.775 5.56 8.483 6.241 15.392 2.05 20.725-5.78 4.838-13.798 4.838-24.05 0 .192.144.384.286.575.425 9.277 7.108 17.185 8.333 23.725 3.675 1.461-1.051 2.61-2.277 3.45-3.675.26-.429.493-.879.7-1.35.525-1.243.833-2.609.925-4.1.266-4.309-1.3-9.633-4.7-15.975 1.087-2.768 1.637-5.285 1.65-7.55.025-2.595-.65-4.861-2.025-6.8-2.213-3.121-6.23-5.396-12.05-6.825a72.872 72.872 0 0 0-1.375-.3 67.45 67.45 0 0 0-6.35-.95c-3.668-.378-7.018-.452-10.05-.225a36.306 36.306 0 0 0-4.95.725c-.356.078-.706.162-1.05.25m60.15 37.2a9.937 9.937 0 0 0-1-1.775 26.14 26.14 0 0 0-1.625 1.2 3.09 3.09 0 0 0-1.05-.475c-1.159-.277-2.6.048-4.325.975-3.897 4.535-3.022 8.393 2.625 11.575-1.1-.687-1.8-1.871-2.1-3.55-.259-1.532-.009-2.915.75-4.15a13.756 13.756 0 0 1 2.6-3.05 48.009 48.009 0 0 1 1.5-1.325c.334.238.635.538.9.9 1.164 1.622 1.706 4.589 1.624 8.9.695-2.876.745-5.843.151-8.9-.016-.108-.032-.217-.05-.325" fill="#dc8a38" fill-rule="evenodd"/><path d="M161.65 166.25c0-.505-.193-.947-.575-1.325-.387-.383-.837-.574-1.35-.575-.506.001-.948.192-1.325.575-.383.378-.575.82-.575 1.325s.192.947.575 1.325c.377.383.82.574 1.325.575.513-.001.963-.192 1.35-.575.382-.378.574-.82.575-1.325m-31.476 1.9c.506-.001.948-.192 1.326-.575.382-.378.574-.82.575-1.325 0-.505-.193-.947-.575-1.325-.378-.383-.82-.574-1.326-.575-.513.001-.963.192-1.349.575-.383.378-.574.82-.575 1.325.001.505.192.947.575 1.325.386.383.836.574 1.35.575m5.075-7.475c.085.097.168.198.25.3.98 1.059 1.47 2.35 1.475 3.875-.005 1.528-.496 2.845-1.475 3.95-.934 1.055-2.059 1.58-3.375 1.575-1.31.005-2.453-.52-3.425-1.575-.933-1.105-1.4-2.422-1.4-3.95-.002-1.465.432-2.715 1.3-3.75a39.76 39.76 0 0 1-3.325-.2c-.765 1.541-1.148 3.283-1.15 5.225.003 2.752.77 5.103 2.3 7.05 1.561 1.95 3.42 2.925 5.575 2.925 2.168 0 4.018-.975 5.55-2.925 1.567-1.947 2.35-4.298 2.35-7.05-.006-2.246-.53-4.229-1.575-5.95a47.913 47.913 0 0 1-3.075.5m29.575 0c.085.097.17.198.25.3.971 1.059 1.454 2.35 1.45 3.875.004 1.528-.479 2.845-1.45 3.95-.935 1.055-2.06 1.58-3.375 1.575-1.312.005-2.453-.52-3.425-1.575-.933-1.105-1.4-2.422-1.4-3.95 0-1.465.432-2.715 1.3-3.75a40.366 40.366 0 0 1-3.35-.2c-.757 1.541-1.132 3.283-1.125 5.225-.005 2.752.753 5.103 2.275 7.05 1.57 1.95 3.436 2.925 5.6 2.925 2.16 0 4.001-.975 5.524-2.925 1.568-1.947 2.352-4.298 2.351-7.05.002-2.246-.515-4.229-1.55-5.95a47.913 47.913 0 0 1-3.075.5" fill="#fff" fill-rule="evenodd"/><path d="M99.7 176.475c4.06 2.264 7.51 2.547 10.35.85-1.208-4.66-1.133-9.328.225-14-3.045 8.77-6.57 13.153-10.575 13.15m82.35 4.5c1.94 3.423 4.88 4.34 8.825 2.75a8.238 8.238 0 0 1-.425-.25c-5.647-3.182-6.522-7.04-2.625-11.575 1.725-.927 3.166-1.252 4.325-.975a3.09 3.09 0 0 1 1.05.475 25.74 25.74 0 0 1 1.625-1.2 9.57 9.57 0 0 0-2.675-2.675c-1.933-1.306-4.45-2.056-7.55-2.25.221 3.475-.104 7-.975 10.575a43.126 43.126 0 0 1-.526 2.025 45.624 45.624 0 0 1-1.049 3.1" fill="#bd7022" fill-rule="evenodd"/><path d="M158.275 45.775c-.611.021-1.228.396-1.85 1.125a8.81 8.81 0 0 0-.85 1.225c-.047.203-.297.461-.75.775-.44.33-.365 2.255.225 5.774.314 1.864.422 4.063.325 6.601-.1 1.804-.241 3.32-.425 4.55 1.22.091 2.387.274 3.5.55-1.657-1.814-2.483-7.288-2.475-16.425.237-1.326 1.005-2.718 2.3-4.175m6.675 75.4c7.608-7.266 16.675-8.192 27.2-2.775 2.084 1.08 4.226 2.404 6.425 3.975.128-.139.228-.289.3-.45.163-.38.17-.815.025-1.3-.707-.917-2.957-2.417-6.75-4.5a161.418 161.418 0 0 0-3.4-1.826c-5.861-3.04-12.295-3.098-19.3-.174-.65 1.738-2.15 4.088-4.5 7.05M135.15 48.2c-.536-.416-1.036-.675-1.5-.776-1.204-.276-2.195.507-2.975 2.351-2.817-2.132-4.542-2.682-5.175-1.65-.11.183-.183.424-.225.724-.245 1.905.88 3.356 3.375 4.351-.396 2.724-.28 5.758.35 9.1.04.252.082.502.125.75a.847.847 0 0 0-.1.05l-.3.05c-5.025 1.146-9.708 4.271-14.05 9.375-4.45 5.241-6.183 11.424-5.2 18.55A2257.84 2257.84 0 0 0 112.2 110.4c.235 1.617.393 3.11.475 4.475.175 3.497-.225 6.846-1.2 10.05-.972 3.204-2.614 5.07-4.925 5.6-2.314.524-4.264-.567-5.85-3.275-1.581-2.707-2.79-4.332-3.625-4.875-.834-.532-2.51-.706-5.025-.526-1.868.12-2.76 1.195-2.675 3.226 1.81-.677 3.478.014 5 2.075 7.68 6.41 12.948 7.96 15.8 4.65 2.844-3.307 4.536-8.065 5.075-14.275.555-6.224-.662-14.782-3.65-25.676-1.761-5.538.273-12.762 6.1-21.675 4.917-4.157 8.75-5.132 11.5-2.924a5.909 5.909 0 0 1-.2.65c-.087.193.396.335 1.45.425a43.333 43.333 0 0 0 2.825 6.825 97.22 97.22 0 0 0-1.325 4.8c-.383 1.49-.7 2.981-.95 4.474a56.187 56.187 0 0 0-.65 5.476c-.02.4-.037.8-.05 1.2-.57-.577-1.104-.977-1.6-1.2-1.311-.61-2.353.04-3.125 1.95a5.27 5.27 0 0 0-.65-1.3 4.559 4.559 0 0 0-1.85-1.576c-.523-.257-.915-.249-1.175.026-.338.342-.521 1.633-.55 3.875-.03 2.256.82 7.898 2.55 16.924 1.688 8.772 5.963 17.014 12.825 24.726a36.302 36.302 0 0 1 4.95-.726c3.033-.227 6.383-.152 10.05.226a66.929 66.929 0 0 1 6.35.95c.466.097.925.197 1.375.3 10.36-.58 17.445 3.262 21.25 11.524.53-1.509.58-2.568.15-3.174 1.124 1.082 2.008 3.006 2.65 5.775.086-2.915-.931-6.006-3.05-9.275v2.15c-1.345-3.707-6.38-6.056-15.1-7.05-2.132-.237-4.491-.395-7.075-.475h-.05l.05-.025 2.275-2.225a137.12 137.12 0 0 1-3.5-.05h-.025c-9.293-.116-16.36-.908-21.2-2.375-3.696-4.61-6.738-10.57-9.125-17.875a98.47 98.47 0 0 1-1.375-4.625 116.237 116.237 0 0 1-1.125-4.726 140.318 140.318 0 0 1-1.975-11.125c.654-1.327 1.379-1.402 2.175-.224.643.957 1.335 2.75 2.075 5.375 1.41-5.886 2.653-6.103 3.725-.65-.012.673-.02 1.398-.025 2.175-.03 3.657.213 7.15.725 10.475.509 3.33 2.192 7.47 5.05 12.424-3.024-9.192-3.974-20.275-2.85-33.25.114-1.443.256-2.91.425-4.399.346-2.959.796-6.009 1.35-9.15-.18-1.154.88-1.87 3.175-2.15h-4.125c-3.29-6.387-4.73-12.853-4.325-19.4-5.116-4.475-4.315-4.475 2.4 0-.746-3.793.305-5.377 3.15-4.75m18.7 159.5c.246.557.32 1.124.225 1.7.22-.106.412-.223.575-.35 1.88-1.485 1.289-3.177-1.775-5.075-3.067-1.897-5.81-3.03-8.225-3.4h-4c7.71 2.281 12.11 4.656 13.2 7.125m3.975-10.625c-.294-2.262-2.27-3.362-5.925-3.3 1.65-1.918-.341-3.085-5.975-3.5 4.939 1.091 5.83 2.75 2.675 4.975 4.956.091 8.03.7 9.225 1.825m.15 2.4c10.18-1.774 17.348-6.099 21.5-12.975.5-.827.959-1.694 1.375-2.6.444-.98.844-1.957 1.2-2.925a46.39 46.39 0 0 0 1.05-3.1c.192-.677.368-1.352.525-2.025.87-3.575 1.196-7.1.975-10.575a33.853 33.853 0 0 0-.9-5.775c1.487-3.274 1.995-7.699 1.525-13.275-.458 6.626-2.191 11.076-5.2 13.35h2.15c2.099 20.765-5.852 33.566-23.85 38.4.06.238.06.496 0 .775a1.81 1.81 0 0 1-.35.725" fill="#881c0d" fill-rule="evenodd"/><path d="M124.4 91.5c-.796-1.178-1.521-1.103-2.175.225a140.48 140.48 0 0 0 1.975 11.125 97.283 97.283 0 0 0-.275-4.825c-.17-1.524-.17-3.131 0-4.825a6.017 6.017 0 0 1 .475-1.7m2.3 20.7c2.387 7.306 5.429 13.264 9.125 17.875 4.84 1.467 11.907 2.259 21.2 2.375v-.025a10.544 10.544 0 0 0-4.1-2.3 32.428 32.428 0 0 0-4.9-1 93.809 93.809 0 0 1-4.825-.65c-1.692-.29-3.11-.899-4.25-1.825a35.257 35.257 0 0 1-3.45-3.25l-3.425-3.425a17.565 17.565 0 0 1-2.925-3.7 358.554 358.554 0 0 1-2.425-4.125zm30.35 20.25c1.139.031 2.306.048 3.5.05 6.355-6.095 11.897-8.461 16.625-7.1 5.072 1.464 8.73 3.564 10.975 6.3.679.827 1.23 1.277 1.65 1.35.412.078.696-.214.85-.875.209-.882.2-2.39-.025-4.525.546.162 1.055.295 1.525.4 4.292.969 5.493-.098 3.6-3.2a.187.187 0 0 1-.15-.125c-1.572.128-2.847.361-3.825.7a8.7 8.7 0 0 1-1.65.325c-1.65.169-3.3.21-4.95.125-1.611-.083-2.778-.908-3.5-2.475-.643-1.361-1.71-2.319-3.2-2.875-1.391-.508-2.825-.549-4.3-.125a18.954 18.954 0 0 0-4.15 1.8 28.359 28.359 0 0 0-3.75 2.85 15.45 15.45 0 0 0-2.925 3.5c-.884 1.426-2.985 2.725-6.3 3.9m-12.775-81.275c-.35-2.084-1.066-3.209-2.15-3.375a2.078 2.078 0 0 0-.6 0 3.059 3.059 0 0 0-.55.125c-1.017.33-2.25 1.221-3.7 2.675-.763-1.051-1.472-1.851-2.125-2.4-2.845-.627-3.896.957-3.15 4.75-6.715-4.474-7.516-4.474-2.4 0-.405 6.547 1.036 13.014 4.325 19.4h4.125c-2.295.28-3.354.997-3.175 2.15a159.234 159.234 0 0 0-1.35 9.15 304.418 304.418 0 0 1 1.675-4.7 45.767 45.767 0 0 1 1.7-4.2 13.415 13.415 0 0 1 2.75-3.925c1.095-1.108 2.487-1.709 4.175-1.8.769-.038 1.369-.288 1.8-.75a68.151 68.151 0 0 0-4.85-.65 14.542 14.542 0 0 1-1.9-.25 4.166 4.166 0 0 1-1.65-.75 4.04 4.04 0 0 1-1.15-1.525 16.509 16.509 0 0 1-1.15-3.45 28.878 28.878 0 0 1-.575-3.425c-.077-1.098-.535-2.048-1.375-2.85-1.063-.977-1.09-2.102-.075-3.375 1.1-1.396 2.2-1.521 3.3-.375.804.759 1.588 1.242 2.35 1.45.722.208 1.38.183 1.975-.075 1.572-.674 2.806-.183 3.7 1.475.165.271.357.513.575.725.029-.049.054-.098.075-.15.919-1.799.718-3.09-.6-3.875m1.65 139.1c5.634.415 7.626 1.582 5.975 3.5 3.656-.062 5.63 1.038 5.925 3.3.27.268.437.568.5.9 17.998-4.834 25.949-17.634 23.85-38.4h-2.15c3.009-2.273 4.742-6.723 5.2-13.35L183.5 149.4c-.642-2.768-1.526-4.693-2.65-5.775.43.606.38 1.665-.15 3.175-3.805-8.263-10.89-12.105-21.25-11.525 5.82 1.429 9.837 3.704 12.05 6.825l2.1.425c1.222.26 2.106.902 2.65 1.925a45.742 45.742 0 0 1 1.975 4.375c.6 1.528.967 3.12 1.1 4.775-.007.422-.098.78-.275 1.075-.85 1.398-2.016 2.415-3.5 3.05-.338.131-.38.389-.125.775a19.605 19.605 0 0 1 2.3 4.25c.633 1.524.8 3.091.5 4.7a16.75 16.75 0 0 1-1.575 4.575 15.23 15.23 0 0 1-.075.4c-.092 1.491-.4 2.857-.925 4.1a5.962 5.962 0 0 0-.1.275 16.606 16.606 0 0 1-1.25 4.575 13.493 13.493 0 0 1-2.5 3.625 339.114 339.114 0 0 0-3.35 3.575c-1.02 1.103-2.296 2.036-3.825 2.8-1.437.72-2.854 1.462-4.25 2.225-.431.213-.756.171-.975-.125a8.588 8.588 0 0 0-.55-.775c-.936-1.273-2.211-2.165-3.825-2.675-1.397-.462-2.964-.712-4.7-.75-1.87-.09-3.336.243-4.4 1" fill="#9b200f" fill-rule="evenodd"/><path d="M201.3 143.05c-.803-.146-1.202.237-1.2 1.15.005.93-.245 1.604-.75 2.025-1.318 1.018-2.551 2.46-3.7 4.325.587-.011 1.27-.12 2.05-.325 2.893-.76 4.092-3.151 3.6-7.175m4.5-3.575c.11-.003.229-.003.35 0 .108-.204.19-.495.25-.875-.004-.77-.262-1.41-.775-1.925-.975-1.055-2.417-1.305-4.325-.75-2.245.677-2.328 1.502-.25 2.475 1.355.634 2.939.992 4.75 1.075" fill="#efb174" fill-rule="evenodd"/><path d="M161.65 166.25c0 .505-.193.947-.575 1.325-.387.383-.837.574-1.35.575-.506-.001-.948-.192-1.325-.575-.383-.378-.575-.82-.575-1.325s.192-.947.575-1.325c.377-.383.82-.574 1.325-.575.513.001.963.192 1.35.575.382.378.574.82.575 1.325m-31.476 1.9c-.513-.001-.963-.192-1.349-.575-.383-.378-.574-.82-.575-1.325.001-.505.192-.947.575-1.325.386-.383.836-.574 1.35-.575.505.001.947.192 1.325.575.382.378.574.82.575 1.325 0 .505-.193.947-.575 1.325-.378.383-.82.574-1.326.575m5.076-7.475c-2.27.314-4.487.455-6.65.425-.868 1.035-1.302 2.285-1.3 3.75 0 1.528.467 2.845 1.4 3.95.972 1.055 2.114 1.58 3.425 1.575 1.316.005 2.441-.52 3.375-1.575.98-1.105 1.47-2.422 1.475-3.95-.005-1.525-.496-2.816-1.475-3.875a9.234 9.234 0 0 0-.25-.3m29.575 0c-2.27.314-4.487.455-6.65.425-.868 1.035-1.3 2.285-1.3 3.75 0 1.528.467 2.845 1.4 3.95.972 1.055 2.113 1.58 3.425 1.575 1.315.005 2.44-.52 3.375-1.575.971-1.105 1.454-2.422 1.45-3.95.004-1.525-.479-2.816-1.45-3.875a8.104 8.104 0 0 0-.25-.3" fill-rule="evenodd"/><path d="M150.25 153.275c-4.49 1.44-5.974 2.525-4.45 3.25 3.295.974 6.303.974 9.025 0 .531-.672-.994-1.755-4.575-3.25" fill="#b45a25" fill-rule="evenodd"/><path d="M171.375 44.375c3.32-.724 5.545-1.874 6.675-3.45.211-.036.294-.137.25-.3v-.05c-.098-1.078-.649-1.637-1.65-1.675-1.016-.046-1.566.437-1.65 1.45-.046.937-.579 1.428-1.6 1.475-.379.003-.738.07-1.075.2a4.376 4.376 0 0 0-1.975 1.125c-.845.853-.503 1.262 1.025 1.225m-42.225-9.2a7.01 7.01 0 0 0-.8.6 6.104 6.104 0 0 0-.025 1.05 7.948 7.948 0 0 0 .95 3.475c.904 1.478 2.221 2.704 3.95 3.675 1.016-.126 1.607-.635 1.775-1.525.169-.929-.298-1.371-1.4-1.325-.848.042-1.589-.191-2.225-.7a3.991 3.991 0 0 1-1.275-2.1 8.711 8.711 0 0 1-.325-1.775c.003-.681-.205-1.139-.625-1.375m12.9 6.2c.47-.721.495-1.462.075-2.225-.091-.21-.224-.335-.4-.375a4.147 4.147 0 0 0-1.25-.075c-.474.085-.798.319-.975.7-.337.767-.188 1.493.45 2.175.596.594.938 1.294 1.025 2.1.337-.809.695-1.575 1.075-2.3m18.9.5c-.642.597-.501 1.171.425 1.725.854-.04 1.454-.165 1.8-.375.719-.514 1.077-1.197 1.075-2.05-.042-1.018-.551-1.251-1.525-.7a9.148 9.148 0 0 0-1.775 1.4M121.4 45.5a7.424 7.424 0 0 0 2.05.275 7.812 7.812 0 0 0-.525-1.725c-.384-.767-.959-1.259-1.725-1.475-.93-.298-1.289-.022-1.075.825.125.628.358 1.162.7 1.6.182.173.374.339.575.5m3.1-4.05c.677.249 1.501.541 2.475.875a24.72 24.72 0 0 0-.125-1.975 8.159 8.159 0 0 0-.575-2.275c-.338-.81-.888-1.261-1.65-1.35a5.726 5.726 0 0 0-1.2 0c-.676.087-1.035.429-1.075 1.025.002.768.151 1.492.45 2.175.333.721.9 1.228 1.7 1.525m59.2 1.4c.025-.673.016-1.273-.025-1.8h-.05c-.804.299-1.121.957-.95 1.975.044.26-.039.435-.25.525a15.33 15.33 0 0 1-2.225.625c-.762.125-1.546.25-2.35.375-.679.091-1.379.265-2.1.525-.973.296-1.098.571-.375.825 4.803-.365 7.528-1.249 8.175-2.65.054-.12.104-.245.15-.375zm-5.025 6.35c.003-.169.111-.211.325-.125.425-.428.616-.961.575-1.6-.762.171-1.546.321-2.35.45-.812.088-1.646.388-2.5.9.002.633.385 1.033 1.15 1.2a36.245 36.245 0 0 0 2.8-.825" fill="#f1bc87" fill-rule="evenodd"/><path d="M164.825 160.675c-2.27.314-4.486.456-6.65.425M165.7 37c.547.925.764 1.958.65 3.1m-.775 1.95c-.457.709-1.115 1.483-1.976 2.325m2.75-4.275v.025a3.788 3.788 0 0 1-.224.9m12.175-.45c.162-.295.287-.603.375-.924.243-.896.175-1.938-.2-3.125m-.175 4.099c.044.163-.039.264-.25.3-1.13 1.576-3.355 2.727-6.675 3.45m12.325-1.5c-.046.13-.096.255-.15.375-.647 1.402-3.372 2.285-8.175 2.65m-47.95-1.85c-3.087-1.3-4.954-2.832-5.6-4.6m16.625-3.575c-.287.407-.47.924-.55 1.55a3.122 3.122 0 0 0-.05.476c-.05 1.2.325 2.59 1.125 4.174m-17.15-2.625a2.912 2.912 0 0 1-.025-.1 9.93 9.93 0 0 1-.525-3.824m17.7 6.549c.218.445.392.787.525 1.025m-6.275.875c-1.73-.971-3.046-2.196-3.95-3.675a7.948 7.948 0 0 1-.95-3.475 6.09 6.09 0 0 1 .025-1.05c.112-.825.42-1.483.925-1.975m20.975 119.475v-3.925m-24.125-69.574l-2.375-.625m1.525 3.875c.284-1.196.567-2.28.85-3.25.38-1.363.755-2.512 1.125-3.451m2.3.35c.456 1.079.49 2.979.1 5.7l1.35 2.05m30.25 63.25c-3.784-5.368-8.984-7.326-15.6-5.875-6.627 1.45-10.452 3.734-11.475 6.85m2.55-14.125a36.306 36.306 0 0 1 4.95-.725c3.032-.227 6.382-.152 10.05.225a67.979 67.979 0 0 1 6.35.95c.466.097.924.198 1.375.3m-17.975 20.8c5.248 2.724 10.315 3.19 15.2 1.4m-21.425 3.2c-2.27.314-4.487.456-6.65.425m-5.45-7.225c.148.57.323 1.153.525 1.75-.3.248-.592.507-.875.775m.35-2.525a21.315 21.315 0 0 1-.55-2.6c-.683-4.847.692-8.822 4.125-11.925.328-.303.678-.594 1.05-.875 1.313-1.01 2.797-1.861 4.45-2.55a24.784 24.784 0 0 1 3.45-1.15m-.425 25.9a47.223 47.223 0 0 0 3.075-.5c1.044 1.72 1.57 3.705 1.575 5.95.001 2.753-.783 5.103-2.35 7.05-1.532 1.95-3.382 2.925-5.55 2.925-2.155 0-4.013-.975-5.575-2.925-1.53-1.947-2.297-4.297-2.3-7.05.002-1.942.385-3.683 1.15-5.225a39.76 39.76 0 0 0 3.325.2m-28.9 15.375c4.06 2.264 7.51 2.548 10.35.85m90.75-56.174a1.872 1.872 0 0 0-.45.875M209.7 135c-1.41-1.831-4.002-2.914-7.775-3.25a21.26 21.26 0 0 0-2.3-.1m.724-9.624c-.157.779.144 1.746.901 2.899-.557.162-1.248.545-2.075 1.15-1.14.815-1.499 1.807-1.076 2.975.431 1.175.848 2.042 1.25 2.6-2.492.079-3.834.762-4.024 2.05a7.823 7.823 0 0 0-.075 1.525c.07 1.566.72 2.733 1.95 3.5m0 0c.112.06.23.118.35.175 1.863.953 2.955 1.462 3.275 1.525M189.8 133.05c-.543 2.706 0 4.905 1.625 6.6.273.286.514.603.725.95 1.001 1.593 1.31 3.776.925 6.55-.32 2.31.537 3.444 2.575 3.4.587-.011 1.271-.12 2.05-.325 2.893-.76 4.092-3.151 3.6-7.175m0 0a20.604 20.604 0 0 0-.475-2.625c3.137.625 5.787.525 7.95-.3 1.83-.708 2.43-1.9 1.8-3.575m.875-7.275a5.896 5.896 0 0 0-.25-.35c-1.885-2.393-4.768-3.735-8.65-4.024a62.052 62.052 0 0 0-.725-.051 2.272 2.272 0 0 0-.575.075m-90.6 37.15c-8.232-2.666-13.682-1.791-16.35 2.625-.678 1.105-1.178 2.43-1.5 3.975-1.607 7.73.11 12.973 5.15 15.725 5.053 2.749 9.67 2.04 13.85-2.125m24.925-47.75c-.356.078-.706.162-1.05.25M131.95 79.95c-.256-1.962-1.057-3.053-2.4-3.275-.373-.926-1.057-1.251-2.05-.975-.08.197-.163.405-.25.625-2.067-.378-3.809-.02-5.225 1.076-1.416 1.097-1.457 4.963-.125 11.599m22.375-37.825a51.86 51.86 0 0 1 .825-3.375c.136-.534.286-1.076.45-1.625 1.352-4.513 1.377-7.68.075-9.5-.775-1.068-1.859-1.686-3.25-1.85a6.943 6.943 0 0 0-1.6-.025c-.13 0-.264.01-.4.025-.859.116-1.5.465-1.925 1.05-1.587-2.344-3.704-3.401-6.35-3.175-1.26.099-2.203.466-2.825 1.1-4.785-1.88-7.385-1.88-7.8 0a9.742 9.742 0 0 0-.2 1.726c-2.715-.653-3.998.139-3.85 2.375a.817.817 0 0 1 0 .099c.156 2.186.415 3.544.775 4.075A15.699 15.699 0 0 0 120.825 45c.182.173.374.339.575.5.584.477 1.21.927 1.875 1.35.395.253.803.494 1.225.725.33.19.663.373 1 .55m48.175 2.45a46.81 46.81 0 0 0 2.2-.55 36.22 36.22 0 0 0 2.8-.825 6.52 6.52 0 0 0 .35-.125c1.437-.497 2.495-1.013 3.175-1.55 1.376-1.082 1.876-2.632 1.5-4.65v-.025c.187-.547.278-1.164.274-1.85-.018-.704-.135-1.48-.349-2.325-.487-1.885-2.204-2.602-5.15-2.15-.087-.287-.187-.58-.3-.874-.297-.732-.823-1.323-1.576-1.776-.746-.462-2.054-.57-3.924-.325-1.885.257-4.21 1.407-6.975 3.45-.562-1.03-2.454-1.096-5.675-.2-2.934.814-4.417 4.182-4.45 10.1-.01.397-.01.805 0 1.225m55 88.425a6.035 6.035 0 0 0-.5-.975 7.427 7.427 0 0 0-.375-.575c.73-.252 1.322-.552 1.774-.9 1.065-.78 1.373-1.805.926-3.075-.175-.53-.483-1.104-.926-1.725l-.024-.025.024-.025c1.566-.97 2.224-2.07 1.976-3.3-.18-.9-.838-1.866-1.976-2.9l-.25-.225c-2.956-2.551-5.764-3.46-8.424-2.725-.918.25-1.585.6-2 1.05-.467-.59-1.1-.766-1.9-.525m-34.075 40.05a47.113 47.113 0 0 0 3.075-.5c1.035 1.72 1.552 3.705 1.55 5.95.001 2.753-.783 5.103-2.35 7.05-1.524 1.95-3.366 2.925-5.525 2.925-2.164 0-4.03-.975-5.6-2.925-1.522-1.947-2.28-4.297-2.275-7.05-.007-1.942.368-3.683 1.125-5.225 1.098.112 2.215.179 3.35.2m-35.375-4.7c-2.459 2.258-4.05 5.117-4.775 8.575-.805 3.687-.339 7.162 1.4 10.425 1.82 3.349 4.444 5.766 7.875 7.25 3.813 1.654 7.605 1.612 11.375-.125 2.97-1.31 5.81-3.002 8.525-5.075.192.144.384.286.575.425 9.277 7.108 17.185 8.333 23.725 3.675 1.461-1.051 2.61-2.276 3.45-3.675.26-.43.493-.88.7-1.35.525-1.243.833-2.61.925-4.1.266-4.31-1.3-9.633-4.7-15.975 1.087-2.768 1.637-5.285 1.65-7.55.025-2.595-.65-4.861-2.025-6.8-2.213-3.121-6.23-5.396-12.05-6.825m31.425 48.45c-3.945 1.59-6.886.674-8.825-2.75m2.55-15.7c3.1.194 5.617.944 7.55 2.25a9.57 9.57 0 0 1 2.675 2.675 9.972 9.972 0 0 1 1 1.775c.044.107.086.216.125.325.296.73.53 1.52.7 2.375 1.157 5.832-.385 10.399-4.625 13.7-4.57 3.566-8.755 2.94-12.55-1.875" fill="none" stroke="#be6f21" stroke-width=".6" stroke-linecap="round" stroke-linejoin="round" stroke-miterlimit="3"/><path d="M161.65 166.25c0-.505-.193-.947-.575-1.325-.387-.383-.837-.574-1.35-.575-.506.001-.948.192-1.325.575-.383.378-.575.82-.575 1.325s.192.947.575 1.325c.377.383.82.574 1.325.575.513-.001.963-.192 1.35-.575.382-.378.574-.82.575-1.325zm-31.476 1.9c.506-.001.948-.192 1.326-.575.382-.378.574-.82.575-1.325 0-.505-.193-.947-.575-1.325-.378-.383-.82-.574-1.326-.575-.513.001-.963.192-1.349.575-.383.378-.574.82-.575 1.325.001.505.192.947.575 1.325.386.383.836.574 1.35.575zm-1.574-7.05c-.868 1.035-1.302 2.285-1.3 3.75 0 1.528.467 2.845 1.4 3.95.972 1.055 2.114 1.58 3.425 1.575 1.316.005 2.441-.52 3.375-1.575.98-1.105 1.47-2.422 1.475-3.95-.005-1.525-.496-2.816-1.475-3.875a9.234 9.234 0 0 0-.25-.3m22.924.425c-.867 1.035-1.3 2.285-1.299 3.75 0 1.528.467 2.845 1.4 3.95.972 1.055 2.113 1.58 3.425 1.575 1.315.005 2.44-.52 3.375-1.575.971-1.105 1.454-2.422 1.45-3.95.004-1.525-.479-2.816-1.45-3.875a8.104 8.104 0 0 0-.25-.3" fill="none" stroke="#000" stroke-width=".1" stroke-linecap="round" stroke-linejoin="round" stroke-miterlimit="3"/><path d="M150.25 153.275c3.581 1.495 5.106 2.578 4.575 3.25-2.722.974-5.73.974-9.025 0-1.524-.725-.04-1.81 4.45-3.25z" fill="none" stroke="#743a18" stroke-width=".6" stroke-linecap="round" stroke-linejoin="round" stroke-miterlimit="3"/><path d="M145.925 190.275c4.939 1.092 5.83 2.75 2.675 4.975 4.956.09 8.032.7 9.225 1.825.27.268.437.568.5.9.06.238.06.496 0 .775-.06.264-.177.506-.35.725m-22.3-64.7a87.19 87.19 0 0 0-4.425.95l-.775.2c-2.365.614-4.49 1.33-6.375 2.15-3.221 1.413-5.738 3.13-7.55 5.15-.477-1.437-.635-2.454-.475-3.05-1.326 2.43-2.051 4.872-2.175 7.325-.906-1.318-1.506-2.418-1.8-3.3l-.75-1.15c-.248.995-.398 1.853-.45 2.575-.406 4.745.485 8.103 2.675 10.075-1.243 2.12-2.218 4.246-2.925 6.375a23.71 23.71 0 0 0-.375 1.25c-1.357 4.673-1.433 9.34-.225 14a29.38 29.38 0 0 0 1.75 4.95c3.897 6.995 8.939 13.078 15.125 18.25 7.927 6.614 16.977 9.573 27.15 8.875.22-.106.412-.223.575-.35 1.88-1.485 1.289-3.176-1.775-5.075-3.067-1.897-5.81-3.03-8.225-3.4 7.574.855 12.016.488 13.325-1.1 10.18-1.773 17.348-6.098 21.5-12.975.5-.827.959-1.693 1.375-2.6.444-.981.845-1.956 1.2-2.925.393-1.037.742-2.07 1.05-3.1a44.04 44.04 0 0 0 .525-2.025c.87-3.575 1.196-7.1.975-10.575a33.853 33.853 0 0 0-.9-5.775c1.487-3.273 1.996-7.698 1.525-13.275L183.5 149.4c.086-2.914-.93-6.006-3.05-9.275v2.15c-1.345-3.706-6.38-6.056-15.1-7.05-2.132-.236-4.49-.394-7.075-.475h-.05c-.482-.01-.973-.018-1.475-.025" fill="none" stroke="#320a04" stroke-width=".6" stroke-linecap="round" stroke-linejoin="round" stroke-miterlimit="3"/><path d="M154.95 65.825c1.221.091 2.387.274 3.5.55m-29.325-3.325a38.697 38.697 0 0 0 1.325 5.275M130.3 91.1c-.043.955-.076 2.663-.1 5.125-.012.674-.02 1.4-.025 2.176-.029 3.657.212 7.15.725 10.475.508 3.33 2.192 7.471 5.05 12.425m29-.125c2.351-2.96 3.851-5.312 4.5-7.05m-11.175 20.6l2.275-2.225c6.355-6.095 11.897-8.46 16.625-7.1 5.072 1.464 8.73 3.564 10.975 6.3.68.827 1.23 1.277 1.65 1.35.412.078.696-.214.85-.875.21-.882.2-2.39-.025-4.525.546.161 1.054.295 1.525.4 4.292.968 5.492-.099 3.6-3.2a24.69 24.69 0 0 0-.8-1.126c.801-.094 1.483-.236 2.05-.424.727-.233 1.252-.54 1.575-.925.128-.139.228-.289.3-.45.163-.38.171-.815.025-1.3-.707-.917-2.957-2.417-6.75-4.5a157.148 157.148 0 0 0-3.4-1.825c-5.862-3.04-12.295-3.099-19.3-.175 6.551-16.766 6.867-30.058.95-39.875 1.068-3.495 1.376-7.013.925-10.55-.445-3.543-.854-6.3-1.226-8.275 2.411-.628 3.652-1.912 3.726-3.85v-.226a2.306 2.306 0 0 0-.15-.774c-.285-.915-1.143-1.299-2.576-1.15-.69.08-2.174.621-4.449 1.625-1.04-2.803-2.649-3.27-4.825-1.4a15.52 15.52 0 0 0-.625-1.3 9.117 9.117 0 0 0-.925-1.45c-.66-.809-1.326-1.184-2-1.125-.612.021-1.228.396-1.85 1.125a8.641 8.641 0 0 0-.85 1.225c-.047.203-.297.461-.75.775-.44.33-.365 2.255.225 5.775.314 1.863.422 4.062.325 6.6-.1 1.804-.24 3.321-.425 4.55-2.465-.196-5.916-.063-10.35.4-.182-1.013-.332-2.322-.45-3.925-.319-3.127-.103-5.495.65-7.1.03-.049.054-.099.075-.15.918-1.799.718-3.09-.6-3.875-.349-2.084-1.066-3.209-2.15-3.375a2.078 2.078 0 0 0-.6 0 3.059 3.059 0 0 0-.55.125c-1.017.33-2.25 1.221-3.7 2.674-.763-1.05-1.472-1.85-2.125-2.399-.536-.416-1.036-.675-1.5-.775-1.204-.277-2.196.506-2.975 2.35-2.817-2.132-4.542-2.68-5.175-1.65-.109.183-.184.425-.225.724-.245 1.906.88 3.356 3.375 4.351-.396 2.725-.28 5.758.35 9.1.04.253.081.503.125.75a.656.656 0 0 0-.1.05l-.3.05c-5.025 1.146-9.709 4.271-14.05 9.375-4.45 5.241-6.183 11.424-5.2 18.55.975 7.121 1.884 13.563 2.725 19.325.234 1.617.393 3.11.475 4.475.175 3.497-.225 6.846-1.2 10.05-.972 3.204-2.614 5.07-4.925 5.6-2.314.525-4.265-.567-5.85-3.275-1.582-2.707-2.79-4.332-3.625-4.875-.834-.53-2.509-.706-5.025-.526-1.869.121-2.76 1.195-2.675 3.226a22.487 22.487 0 0 0 1.75 5.25 16.22 16.22 0 0 0 3.525 4.7c.332.31.682.61 1.05.9 1.992 1.651 4.217 2.71 6.675 3.175 2.46.594 4.875.32 7.25-.825a33.76 33.76 0 0 0 5.6-3.5c1.95-1.487 3.433-3.27 4.45-5.35a24.181 24.181 0 0 0 2.1-6.925 21.541 21.541 0 0 0 0-6.6 42.86 42.86 0 0 0-1.6-6.8 188.062 188.062 0 0 0-2.025-5.9 19.35 19.35 0 0 1-.325-.775A40.433 40.433 0 0 1 115.8 95.6a31.948 31.948 0 0 1-.775-6.974 20.612 20.612 0 0 1 1.1-6.55 25.72 25.72 0 0 1 3.05-6.1c1.181-1.788 2.723-3.32 4.625-4.6a24.533 24.533 0 0 1 6.65-3.05 43.238 43.238 0 0 0 2.825 6.825 96.124 96.124 0 0 0-1.325 4.8 52.52 52.52 0 0 0-.95 4.475 55.823 55.823 0 0 0-.65 5.475c-.02.4-.037.8-.05 1.2-.57-.577-1.104-.977-1.6-1.2-1.312-.61-2.354.04-3.125 1.95a5.247 5.247 0 0 0-.65-1.3 4.561 4.561 0 0 0-1.85-1.576c-.523-.256-.915-.249-1.175.026-.338.343-.522 1.634-.55 3.875-.03 2.257.82 7.898 2.55 16.925 1.688 8.771 5.963 17.013 12.825 24.725" fill="none" stroke="#320a04" stroke-width=".6" stroke-linecap="round" stroke-linejoin="round" stroke-miterlimit="3"/></g></svg>