<svg xmlns="http://www.w3.org/2000/svg" width="426.667" height="333.333" viewBox="0 0 426.66666 333.33334"><defs><clipPath id="a"><path d="M0 250h320V0H0z"/></clipPath><clipPath id="b"><path d="M0 250h320V0H0z"/></clipPath></defs><g clip-path="url(#a)" transform="matrix(1.33333 0 0 -1.33333 0 333.333)"><path d="M147.975 56.7a4.352 4.352 0 0 0 0 0m1.275 19.225c1.47-1.493 2.936-2.268 4.4-2.326 1.603-.073 3.202.703 4.8 2.326-1.598-1.623-3.197-2.399-4.8-2.326-1.464.058-2.93.833-4.4 2.326m30.45 35.7c.957 2.818.7 6.36-.775 10.625l-.2.675.2-.675c1.474-4.265 1.732-7.807.775-10.625m26.75 65.15a1.727 1.727 0 0 0-.15-.75 1.576 1.576 0 0 0-.425-.6 1.58 1.58 0 0 0-.875-.4c-1.558-.21-4.275 1.022-8.15 3.7 1.181-3.463-.435-4.238-4.85-2.325 4.415-1.913 6.031-1.138 4.85 2.325 3.875-2.678 6.592-3.91 8.15-3.7.353.051.644.185.875.4.177.15.32.35.425.6.105.236.156.486.15.75M139.125 61.05c.507.13 1.082.14 1.725.025-.643.114-1.218.105-1.725-.025m15.45-2.925c-.952 6.56-1.26 11.718-.925 15.474-.336-3.756-.027-8.915.925-15.474-.44-.64-.807-1.123-1.1-1.45a4.167 4.167 0 0 0-.975-.9c-.613-.378-1.296-.536-2.05-.475-1.129.1-1.954.567-2.475 1.4-.585-.845-1.494-1.245-2.725-1.2a27.707 27.707 0 0 0-1.4.025c-1.54.047-2.148.805-1.825 2.275.323.196.532.38.625.55-.093-.17-.302-.354-.625-.55a5.379 5.379 0 0 0-.525-.326c-.634-.329-1.326-.42-2.075-.274-.755.161-1.28.32-1.575.475-.07.04-.137.082-.2.125-.887.588-.87 1.39.05 2.4.398.422.873.705 1.425.85-2.684 8.997-2.659 17.031.075 24.1-2.85 4.072-4.183 8.74-4 14 .192 5.273 1.133 10.306 2.825 15.1a32.62 32.62 0 0 0 1.1 2.35c.19.394.39.786.6 1.175 1.646 2.95 3.805 5.825 6.475 8.625-2.67-2.8-4.829-5.675-6.475-8.625a26.03 26.03 0 0 1-.6-1.176 32.62 32.62 0 0 1-1.1-2.349c-10.815-4.692-20.215.26-28.2 14.85.264.133.514.308.75.525.131.118.256.251.375.4.176.197.343.422.5.675l.025.075c.542-.243 1.034-.385 1.475-.425.251-.03.484-.03.7 0 .604.1 1.088.441 1.45 1.025 1.178-1.119 2.402-1.253 3.675-.4.46.552.81 1.185 1.05 1.9.182.52.307 1.078.375 1.675.05.513.06 1.063.025 1.65a1.45 1.45 0 0 1 .35-.075c2.893-3.03 5.234-5.105 7.025-6.225a189.837 189.837 0 0 1 6.3-3.825 52.787 52.787 0 0 0 11.85 7.5c3.095 1.41 6.387 2.51 9.875 3.3a27.92 27.92 0 0 1 1.425-1.3c.092-.096.184-.187.275-.275 1.835-1.536 3.96-3.036 6.375-4.5.07-.716.478-1.19 1.225-1.425.417-.15.941-.226 1.575-.225.151-.073.302-.148.45-.225-.408-1.92-.066-3.096 1.025-3.525v-.025c-.559-2.427-.9-4.66-1.025-6.7.124 2.04.466 4.273 1.025 6.7H168.05a2.34 2.34 0 0 1 .625-.125c.448-.064.972-.048 1.575.05.251-.962.618-1.629 1.1-2 .36-.289.793-.398 1.3-.326.254.037.521.121.8.25.453.105.937.48 1.45 1.125.2.27.41.586.625.951h.025c.162.173.32.323.475.45.567.502 1.017.652 1.35.45.226-.496.434-.987.625-1.476 1.784-.285 3.426-.318 4.925-.099a12.97 12.97 0 0 1 1.9.425c2.181.726 3.997 2.118 5.45 4.175 1.231 1.75 2.19 3.991 2.875 6.725 9.06 4.387 13.834 9.304 14.325 14.75.12 1.543-.098 3.127-.65 4.75-2.416 7.23-9.158 10.697-20.225 10.4-.24-.015-.48-.032-.725-.05-.94 3.123-2.19 6.023-3.75 8.7-1.933 3.426-4.824 5.56-8.675 6.4-3.459.765-6.817.365-10.075-1.2-3.144-1.538-5.427-3.946-6.85-7.225-1.188-2.64-1.638-5.3-1.35-7.975.103-.792.27-1.583.5-2.375a37.272 37.272 0 0 1-1.125-.8 21.616 21.616 0 0 1-2.15-1.925c-3.219-3.359-4.369-7.193-3.45-11.5.076-.413.176-.83.3-1.25.454-1.504 1.13-2.979 2.025-4.425.325-.538.683-1.07 1.075-1.6.28-.41.58-.82.9-1.225a77.363 77.363 0 0 0-1.4 1.6 73.583 73.583 0 0 0-1.45 1.6l-.5.55c-1.31 1.616-2.427 3.182-3.35 4.7-.294.364-.486.631-.575.8-.08.211-.12.336-.125.375-1.47 2.653-2.329 5.161-2.575 7.525-1.163-.829-1.846-1.513-2.05-2.05.314 2.601 1.098 4.876 2.35 6.825-1.424-.514-2.49-1.03-3.2-1.55l-1.225-.5c.358.91.717 1.66 1.075 2.25 2.34 3.88 4.906 5.972 7.7 6.275.225 2.321.658 4.496 1.3 6.525.117.403.242.795.375 1.175 1.566 4.344 4.117 7.97 7.65 10.875a27.515 27.515 0 0 0 4.05 2.875 37.588 37.588 0 0 0 5.45 2.475c11.4 4.236 21.167 4.886 29.3 1.95 6.261-2.272 10.295-4.323 12.1-6.15.336-.329.594-.646.775-.95a3.16 3.16 0 0 0 .25-.6c.625-2.175-.767-3.133-4.175-2.875-3.417.235-6.159.877-8.225 1.925 6.314-3.554 9.538-6.304 9.675-8.25 6.838-7.023 9.94-14.33 9.3-21.925a24.997 24.997 0 0 0-.4-2.775 41.384 41.384 0 0 0-.725-2.925 44.855 44.855 0 0 0-1.6-4.85c-1.333-3.225-3.058-6.108-5.175-8.65a31.77 31.77 0 0 0-3.875-3.925c.231-4.013-1.41-7.896-4.925-11.65l-.625 2.575c-2.099-1.375-3.915-2.134-5.45-2.275.647.688 1.263 1.53 1.85 2.525-3.417-1.673-6.834-2.365-10.25-2.075 2.117-6.22.476-11.428-4.925-15.625a7.437 7.437 0 0 0-2.1-1.15 5.553 5.553 0 0 0-1.175-.225 6.216 6.216 0 0 0-1.85.075c-.68.274-1.315.591-1.9.95-1.946 1.145-3.396 2.737-4.35 4.775-.219.45-.419.925-.6 1.425v.025l.05.075-.075-.025c-.67 2.115-.903 4.632-.7 7.55.097 2.87-.595 4.803-2.075 5.8a4.043 4.043 0 0 1-.95.475c-4.754 1.476-9.17.343-13.25-3.4-6.566-8.08-9.117-16.423-7.65-25.025.8-7.909 4.132-12.559 10-13.95 5.291-1.205 10.583.896 15.875 6.3 2.153 3.128 3.378 6.97 3.675 11.525.018.195.034.387.05.574a36.283 36.283 0 0 1 0 3.875 12.755 12.755 0 0 1 1.9-.949 6.216 6.216 0 0 1 1.85-.075c.396.032.788.107 1.175.225.23.08.454.171.675.275.155-1.617.238-3.192.25-4.726-.022-7.166-1.68-13.506-4.975-19.024.03-3.62.02-7.195-.025-10.726-.037-3.548-.829-7.148-2.375-10.799.104-1.83-.054-3.022-.475-3.576-.112-.285-.328-.518-.65-.699-.796-.444-1.697-.586-2.7-.426a5.086 5.086 0 0 0-.7.151 3.192 3.192 0 0 0-1.3.75c-.467.443-.883 1.043-1.25 1.8-.057-.444-.099-.703-.125-.775-.645-1.235-1.56-1.6-2.75-1.1-1.24.5-1.974 1.225-2.2 2.174a9.155 9.155 0 0 0-.775-1.174 2.485 2.485 0 0 0-1.775-.925c-.663-.056-1.146.161-1.45.65-.303.472-.428 1.214-.375 2.225" fill="#aa290f" fill-rule="evenodd"/><path d="M167.675 111.075a.23.23 0 0 1-.024.05l.074.025zm.3 14.3v.025l.025-.025z" fill="#881c0d" fill-rule="evenodd"/><path d="M162.15 44c4.611 1.654 4.62 4.204.024 7.65 4.596-3.446 4.587-5.996-.024-7.65m14.375 6c-.819.692-1.986 1.359-3.5 2 1.514-.641 2.681-1.308 3.5-2m-3.45-6.225c.256.287.54.995.85 2.125.275 1.038-.792 2.721-3.2 5.05 2.408-2.329 3.475-4.012 3.2-5.05-.31-1.13-.594-1.838-.85-2.125m-35.45 9.65c-4.064-.586-6.08-2.128-6.05-4.625.003-.713.161-1.305.474-1.775-.313.47-.47 1.062-.474 1.775-.03 2.497 1.986 4.039 6.05 4.625m15.55-5.8c-.608 1.229-.825 2.455-.65 3.675.082.595.25 1.186.5 1.775.422.946 1.064 1.888 1.925 2.825-.86-.937-1.503-1.879-1.925-2.825a6.928 6.928 0 0 1-.5-1.775c-.175-1.22.042-2.446.65-3.675M146.5 53.05c-.265-.033-.523-.067-.775-.1-2.125-.338-3.55-1.005-4.275-2-.543-.747-.717-1.664-.526-2.75-.19 1.086-.017 2.003.526 2.75.724.995 2.15 1.662 4.275 2 .252.033.51.067.775.1m-12.725 1.3c-2.083.288-4.325-.221-6.726-1.525 2.401 1.304 4.643 1.813 6.726 1.525M115.1 131.375c-1.204 1.664-1.97 3.713-2.3 6.15-.208 1.456-.258 3.048-.15 4.775-.108-1.727-.058-3.319.15-4.775.33-2.437 1.096-4.486 2.3-6.15m42.15 55c-3.534-2.906-6.084-6.531-7.65-10.875-.134-.38-.259-.771-.375-1.175-2.136.688-3.969 1.463-5.5 2.325-2.553 1.454-4.244 3.154-5.075 5.1-.945 2.208-.779 4.733.5 7.575 3.062 6.831 7.295 9.897 12.7 9.2 5.408-.674 8.56-3.766 9.45-9.275a27.558 27.558 0 0 1-4.05-2.875m-8.425 5.125c1.898-.218 3.498-.66 4.8-1.325 1.714-.887 2.922-2.154 3.625-3.8-.703 1.646-1.91 2.913-3.625 3.8-1.302.665-2.902 1.107-4.8 1.325m20.75-38.95c5.561-.824 9.728-3.282 12.5-7.375-2.772 4.093-6.939 6.551-12.5 7.375m-40.55-104.9l-.25.025v-.05c-3.41 1.073-3.985 2.807-1.726 5.2.13 1.222.721 2.222 1.776 3 .295.188.62.363.974.525 1.53.762 3.69 1.22 6.476 1.375.441.037.9.061 1.375.075.063-.043.13-.085.2-.125.295-.155.82-.314 1.574-.475.75-.145 1.441-.054 2.076.275.203.112.378.219.525.325-.323-1.47.285-2.228 1.825-2.275.372-.018.84-.027 1.4-.025 1.231-.045 2.14.355 2.725 1.2.521-.833 1.346-1.3 2.475-1.4.753-.061 1.437.097 2.05.475.347.224.671.524.975.9.293.327.66.81 1.1 1.45-.053-1.011.072-1.753.375-2.225.304-.489.787-.706 1.45-.65a2.485 2.485 0 0 1 1.774.925c.292.376.55.767.776 1.175.225-.95.96-1.675 2.2-2.175 1.188-.501 2.104-.135 2.75 1.1.025.073.067.331.125.775.367-.757.783-1.357 1.25-1.8a3.192 3.192 0 0 1 1.3-.75c.24-.068.472-.119.7-.15 1.003-.161 1.903-.019 2.7.425.321.181.537.414.65.7 1.47-.486 2.712-.953 3.724-1.4 3.502-1.561 4.228-2.92 2.176-4.075a6.91 6.91 0 0 0 .425-.35c1.038-1.057 1.304-2.173.8-3.35-.483-.829-1.05-1.362-1.7-1.6-.653-.242-1.11-.442-1.376-.6-.263-.159-.796-.267-1.599-.325-.62-.669-1.737-1.135-3.35-1.4-1.25-.107-2.5-.032-3.75.225-1.275.285-2.55.752-3.825 1.4-3.084-.866-5.693-.142-7.825 2.175-.403.427-.786.91-1.15 1.45a86.799 86.799 0 0 0-.65-.35c-3.483-1.694-6.2-2.427-8.15-2.2-1.328.147-2.294.746-2.9 1.8a44.05 44.05 0 0 0-2.676-.65 24.1 24.1 0 0 0-2.274-.325c-2.343-.222-3.835.153-4.476 1.125-1.174.166-2.183.374-3.024.625m38.625 63.475a.165.165 0 0 0 .024-.05v-.025c.182-.5.381-.975.601-1.425a10.665 10.665 0 0 1 4.35-4.775 36.282 36.282 0 0 0 0-3.875l-.05-.575c-.297-4.555-1.523-8.397-3.675-11.525-5.292-5.404-10.584-7.505-15.875-6.3-5.869 1.391-9.202 6.041-10 13.95-1.467 8.602 1.083 16.944 7.65 25.025 4.08 3.743 8.496 4.876 13.25 3.4.345-.121.662-.279.95-.475 1.48-.996 2.171-2.93 2.075-5.8-.203-2.918.03-5.435.7-7.55m13.525 24.775c-2.294-.521-4.41-.737-6.35-.65 1.94-.087 4.056.129 6.35.65m-13.826.725c-1.163-.556-2.22-1.723-3.175-3.5.954 1.777 2.012 2.944 3.175 3.5m-.349-7.45c.2.555.466 1.072.8 1.55.644.901 1.527 1.668 2.65 2.3-1.123-.632-2.006-1.399-2.65-2.3a6.632 6.632 0 0 1-.8-1.55m3.25-3.875c.158.62.35 1.195.575 1.725a8.075 8.075 0 0 1 0 0 11.863 11.863 0 0 1-.575-1.725m7.125.9c.288.433.496.891.625 1.375.415 1.439.148 3.122-.8 5.05-.616 1.091-1.408 1.966-2.375 2.625-.804.532-1.72.923-2.75 1.175-1.482.361-2.665.52-3.55.475.885.045 2.068-.114 3.55-.475 1.03-.252 1.946-.643 2.75-1.175.967-.659 1.76-1.534 2.375-2.625.948-1.928 1.215-3.611.8-5.05a4.616 4.616 0 0 0-.625-1.375m-13.675 4.6c-.058.504.051 1.121.325 1.85.044.152.094.31.15.475-.548.29-.948.614-1.2.975-.507.75-.473 1.633.1 2.65.904 1.002 1.912 1.252 3.024.75.403-.197.82-.488 1.25-.875.304.153.696.245 1.176.275a13.378 13.378 0 0 0-2.8 2.025c-3.738 3.492-5.73 7.55-5.975 12.175.245-4.625 2.237-8.683 5.974-12.175a13.378 13.378 0 0 1 2.801-2.025c-.48-.03-.872-.122-1.176-.275-.43.387-.847.678-1.25.875-1.112.502-2.12.252-3.024-.75-.573-1.017-.607-1.9-.1-2.65.252-.361.652-.685 1.2-.975a12.502 12.502 0 0 1-.15-.475c-.274-.729-.383-1.346-.325-1.85m16.425 14.675c-1.555 2.265-3.87 3.94-6.95 5.025-1.58.291-1.047-1.368 1.6-4.975 3.593-.844 5.376-.86 5.35-.05m-5.35.05l-2.15-3.025zm39.85 3.625c2.44 1.114 4.556.947 6.35-.5.72-.565 1.386-1.331 2-2.3-.614.969-1.28 1.735-2 2.3-1.794 1.447-3.91 1.614-6.35.5m-29.4-2a41.799 41.799 0 0 0 4.874-4.025 45.049 45.049 0 0 0 2.101-2.075c1.753.743 3.253 1.976 4.5 3.7 1.535 2.115 2.243 4.357 2.125 6.725-.088 2.348-.963 4.123-2.625 5.325-1.66 1.199-3.637 1.482-5.925.85-2.27-.649-4.18-2.032-5.726-4.15-1.08-1.492-1.754-3.042-2.024-4.65a38.012 38.012 0 0 0 2.7-1.7m-22.775 16.425a41.648 41.648 0 0 0 4.9-4 45.136 45.136 0 0 0 2.124-2.1c1.745.751 3.238 1.993 4.476 3.725 1.527 2.107 2.227 4.34 2.1 6.7-.08 2.356-.947 4.14-2.6 5.35-1.67 1.215-3.653 1.515-5.95.9-2.255-.657-4.147-2.049-5.675-4.175-1.072-1.508-1.738-3.075-2-4.7a36.817 36.817 0 0 0 2.625-1.7m53.3-8.725c5.608 1.589 9.183-.261 10.724-5.55 1.413-4.904.047-9.279-4.099-13.125-.069-.073-.135-.149-.2-.225a13.465 13.465 0 0 0-1.975-1.4c-2.065-1.241-4.28-1.658-6.65-1.25-1.814.307-3.713 1.09-5.7 2.35 2.116 2.542 3.842 5.425 5.175 8.65.245.622.48 1.256.7 1.9.33.957.63 1.94.9 2.95.272.946.513 1.921.724 2.925.188.932.322 1.858.401 2.775m-95.525-18.65a4.81 4.81 0 0 1-.025.325c-.089 1.498-.447 3.206-1.075 5.125l-.025.075.025-.075c.628-1.919.986-3.627 1.075-5.125a4.81 4.81 0 0 0 .025-.325m-10.725-7.225c-1.115-.418-2.48-.084-4.1 1-2.16 1.442-2.969 3.634-2.425 6.575.622 3.245 1.964 4.587 4.025 4.025a6.02 6.02 0 0 0 1.2-.475c.92 1.902 2.12 2.727 3.6 2.475.271-.052.555-.144.85-.275.854 1.673 2.054 2.189 3.6 1.55.845-.359 1.795-1.068 2.85-2.125 2.266.25 3.733-.15 4.4-1.2.638-.729.547-1.687-.275-2.875a7.866 7.866 0 0 0-.775-.925c-.749-.434-1.374-.634-1.875-.6a1.489 1.489 0 0 0-.35.075c.033-.587.025-1.137-.025-1.65a7.807 7.807 0 0 0-.375-1.675 5.867 5.867 0 0 0-1.05-1.9c-1.273-.852-2.498-.719-3.675.4-.363-.584-.846-.926-1.45-1.025a2.642 2.642 0 0 0-.7 0c-.442.04-.933.182-1.475.425H111.424c-1.826.648-2.91 1.723-3.25 3.225-.115.22-.207.47-.274.75l.3 5.35-.3-5.35c.067-.28.16-.53.274-.75.34-1.502 1.424-2.577 3.25-3.225l.026-.075a4.844 4.844 0 0 0-.5-.675 3.35 3.35 0 0 0-.375-.4 3.35 3.35 0 0 0-.75-.525 4.14 4.14 0 0 0-.325-.125m43.75 10.425c-.32.406-.62.814-.9 1.225-.392.529-.75 1.063-1.075 1.6-.896 1.446-1.57 2.921-2.025 4.425-.124.42-.224.837-.3 1.25-.919 4.308.231 8.141 3.45 11.5a21.477 21.477 0 0 0 2.15 1.925c.36.267.735.534 1.124.8-.23.792-.397 1.583-.5 2.375-.287 2.675.163 5.334 1.351 7.975 1.422 3.279 3.706 5.688 6.85 7.225 3.257 1.565 6.616 1.966 10.075 1.2 3.85-.841 6.742-2.974 8.675-6.4 1.56-2.677 2.81-5.577 3.75-8.7.244.018.485.035.724.05 11.068.297 17.81-3.169 20.226-10.4.552-1.623.768-3.206.65-4.75-.49-5.446-5.266-10.363-14.325-14.75-.686-2.734-1.645-4.975-2.875-6.725-1.453-2.057-3.27-3.449-5.45-4.175a13.114 13.114 0 0 0-1.9-.425c-1.5-.219-3.14-.186-4.925.1-.19.488-.399.98-.625 1.475-.333.202-.784.052-1.35-.45a4.863 4.863 0 0 1-.476-.45h-.024a11.066 11.066 0 0 0-.625-.95c-.514-.646-.997-1.021-1.45-1.125a2.856 2.856 0 0 0-.8-.25c-.507-.073-.94.036-1.3.325-.482.371-.849 1.038-1.1 2-.603-.097-1.127-.114-1.576-.05a2.439 2.439 0 0 0-.625.125H168l-.026.025c-1.09.43-1.432 1.604-1.024 3.525.015.086.032.169.05.25-.173-.011-.34-.019-.5-.025-.634-.001-1.159.074-1.576.225-.747.234-1.155.709-1.224 1.425-2.415 1.465-4.54 2.965-6.375 4.5-.092.088-.183.179-.276.275-.497.424-.972.857-1.424 1.3a28.914 28.914 0 0 0-2.375 2.525" fill="#ea9e44" fill-rule="evenodd"/><path d="M185.225 147.15a38.24 38.24 0 0 1-2.7 1.7c.27 1.609.945 3.158 2.025 4.65 1.546 2.118 3.454 3.5 5.726 4.15 2.288.632 4.263.349 5.925-.85 1.662-1.202 2.537-2.977 2.625-5.325.118-2.368-.59-4.61-2.125-6.725-1.247-1.724-2.747-2.957-4.5-3.7a45.049 45.049 0 0 1-2.101 2.075c.126.022.25.047.375.075 1.337.283 2.429 1.016 3.275 2.2.843 1.167 1.193 2.442 1.05 3.825-.125 1.335-.691 2.368-1.7 3.1-1.011.719-2.186.935-3.524.65-1.333-.32-2.425-1.061-3.276-2.225-.812-1.123-1.17-2.324-1.075-3.6m5.125 4.55c.396-.28.639-.672.726-1.175a1.764 1.764 0 0 0-.326-1.35c-.28-.38-.671-.605-1.174-.675-.508-.09-.957.002-1.351.275-.388.28-.621.672-.7 1.175-.082.507.018.957.3 1.35.28.389.672.622 1.175.7.507.082.957-.018 1.35-.3m-24.1 16.75c.507.09.957-.001 1.35-.275.405-.28.655-.671.75-1.175a1.832 1.832 0 0 0-.35-1.375c-.28-.38-.671-.605-1.174-.675-.508-.09-.957.002-1.351.275-.388.28-.621.672-.7 1.175-.082.516.018.974.3 1.375.28.38.672.605 1.175.675m1.1-8.875c.125.022.25.047.375.075 1.337.283 2.429 1.017 3.275 2.2.843 1.175 1.193 2.459 1.05 3.85-.125 1.318-.691 2.335-1.7 3.05-1.011.727-2.186.952-3.524.675-1.325-.32-2.41-1.061-3.25-2.225-.83-1.132-1.205-2.34-1.125-3.625a36.92 36.92 0 0 1-2.625 1.7c.26 1.625.927 3.192 2 4.7 1.528 2.126 3.42 3.518 5.674 4.175 2.298.615 4.28.315 5.95-.9 1.654-1.21 2.52-2.994 2.6-5.35.128-2.36-.572-4.593-2.1-6.7-1.238-1.732-2.73-2.974-4.475-3.725a44.654 44.654 0 0 1-2.125 2.1" fill="#fff" fill-rule="evenodd"/><path d="M190.1 143.125a41.799 41.799 0 0 1-4.875 4.025c-.095 1.276.263 2.476 1.075 3.6.85 1.164 1.943 1.906 3.276 2.225 1.338.285 2.513.068 3.524-.65 1.009-.732 1.575-1.765 1.7-3.1.143-1.383-.207-2.658-1.05-3.825-.846-1.184-1.938-1.917-3.275-2.2a7.77 7.77 0 0 0-.375-.075m.25 8.575c-.393.282-.843.382-1.35.3-.503-.078-.894-.312-1.174-.7-.283-.393-.383-.843-.3-1.35.078-.503.31-.895.699-1.175.394-.274.843-.365 1.35-.275.504.07.895.295 1.175.675.29.393.399.843.326 1.35-.087.503-.33.895-.726 1.175m-24.1 16.75c-.503-.07-.894-.295-1.174-.675-.283-.401-.383-.859-.3-1.375.078-.503.31-.895.699-1.175.394-.273.843-.365 1.35-.275.504.07.895.295 1.175.675.299.401.415.859.35 1.375a1.77 1.77 0 0 1-.75 1.175c-.393.274-.843.366-1.35.275m1.1-8.875a41.648 41.648 0 0 1-4.9 4c-.08 1.285.296 2.493 1.126 3.625.84 1.164 1.925 1.906 3.25 2.225 1.338.277 2.513.052 3.524-.675 1.009-.715 1.575-1.732 1.7-3.05.143-1.391-.207-2.675-1.05-3.85-.846-1.183-1.938-1.917-3.275-2.2a8.287 8.287 0 0 0-.375-.075" fill-rule="evenodd"/><path d="M111.45 130.7v.075h.025z" fill="#9e2110" fill-rule="evenodd"/><path d="M111.45 130.7l-.025.075h.025zm17.325-83.075v.05l.25-.025a2.404 2.404 0 0 0-.25-.025M166.5 129.15c.16.006.327.014.5.025a7.365 7.365 0 0 1-.05-.25c-.148.077-.299.152-.45.225" fill="#dc8a38" fill-rule="evenodd"/><path d="M180.125 145.475c.026-.81-1.757-.794-5.35.05-2.647 3.607-3.18 5.265-1.6 4.975 3.079-1.085 5.395-2.76 6.95-5.025" fill="#b45a25" fill-rule="evenodd"/><path d="M162.15 44c4.611 1.654 4.62 4.204.024 7.65M176.525 50c-.819.692-1.986 1.359-3.5 2m.05-8.225c.256.287.54.995.85 2.125.275 1.038-.792 2.721-3.2 5.05-.186.2-.387.401-.6.6m-32.5 1.875c-4.064-.586-6.08-2.128-6.05-4.625.003-.713.161-1.305.474-1.775m21.125.6c-.607 1.229-.824 2.455-.649 3.675.082.595.25 1.186.5 1.775.422.946 1.064 1.888 1.925 2.825m-8.45-2.85c-.265-.033-.523-.067-.775-.1-2.125-.338-3.55-1.005-4.275-2-.543-.747-.717-1.664-.526-2.75a5.78 5.78 0 0 1 .551-1.325m-7.7 7.475c-2.083.288-4.325-.221-6.726-1.525m-11.949 78.55c-1.204 1.664-1.97 3.713-2.3 6.15-.208 1.456-.258 3.048-.15 4.775m-1.2-11.525v-.075m-3.25 9.4l-.3-5.35c.067-.28.16-.53.274-.75.34-1.502 1.424-2.577 3.25-3.225H111.475m7.625 10.95l.025-.075c.628-1.919.986-3.627 1.075-5.125a4.81 4.81 0 0 0 .025-.325m-10.725-7.225c-1.115-.418-2.48-.084-4.1 1-2.16 1.442-2.969 3.634-2.425 6.575.622 3.245 1.964 4.587 4.025 4.025a6.02 6.02 0 0 0 1.2-.475c.92 1.902 2.12 2.727 3.6 2.475.271-.052.555-.144.85-.275.854 1.673 2.054 2.189 3.6 1.55.845-.359 1.795-1.068 2.85-2.125 2.266.25 3.733-.15 4.4-1.2.638-.729.547-1.687-.275-2.875a7.866 7.866 0 0 0-.775-.925c-.749-.434-1.374-.634-1.875-.6M159.75 151.1a5.998 5.998 0 0 0 1.775.3m-.226 37.85c-.89 5.509-4.04 8.601-9.449 9.275-5.405.697-9.638-2.369-12.7-9.2-1.279-2.842-1.445-5.367-.5-7.575.831-1.946 2.522-3.646 5.075-5.1 1.531-.862 3.364-1.637 5.5-2.325m-.4 17.175c1.898-.218 3.498-.66 4.8-1.325 1.714-.887 2.922-2.154 3.625-3.8m12.325-33.825c5.561-.824 9.728-3.282 12.5-7.375m-11.45-89.7c1.47-.486 2.712-.953 3.724-1.4 3.502-1.561 4.228-2.92 2.176-4.075a6.91 6.91 0 0 0 .425-.35c1.038-1.057 1.304-2.173.8-3.35-.483-.829-1.05-1.362-1.7-1.6-.653-.242-1.11-.442-1.376-.6-.263-.159-.796-.267-1.599-.325-.62-.669-1.737-1.135-3.35-1.4-1.25-.107-2.5-.032-3.75.225-1.275.285-2.55.752-3.825 1.4-3.084-.866-5.693-.142-7.825 2.175-.403.427-.786.91-1.15 1.45a86.799 86.799 0 0 0-.65-.35c-3.483-1.694-6.2-2.427-8.15-2.2-1.328.147-2.294.746-2.9 1.8a44.05 44.05 0 0 0-2.676-.65 24.1 24.1 0 0 0-2.274-.325c-2.343-.222-3.835.153-4.476 1.125-1.174.166-2.183.374-3.024.625a2.404 2.404 0 0 0-.25-.025c-3.41 1.073-3.985 2.807-1.726 5.2.13 1.222.721 2.222 1.776 3 .295.188.62.363.974.525 1.53.762 3.69 1.22 6.476 1.375.441.037.9.061 1.375.075m34.975 47.05a36.282 36.282 0 0 0 0-3.875l-.05-.575c-.297-4.555-1.523-8.397-3.675-11.525-5.292-5.404-10.584-7.505-15.875-6.3-5.869 1.391-9.202 6.041-10 13.95-1.467 8.602 1.083 16.944 7.65 25.025 4.08 3.743 8.496 4.876 13.25 3.4.345-.121.662-.279.95-.475 1.48-.996 2.171-2.93 2.075-5.8m9.075 7.075a1.135 1.135 0 0 1-.5-.45m.024 0h-.024a11.066 11.066 0 0 0-.625-.95c-.514-.646-.997-1.021-1.45-1.125a2.856 2.856 0 0 0-.8-.25c-.507-.073-.94.036-1.3.325-.482.371-.849 1.038-1.1 2m10.924 10.6c-2.293-.521-4.409-.737-6.349-.65m-7.476 1.375c-1.163-.556-2.22-1.723-3.175-3.5m2.326-3.975c.16.006.327.014.5.025.2.555.466 1.072.8 1.55.644.901 1.527 1.668 2.65 2.3m-59-2.325a4.844 4.844 0 0 0-.5-.675 3.35 3.35 0 0 0-.375-.4m10 6.5a1.489 1.489 0 0 0-.35.075c.033-.587.025-1.137-.025-1.65a7.807 7.807 0 0 0-.375-1.675 5.867 5.867 0 0 0-1.05-1.9c-1.273-.852-2.498-.719-3.675.4-.363-.584-.846-.926-1.45-1.025a2.642 2.642 0 0 0-.7 0c-.442.04-.933.182-1.475.425m55.025-1.625c-.634-.001-1.159.074-1.576.225-.747.234-1.155.709-1.224 1.425-2.415 1.465-4.54 2.965-6.375 4.5-.092.088-.183.179-.276.275-.497.424-.972.857-1.424 1.3a28.914 28.914 0 0 0-2.375 2.525m15.424-14.15c.45-.064.973-.047 1.576.05.158.62.35 1.195.575 1.725a8.075 8.075 0 0 0 1.15 1.975c.441.58.95 1.055 1.525 1.425m-6.5-1.25a5.524 5.524 0 0 1-.05-.25c-.408-1.921-.067-3.095 1.024-3.525l.026-.025m9.375.825c.288.433.496.891.625 1.375.415 1.439.148 3.122-.8 5.05-.616 1.091-1.408 1.966-2.375 2.625-.804.532-1.72.923-2.75 1.175-1.482.361-2.665.52-3.55.475m-4.825-6.1c-.058.504.051 1.121.325 1.85.044.152.094.31.15.475-.548.29-.948.614-1.2.975-.507.75-.473 1.633.1 2.65.904 1.002 1.912 1.252 3.024.75.403-.197.82-.488 1.25-.875.304.153.696.245 1.176.275a13.378 13.378 0 0 0-2.8 2.025c-3.738 3.492-5.73 7.55-5.975 12.175a5.002 5.002 0 0 1-2.1-1.375m17.125-4.2l-2.15-3.025m17.474.625a41.799 41.799 0 0 1-4.875 4.025m30.526 7.7c5.608 1.589 9.183-.261 10.724-5.55 1.413-4.904.047-9.279-4.099-13.125-.069-.073-.135-.149-.2-.225a13.465 13.465 0 0 0-1.975-1.4c-2.065-1.241-4.28-1.658-6.65-1.25-1.814.307-3.713 1.09-5.7 2.35m6.775 13.5c2.44 1.114 4.556.947 6.35-.5.72-.565 1.386-1.331 2-2.3m-32.876-3.225a45.049 45.049 0 0 0 2.101-2.075c1.753.743 3.253 1.976 4.5 3.7 1.535 2.115 2.243 4.357 2.125 6.725-.088 2.348-.963 4.123-2.625 5.325-1.66 1.199-3.637 1.482-5.925.85-2.27-.649-4.18-2.032-5.726-4.15-1.08-1.492-1.754-3.042-2.024-4.65a38.012 38.012 0 0 0 2.7-1.7m-17.876 12.425a41.648 41.648 0 0 1-4.899 4m4.9-4a45.136 45.136 0 0 0 2.124-2.1c1.745.751 3.238 1.993 4.476 3.725 1.527 2.107 2.227 4.34 2.1 6.7-.08 2.356-.947 4.14-2.6 5.35-1.67 1.215-3.653 1.515-5.95.9-2.255-.657-4.147-2.049-5.675-4.175-1.072-1.508-1.738-3.075-2-4.7a36.817 36.817 0 0 0 2.625-1.7m-9.2-24.175c-.32.406-.62.814-.9 1.225-.392.529-.75 1.063-1.075 1.6-.896 1.446-1.57 2.921-2.025 4.425-.124.42-.224.837-.3 1.25-.919 4.308.231 8.141 3.45 11.5a21.477 21.477 0 0 0 2.15 1.925c.36.267.735.534 1.124.8-.23.792-.397 1.583-.5 2.375-.287 2.675.163 5.334 1.351 7.975 1.422 3.279 3.706 5.688 6.85 7.225 3.257 1.565 6.616 1.966 10.075 1.2 3.85-.841 6.742-2.974 8.675-6.4 1.56-2.677 2.81-5.577 3.75-8.7.244.018.485.035.724.05 11.068.297 17.81-3.169 20.226-10.4.552-1.623.768-3.206.65-4.75-.49-5.446-5.266-10.363-14.325-14.75-.686-2.734-1.645-4.975-2.875-6.725-1.453-2.057-3.27-3.449-5.45-4.175a13.114 13.114 0 0 0-1.9-.425c-1.5-.219-3.14-.186-4.925.1" fill="none" stroke="#be6f21" stroke-width=".6" stroke-linecap="round" stroke-linejoin="round" stroke-miterlimit="3"/><path d="M185.225 147.15c-.095 1.276.263 2.477 1.075 3.6.85 1.164 1.943 1.906 3.276 2.225 1.338.285 2.513.069 3.524-.65 1.009-.732 1.575-1.765 1.7-3.1.143-1.383-.207-2.658-1.05-3.825-.846-1.184-1.938-1.917-3.275-2.2a7.77 7.77 0 0 0-.375-.075m.25 8.575c.396-.28.639-.672.726-1.175a1.764 1.764 0 0 0-.326-1.35c-.28-.38-.671-.605-1.174-.675-.508-.09-.957.002-1.351.275-.388.28-.621.672-.7 1.175-.082.507.018.957.3 1.35.28.389.672.622 1.175.7.507.082.957-.018 1.35-.3zm-24.1 16.75c.507.09.957-.001 1.35-.275.405-.28.655-.671.75-1.175a1.832 1.832 0 0 0-.35-1.375c-.28-.38-.671-.605-1.174-.675-.508-.09-.957.002-1.351.275-.388.28-.621.672-.7 1.175-.082.516.018.974.3 1.375.28.38.672.605 1.175.675zm-3.8-4.875c-.08 1.285.296 2.493 1.126 3.625.84 1.164 1.925 1.906 3.25 2.225 1.338.277 2.513.052 3.524-.675 1.009-.715 1.575-1.732 1.7-3.05.143-1.391-.207-2.675-1.05-3.85-.846-1.183-1.938-1.917-3.275-2.2a8.287 8.287 0 0 0-.375-.075" fill="none" stroke="#000" stroke-width=".1" stroke-linecap="round" stroke-linejoin="round" stroke-miterlimit="3"/><path d="M154.575 58.125c-.952 6.56-1.26 11.718-.925 15.475m-5.675-16.9c.08.125.155.259.225.4.08.192.137.383.175.575m6.2.45c-.44-.64-.807-1.123-1.1-1.45a4.167 4.167 0 0 0-.975-.9c-.613-.378-1.297-.536-2.05-.475-1.129.1-1.954.567-2.475 1.4-.586-.845-1.494-1.245-2.725-1.2a27.683 27.683 0 0 0-1.4.025c-1.54.047-2.148.805-1.825 2.275m7.225 18.125c1.47-1.492 2.936-2.268 4.4-2.325 1.603-.074 3.202.702 4.8 2.325M139.125 61.05c.507.131 1.082.139 1.725.025m-3.2-3.275c.063-.043.13-.085.2-.125.295-.155.82-.314 1.575-.475.75-.145 1.441-.054 2.075.275.203.112.378.219.525.325.323.196.531.38.625.55m10.6 81.05a77.363 77.363 0 0 0-1.4 1.6 75.999 75.999 0 0 0-1.45 1.6l-.5.55c-1.31 1.616-2.427 3.183-3.35 4.7-.294.364-.486.631-.575.8-.08.211-.12.336-.125.375-1.47 2.653-2.329 5.161-2.575 7.525-1.163-.829-1.846-1.512-2.05-2.05.314 2.602 1.098 4.876 2.35 6.825-1.424-.513-2.49-1.03-3.2-1.55l-1.225-.5c.358.91.717 1.66 1.075 2.25 2.34 3.88 4.906 5.972 7.7 6.275.225 2.321.658 4.496 1.3 6.525m0 0c.117.404.242.795.375 1.175 1.566 4.344 4.117 7.969 7.65 10.875m0 0a27.515 27.515 0 0 0 4.05 2.875m-6.725-131.125c-.053-1.011.072-1.753.375-2.225.304-.489.787-.706 1.45-.65a2.488 2.488 0 0 1 1.775.925c.291.376.55.767.775 1.175.226-.95.96-1.675 2.2-2.175 1.19-.501 2.105-.135 2.75 1.1.026.073.068.331.125.775.367-.757.783-1.357 1.25-1.8a3.192 3.192 0 0 1 1.3-.75c.24-.068.473-.119.7-.15 1.003-.161 1.904-.019 2.7.425.322.181.538.414.65.7M137.65 57.8c-.887.589-.87 1.389.05 2.4.398.422.873.705 1.425.85-2.684 8.997-2.659 17.031.075 24.1-2.85 4.073-4.184 8.74-4 14 .191 5.273 1.133 10.306 2.825 15.1m40.2-9.925c.155-1.617.238-3.192.25-4.725-.022-7.166-1.68-13.507-4.975-19.025.03-3.621.02-7.195-.026-10.725-.036-3.549-.828-7.149-2.375-10.8.105-1.83-.053-3.022-.474-3.575m-2.95 55.6a.195.195 0 0 1-.025.05m.324 14.25v.025m-.299-14.325v-.025c.181-.5.38-.975.6-1.425.954-2.038 2.404-3.63 4.35-4.775a12.663 12.663 0 0 1 1.9-.95 6.216 6.216 0 0 1 1.85-.075c.396.032.788.108 1.175.225a7.413 7.413 0 0 1 2.1 1.15c5.401 4.197 7.042 9.405 4.925 15.625m-16.6 4.55c-.559-2.427-.9-4.66-1.025-6.7-.203-2.918.03-5.435.7-7.55m12.05.5c.957 2.818.7 6.36-.775 10.625l-.2.675a44.534 44.534 0 0 1-.725 1.8m0 0c-.19.488-.399.98-.625 1.475m-67.55 2.9c7.985-14.591 17.385-19.541 28.2-14.85.33.784.696 1.567 1.1 2.35.19.394.39.786.6 1.175 1.646 2.951 3.805 5.826 6.475 8.625m9.425 10.475c-3.488-.79-6.78-1.89-9.875-3.3a52.787 52.787 0 0 1-11.85-7.5 190.507 190.507 0 0 0-6.3 3.825c-1.79 1.12-4.132 3.195-7.025 6.225M161.3 189.25a37.588 37.588 0 0 0 5.45 2.475c11.4 4.236 21.167 4.886 29.3 1.95 6.261-2.272 10.295-4.322 12.1-6.15.336-.329.594-.646.775-.95.111-.207.194-.408.25-.6.625-2.175-.767-3.133-4.175-2.875-3.417.235-6.159.878-8.225 1.925 6.314-3.553 9.538-6.303 9.675-8.25m-8.025-54.125l.625-2.575c3.514 3.754 5.156 7.637 4.924 11.65a31.77 31.77 0 0 1 3.875 3.925c2.118 2.542 3.843 5.425 5.176 8.65.245.622.48 1.256.7 1.9.33.957.63 1.94.9 2.95.272.946.513 1.921.724 2.925.188.932.322 1.858.401 2.775.638 7.594-2.462 14.902-9.3 21.925a1.727 1.727 0 0 0-.15-.75 1.576 1.576 0 0 0-.425-.6 1.586 1.586 0 0 0-.875-.4c-1.558-.211-4.275 1.022-8.15 3.7 1.181-3.463-.435-4.238-4.85-2.325m-9.075-51.775a23.252 23.252 0 0 0 1.65-3.8" fill="none" stroke="#320a04" stroke-width=".6" stroke-linecap="round" stroke-linejoin="round" stroke-miterlimit="3"/><path d="M180.125 145.475c-1.555 2.265-3.871 3.94-6.95 5.025-1.58.29-1.047-1.368 1.6-4.975 3.593-.844 5.376-.86 5.35-.05z" fill="none" stroke="#743a18" stroke-width=".6" stroke-linecap="round" stroke-linejoin="round" stroke-miterlimit="3"/></g><g clip-path="url(#b)" transform="matrix(1.33333 0 0 -1.33333 0 333.333)"><path d="M181.2 122.25c2.314-4.096 2.506-7.762.575-11-1.915-3.241-3.715-5.717-5.4-7.425a6.216 6.216 0 0 0-1.85.075c-.68.274-1.315.591-1.9.95-1.946 1.145-3.396 2.737-4.35 4.775-.22.45-.419.925-.6 1.425v.025l.05.075c.27 1.722.377 3.364.325 4.925-.07 1.649.122 3.157.575 4.525.2.638.598.955 1.2.95 1.435.003 2.376.478 2.825 1.425.254.036.521.12.8.25.453.104.937.479 1.45 1.125.2.269.41.586.625.95h.025a21.52 21.52 0 0 0 2.125-5.6c.797-3.724.63-7.45-.5-11.175l2.525 3.1c.957 2.818.7 6.36-.775 10.625l-.2.675a11.847 11.847 0 0 1 2.475-.675m-32.25 25.65c.076-.413.176-.83.3-1.25.454-1.504 1.13-2.979 2.025-4.425.325-.537.683-1.071 1.075-1.6.28-.411.58-.819.9-1.225a77.363 77.363 0 0 0-1.4 1.6 75.999 75.999 0 0 0-1.45 1.6l-.5.55c-1.31 1.616-2.427 3.183-3.35 4.7-.294.364-.486.631-.575.8-.08.211-.12.336-.125.375-.349 1.237-.24 2.545.325 3.925a9.18 9.18 0 0 1 .525 4.65c1.464.431 1.914 1.348 1.35 2.75-.758 1.789-.124 2.547 1.9 2.275 1.5-.196 3.008-.621 4.525-1.275l.075-.025a21.381 21.381 0 0 1-2.15-1.925c-3.219-3.359-4.369-7.192-3.45-11.5m10-90.55c-.843.545-1.6 1.603-2.275 3.175-.674 1.558-.949 3.95-.825 7.175.128 3.235.995 5.977 2.6 8.225-1.598-1.623-3.197-2.399-4.8-2.325-1.464.057-2.93.833-4.4 2.325-.802.028-1.718.096-2.75.2 1.87-1.638 2.878-4.079 3.025-7.325a26.376 26.376 0 0 1 1.8-8.575c.382-1.034.773-2.517 1.175-4.45-.613-.378-1.297-.536-2.05-.475-1.129.1-1.954.567-2.475 1.4-.586-.845-1.494-1.245-2.725-1.2a27.683 27.683 0 0 0-1.4.025c-1.54.047-2.148.805-1.825 2.275a5.199 5.199 0 0 0-.525-.325c-.634-.329-1.326-.42-2.075-.275-.755.161-1.28.32-1.575.475-.07.04-.137.082-.2.125-.887.589-.87 1.389.05 2.4.398.422.873.705 1.425.85.507.131 1.082.139 1.725.025-2.497 7.955-1.806 16.038 2.075 24.25-6.697 13.029-5.605 25.363 3.275 37v4.075c-2.67-2.799-4.829-5.674-6.475-8.625-8.097-2.183-14.564-.367-19.4 5.45l-7.375 7.125c.251-.031.484-.031.7 0 .604.099 1.088.441 1.45 1.025 1.178-1.119 2.402-1.252 3.675-.4.46.552.81 1.186 1.05 1.9h.025a71.9 71.9 0 0 1 1.325-1.1l12.15-8.575a.245.245 0 0 1 .075-.025h.05a.899.899 0 0 1 .425 0 .395.395 0 0 1 .15.05c4.373 5.297 11.423 9.163 21.15 11.6 1.783-4.077 4.983-7.077 9.6-9l.1-1.35a4.079 4.079 0 0 1-.95.475c-4.754 1.476-9.17.343-13.25-3.4-6.566-8.081-9.117-16.423-7.65-25.025.8-7.909 4.132-12.559 10-13.95 5.291-1.205 10.583.896 15.875 6.3 2.153 3.128 3.378 6.97 3.675 11.525l.575-.1c.436-7.987-1.398-14.453-5.5-19.4 1.862-8.769 1.071-17.319-2.375-25.65-.467.443-.883 1.043-1.25 1.8-.057-.444-.099-.702-.125-.775-.645-1.235-1.56-1.601-2.75-1.1-1.24.5-1.974 1.225-2.2 2.175m37.825 127.675c6.314-3.553 9.538-6.303 9.675-8.25a1.727 1.727 0 0 0-.15-.75 1.576 1.576 0 0 0-.425-.6 1.586 1.586 0 0 0-.875-.4c-1.558-.211-4.275 1.022-8.15 3.7 1.181-3.463-.435-4.238-4.85-2.325-.094-.956.456-1.881 1.65-2.775a18.596 18.596 0 0 0 3.1-3.25c1.165-1.489 2.44-2.139 3.825-1.95.695.143 1.23.576 1.6 1.3.831 1.691 2.005 1.866 3.525.525.931-.768 1.598-1.593 2-2.475.282-.494.424-1.01.425-1.55.046-1.689.254-3.223.625-4.6a71.282 71.282 0 0 0 1.025-4.05c.415-1.498.65-2.94.7-4.325a16.028 16.028 0 0 0-.525-4.45 26.76 26.76 0 0 0-1.6-4.375 22.79 22.79 0 0 0-2.475-4.025 156.193 156.193 0 0 1-2.575-3.625c-.873-1.359-2.074-2.21-3.6-2.55a17.142 17.142 0 0 0-2.075-.275c-.783-.044-.834-.619-.15-1.725.592-.975.875-2 .85-3.075-.495-1.569-1.354-2.578-2.575-3.025-.496.469-.862.944-1.1 1.425-1.02-2.154-2.537-3.279-4.55-3.375-1.222-.043-2.323.049-3.3.275a8.567 8.567 0 0 0-1.975.6c2.181.726 3.997 2.118 5.45 4.175 1.231 1.75 2.19 3.991 2.875 6.725 9.06 4.387 13.834 9.304 14.324 14.75.12 1.544-.097 3.127-.649 4.75-2.416 7.231-9.158 10.697-20.226 10.4-.239-.015-.48-.032-.724-.05-.94 3.123-2.19 6.023-3.75 8.7-1.933 3.426-4.824 5.559-8.675 6.4-3.459.766-6.817.365-10.075-1.2-3.144-1.537-5.427-3.946-6.85-7.225-1.188-2.641-1.638-5.3-1.35-7.975-6.775 11.345-2.425 19.403 13.05 24.175 15.454 4.761 28.23 3.502 38.325-3.775-2.526-.555-6.8.228-12.826 2.35z" fill="#aa290f" fill-rule="evenodd"/><path d="M153.65 73.6c-.335-3.757-.027-8.915.925-15.475-.44-.64-.806-1.123-1.1-1.45a4.14 4.14 0 0 0-.975-.9c-.401 1.933-.793 3.417-1.175 4.45a26.433 26.433 0 0 0-1.8 8.575c-.146 3.246-1.155 5.688-3.025 7.325a43.436 43.436 0 0 1 2.75-.2c1.469-1.492 2.936-2.267 4.4-2.325m3.4 61.976c.092-.096.184-.188.275-.276 1.835-1.535 3.96-3.035 6.375-4.5.07-.715.478-1.19 1.225-1.425.417-.15.94-.225 1.575-.225.15-.072.302-.147.45-.225-.408-1.92-.066-3.095 1.025-3.525l.025-.025h.05c.518-.033.968-.067 1.35-.1.375-.04.658-.031.85.025.25-.962.618-1.63 1.1-2 .36-.29.794-.397 1.3-.325-.45-.946-1.39-1.422-2.825-1.425-.601.005-1.001-.311-1.2-.95-.453-1.367-.644-2.876-.575-4.524.053-1.562-.056-3.204-.325-4.925l-.05-.075c-.69 2.124-.93 4.657-.725 7.599.097 2.87-.594 4.804-2.075 5.8l-.1 1.35c-4.617 1.923-7.817 4.923-9.6 9 .304.068.929.318 1.875.75m-46.1-5.55c2.4-2.456 4.659-5.34 6.775-8.65 7.08-7.611 14.214-9.203 21.4-4.775a32.871 32.871 0 0 1-1.1-2.35c-10.815-4.691-20.215.259-28.2 14.85.264.133.514.308.75.525.13.119.256.252.375.4m59.675-74.55c-.112-.285-.328-.52-.65-.7-.796-.444-1.697-.585-2.7-.425 3.787 8.612 4.72 17.463 2.8 26.55 4.094 4.947 5.919 11.414 5.475 19.4l-2.925.675a36.282 36.282 0 0 1 0 3.875 12.66 12.66 0 0 1 1.9-.95 6.184 6.184 0 0 1 1.85-.074c.397.032.788.107 1.175.224 1.713 1.554 3.529 3.953 5.45 7.2 1.925 3.237 1.716 6.862-.625 10.875-.402.027-.794.069-1.175.125a11.9 11.9 0 0 0-2.475.675 45.465 45.465 0 0 1-.725 1.8c1.784-.285 3.426-.318 4.925-.1a23.243 23.243 0 0 0 1.65-3.8c2.117-6.22.476-11.427-4.925-15.624a7.308 7.308 0 0 0-1.425-.875c.155-1.618.238-3.193.25-4.726-.022-7.166-1.68-13.507-4.975-19.024a509.86 509.86 0 0 0-.025-10.726c-.036-3.55-.828-7.148-2.375-10.8.104-1.83-.054-3.021-.475-3.575m28.425 64.6c3.364 5.782 4.063 10.366 2.1 13.75l1.7-1.2c13.17 14.804 14.178 29.07 3.025 42.8.177.15.319.35.425.6.105.236.156.486.15.75 6.838-7.022 9.939-14.331 9.3-21.925a25.013 25.013 0 0 0-.4-2.774 40.739 40.739 0 0 0-.725-2.926 42.393 42.393 0 0 0-.9-2.95 44.044 44.044 0 0 0-.7-1.9c-1.333-3.224-3.058-6.108-5.175-8.65a31.91 31.91 0 0 0-3.875-3.925c.23-4.012-1.41-7.896-4.925-11.65m5.95 54.95c-1.495-1.587-3.637-1.345-6.425.725.193-2.388-2-2.171-6.575.65 4.415-1.913 6.03-1.138 4.85 2.325 3.876-2.677 6.592-3.911 8.15-3.7m1.55 9.875c1.173.267 1.965.826 2.375 1.676a3.14 3.14 0 0 0 .25-.601c.625-2.174-.767-3.132-4.175-2.875-3.417.236-6.16.878-8.225 1.925l-3.05 2.225c6.025-2.122 10.3-2.905 12.825-2.35" fill="#881c0d" fill-rule="evenodd"/><path d="M169.475 48.55c.144-1.49.019-2.864-.375-4.125 1.69.493 2.424 1.618 2.2 3.375-.078.46-.387.71-.925.75zm7.05 1.45c-.82.693-1.986 1.36-3.5 2 1.514-.64 2.68-1.307 3.5-2m-40.95-.35c.347 1.04.847 1.906 1.5 2.6-1.457-.508-2.533-1.341-3.225-2.5-1.104-1.79-.888-2.24.65-1.35.53.263.889.68 1.076 1.25m9.574 1.45c.05.304.159.645.325 1.025a63.473 63.473 0 0 0-2.95-2.65c1.565-.453 2.44.088 2.625 1.625m15.25-1.625c1.224-1.033 1.299-2.258.225-3.675 1.533.15 2.3 1.067 2.3 2.75-.042 1.308-.85 1.85-2.425 1.625-.57-.08-.603-.313-.1-.7m9.176 103.075c5.56-.824 9.728-3.282 12.5-7.375-2.772 4.093-6.94 6.55-12.5 7.375m3.049-51.575c-.015-.188-.032-.38-.05-.574-.296-4.556-1.522-8.398-3.674-11.526-5.292-5.404-10.584-7.505-15.876-6.3-5.868 1.39-9.201 6.04-10 13.95-1.466 8.602 1.084 16.944 7.65 25.025 4.079 3.743 8.496 4.876 13.25 3.4a4.06 4.06 0 0 0 .95-.475c1.48-.996 2.172-2.93 2.076-5.8l-.75-2.05c-2.4-7.556-.257-12.773 6.424-15.65m-4.1 35.925a13.352 13.352 0 0 0-2.8 2.025c-3.737 3.492-5.73 7.55-5.975 12.175.246-4.625 2.238-8.683 5.975-12.175a13.352 13.352 0 0 1 2.8-2.025m12.65-1c-2.293-.52-4.41-.737-6.35-.65 1.94-.087 4.057.13 6.35.65m-8 14.6c-1.58.29-1.047-1.368 1.6-4.975 3.594-.844 5.377-.86 5.35-.05-1.554 2.265-3.871 3.94-6.95 5.025m1.6-4.975l-2.15-3.025zm-17.525 40.85c-.702 1.647-1.91 2.913-3.625 3.8-1.301.666-2.901 1.107-4.8 1.325 1.12-1.388 1.204-2.872.25-4.45a12.02 12.02 0 0 0-2.9-3.425 7.94 7.94 0 0 0-3.875-1.65 48.758 48.758 0 0 0-3.65-.225c-.945 2.208-.778 4.733.5 7.575 3.063 6.83 7.296 9.897 12.7 9.2 5.409-.674 8.56-3.766 9.45-9.275a27.621 27.621 0 0 1-4.05-2.875m-34.025-48.725c-1.486.939-2.853 2.273-4.1 4l-.025.075c2.267.25 3.733-.15 4.4-1.2.639-.728.548-1.687-.275-2.875m-8.125-6.275c-1.203 1.664-1.97 3.714-2.3 6.15-.207 1.456-.258 3.048-.15 4.775.855 1.673 2.055 2.189 3.6 1.55a33.582 33.582 0 0 0 1.875-6.325c.224-1.177.39-2.377.5-3.6.087-.97.137-1.952.15-2.95-1.272-.852-2.497-.72-3.675.4m-2.15-1.025c-.447.04-.947.182-1.5.425h-.025c-1.826.648-2.91 1.723-3.25 3.225-.116.22-.207.47-.275.75l.3 5.35c.92 1.903 2.12 2.727 3.6 2.475-1.371-.741-2.121-2.175-2.25-4.3-.03-.713.02-1.371.15-1.975.182-.885.53-1.66 1.05-2.325a159.636 159.636 0 0 1 2.9-3.625 2.635 2.635 0 0 0-.7 0M107 140.575c-1.402-1.02-2.027-2.604-1.875-4.75.107-1.632.807-3.057 2.1-4.275.065-.057.13-.116.2-.175.235-.22.468-.452.7-.7.46-.501.92-1.068 1.375-1.7-1.114-.418-2.481-.084-4.1 1-2.16 1.443-2.968 3.635-2.425 6.575.623 3.246 1.964 4.587 4.025 4.025m25.05-93.55c-.313.47-.471 1.062-.474 1.775-.031 2.497 1.986 4.039 6.049 4.625-1.88.064-3.578-.01-5.1-.225-1.488-.152-2.555-.927-3.2-2.325-.433-.9-.617-1.982-.55-3.25-3.41 1.073-3.984 2.807-1.725 5.2 2.4 1.304 4.643 1.813 6.725 1.525-.946 1.32-2.271 1.988-3.975 2 1.53.763 3.689 1.22 6.475 1.375-.164-1.74.769-2.607 2.8-2.6a8.257 8.257 0 0 0 1.475-.15c.064-.427.197-.777.4-1.05a18.453 18.453 0 0 1 2.126-.175 13.22 13.22 0 0 1 2.199.2c.734.154 1.467.288 2.2.4a15 15 0 0 0 2.3.35c.318-.935.876-1.468 1.676-1.6.595-.078 1.12-.087 1.574-.025a6.917 6.917 0 0 1-.5-1.775c-3.967-4.174-7.651-5.648-11.05-4.425a5.823 5.823 0 0 0-.55 1.325c-.192 1.086-.017 2.003.526 2.75.724.996 2.149 1.663 4.274 2-2.125-.337-3.55-1.004-4.274-2-1.257-.173-2.373-.556-3.351-1.15-1.37-.758-1.894-2.058-1.575-3.9-2.342-.222-3.834.153-4.475 1.126m30.125 4.625c4.596-3.447 4.587-5.997-.024-7.651-3.085-.866-5.693-.141-7.825 2.175-.04 1.16.002 2.46.125 3.9.718.729.935 1.679.649 2.85l1.925-.375c1.85-.233 3.06.416 3.626 1.95a18.307 18.307 0 0 0 1.699-.925c1.534-.927 2.868-.911 4 .05 1.123-.68 2.406-1.038 3.85-1.075 1.725-.034 3.108.475 4.15 1.525 3.502-1.561 4.228-2.92 2.176-4.075a7.29 7.29 0 0 0 .425-.35c1.038-1.057 1.304-2.173.799-3.35-.175-.936-.826-1.61-1.95-2.024l.026.024c.008 1.933-.525 3.383-1.601 4.35-1.006.887-2.173 1.654-3.5 2.3 2.409-2.33 3.476-4.011 3.2-5.05-.31-1.13-.594-1.838-.85-2.124-.62-.67-1.737-1.136-3.35-1.401-1.25-.107-2.5-.032-3.75.225.885.685 1.468 1.752 1.75 3.2.312 1.772-.18 3.122-1.475 4.05-1.48.359-2.837.96-4.075 1.8m53.575 103.2c5.609 1.59 9.184-.26 10.725-5.55 1.413-4.903.047-9.278-4.1-13.125a7.276 7.276 0 0 1-.2-.225 13.465 13.465 0 0 0-1.974-1.4 20.4 20.4 0 0 1 1.599 1.625 19.104 19.104 0 0 1 3.5 5.525c-1.555-2.224-2.998-3.841-4.325-4.85a17.843 17.843 0 0 0-2.6 4.075c-.611 1.348-.411 2.582.6 3.7 1.002 1.113 2.336 1.688 4 1.725-.613.969-1.28 1.736-2 2.3-1.793 1.447-3.91 1.614-6.35.5.273.946.514 1.92.725 2.925.188.933.32 1.858.4 2.775m-30.525-7.7a41.698 41.698 0 0 0 4.875-4.025 44.558 44.558 0 0 0 2.1-2.075c1.754.743 3.254 1.977 4.5 3.7 1.536 2.115 2.244 4.357 2.126 6.725-.088 2.348-.963 4.123-2.625 5.325-1.662 1.199-3.637 1.482-5.925.85-2.272-.65-4.18-2.032-5.726-4.15-1.08-1.492-1.755-3.041-2.024-4.65a38.24 38.24 0 0 0 2.699-1.7m-22.774 16.425a41.548 41.548 0 0 0 4.899-4 44.654 44.654 0 0 0 2.125-2.1c1.745.75 3.237 1.993 4.476 3.725 1.527 2.107 2.227 4.34 2.099 6.7-.08 2.357-.946 4.14-2.6 5.35-1.67 1.216-3.652 1.515-5.95.9-2.254-.657-4.146-2.05-5.674-4.175-1.073-1.508-1.74-3.075-2-4.7a36.92 36.92 0 0 0 2.625-1.7m1.575-30.925a88.087 88.087 0 0 0-3.551 2.05c-.075.037-.15.079-.225.125a31.837 31.837 0 0 0-3.325 2.325c-.402.323-.793.657-1.175 1-3.135 2.772-5.402 6.022-6.8 9.75-.918 4.308.232 8.14 3.45 11.5a21.603 21.603 0 0 0 2.15 1.925c.36.267.736.534 1.125.8-.23.792-.397 1.584-.5 2.375-.287 2.675.162 5.334 1.35 7.975 1.423 3.28 3.707 5.688 6.85 7.225 3.258 1.565 6.617 1.966 10.076 1.2 3.85-.841 6.742-2.974 8.674-6.4 1.56-2.677 2.81-5.577 3.75-8.7 10.579-1.972 16.746-6.422 18.5-13.35.259-6.451-4.107-11.4-13.1-14.85-1.897-7.438-6.322-10.78-13.275-10.025a4.508 4.508 0 0 0-.6-1.325c-.407.198-1.024-.118-1.85-.95h-.024l.349.6c-.458.179-.667.563-.625 1.15a31.851 31.851 0 0 1-3.275-3.3l-.05-.025c-.031-.111-.222-.253-.575-.425-.481.37-.85 1.038-1.1 2 .159.62.35 1.195.576 1.725.317.76.7 1.42 1.149 1.975.44.58.95 1.055 1.525 1.425-1.372.695-2.614.345-3.724-1.05-.897-1.052-1.472-2.385-1.726-4H168l-.025.025c-1.091.43-1.433 1.605-1.024 3.525.015.086.032.169.049.25.2.555.467 1.072.8 1.55.645.9 1.528 1.668 2.65 2.3l.025.025c-.52.82-1.252.754-2.2-.2-.896-.837-2.012-1.995-3.35-3.475-.747.235-1.155.71-1.224 1.425-.058.504.05 1.12.325 1.85.044.152.094.31.149.475.953 1.778 2.012 2.944 3.175 3.5.304.154.695.245 1.176.275.885.045 2.068-.114 3.55-.475 1.029-.251 1.946-.643 2.75-1.175.966-.66 1.758-1.534 2.375-2.625.948-1.928 1.214-3.611.799-5.05.415 1.439.149 3.122-.8 5.05-.616 1.09-1.408 1.966-2.374 2.625-.804.532-1.721.924-2.75 1.175-1.482.36-2.665.52-3.55.475-.481-.03-.872-.121-1.176-.275-.431.387-.848.678-1.25.875-1.112.503-2.12.253-3.024-.75-.574-1.017-.607-1.9-.101-2.65-.506.75-.473 1.633.1 2.65.905 1.003 1.913 1.253 3.025.75-1.383-.661-2.425-1.794-3.125-3.4.253-.361.652-.685 1.2-.975a11.96 11.96 0 0 1-.15-.475" fill="#ea9e44" fill-rule="evenodd"/><path d="M190.1 143.125c.126.022.25.047.375.075 1.337.283 2.429 1.016 3.275 2.2.843 1.167 1.193 2.442 1.05 3.825-.125 1.335-.691 2.368-1.7 3.1-1.011.718-2.186.935-3.524.65-1.333-.319-2.425-1.061-3.276-2.225-.812-1.124-1.17-2.324-1.075-3.6a38.24 38.24 0 0 1-2.7 1.7c.27 1.608.945 3.158 2.025 4.65 1.546 2.118 3.454 3.501 5.726 4.15 2.288.632 4.263.349 5.925-.85 1.662-1.202 2.537-2.977 2.625-5.325.118-2.368-.59-4.61-2.125-6.725-1.247-1.724-2.747-2.957-4.5-3.7a45.049 45.049 0 0 1-2.101 2.075M189 152c.507.082.957-.018 1.35-.3.396-.28.639-.672.726-1.175a1.764 1.764 0 0 0-.326-1.35c-.28-.38-.671-.605-1.174-.675-.508-.09-.957.001-1.351.275-.388.28-.621.672-.7 1.175-.082.507.018.957.3 1.35.28.388.672.622 1.175.7m-22.75 16.45c.507.091.957-.001 1.35-.275a1.77 1.77 0 0 0 .75-1.175 1.832 1.832 0 0 0-.35-1.375c-.28-.38-.671-.605-1.174-.675-.508-.09-.957.002-1.351.275-.388.28-.621.672-.7 1.175-.082.516.018.974.3 1.375.28.38.672.605 1.175.675m1.1-8.875c.125.022.25.047.375.075 1.337.283 2.429 1.017 3.275 2.2.843 1.175 1.193 2.459 1.05 3.85-.125 1.318-.691 2.335-1.7 3.05-1.011.727-2.186.952-3.524.675-1.325-.319-2.41-1.061-3.25-2.225-.83-1.132-1.205-2.34-1.125-3.625a37.274 37.274 0 0 1-2.625 1.7c.26 1.625.927 3.192 2 4.7 1.528 2.126 3.42 3.518 5.674 4.175 2.298.615 4.28.315 5.95-.9 1.654-1.21 2.52-2.994 2.6-5.35.128-2.36-.572-4.593-2.1-6.7-1.238-1.732-2.73-2.974-4.475-3.725a45.136 45.136 0 0 1-2.125 2.1" fill="#fff" fill-rule="evenodd"/><path d="M190.1 143.125a41.799 41.799 0 0 1-4.875 4.025c-.095 1.276.263 2.476 1.075 3.6.85 1.164 1.943 1.906 3.276 2.225 1.338.285 2.513.068 3.524-.65 1.009-.732 1.575-1.765 1.7-3.1.143-1.383-.207-2.658-1.05-3.825-.846-1.184-1.938-1.917-3.275-2.2a7.77 7.77 0 0 0-.375-.075M189 152c-.503-.078-.894-.312-1.174-.7-.283-.393-.383-.843-.3-1.35.078-.503.31-.895.699-1.175.394-.274.843-.365 1.35-.275.504.07.895.295 1.175.675.29.393.399.843.326 1.35-.087.503-.33.895-.726 1.175-.393.282-.843.382-1.35.3m-22.75 16.45c-.503-.07-.894-.295-1.174-.675-.283-.401-.383-.859-.3-1.375.078-.503.31-.895.699-1.175.394-.273.843-.365 1.35-.275.504.07.895.295 1.175.675.299.401.415.859.35 1.375a1.77 1.77 0 0 1-.75 1.175c-.393.274-.843.366-1.35.275m1.1-8.875a41.648 41.648 0 0 1-4.9 4c-.08 1.285.296 2.493 1.126 3.625.84 1.164 1.925 1.906 3.25 2.225 1.338.277 2.513.052 3.524-.675 1.009-.715 1.575-1.732 1.7-3.05.143-1.391-.207-2.675-1.05-3.85-.846-1.183-1.938-1.917-3.275-2.2a8.287 8.287 0 0 0-.375-.075" fill-rule="evenodd"/><path d="M172.625 100.975l2.925-.675c.444-7.986-1.381-14.453-5.475-19.4 1.92-9.087.987-17.938-2.8-26.55a5.079 5.079 0 0 0-.7.15 3.192 3.192 0 0 0-1.3.75c3.447 8.33 4.238 16.88 2.375 25.65 4.102 4.947 5.936 11.414 5.5 19.4l-.575.1c.018.195.034.387.05.575m-33.5 15.625c-7.187-4.428-14.32-2.836-21.4 4.775-2.116 3.31-4.374 6.194-6.775 8.65.176.198.343.423.5.676v.074c.553-.242 1.053-.384 1.5-.425l7.375-7.125c4.836-5.816 11.303-7.633 19.4-5.45a26.57 26.57 0 0 1-.6-1.175m42.075 5.65c.381-.056.773-.098 1.175-.125 2.341-4.013 2.55-7.638.625-10.875-1.921-3.247-3.737-5.646-5.45-7.2a5.615 5.615 0 0 0-1.175-.224c1.686 1.708 3.485 4.183 5.4 7.424 1.931 3.239 1.74 6.905-.575 11m24.675 53.175c11.153-13.73 10.145-27.996-3.025-42.8l-1.7 1.2c1.963-3.384 1.264-7.968-2.1-13.75l-.625 2.576c-2.099-1.375-3.915-2.134-5.45-2.276.647.689 1.263 1.53 1.85 2.526-3.417-1.673-6.834-2.365-10.25-2.075a23.243 23.243 0 0 1-1.65 3.799c.658.098 1.291.24 1.9.425a8.542 8.542 0 0 1 1.975-.6c.977-.226 2.078-.318 3.3-.275 2.013.096 3.53 1.22 4.55 3.375.238-.481.604-.956 1.1-1.425 1.222.448 2.08 1.456 2.575 3.025.026 1.075-.258 2.1-.85 3.075-.684 1.106-.633 1.68.15 1.726.685.047 1.376.139 2.075.274 1.527.34 2.727 1.19 3.6 2.55a159.27 159.27 0 0 0 2.575 3.625 22.869 22.869 0 0 1 2.475 4.025 26.885 26.885 0 0 1 1.6 4.375c.388 1.504.563 2.987.525 4.45-.051 1.385-.285 2.827-.7 4.326a70.414 70.414 0 0 1-1.025 4.049c-.371 1.378-.579 2.912-.625 4.6a3.09 3.09 0 0 1-.425 1.55c-.402.883-1.069 1.707-2 2.475-1.519 1.34-2.694 1.166-3.525-.525-.371-.724-.904-1.157-1.6-1.3-1.386-.19-2.66.46-3.825 1.95a18.524 18.524 0 0 1-3.1 3.25c-1.194.894-1.744 1.819-1.65 2.775 4.575-2.821 6.768-3.038 6.575-.65 2.788-2.07 4.93-2.312 6.425-.725.354.052.645.185.875.4" fill="#9e2110" fill-rule="evenodd"/><path d="M152.525 51.3c-.174-1.22.042-2.445.65-3.675-.608 1.23-.824 2.455-.65 3.675m-33.4 90.35c.628-1.918.986-3.627 1.075-5.125-.09 1.498-.447 3.207-1.075 5.125m47.825-22.975c-.205-2.942.036-5.476.725-7.6v-.025c.182-.5.38-.975.6-1.425a10.676 10.676 0 0 1 4.35-4.775 36.282 36.282 0 0 0 0-3.875c-6.682 2.877-8.823 8.094-6.425 15.65l.75 2.05m-3.975 15.425c.7 1.606 1.742 2.739 3.125 3.4.402-.197.819-.488 1.25-.875-1.163-.556-2.222-1.722-3.175-3.5-.548.29-.947.614-1.2.975m9.675-11.125c-.506-.072-.94.036-1.3.325.352.172.544.314.575.425l.05.025a31.851 31.851 0 0 0 3.275 3.3c-.042-.587.167-.971.625-1.15-.122-.21-.238-.41-.35-.6a10.61 10.61 0 0 0-.625-.95c-.513-.646-.997-1.021-1.45-1.125a2.856 2.856 0 0 0-.8-.25m-2.4 2.325c-.192-.057-.475-.065-.85-.025-.382.033-.832.067-1.35.1.254 1.615.829 2.948 1.725 4 1.11 1.395 2.353 1.745 3.725 1.05a5.973 5.973 0 0 1-1.525-1.425 8.058 8.058 0 0 1-1.15-1.975 11.944 11.944 0 0 1-.575-1.725m-3.3 3.625a12.58 12.58 0 0 1-.45.225c-.634 0-1.158.074-1.575.225 1.338 1.48 2.454 2.638 3.35 3.475.948.954 1.68 1.02 2.2.2l-.025-.025c-1.123-.632-2.006-1.4-2.65-2.3a6.636 6.636 0 0 1-.8-1.55 11.046 11.046 0 0 1-.05-.25M148.825 191.5c1.899-.218 3.499-.66 4.8-1.325.46-1.183.386-2.466-.225-3.85a20.465 20.465 0 0 0-2.2-3.875l-.025-.025a48.022 48.022 0 0 1-2.7-3.2c-.844-1.17-1.935-1.961-3.275-2.375-.547-.171-1.04-.238-1.475-.2-2.552 1.454-4.243 3.154-5.075 5.1 1.214.029 2.43.104 3.65.225a7.947 7.947 0 0 1 3.875 1.65 12.001 12.001 0 0 1 2.9 3.425c.953 1.578.87 3.062-.25 4.45m14.875-60.7c-2.415 1.465-4.54 2.965-6.375 4.5-.091.088-.183.18-.275.275-.497.424-.972.857-1.425 1.3a29.22 29.22 0 0 0-2.375 2.525c-.32.406-.62.814-.9 1.225-.391.529-.75 1.063-1.075 1.6a18.64 18.64 0 0 0-2.025 4.425c-.123.42-.224.837-.3 1.25 1.397-3.728 3.664-6.978 6.8-9.75a27.52 27.52 0 0 1 1.175-1 31.837 31.837 0 0 1 3.325-2.325c.074-.046.15-.088.225-.125a88.07 88.07 0 0 1 3.55-2.05c-.274-.73-.382-1.346-.325-1.85m-44.925.175a39.114 39.114 0 0 1-.15 2.95 36.948 36.948 0 0 1-.5 3.6 33.582 33.582 0 0 1-1.875 6.325c.845-.36 1.796-1.068 2.85-2.125l.025-.075c1.247-1.727 2.613-3.061 4.1-4a7.849 7.849 0 0 0-.775-.925c-.75-.434-1.374-.634-1.875-.6a1.5 1.5 0 0 0-.35.075c.034-.587.026-1.136-.025-1.65a7.689 7.689 0 0 0-.375-1.675 5.859 5.859 0 0 0-1.05-1.9M112.65 142.3c-.108-1.727-.058-3.32.15-4.775.33-2.436 1.097-4.486 2.3-6.15-.362-.584-.846-.926-1.45-1.025a156.912 156.912 0 0 0-2.9 3.625 5.516 5.516 0 0 0-1.05 2.325 7.769 7.769 0 0 0-.15 1.975c.129 2.125.879 3.559 2.25 4.3.272-.052.556-.144.85-.275m-1.2-11.525v-.075a4.766 4.766 0 0 0-.5-.675 3.428 3.428 0 0 0-.375-.4 3.306 3.306 0 0 0-.75-.525 3.994 3.994 0 0 0-.325-.125 18.302 18.302 0 0 1-1.375 1.7c-.232.248-.466.48-.7.7-.07.059-.135.118-.2.175-1.293 1.218-1.993 2.643-2.1 4.275-.153 2.146.472 3.73 1.875 4.75a5.996 5.996 0 0 0 1.2-.475l-.3-5.35a3.2 3.2 0 0 1 .275-.75c.34-1.502 1.423-2.577 3.25-3.225zm41.05-75c.347.224.672.524.975.9.294.327.66.81 1.1 1.45-.052-1.011.073-1.753.375-2.224-.861-.938-1.502-1.88-1.925-2.826-.455-.062-.98-.053-1.575.025-.8.132-1.358.665-1.675 1.6a14.98 14.98 0 0 1-2.3-.35 40.167 40.167 0 0 1-2.2-.4 13.233 13.233 0 0 0-2.2-.2c-.73.019-1.437.077-2.125.175-.203.273-.336.623-.4 1.05-.452.09-.943.14-1.475.15-2.031-.007-2.964.86-2.8 2.6.44.037.9.06 1.375.075.063-.043.13-.085.2-.125.295-.155.82-.313 1.575-.475.749-.145 1.44-.054 2.075.275.203.112.379.22.525.325-.323-1.47.285-2.228 1.825-2.274.373-.02.839-.028 1.4-.026 1.23-.045 2.14.356 2.725 1.2.52-.833 1.346-1.3 2.475-1.4.754-.061 1.437.098 2.05.476m-23.725-8.151c-.067 1.268.116 2.35.55 3.25.645 1.398 1.712 2.173 3.2 2.325 1.52.215 3.22.289 5.1.225-4.063-.586-6.08-2.128-6.05-4.625.004-.713.162-1.305.475-1.774-1.175.166-2.183.374-3.025.625a2.141 2.141 0 0 0-.25-.026m5 6.725c-2.083.288-4.324-.221-6.725-1.525.129 1.222.72 2.222 1.775 3 .296.188.62.363.975.525 1.704-.012 3.028-.68 3.975-2M162.15 44c4.612 1.654 4.62 4.204.025 7.65a12.392 12.392 0 0 1 4.075-1.8c1.295-.928 1.787-2.278 1.475-4.05-.283-1.448-.866-2.515-1.75-3.2-1.275.285-2.55.752-3.825 1.4m10.925-.224c.256.286.539.994.85 2.125.275 1.038-.791 2.72-3.2 5.049 1.327-.646 2.494-1.413 3.5-2.3 1.076-.967 1.609-2.417 1.6-4.35l-.025-.024a8.5 8.5 0 0 0-.625-.176 11.123 11.123 0 0 0-2.1-.324m-36.55 2.125c-.32 1.84.206 3.14 1.575 3.899.977.594 2.094.977 3.35 1.15-.542-.747-.717-1.664-.525-2.75.144-.502.328-.943.55-1.325 3.399-1.223 7.082.25 11.05 4.425.082.595.249 1.187.5 1.775.423.947 1.064 1.888 1.925 2.826.304-.49.787-.706 1.45-.651a2.488 2.488 0 0 1 1.775.925c.29.376.55.768.775 1.175.226-.95.959-1.675 2.2-2.175 1.189-.501 2.105-.135 2.75 1.1.026.073.068.332.125.775.368-.757.784-1.356 1.25-1.8.396-.366.83-.616 1.3-.75a5.11 5.11 0 0 1 .7-.15c1.003-.16 1.904-.02 2.7.426.322.18.538.414.65.699 1.47-.486 2.712-.952 3.725-1.4-1.042-1.05-2.425-1.56-4.15-1.525-1.444.037-2.727.396-3.85 1.075-1.132-.961-2.466-.977-4-.05-.607.369-1.173.677-1.7.925-.565-1.534-1.774-2.183-3.625-1.95l-1.925.375c.286-1.171.069-2.121-.65-2.85a33.33 33.33 0 0 1-.125-3.9c-.402.427-.785.91-1.15 1.45a71.665 71.665 0 0 0-.65-.35c-3.482-1.694-6.2-2.427-8.15-2.2-1.327.147-2.294.746-2.9 1.8a44.028 44.028 0 0 0-2.675-.65 24.046 24.046 0 0 0-2.275-.324M220.2 134.55c-2.064-1.241-4.281-1.658-6.65-1.25-.105.476-.18.959-.225 1.45a31.119 31.119 0 0 0-.2 4.05c.043 1.509.442 2.859 1.2 4.05l.1.125c.454 1.293 1.27 2.235 2.45 2.825.03.019.055.035.075.05.739 1.507 2.079 2.44 4.025 2.8.719-.564 1.386-1.331 2-2.3-1.664-.037-2.998-.612-4-1.725-1.011-1.118-1.211-2.352-.6-3.7a17.843 17.843 0 0 1 2.6-4.075c1.327 1.009 2.769 2.626 4.325 4.85a19.104 19.104 0 0 0-3.5-5.525 20.245 20.245 0 0 0-1.6-1.625m-37.275-9.925c-1.5-.22-3.141-.185-4.925.1-.19.489-.398.98-.625 1.475a.213.213 0 0 1 .025.05c.276.418.476.859.6 1.325 6.952-.755 11.378 2.587 13.275 10.025 8.993 3.45 13.359 8.399 13.1 14.85-1.755 6.928-7.922 11.378-18.5 13.35.244.019.485.035.725.05 11.067.298 17.809-3.17 20.225-10.4.552-1.623.769-3.206.65-4.75-.491-5.446-5.266-10.362-14.325-14.75-.685-2.733-1.644-4.975-2.875-6.725-1.453-2.056-3.27-3.448-5.45-4.175a13.1 13.1 0 0 0-1.9-.425" fill="#dc8a38" fill-rule="evenodd"/><path d="M154.575 58.125c-.952 6.56-1.26 11.718-.925 15.475 1.603-.074 3.202.702 4.8 2.325-1.605-2.248-2.472-4.99-2.6-8.225-.124-3.225.151-5.617.825-7.175.674-1.572 1.432-2.63 2.275-3.175a9.201 9.201 0 0 0-.775-1.175 2.488 2.488 0 0 0-1.775-.925c-.663-.056-1.146.161-1.45.65-.303.472-.428 1.214-.375 2.225m24.15 64.8l.2-.675c1.474-4.265 1.732-7.807.775-10.625l-2.525-3.1c1.13 3.725 1.297 7.451.5 11.175a21.52 21.52 0 0 1-2.125 5.6c.826.832 1.442 1.148 1.85.95a.234.234 0 0 0-.025-.05c.226-.495.434-.987.625-1.475.26-.607.501-1.207.724-1.8m-58.899 9.95c.182.52.307 1.078.375 1.675.05.513.06 1.063.025 1.65.11-.038.225-.063.35-.075 2.893-3.03 5.234-5.105 7.025-6.225a190.507 190.507 0 0 1 6.3-3.825 52.787 52.787 0 0 0 11.85 7.5c3.095 1.41 6.387 2.51 9.875 3.3.452-.443.928-.876 1.425-1.3-.946-.432-1.57-.682-1.875-.75-9.727-2.437-16.777-6.303-21.15-11.6a.395.395 0 0 0-.15-.05.899.899 0 0 0-.425 0h-.05a.245.245 0 0 0-.075.025l-12.15 8.575a71.9 71.9 0 0 0-1.325 1.1zm18.2-18.625c.33.784.696 1.567 1.1 2.35.19.394.39.786.6 1.175 1.646 2.951 3.805 5.826 6.475 8.625v-4.075c-8.88-11.637-9.972-23.971-3.275-37-3.88-8.212-4.572-16.295-2.075-24.25-.643.114-1.218.106-1.725-.025-2.684 8.997-2.659 17.031.075 24.1-2.85 4.073-4.184 8.74-4 14 .191 5.273 1.133 10.306 2.825 15.1m17.15 50.25c.103-.792.27-1.583.5-2.375-.39-.266-.765-.533-1.125-.8l-.075.025c-1.517.654-3.025 1.079-4.525 1.275-2.024.272-2.658-.486-1.9-2.275.564-1.402.114-2.319-1.35-2.75a9.18 9.18 0 0 0-.525-4.65c-.566-1.38-.674-2.688-.325-3.925-1.47 2.653-2.329 5.161-2.575 7.525-1.163-.829-1.846-1.512-2.05-2.05.314 2.602 1.098 4.876 2.35 6.825-1.424-.513-2.49-1.03-3.2-1.55l-1.225-.5c.358.91.717 1.66 1.075 2.25 2.34 3.88 4.906 5.972 7.7 6.275.225 2.321.658 4.496 1.3 6.525.117.404.242.795.375 1.175 1.566 4.344 4.117 7.969 7.65 10.875a27.515 27.515 0 0 0 4.05 2.875 37.588 37.588 0 0 0 5.45 2.475c11.4 4.236 21.167 4.886 29.3 1.95 6.261-2.272 10.295-4.322 12.1-6.15.336-.329.594-.646.775-.95-.41-.849-1.203-1.408-2.375-1.675-10.095 7.277-22.87 8.536-38.326 3.775-15.474-4.772-19.824-12.83-13.049-24.175" fill="#da2d14" fill-rule="evenodd"/><path d="M157.25 186.375c-3.533-2.906-6.083-6.531-7.65-10.875a22.5 22.5 0 0 1-.375-1.175c-2.136.688-3.969 1.463-5.5 2.325.436-.038.928.029 1.475.2 1.34.414 2.431 1.206 3.275 2.375a48.022 48.022 0 0 0 2.7 3.2l.025.025a20.465 20.465 0 0 1 2.2 3.875c.611 1.383.686 2.667.225 3.85 1.714-.887 2.922-2.154 3.625-3.8m63.725-37.725c-1.946-.36-3.287-1.294-4.025-2.8a.882.882 0 0 0-.075-.05c-1.18-.591-1.996-1.532-2.45-2.825l-.1-.125c-.758-1.191-1.157-2.541-1.2-4.05a31.119 31.119 0 0 1 .2-4.05c.045-.491.12-.974.225-1.45-1.814.307-3.713 1.09-5.7 2.35 2.117 2.542 3.842 5.425 5.175 8.65a44 44 0 0 1 .7 1.9c.331.957.63 1.94.9 2.95 2.439 1.114 4.557.947 6.35-.5" fill="#ca7624" fill-rule="evenodd"/><path d="M173.175 150.5c3.079-1.085 5.396-2.76 6.95-5.025.027-.81-1.757-.794-5.35.05-2.647 3.607-3.18 5.266-1.6 4.975" fill="#b45a25" fill-rule="evenodd"/><path d="M169.475 48.55h.9c.538-.04.847-.29.925-.75.224-1.757-.51-2.882-2.2-3.375.394 1.26.519 2.636.375 4.125m-33.9 1.1a2.048 2.048 0 0 0-1.075-1.25c-1.538-.89-1.754-.44-.65 1.35.692 1.159 1.768 1.992 3.226 2.5-.654-.694-1.154-1.56-1.5-2.6m9.574 1.45c-.185-1.537-1.06-2.078-2.625-1.625a63.473 63.473 0 0 1 2.95 2.65 4.44 4.44 0 0 1-.325-1.025m15.25-1.625c-.503.387-.47.62.1.7 1.575.225 2.383-.317 2.425-1.625 0-1.683-.767-2.6-2.3-2.75 1.074 1.417.999 2.642-.224 3.675" fill="#ecc59d" fill-rule="evenodd"/><path d="M162.15 44c4.611 1.654 4.62 4.204.024 7.65m10.901-7.875c.256.287.54.995.85 2.125.275 1.038-.792 2.721-3.2 5.05-.186.2-.387.401-.6.6m6.4-1.55c-.819.692-1.986 1.359-3.5 2m-35.4 1.425c-4.064-.586-6.08-2.128-6.05-4.625.003-.713.161-1.305.474-1.775m20.476 4.275c-.175-1.22.042-2.446.65-3.675m-.65 3.675c.082.595.25 1.186.5 1.775.422.946 1.064 1.888 1.925 2.825m-8.45-2.85c-.265-.033-.523-.067-.775-.1-2.125-.338-3.55-1.005-4.275-2-.543-.747-.717-1.664-.526-2.75a5.78 5.78 0 0 1 .551-1.325m-7.7 7.475c-2.083.288-4.325-.221-6.726-1.525M112.65 142.3c-.108-1.727-.058-3.319.15-4.775.33-2.437 1.096-4.486 2.3-6.15m-3.65-.6v-.075a4.844 4.844 0 0 0-.5-.675m0 0a3.35 3.35 0 0 0-.375-.4M108.2 140.1l-.3-5.35c.067-.28.16-.53.274-.75.34-1.502 1.424-2.577 3.25-3.225h.026c.553-.243 1.053-.384 1.5-.425m6.15 11.375l.025-.075c.628-1.919.986-3.627 1.075-5.125a4.81 4.81 0 0 0 .025-.325m36.824-.625c.093-.096.184-.187.276-.275 1.834-1.535 3.96-3.035 6.375-4.5m-6.65 4.775c-.498.424-.973.857-1.425 1.3m-1.076 24.45a21.477 21.477 0 0 1-2.149-1.925c-3.219-3.359-4.369-7.192-3.45-11.5.076-.413.176-.83.3-1.25.454-1.504 1.13-2.979 2.025-4.425.325-.537.683-1.071 1.075-1.6.28-.411.58-.819.9-1.225m6.5 11.7a5.998 5.998 0 0 0 1.775.3m-6.976 9.925c.361.267.736.534 1.125.8-.23.792-.397 1.583-.5 2.375m-1.549 25.675c1.714-.887 2.922-2.154 3.625-3.8m-3.625 3.8c-1.302.665-2.902 1.107-4.8 1.325m20.75-38.95c5.561-.824 9.728-3.282 12.5-7.375m-9.45-44.2l-.05-.575m.05.575a36.282 36.282 0 0 1 0 3.875m-.05-4.45c-.297-4.555-1.523-8.397-3.675-11.525-5.292-5.404-10.584-7.505-15.875-6.3-5.869 1.391-9.202 6.041-10 13.95-1.467 8.602 1.083 16.944 7.65 25.025 4.08 3.743 8.496 4.876 13.25 3.4.345-.121.662-.279.95-.475 1.48-.996 2.171-2.93 2.075-5.8m1.575 18.225a13.378 13.378 0 0 0-2.8 2.025c-3.738 3.492-5.73 7.55-5.975 12.175a5.002 5.002 0 0 1-2.1-1.375m23.524-13.825c-2.293-.521-4.409-.737-6.349-.65m-8.325-6.1c.16.006.327.014.5.025m-.5-.025c-.634-.001-1.159.074-1.576.225m-1.95 4.725c.253-.361.653-.685 1.2-.975m-1.2.975c-.506.75-.472 1.633.101 2.65.904 1.002 1.912 1.252 3.024.75.403-.197.82-.488 1.25-.875m6.151-6.2a5.977 5.977 0 0 1-1.526-1.425 8.075 8.075 0 0 1-1.149-1.975 11.863 11.863 0 0 1-.575-1.725c.251-.962.618-1.629 1.1-2 .36-.289.793-.398 1.3-.325.254.036.521.12.8.25.453.104.936.479 1.45 1.125.2.269.41.586.625.95h.024c.827.832 1.443 1.148 1.851.95a4.5 4.5 0 0 1 .6 1.325c.415 1.439.148 3.122-.8 5.05-.616 1.091-1.408 1.966-2.375 2.625-.804.532-1.72.923-2.75 1.175-1.482.361-2.665.52-3.55.475-.48-.03-.872-.122-1.176-.275-1.163-.556-2.22-1.723-3.175-3.5a12.502 12.502 0 0 1-.149-.475c-.274-.729-.383-1.346-.325-1.85.07-.716.477-1.191 1.224-1.425m3.05-3.975l.026-.025m2.45 7.65c-1.123-.632-2.006-1.399-2.65-2.3a6.632 6.632 0 0 1-.8-1.55 5.524 5.524 0 0 1-.05-.25m7.825 16.6l-2.15-3.025m17.474.625a41.799 41.799 0 0 1-4.875 4.025m34.976-12.6c-2.065-1.241-4.28-1.658-6.65-1.25m-64.325 41.025c-2.136.688-3.969 1.463-5.5 2.325-2.553 1.454-4.244 3.154-5.075 5.1-.945 2.208-.779 4.733.5 7.575 3.062 6.831 7.295 9.897 12.7 9.2 5.408-.674 8.56-3.766 9.45-9.275m-5.675-52.375a28.914 28.914 0 0 0-2.375 2.525m-43.75-10.425c-1.115-.418-2.48-.084-4.1 1-2.16 1.442-2.969 3.634-2.425 6.575.622 3.245 1.964 4.587 4.025 4.025a6.02 6.02 0 0 0 1.2-.475c.92 1.902 2.12 2.727 3.6 2.475.271-.052.555-.144.85-.275.854 1.673 2.054 2.189 3.6 1.55.845-.359 1.795-1.068 2.85-2.125 2.266.25 3.733-.15 4.4-1.2.638-.729.547-1.687-.275-2.875a7.866 7.866 0 0 0-.775-.925c-.749-.434-1.374-.634-1.875-.6a1.489 1.489 0 0 0-.35.075c.033-.587.025-1.137-.025-1.65a7.807 7.807 0 0 0-.375-1.675 5.867 5.867 0 0 0-1.05-1.9c-1.273-.852-2.498-.719-3.675.4-.363-.584-.846-.926-1.45-1.025a2.642 2.642 0 0 0-.7 0m62.224-86.25c-.597-.161-1.296-.269-2.099-.325-.62-.669-1.737-1.135-3.35-1.4-1.25-.107-2.5-.032-3.75.225-1.275.285-2.55.752-3.825 1.4-3.084-.866-5.693-.142-7.825 2.175-.403.427-.786.91-1.15 1.45a86.799 86.799 0 0 0-.65-.35c-3.483-1.694-6.2-2.427-8.15-2.2-1.328.147-2.294.746-2.9 1.8a44.05 44.05 0 0 0-2.676-.65 24.1 24.1 0 0 0-2.274-.325c-2.343-.222-3.835.153-4.476 1.125-1.174.166-2.183.374-3.024.625a2.404 2.404 0 0 0-.25-.025c-3.41 1.073-3.985 2.807-1.726 5.2.13 1.222.721 2.222 1.776 3 .295.188.62.363.974.525 1.53.762 3.69 1.22 6.476 1.375.441.037.9.061 1.375.075m32.975-2.325c1.47-.486 2.712-.953 3.724-1.4 3.502-1.561 4.228-2.92 2.176-4.075a6.91 6.91 0 0 0 .425-.35c1.038-1.057 1.304-2.173.8-3.35-.176-.936-.827-1.611-1.95-2.025m32.05 91.375c1.987-1.26 3.886-2.043 5.7-2.35m6.65 1.25c.67.386 1.328.853 1.974 1.4.066.076.132.152.201.225 4.146 3.846 5.512 8.221 4.1 13.125-1.542 5.289-5.117 7.139-10.725 5.55m-1.125-5.7c2.44 1.114 4.556.947 6.35-.5.72-.565 1.386-1.331 2-2.3m-32.876-3.225a45.049 45.049 0 0 0 2.101-2.075c1.753.743 3.253 1.976 4.5 3.7 1.535 2.115 2.243 4.357 2.125 6.725-.088 2.348-.963 4.123-2.625 5.325-1.66 1.199-3.637 1.482-5.925.85-2.27-.649-4.18-2.032-5.726-4.15-1.08-1.492-1.754-3.042-2.024-4.65a38.012 38.012 0 0 0 2.7-1.7m-17.876 12.425a41.648 41.648 0 0 1-4.899 4m4.9-4a45.136 45.136 0 0 0 2.124-2.1c1.745.751 3.238 1.993 4.476 3.725 1.527 2.107 2.227 4.34 2.1 6.7-.08 2.356-.947 4.14-2.6 5.35-1.67 1.215-3.653 1.515-5.95.9-2.255-.657-4.147-2.049-5.675-4.175-1.072-1.508-1.738-3.075-2-4.7a36.817 36.817 0 0 0 2.625-1.7m-7.276.925c-.287 2.675.163 5.334 1.351 7.975 1.422 3.279 3.706 5.688 6.85 7.225 3.257 1.565 6.616 1.966 10.075 1.2 3.85-.841 6.742-2.974 8.675-6.4 1.56-2.677 2.81-5.577 3.75-8.7.244.018.485.035.724.05 11.068.297 17.81-3.169 20.226-10.4.552-1.623.768-3.206.65-4.75-.49-5.446-5.266-10.363-14.325-14.75-.686-2.734-1.645-4.975-2.875-6.725-1.453-2.057-3.27-3.449-5.45-4.175a13.114 13.114 0 0 0-1.9-.425c-1.5-.219-3.14-.186-4.925.1" fill="none" stroke="#be6f21" stroke-width=".6" stroke-linecap="round" stroke-linejoin="round" stroke-miterlimit="3"/><path d="M185.225 147.15c-.095 1.276.263 2.477 1.075 3.6.85 1.164 1.943 1.906 3.276 2.225 1.338.285 2.513.069 3.524-.65 1.009-.732 1.575-1.765 1.7-3.1.143-1.383-.207-2.658-1.05-3.825-.846-1.184-1.938-1.917-3.275-2.2a7.77 7.77 0 0 0-.375-.075M189 152c.507.082.957-.018 1.35-.3.396-.28.639-.672.726-1.175a1.764 1.764 0 0 0-.326-1.35c-.28-.38-.671-.605-1.174-.675-.508-.09-.957.002-1.351.275-.388.28-.621.672-.7 1.175-.082.507.018.957.3 1.35.28.389.672.622 1.175.7zm-22.75 16.45c.507.09.957-.001 1.35-.275.405-.28.655-.671.75-1.175a1.832 1.832 0 0 0-.35-1.375c-.28-.38-.671-.605-1.174-.675-.508-.09-.957.002-1.351.275-.388.28-.621.672-.7 1.175-.082.516.018.974.3 1.375.28.38.672.605 1.175.675zm-3.8-4.875c-.08 1.285.296 2.493 1.126 3.625.84 1.164 1.925 1.906 3.25 2.225 1.338.277 2.513.052 3.524-.675 1.009-.715 1.575-1.732 1.7-3.05.143-1.391-.207-2.675-1.05-3.85-.846-1.183-1.938-1.917-3.275-2.2a8.287 8.287 0 0 0-.375-.075" fill="none" stroke="#000" stroke-width=".1" stroke-linecap="round" stroke-linejoin="round" stroke-miterlimit="3"/><path d="M173.175 150.5c-1.58.291-1.047-1.368 1.6-4.975 3.593-.844 5.377-.86 5.35-.05-1.554 2.265-3.871 3.94-6.95 5.025z" fill="none" stroke="#743a18" stroke-width=".6" stroke-linecap="round" stroke-linejoin="round" stroke-miterlimit="3"/><path d="M154.575 58.125c-.952 6.56-1.26 11.718-.925 15.475m-5.675-16.9c.08.125.155.259.225.4.08.192.137.383.175.575m-6.35.125c.323.196.531.38.625.55m6.6 17.575c1.47-1.492 2.936-2.268 4.4-2.325 1.603-.074 3.202.702 4.8 2.325m-17.6-14.85c-.643.114-1.218.106-1.725-.025m7.075 65.35c-2.67-2.799-4.829-5.674-6.475-8.625a26.537 26.537 0 0 1-.6-1.175 32.843 32.843 0 0 1-1.1-2.35m-17.45 21.875c2.893-3.03 5.234-5.105 7.025-6.225a190.507 190.507 0 0 1 6.3-3.825 52.787 52.787 0 0 0 11.85 7.5c3.095 1.41 6.387 2.51 9.875 3.3m27.3-12.25a23.252 23.252 0 0 0 1.65-3.8m-6.35-16.5a6.658 6.658 0 0 0-.675-.275 5.617 5.617 0 0 0-1.175-.225 6.216 6.216 0 0 0-1.85.075c-.68.274-1.315.591-1.9.95-1.946 1.145-3.396 2.737-4.35 4.775-.22.45-.419.925-.6 1.425v.025c-.689 2.124-.93 4.657-.725 7.6.125 2.047.467 4.288 1.024 6.725m11.726-13.775c.957 2.818.7 6.36-.775 10.625l-.2.675a44.534 44.534 0 0 1-.725 1.8c-.19.488-.399.98-.625 1.475m29.075 50.575c6.838-7.023 9.938-14.331 9.3-21.925a24.802 24.802 0 0 0-.4-2.775 41.385 41.385 0 0 0-.725-2.925c-.27-1.01-.57-1.993-.9-2.95a43.993 43.993 0 0 0-.7-1.9c-1.333-3.225-3.058-6.108-5.176-8.65a31.77 31.77 0 0 0-3.875-3.925c.232-4.013-1.41-7.896-4.924-11.65l-.625 2.575c-2.099-1.375-3.915-2.133-5.45-2.275.647.688 1.263 1.529 1.85 2.525-3.417-1.672-6.834-2.365-10.25-2.075 2.117-6.22.476-11.428-4.925-15.625a7.413 7.413 0 0 0-1.426-.875c.156-1.617.24-3.192.25-4.725-.02-7.166-1.679-13.507-4.974-19.025.03-3.621.02-7.195-.026-10.725-.036-3.549-.828-7.149-2.375-10.8.105-1.83-.053-3.022-.474-3.575-.112-.286-.328-.519-.65-.7-.796-.444-1.697-.586-2.7-.425a5.079 5.079 0 0 0-.7.15 3.192 3.192 0 0 0-1.3.75c-.467.443-.883 1.043-1.25 1.8-.057-.444-.099-.702-.125-.775-.645-1.235-1.56-1.601-2.75-1.1-1.24.5-1.974 1.225-2.2 2.175a9.201 9.201 0 0 0-.775-1.175 2.488 2.488 0 0 0-1.775-.925c-.663-.056-1.146.161-1.45.65-.303.472-.428 1.214-.375 2.225-.44-.64-.807-1.123-1.1-1.45a4.167 4.167 0 0 0-.975-.9c-.613-.378-1.297-.536-2.05-.475-1.129.1-1.954.567-2.475 1.4-.586-.845-1.494-1.245-2.725-1.2a27.683 27.683 0 0 0-1.4.025c-1.54.047-2.148.805-1.825 2.275a5.199 5.199 0 0 0-.525-.325c-.634-.329-1.326-.42-2.075-.275-.755.161-1.28.32-1.575.475-.07.04-.137.082-.2.125-.887.589-.87 1.389.05 2.4.398.422.873.705 1.425.85-2.684 8.997-2.659 17.031.075 24.1-2.85 4.073-4.184 8.74-4 14 .191 5.273 1.133 10.306 2.825 15.1-10.815-4.691-20.215.259-28.2 14.85M192 176.4c4.415-1.913 6.031-1.138 4.85 2.325 3.875-2.678 6.592-3.911 8.15-3.7.353.052.644.185.875.4.177.15.32.35.425.6.105.236.156.486.15.75-.137 1.947-3.36 4.697-9.675 8.25 2.066-1.047 4.808-1.69 8.225-1.925 3.408-.258 4.8.7 4.175 2.875a3.133 3.133 0 0 1-.25.6 4.799 4.799 0 0 1-.775.95c-1.805 1.828-5.839 3.878-12.1 6.15-8.133 2.936-17.9 2.286-29.3-1.95a37.588 37.588 0 0 1-5.45-2.475 27.515 27.515 0 0 1-4.05-2.875c-3.533-2.906-6.084-6.531-7.65-10.875a22.5 22.5 0 0 1-.375-1.175c-.642-2.029-1.075-4.204-1.3-6.525-2.794-.303-5.36-2.395-7.7-6.275-.358-.59-.717-1.34-1.075-2.25l1.225.5c.71.52 1.776 1.037 3.2 1.55-1.252-1.949-2.036-4.223-2.35-6.825.204.538.887 1.221 2.05 2.05.246-2.364 1.105-4.872 2.575-7.525.004-.039.045-.164.125-.375.09-.169.281-.436.575-.8.923-1.517 2.04-3.084 3.35-4.7l.5-.55c.462-.525.945-1.058 1.45-1.6.447-.526.914-1.059 1.4-1.6" fill="none" stroke="#320a04" stroke-width=".6" stroke-linecap="round" stroke-linejoin="round" stroke-miterlimit="3"/><path d="M166.95 128.925c-.408-1.92-.04-3.104 1.1-3.55.518-.033.967-.067 1.35-.1.374-.04.657-.032.85.025" fill="none" stroke="#be6f21" stroke-width=".6" stroke-linecap="round" stroke-linejoin="round" stroke-miterlimit="3"/></g></svg>