<?xml version="1.0" encoding="UTF-8" standalone="no"?>
<svg
   xmlns:dc="http://purl.org/dc/elements/1.1/"
   xmlns:cc="http://creativecommons.org/ns#"
   xmlns:rdf="http://www.w3.org/1999/02/22-rdf-syntax-ns#"
   xmlns:svg="http://www.w3.org/2000/svg"
   xmlns="http://www.w3.org/2000/svg"
   height="300"
   width="300"
   xml:space="preserve"
   id="svg2"
   version="1.1"><metadata
     id="metadata8"><rdf:RDF><cc:Work
         rdf:about=""><dc:format>image/svg+xml</dc:format><dc:type
           rdf:resource="http://purl.org/dc/dcmitype/StillImage" /></cc:Work></rdf:RDF></metadata><defs
     id="defs6"><clipPath
       id="clipPath18"
       clipPathUnits="userSpaceOnUse"><path
         id="path16"
         d="M 0,250 H 320 V 0 H 0 Z" /></clipPath><clipPath
       id="clipPath70"
       clipPathUnits="userSpaceOnUse"><path
         id="path68"
         d="M 0,250 H 320 V 0 H 0 Z" /></clipPath></defs><g
     transform="matrix(1,0,0,-1,0,333)"
     id="g10"><g
       id="g12"><g
         clip-path="url(#clipPath18)"
         id="g14"><g
           transform="translate(182.125,47.8252)"
           id="g20"><path
             id="path22"
             style="fill:#ea9e44;fill-opacity:1;fill-rule:evenodd;stroke:none"
             d="M 0,0 C 1.008,-1.258 1.666,-2.499 1.975,-3.726 1.666,-2.499 1.008,-1.258 0,0 m -19.075,-2.525 c -0.381,-3.021 -0.448,-5.471 -0.2,-7.35 -0.248,1.879 -0.181,4.329 0.2,7.35 m 9.5,-11.125 c 0.383,0.234 0.699,0.517 0.95,0.85 0.77,0.958 0.979,2.308 0.625,4.05 -0.298,1.527 -1.022,3.352 -2.175,5.475 1.153,-2.123 1.877,-3.948 2.175,-5.475 0.354,-1.742 0.145,-3.092 -0.625,-4.05 -0.251,-0.333 -0.567,-0.616 -0.95,-0.85 m 8.825,2.375 c 0.067,0.352 0.117,0.744 0.15,1.174 0.073,0.785 -0.069,1.626 -0.425,2.526 -0.657,1.695 -2.039,3.596 -4.15,5.7 2.111,-2.104 3.493,-4.005 4.15,-5.7 0.356,-0.9 0.498,-1.741 0.425,-2.526 -0.033,-0.43 -0.083,-0.822 -0.15,-1.174 M 7.4,5.05 C 7.119,2.781 6.21,1.057 4.675,-0.125 3.138,-1.31 2.238,-2.51 1.975,-3.726 c 0.178,-0.68 0.245,-1.355 0.2,-2.024 0.045,0.669 -0.022,1.344 -0.2,2.024 0.263,1.216 1.163,2.416 2.7,3.601 C 6.21,1.057 7.119,2.781 7.4,5.05 M 14.9,1.149 C 14.349,0.789 13.674,0.765 12.875,1.075 10.082,2.17 8.707,5.211 8.75,10.2 8.707,5.211 10.082,2.17 12.875,1.075 13.674,0.765 14.349,0.789 14.9,1.149 m -62.8,99.426 c 5.24,2.72 10.298,3.187 15.175,1.4 -4.877,1.787 -9.935,1.32 -15.175,-1.4 M -25.15,70.25 c -4.518,-1.239 -8.226,-3.264 -11.125,-6.075 -1.143,-1.086 -2.16,-2.294 -3.05,-3.625 L -40.2,60.375 c -0.196,3.698 0.454,6.266 1.95,7.7 1.489,1.437 3.48,2.645 5.975,3.625 2.481,0.988 4.856,0.504 7.125,-1.45 m -0.95,27.1 c -3.19,-5.746 -8.024,-8.77 -14.5,-9.075 -6.493,-0.309 -10.985,1.208 -13.475,4.55 2.49,-3.342 6.982,-4.859 13.475,-4.55 6.476,0.305 11.31,3.329 14.5,9.075 m -8.475,3.675 c -2.722,0.973 -5.731,0.973 -9.025,0 -1.521,-0.726 -0.037,-1.809 4.45,-3.25 3.579,1.494 5.104,2.577 4.575,3.25 m -4.575,-3.25 v -3.95 z m 11.125,-0.125 c 0.731,0.043 1.372,-0.057 1.925,-0.3 0.396,-0.162 0.746,-0.404 1.05,-0.725 -0.304,0.321 -0.654,0.563 -1.05,0.725 -0.553,0.243 -1.194,0.343 -1.925,0.3 m -3.2,7.925 c 2.155,0.038 4.364,-0.095 6.625,-0.4 1.015,-0.131 2.04,-0.298 3.075,-0.5 1.036,1.713 1.552,3.688 1.55,5.925 0,2.752 -0.784,5.102 -2.35,7.05 -1.524,1.949 -3.366,2.924 -5.525,2.925 -2.155,-0.001 -4.013,-0.976 -5.575,-2.925 -1.529,-1.948 -2.296,-4.298 -2.3,-7.05 0.002,-1.933 0.386,-3.667 1.15,-5.2 1.098,0.103 2.215,0.162 3.35,0.175 m -29.55,0 c 2.164,0.038 4.38,-0.095 6.65,-0.4 1.015,-0.131 2.04,-0.298 3.075,-0.5 1.035,1.713 1.552,3.688 1.55,5.925 0,2.752 -0.783,5.102 -2.35,7.05 -1.524,1.949 -3.366,2.924 -5.525,2.925 -2.155,-0.001 -4.013,-0.976 -5.575,-2.925 -1.529,-1.948 -2.296,-4.298 -2.3,-7.05 0.002,-1.933 0.386,-3.667 1.15,-5.2 1.09,0.103 2.199,0.162 3.325,0.175 m -28.85,15.375 c 1.75,0.983 3.384,1.592 4.9,1.825 1.997,0.303 3.797,-0.031 5.4,-1 -1.603,0.969 -3.403,1.303 -5.4,1 -1.516,-0.233 -3.15,-0.842 -4.9,-1.825 m 53.75,-76.75 c 4.531,1.394 9.589,4.91 15.175,10.55 1.369,-0.507 2.719,-0.766 4.05,-0.775 1.378,0.01 2.736,0.286 4.075,0.825 0.322,-0.666 0.623,-1.317 0.9,-1.95 0.3,-0.677 0.575,-1.335 0.825,-1.975 0.449,-1.155 0.824,-2.247 1.125,-3.275 0.235,-0.825 0.418,-1.608 0.55,-2.35 0.47,-2.394 0.429,-4.359 -0.125,-5.9 -1.168,-3.248 -4.868,-5.557 -11.1,-6.925 -5.711,-1.263 -10.519,1.929 -14.425,9.575 -0.359,0.693 -0.709,1.427 -1.05,2.2 m -42.85,62.375 c -2.229,-0.727 -4.254,-1.194 -6.075,-1.4 -3.073,-0.341 -5.565,0.059 -7.475,1.2 -2.169,1.302 -3.585,3.561 -4.25,6.775 -1.603,7.728 0.114,12.97 5.15,15.725 5.036,2.737 9.636,2.02 13.8,-2.15 -0.749,-1.651 -1.333,-3.301 -1.75,-4.95 -1.206,-4.652 -1.131,-9.311 0.225,-13.975 0.111,-0.404 0.236,-0.812 0.375,-1.225 M -22.5,5.5 c 0.588,-0.303 1.388,-0.119 2.4,0.55 4.067,-3.234 7.542,-3.567 10.425,-1 2.033,-1.534 3.583,-1.684 4.65,-0.45 0.687,-0.49 1.32,-0.973 1.9,-1.451 C -2.647,2.753 -2.206,2.361 -1.8,1.975 -1.106,1.309 -0.507,0.65 0,0 1.979,0.812 3.222,2.429 3.725,4.85 3.222,2.429 1.979,0.812 0,0 c -0.507,0.65 -1.106,1.309 -1.8,1.975 0.388,0.42 0.738,0.853 1.05,1.299 0.792,1.157 1.342,2.423 1.65,3.801 0.267,1.179 0.359,2.437 0.275,3.775 0.558,0.449 0.967,1.157 1.225,2.125 0.134,0.59 0.218,1.273 0.25,2.049 2.945,0.36 3.603,2.301 1.975,5.826 0.916,0.008 1.657,0.191 2.225,0.549 0.931,0.59 1.415,1.64 1.45,3.151 0.542,-0.274 1.058,-0.573 1.55,-0.901 0.754,-0.486 1.445,-1.028 2.075,-1.625 0.216,-0.211 0.424,-0.428 0.625,-0.649 2.504,-2.739 3.862,-6.522 4.075,-11.351 C 16.835,4.986 16.261,2.028 14.9,1.149 11.479,-8.012 7.237,-10.312 2.175,-5.75 2.064,-7.642 1.089,-9.483 -0.75,-11.275 c -0.31,-1.518 -0.951,-2.385 -1.925,-2.6 -1.919,-0.423 -4.219,-0.348 -6.9,0.225 -0.168,-0.108 -0.352,-0.207 -0.55,-0.3 -3.085,-1.393 -5.535,-1.36 -7.35,0.099 -0.924,0.738 -1.524,2.063 -1.8,3.976 -1.441,-0.908 -2.682,-1.242 -3.725,-1 -1.053,0.255 -1.712,0.521 -1.975,0.8 -1.858,1.946 -1.85,5.363 0.025,10.25 0.609,1.61 1.425,3.386 2.45,5.325 m -7.475,74.3 c -0.857,-0.209 -1.756,-0.401 -2.7,-0.575 -1.558,-0.282 -3.224,-0.516 -5,-0.7 -3.667,-0.378 -7.017,-0.452 -10.05,-0.225 -2.162,0.181 -4.162,0.514 -6,1 -1.217,0.306 -2.359,0.681 -3.425,1.125 -1.653,0.689 -3.137,1.539 -4.45,2.55 -0.372,0.289 -0.722,0.588 -1.05,0.9 -3.431,3.095 -4.806,7.062 -4.125,11.9 0.14,0.956 0.357,1.948 0.65,2.975 0.129,0.45 0.271,0.909 0.425,1.375 -0.679,0.544 -1.304,1.127 -1.875,1.75 -1.898,2.084 -3.156,4.609 -3.775,7.575 -0.804,3.687 -0.337,7.161 1.4,10.425 1.821,3.348 4.446,5.765 7.875,7.25 3.813,1.652 7.604,1.61 11.375,-0.125 2.96,-1.319 5.794,-3.019 8.5,-5.1 0.193,0.152 0.384,0.302 0.575,0.45 9.267,7.093 17.167,8.31 23.7,3.65 1.461,-1.043 2.611,-2.26 3.45,-3.65 2.954,-4.943 1.929,-12.076 -3.075,-21.4 1.086,-2.768 1.636,-5.284 1.65,-7.55 0.02,-2.643 -0.68,-4.942 -2.1,-6.9 -2.233,-3.062 -6.225,-5.296 -11.975,-6.7 m 20.025,51.15 c 3.788,4.812 7.963,5.437 12.525,1.875 4.238,-3.294 5.779,-7.853 4.625,-13.675 -0.027,-0.116 -0.052,-0.233 -0.075,-0.35 -0.19,-0.845 -0.44,-1.628 -0.75,-2.35 -1.003,-2.334 -2.645,-4.059 -4.925,-5.175 -1.732,-0.861 -3.832,-1.369 -6.3,-1.525 0.229,3.475 -0.088,7 -0.95,10.575 -0.166,0.673 -0.349,1.348 -0.55,2.025 -0.299,1.021 -0.641,2.046 -1.025,3.075 1.386,2.457 3.286,3.624 5.7,3.5 0.962,-0.037 2.004,-0.279 3.125,-0.725 -1.121,0.446 -2.163,0.688 -3.125,0.725 -2.414,0.124 -4.314,-1.043 -5.7,-3.5 -0.364,0.969 -0.772,1.944 -1.225,2.925 -0.409,0.906 -0.858,1.773 -1.35,2.6" /></g><g
           transform="translate(161.5996,128.0752)"
           id="g24"><path
             id="path26"
             style="fill:#881c0d;fill-opacity:1;fill-rule:evenodd;stroke:none"
             d="m 0,0 c -1.098,-0.202 -2.273,-0.376 -3.524,-0.525 -1.648,-0.178 -3.432,-0.311 -5.351,-0.4 -1.048,-0.045 -2.139,-0.078 -3.274,-0.1 0.943,0.174 1.843,0.366 2.699,0.575 3.433,-0.194 6.525,0.081 9.275,0.825 z" /></g><g
           transform="translate(156.9751,118.0752)"
           id="g28"><path
             id="path30"
             style="fill:#aa290f;fill-opacity:1;fill-rule:evenodd;stroke:none"
             d="M 0,0 C 0.347,0.091 0.696,0.183 1.05,0.274 2.196,0.542 3.387,0.768 4.625,0.95 3.387,0.768 2.196,0.542 1.05,0.274 0.696,0.183 0.347,0.091 0,0 m -22.325,-4.101 c 0.815,-2.266 1.806,-4.533 2.975,-6.799 -1.169,2.266 -2.16,4.533 -2.975,6.799 M 4.45,-15.5 c -0.489,0.187 -0.981,0.404 -1.475,0.649 -1.071,0.539 -2.162,1.039 -3.275,1.5 -0.943,0.405 -1.901,0.78 -2.875,1.125 -1.089,0.37 -2.197,0.703 -3.325,1 -0.51,0.138 -1.027,0.263 -1.55,0.375 -1.984,0.494 -4.026,0.877 -6.125,1.151 0.89,1.331 1.907,2.539 3.05,3.625 C -8.227,-3.264 -4.519,-1.239 0,0 -2.27,1.954 -4.645,2.438 -7.125,1.45 -9.62,0.47 -11.611,-0.738 -13.1,-2.175 c -1.496,-1.434 -2.146,-4.002 -1.95,-7.7 l -0.8,-0.2 -3.5,-0.825 -2.9,-0.701 2.9,0.701 3.5,0.825 1.675,0.375 c 2.099,-0.274 4.141,-0.657 6.125,-1.151 0.523,-0.112 1.04,-0.237 1.55,-0.375 1.128,-0.297 2.236,-0.63 3.325,-1 0.974,-0.345 1.932,-0.72 2.875,-1.125 1.113,-0.461 2.204,-0.961 3.275,-1.5 0.494,-0.245 0.986,-0.462 1.475,-0.649 M -30.625,9.45 c 0.669,-0.138 1.353,-0.271 2.05,-0.4 -0.697,0.129 -1.381,0.262 -2.05,0.4 m 12.3,55.05 c 4.935,1.083 5.826,2.734 2.675,4.95 4.954,0.092 8.029,0.7 9.225,1.825 0.27,0.268 0.437,0.568 0.5,0.9 0.061,0.229 0.061,0.479 0,0.75 -0.06,0.272 -0.177,0.522 -0.35,0.75 0.173,-0.228 0.29,-0.478 0.35,-0.75 0.061,-0.271 0.061,-0.521 0,-0.75 -0.063,-0.332 -0.23,-0.632 -0.5,-0.9 -1.196,-1.125 -4.271,-1.733 -9.225,-1.825 3.151,-2.216 2.26,-3.867 -2.675,-4.95 M 16.75,-38.601 c -1.434,-2.081 -3.576,-3.197 -6.425,-3.349 0.134,-0.012 0.268,-0.029 0.4,-0.05 3.542,-0.149 6.858,-0.399 9.95,-0.75 1.439,-0.161 2.831,-0.344 4.175,-0.55 -1.344,0.206 -2.736,0.389 -4.175,0.55 -3.092,0.351 -6.408,0.601 -9.95,0.75 -0.132,0.021 -0.266,0.038 -0.4,0.05 2.849,0.152 4.991,1.268 6.425,3.349 m -4.175,23.151 c -1.339,-0.539 -2.698,-0.815 -4.075,-0.825 -1.332,0.009 -2.681,0.268 -4.05,0.775 -5.586,-5.64 -10.644,-9.156 -15.175,-10.55 -2.018,-0.617 -3.935,-0.808 -5.75,-0.575 -0.428,0.047 -0.853,0.122 -1.275,0.225 -0.946,0.234 -1.847,0.501 -2.7,0.799 0.853,-0.298 1.754,-0.565 2.7,-0.799 0.422,-0.103 0.847,-0.178 1.275,-0.225 1.815,-0.233 3.732,-0.042 5.75,0.575 0.341,-0.773 0.691,-1.507 1.05,-2.2 3.906,-7.646 8.714,-10.838 14.425,-9.575 6.232,1.368 9.932,3.677 11.1,6.925 0.554,1.541 0.595,3.506 0.125,5.9 -0.132,0.742 -0.315,1.525 -0.55,2.35 -0.301,1.028 -0.676,2.12 -1.125,3.275 -0.25,0.64 -0.525,1.298 -0.825,1.975 -0.277,0.633 -0.578,1.284 -0.9,1.95 m 3.7,2.175 c -0.835,-0.651 -1.677,-1.193 -2.525,-1.625 -0.39,-0.208 -0.782,-0.391 -1.175,-0.55 0.393,0.159 0.785,0.342 1.175,0.55 0.848,0.432 1.69,0.974 2.525,1.625 M -0.85,6.175 C 1.521,4.434 3.346,2.691 4.625,0.95 5.523,1.087 6.473,1.203 7.475,1.3 7.753,1.223 8.02,1.115 8.275,0.975 8.02,1.115 7.753,1.223 7.475,1.3 6.473,1.203 5.523,1.087 4.625,0.95 3.346,2.691 1.521,4.434 -0.85,6.175 m 38.55,-55.05 c -0.201,0.221 -0.409,0.437 -0.625,0.649 -0.63,0.597 -1.322,1.139 -2.075,1.625 1.033,2.911 1.5,7.37 1.4,13.375 -0.093,5.988 -1.435,16.171 -4.025,30.551 -2.556,14.145 -1.231,23.437 3.975,27.875 0.096,0.076 0.188,0.151 0.275,0.225 0.211,0.168 0.419,0.335 0.625,0.5 5.189,3.929 9.823,4.962 13.9,3.1 4.242,-1.936 6.959,-4.402 8.15,-7.4 0.719,-1.836 0.811,-3.394 0.275,-4.675 C 59.242,16.138 58.65,15.438 57.8,14.85 57.647,14.748 57.489,14.657 57.325,14.575 55.162,13.425 52.053,13.917 48,16.05 c -2.106,1.111 -3.989,1.211 -5.65,0.3 -1.812,-0.991 -3.17,-3.282 -4.075,-6.875 -0.892,-3.583 -0.158,-12.692 2.2,-27.326 2.346,-14.634 1.42,-24.976 -2.775,-31.024 M 15.2,60.7 c 0.492,-0.827 0.941,-1.694 1.35,-2.6 0.452,-0.981 0.861,-1.956 1.225,-2.925 C 18.159,54.146 18.5,53.121 18.8,52.1 19,51.423 19.184,50.748 19.35,50.075 20.211,46.5 20.529,42.975 20.3,39.5 20.176,37.57 19.885,35.654 19.425,33.75 22.093,30.478 23.084,26.161 22.4,20.8 l -2.1,1.775 c 0.443,-2.658 -0.932,-5.391 -4.125,-8.2 v 2.15 C 15.027,13.358 11.176,11.183 4.625,10 L 4.45,10.375 C 1.7,9.631 -1.392,9.356 -4.825,9.55 c 5.75,1.404 9.742,3.638 11.975,6.7 1.42,1.958 2.12,4.257 2.1,6.9 -0.014,2.266 -0.564,4.782 -1.65,7.55 5.004,9.324 6.029,16.457 3.075,21.4 -0.84,1.39 -1.989,2.607 -3.45,3.65 -6.533,4.66 -14.433,3.443 -23.7,-3.65 -0.191,-0.148 -0.382,-0.298 -0.575,-0.45 -2.706,2.081 -5.54,3.781 -8.5,5.1 -3.771,1.735 -7.562,1.777 -11.375,0.125 -3.429,-1.485 -6.054,-3.902 -7.875,-7.25 -1.737,-3.264 -2.204,-6.738 -1.4,-10.425 0.618,-2.966 1.877,-5.491 3.775,-7.575 0.571,-0.623 1.196,-1.206 1.875,-1.75 -0.154,-0.466 -0.296,-0.925 -0.425,-1.375 -0.294,-1.027 -0.51,-2.019 -0.65,-2.975 -0.681,-4.838 0.694,-8.805 4.125,-11.9 0.328,-0.312 0.678,-0.611 1.05,-0.9 1.313,-1.011 2.797,-1.861 4.45,-2.55 1.066,-0.444 2.208,-0.819 3.425,-1.125 1.838,-0.486 3.838,-0.819 6,-1 3.033,-0.227 6.383,-0.153 10.05,0.225 1.775,0.184 3.442,0.418 5,0.7 1.135,0.022 2.227,0.055 3.275,0.1 1.919,0.089 3.703,0.222 5.35,0.4 1.252,0.149 2.427,0.323 3.525,0.525 4.631,-3.267 8.214,-6.25 10.75,-8.95 0.033,-0.034 0.066,-0.068 0.1,-0.1 4.927,-5.31 5.794,-9.527 2.6,-12.65 -0.595,-0.581 -1.196,-1.106 -1.8,-1.575 4.105,-10.109 6.964,-20.118 8.575,-30.025 2.895,-0.453 5.761,-1.045 8.6,-1.775 0.01,-0.217 0.01,-0.425 0,-0.625 -0.035,-1.511 -0.519,-2.561 -1.45,-3.151 -0.568,-0.358 -1.309,-0.541 -2.225,-0.549 1.628,-3.525 0.97,-5.466 -1.975,-5.826 -0.032,-0.776 -0.116,-1.459 -0.25,-2.049 -0.258,-0.968 -0.667,-1.676 -1.225,-2.125 -1.008,-0.818 -2.526,-0.785 -4.55,0.1 -0.316,0.128 -0.641,0.279 -0.975,0.449 -7.486,-2.003 -13.962,-2.462 -19.425,-1.375 5.463,-1.087 11.939,-0.628 19.425,1.375 0.334,-0.17 0.659,-0.321 0.975,-0.449 -0.187,-3.157 -0.736,-5.274 -1.65,-6.35 -1.067,-1.234 -2.617,-1.084 -4.65,0.45 -2.883,-2.567 -6.358,-2.234 -10.425,1 -1.012,-0.669 -1.812,-0.853 -2.4,-0.55 -0.901,0.418 -1.326,1.926 -1.275,4.524 -13.121,2.622 -20.396,14.164 -21.825,34.625 -4.664,1.625 -8.113,4.642 -10.35,9.051 -0.384,0.75 -0.7,1.625 -0.95,2.625 -0.011,0.032 -0.019,0.066 -0.025,0.1 v 0.075 c -0.082,0.342 -0.157,0.7 -0.225,1.075 l -0.425,5.6 c -0.006,4.387 0.593,9.895 1.8,16.525 -0.804,0.176 -1.587,0.36 -2.35,0.55 -0.256,0.057 -0.515,0.116 -0.775,0.175 -2.104,0.548 -4.012,1.173 -5.725,1.875 -0.479,-0.079 -0.896,0.105 -1.25,0.55 -0.025,0.009 -0.05,0.017 -0.075,0.025 -2.894,1.371 -5.177,2.996 -6.85,4.875 -0.477,-1.437 -0.635,-2.454 -0.475,-3.05 -1.334,2.422 -2.067,4.856 -2.2,7.3 -0.898,-1.318 -1.489,-2.418 -1.775,-3.3 l -0.775,-1.15 c -0.24,0.994 -0.382,1.853 -0.425,2.575 -0.413,4.734 0.47,8.084 2.65,10.05 -1.243,2.129 -2.218,4.263 -2.925,6.4 -0.139,0.413 -0.264,0.821 -0.375,1.225 -1.356,4.664 -1.431,9.323 -0.225,13.975 0.417,1.649 1.001,3.299 1.75,4.95 0.832,1.824 1.858,3.649 3.075,5.475 7.115,10.64 15.048,17.215 23.8,19.725 6.737,1.934 11.437,2.684 14.1,2.25 0.499,-0.079 0.924,-0.196 1.275,-0.35 0.22,-0.106 0.412,-0.223 0.575,-0.35 1.87,-1.477 1.269,-3.161 -1.8,-5.05 -3.051,-1.896 -5.775,-3.03 -8.175,-3.4 7.562,0.853 11.996,0.487 13.3,-1.1 C 3.895,71.898 11.053,67.574 15.2,60.7" /></g><g
           transform="translate(142.7998,108.375)"
           id="g32"><path
             id="path34"
             style="fill:#da2d14;fill-opacity:1;fill-rule:evenodd;stroke:none"
             d="m 0,0 -1.675,-0.375 0.8,0.2 z" /></g><g
           transform="translate(151.1001,159.8999)"
           id="g36"><path
             id="path38"
             style="fill:#ffffff;fill-opacity:1;fill-rule:evenodd;stroke:none"
             d="M 0,0 C 0.386,0.374 0.836,0.557 1.35,0.55 1.855,0.557 2.297,0.374 2.675,0 3.057,-0.386 3.249,-0.836 3.25,-1.35 3.249,-1.855 3.057,-2.297 2.675,-2.675 2.297,-3.057 1.855,-3.249 1.35,-3.25 0.836,-3.249 0.386,-3.057 0,-2.675 -0.374,-2.297 -0.558,-1.855 -0.55,-1.35 -0.558,-0.836 -0.374,-0.386 0,0 m 6.425,-6.9 c 0.085,0.089 0.169,0.181 0.25,0.275 0.978,1.059 1.47,2.351 1.475,3.875 C 8.145,-1.222 7.653,0.095 6.675,1.2 5.749,2.254 4.632,2.779 3.325,2.775 2.005,2.779 0.855,2.254 -0.125,1.2 c -0.933,-1.105 -1.399,-2.422 -1.4,-3.95 0.007,-1.465 0.449,-2.715 1.325,-3.75 -1.135,-0.013 -2.252,-0.071 -3.35,-0.175 -0.764,1.533 -1.148,3.267 -1.15,5.2 0.004,2.752 0.771,5.102 2.3,7.05 C -0.838,7.524 1.02,8.499 3.175,8.5 5.334,8.499 7.176,7.524 8.7,5.575 10.266,3.627 11.05,1.277 11.05,-1.475 11.052,-3.712 10.536,-5.687 9.5,-7.4 8.465,-7.197 7.439,-7.03 6.425,-6.9 M -26.85,0 c 0.382,-0.386 0.574,-0.836 0.575,-1.35 -0.001,-0.505 -0.193,-0.947 -0.575,-1.325 -0.387,-0.382 -0.837,-0.574 -1.35,-0.575 -0.505,10e-4 -0.947,0.193 -1.325,0.575 -0.382,0.378 -0.574,0.82 -0.575,1.325 0.001,0.514 0.193,0.964 0.575,1.35 0.378,0.374 0.82,0.557 1.325,0.55 0.513,0.007 0.963,-0.176 1.35,-0.55 m 3.75,-6.9 c 0.085,0.089 0.168,0.181 0.25,0.275 0.97,1.059 1.454,2.351 1.45,3.875 0.004,1.528 -0.48,2.845 -1.45,3.95 -0.935,1.054 -2.06,1.579 -3.375,1.575 -1.311,0.004 -2.453,-0.521 -3.425,-1.575 -0.933,-1.105 -1.399,-2.422 -1.4,-3.95 -10e-4,-1.465 0.432,-2.715 1.3,-3.75 -1.126,-0.013 -2.235,-0.071 -3.325,-0.175 -0.764,1.533 -1.148,3.267 -1.15,5.2 0.004,2.752 0.771,5.102 2.3,7.05 1.562,1.949 3.42,2.924 5.575,2.925 2.159,-10e-4 4.001,-0.976 5.525,-2.925 1.567,-1.948 2.35,-4.298 2.35,-7.05 0.002,-2.237 -0.515,-4.212 -1.55,-5.925 -1.036,0.203 -2.06,0.37 -3.075,0.5" /></g><g
           transform="translate(151.1001,159.8999)"
           id="g40"><path
             id="path42"
             style="fill:#000000;fill-opacity:1;fill-rule:evenodd;stroke:none"
             d="M 0,0 C -0.374,-0.386 -0.558,-0.836 -0.55,-1.35 -0.558,-1.855 -0.374,-2.297 0,-2.675 0.386,-3.057 0.836,-3.249 1.35,-3.25 c 0.505,10e-4 0.947,0.193 1.325,0.575 0.382,0.378 0.574,0.82 0.575,1.325 C 3.249,-0.836 3.057,-0.386 2.675,0 2.297,0.374 1.855,0.557 1.35,0.55 0.836,0.557 0.386,0.374 0,0 m -0.2,-6.5 c -0.876,1.035 -1.318,2.285 -1.325,3.75 10e-4,1.528 0.467,2.845 1.4,3.95 0.98,1.054 2.13,1.579 3.45,1.575 C 4.632,2.779 5.749,2.254 6.675,1.2 7.653,0.095 8.145,-1.222 8.15,-2.75 8.145,-4.274 7.653,-5.566 6.675,-6.625 6.594,-6.719 6.51,-6.811 6.425,-6.9 4.164,-6.595 1.955,-6.461 -0.2,-6.5 M -26.85,0 c -0.387,0.374 -0.837,0.557 -1.35,0.55 -0.505,0.007 -0.947,-0.176 -1.325,-0.55 -0.382,-0.386 -0.574,-0.836 -0.575,-1.35 0.001,-0.505 0.193,-0.947 0.575,-1.325 0.378,-0.382 0.82,-0.574 1.325,-0.575 0.513,10e-4 0.963,0.193 1.35,0.575 0.382,0.378 0.574,0.82 0.575,1.325 -0.001,0.514 -0.193,0.964 -0.575,1.35 m 3.75,-6.9 c -2.27,0.305 -4.486,0.439 -6.65,0.4 -0.868,1.035 -1.301,2.285 -1.3,3.75 0.001,1.528 0.467,2.845 1.4,3.95 0.972,1.054 2.114,1.579 3.425,1.575 1.315,0.004 2.44,-0.521 3.375,-1.575 0.97,-1.105 1.454,-2.422 1.45,-3.95 0.004,-1.524 -0.48,-2.816 -1.45,-3.875 -0.082,-0.094 -0.165,-0.186 -0.25,-0.275" /></g><g
           transform="translate(147.5498,148.8501)"
           id="g44"><path
             id="path46"
             style="fill:#b45a25;fill-opacity:1;fill-rule:evenodd;stroke:none"
             d="M 0,0 C 0.529,-0.673 -0.996,-1.756 -4.575,-3.25 -9.062,-1.809 -10.545,-0.726 -9.025,0 -5.73,0.973 -2.722,0.973 0,0" /></g><g
           transform="translate(182.125,47.8252)"
           id="g48"><path
             id="path50"
             style="fill:none;stroke:#be6f21;stroke-width:0.60000002;stroke-linecap:round;stroke-linejoin:round;stroke-miterlimit:3;stroke-dasharray:none;stroke-opacity:1"
             d="m 0,0 c 1.008,-1.258 1.666,-2.499 1.975,-3.726 m -21.05,1.201 c -0.381,-3.021 -0.448,-5.471 -0.2,-7.35 m 9.7,-3.775 c 0.383,0.234 0.699,0.517 0.95,0.85 0.77,0.958 0.979,2.308 0.625,4.05 -0.298,1.527 -1.022,3.352 -2.175,5.475 m 9.425,-8 c 0.067,0.352 0.117,0.744 0.15,1.174 0.073,0.785 -0.069,1.626 -0.425,2.526 -0.657,1.695 -2.039,3.596 -4.15,5.7 m 0.15,6.475 c 0.687,-0.49 1.32,-0.973 1.9,-1.451 C -2.647,2.753 -2.206,2.361 -1.8,1.975 M 7.4,5.05 C 7.119,2.781 6.21,1.057 4.675,-0.125 3.138,-1.31 2.238,-2.51 1.975,-3.726 2.153,-4.406 2.22,-5.081 2.175,-5.75 M 14.9,1.149 C 14.349,0.789 13.674,0.765 12.875,1.075 10.082,2.17 8.707,5.211 8.75,10.2 m -56.65,90.375 c 5.24,2.72 10.298,3.187 15.175,1.4 m -7.475,-41.6 c -0.196,3.698 0.454,6.266 1.95,7.7 1.489,1.437 3.48,2.645 5.975,3.625 2.481,0.988 4.856,0.504 7.125,-1.45 m -0.95,27.1 c -3.19,-5.746 -8.024,-8.77 -14.5,-9.075 -6.493,-0.309 -10.985,1.208 -13.475,4.55 m 0.35,-13.525 c 1.838,-0.486 3.838,-0.819 6,-1 3.033,-0.227 6.383,-0.153 10.05,0.225 1.776,0.184 3.442,0.418 5,0.7 0.944,0.174 1.843,0.366 2.7,0.575 m -9.175,17.975 v -3.95 m 11.125,3.825 c 0.731,0.043 1.372,-0.057 1.925,-0.3 0.396,-0.162 0.746,-0.404 1.05,-0.725 m -29.075,8.55 c -2.27,0.305 -4.486,0.438 -6.65,0.4 m 29.55,0 c -1.135,-0.013 -2.252,-0.072 -3.35,-0.175 -0.764,1.533 -1.148,3.267 -1.15,5.2 0.004,2.752 0.771,5.102 2.3,7.05 1.562,1.949 3.42,2.924 5.575,2.925 2.159,-0.001 4.001,-0.976 5.525,-2.925 1.566,-1.948 2.35,-4.298 2.35,-7.05 0.002,-2.237 -0.514,-4.212 -1.55,-5.925 -1.035,0.202 -2.06,0.369 -3.075,0.5 -2.261,0.305 -4.47,0.438 -6.625,0.4 z m -22.9,-0.4 c 1.015,-0.131 2.04,-0.298 3.075,-0.5 1.035,1.713 1.552,3.688 1.55,5.925 0,2.752 -0.783,5.102 -2.35,7.05 -1.524,1.949 -3.366,2.924 -5.525,2.925 -2.155,-0.001 -4.013,-0.976 -5.575,-2.925 -1.529,-1.948 -2.296,-4.298 -2.3,-7.05 0.002,-1.933 0.386,-3.667 1.15,-5.2 1.09,0.103 2.199,0.162 3.325,0.175 m -28.85,15.375 c 1.75,0.983 3.384,1.592 4.9,1.825 1.997,0.303 3.797,-0.031 5.4,-1 M 1.175,10.85 C 1.259,9.512 1.167,8.254 0.9,7.075 0.592,5.697 0.042,4.431 -0.75,3.274 -1.062,2.828 -1.412,2.395 -1.8,1.975 -1.106,1.309 -0.507,0.65 0,0 1.979,0.812 3.222,2.429 3.725,4.85 m -12.9,40.4 c 0.47,-2.394 0.429,-4.359 -0.125,-5.9 -1.168,-3.248 -4.868,-5.557 -11.1,-6.925 -5.711,-1.263 -10.519,1.929 -14.425,9.575 -0.359,0.693 -0.709,1.427 -1.05,2.2 m 23.3,10.6 c 0.322,-0.666 0.623,-1.317 0.9,-1.95 0.3,-0.677 0.575,-1.335 0.825,-1.975 0.449,-1.155 0.824,-2.247 1.125,-3.275 M 8.3,24.55 c 0.542,-0.274 1.058,-0.573 1.55,-0.901 0.754,-0.486 1.445,-1.028 2.075,-1.625 0.216,-0.211 0.424,-0.428 0.625,-0.649 m -91.275,85.2 c -2.229,-0.727 -4.254,-1.194 -6.075,-1.4 -3.073,-0.341 -5.565,0.059 -7.475,1.2 -2.169,1.302 -3.585,3.561 -4.25,6.775 -1.603,7.728 0.114,12.97 5.15,15.725 5.036,2.737 9.636,2.02 13.8,-2.15 M 12.55,21.375 C 15.054,18.636 16.412,14.853 16.625,10.024 16.835,4.986 16.261,2.028 14.9,1.149 11.479,-8.012 7.237,-10.312 2.175,-5.75 2.064,-7.642 1.089,-9.483 -0.75,-11.275 c -0.31,-1.518 -0.951,-2.385 -1.925,-2.6 -1.919,-0.423 -4.219,-0.348 -6.9,0.225 -0.168,-0.108 -0.352,-0.207 -0.55,-0.3 -3.085,-1.393 -5.535,-1.36 -7.35,0.099 -0.924,0.738 -1.524,2.063 -1.8,3.976 -1.441,-0.908 -2.682,-1.242 -3.725,-1 -1.053,0.255 -1.712,0.521 -1.975,0.8 -1.858,1.946 -1.85,5.363 0.025,10.25 0.609,1.61 1.425,3.386 2.45,5.325 m 17.65,104.25 c 2.468,0.156 4.568,0.664 6.3,1.525 2.28,1.116 3.922,2.841 4.925,5.175 0.31,0.722 0.56,1.505 0.75,2.35 0.023,0.117 0.048,0.234 0.075,0.35 1.154,5.822 -0.387,10.381 -4.625,13.675 -4.562,3.562 -8.737,2.937 -12.525,-1.875 M -53.725,79.3 c -1.217,0.306 -2.359,0.681 -3.425,1.125 -1.653,0.689 -3.137,1.539 -4.45,2.55 -0.372,0.289 -0.722,0.588 -1.05,0.9 -3.431,3.095 -4.806,7.062 -4.125,11.9 0.14,0.956 0.357,1.948 0.65,2.975 0.129,0.45 0.271,0.909 0.425,1.375 -0.679,0.544 -1.304,1.127 -1.875,1.75 -1.898,2.084 -3.156,4.609 -3.775,7.575 -0.804,3.687 -0.337,7.161 1.4,10.425 1.821,3.348 4.446,5.765 7.875,7.25 3.813,1.652 7.604,1.61 11.375,-0.125 2.96,-1.319 5.794,-3.019 8.5,-5.1 0.193,0.152 0.384,0.302 0.575,0.45 9.267,7.093 17.167,8.31 23.7,3.65 1.461,-1.043 2.611,-2.26 3.45,-3.65 2.954,-4.943 1.929,-12.076 -3.075,-21.4 1.086,-2.768 1.636,-5.284 1.65,-7.55 0.02,-2.643 -0.68,-4.942 -2.1,-6.9 -2.233,-3.062 -6.225,-5.296 -11.975,-6.7 m 22.6,45.625 c 1.386,2.457 3.286,3.624 5.7,3.5 0.962,-0.037 2.004,-0.279 3.125,-0.725" /></g><g
           transform="translate(150.8999,153.3999)"
           id="g52"><path
             id="path54"
             style="fill:none;stroke:#000000;stroke-width:0.1;stroke-linecap:round;stroke-linejoin:round;stroke-miterlimit:3;stroke-dasharray:none;stroke-opacity:1"
             d="m 0,0 c -0.875,1.035 -1.317,2.285 -1.325,3.75 10e-4,1.528 0.468,2.845 1.4,3.95 0.981,1.054 2.131,1.579 3.45,1.575 C 4.832,9.279 5.949,8.754 6.875,7.7 7.854,6.595 8.345,5.278 8.35,3.75 8.345,2.226 7.854,0.934 6.875,-0.125 6.794,-0.219 6.71,-0.311 6.625,-0.4 M 0.2,6.5 C 0.586,6.874 1.037,7.057 1.55,7.05 2.055,7.057 2.497,6.874 2.875,6.5 3.257,6.114 3.449,5.664 3.45,5.15 3.449,4.645 3.257,4.203 2.875,3.825 2.497,3.443 2.055,3.251 1.55,3.25 1.037,3.251 0.586,3.443 0.2,3.825 -0.174,4.203 -0.357,4.645 -0.35,5.15 -0.357,5.664 -0.174,6.114 0.2,6.5 Z m -26.85,0 c 0.382,-0.386 0.574,-0.836 0.575,-1.35 C -26.076,4.645 -26.268,4.203 -26.65,3.825 -27.037,3.443 -27.486,3.251 -28,3.25 c -0.505,10e-4 -0.947,0.193 -1.325,0.575 -0.382,0.378 -0.574,0.82 -0.575,1.325 10e-4,0.514 0.193,0.964 0.575,1.35 0.378,0.374 0.82,0.557 1.325,0.55 0.514,0.007 0.963,-0.176 1.35,-0.55 z M -29.55,0 c -0.867,1.035 -1.301,2.285 -1.3,3.75 0.001,1.528 0.468,2.845 1.4,3.95 0.972,1.054 2.114,1.579 3.425,1.575 1.316,0.004 2.441,-0.521 3.375,-1.575 0.97,-1.105 1.454,-2.422 1.45,-3.95 0.004,-1.524 -0.48,-2.816 -1.45,-3.875 -0.081,-0.094 -0.165,-0.186 -0.25,-0.275" /></g><g
           transform="translate(147.5498,148.8501)"
           id="g56"><path
             id="path58"
             style="fill:none;stroke:#743a18;stroke-width:0.60000002;stroke-linecap:round;stroke-linejoin:round;stroke-miterlimit:3;stroke-dasharray:none;stroke-opacity:1"
             d="m 0,0 c -2.722,0.973 -5.73,0.973 -9.025,0 -1.52,-0.726 -0.037,-1.809 4.45,-3.25 C -0.996,-1.756 0.529,-0.673 0,0 Z" /></g><g
           transform="translate(177.0996,52.4248)"
           id="g60"><path
             id="path62"
             style="fill:none;stroke:#320a04;stroke-width:0.60000002;stroke-linecap:round;stroke-linejoin:round;stroke-miterlimit:3;stroke-dasharray:none;stroke-opacity:1"
             d="m 0,0 c -1.066,-1.233 -2.616,-1.084 -4.649,0.45 -2.883,-2.566 -6.359,-2.233 -10.425,1 -1.013,-0.669 -1.813,-0.852 -2.401,-0.55 m 1.8,49.25 c -0.488,0.188 -0.98,0.405 -1.474,0.65 -1.071,0.539 -2.163,1.039 -3.276,1.5 -0.942,0.404 -1.9,0.779 -2.875,1.125 -1.088,0.369 -2.197,0.702 -3.325,1 -0.509,0.138 -1.026,0.263 -1.55,0.375 -1.984,0.493 -4.025,0.877 -6.125,1.15 m -1.675,-0.375 1.675,0.375 c 0.891,1.331 1.907,2.539 3.05,3.625 2.899,2.812 6.607,4.836 11.125,6.075 m 0,0 c 0.347,0.091 0.697,0.183 1.05,0.275 1.146,0.267 2.338,0.493 3.575,0.676 M -42.45,61.55 c 0.815,-2.267 1.807,-4.533 2.975,-6.8 m 3.5,0.825 -3.5,-0.825 -2.9,-0.7 M -50.75,75.1 c 0.67,-0.138 1.354,-0.271 2.05,-0.4 m 21.051,-0.075 c 1.135,0.022 2.226,0.055 3.274,0.1 1.919,0.089 3.703,0.222 5.351,0.4 1.251,0.149 2.426,0.324 3.524,0.525 m -22.95,54.5 c 4.935,1.084 5.827,2.734 2.676,4.95 4.954,0.092 8.029,0.7 9.224,1.825 0.27,0.268 0.437,0.568 0.5,0.9 0.062,0.23 0.062,0.48 0,0.75 -0.06,0.273 -0.177,0.523 -0.349,0.75 M 1.65,6.351 C 3.675,5.466 5.192,5.433 6.2,6.25 m 0,0 c 0.559,0.449 0.967,1.157 1.226,2.125 0.134,0.591 0.218,1.273 0.25,2.05 2.944,0.359 3.602,2.301 1.974,5.825 0.916,0.009 1.658,0.191 2.225,0.55 0.932,0.59 1.415,1.639 1.45,3.15 M 0,0 C 0.914,1.076 1.464,3.193 1.65,6.351 1.335,6.479 1.01,6.629 0.676,6.8 -6.811,4.796 -13.286,4.338 -18.75,5.425 M -3.375,27.05 C -4.809,24.969 -6.95,23.853 -9.8,23.7 c 0.135,-0.012 0.269,-0.028 0.401,-0.05 3.542,-0.149 6.858,-0.399 9.95,-0.75 1.438,-0.161 2.831,-0.343 4.175,-0.549 M -3.85,52.375 c -0.835,-0.65 -1.676,-1.192 -2.525,-1.625 -0.39,-0.208 -0.781,-0.391 -1.175,-0.55 -1.339,-0.539 -2.697,-0.814 -4.075,-0.825 -1.331,0.01 -2.681,0.269 -4.05,0.775 -5.586,-5.639 -10.644,-9.156 -15.175,-10.549 -2.018,-0.618 -3.934,-0.809 -5.75,-0.576 -0.427,0.047 -0.853,0.122 -1.275,0.225 -0.946,0.234 -1.846,0.501 -2.7,0.8 m 19.6,31.775 c 2.372,-1.741 4.197,-3.483 5.475,-5.224 0.898,0.136 1.849,0.253 2.851,0.349 0.278,-0.077 0.545,-0.184 0.799,-0.325 M -17.475,0.9 c -0.9,0.418 -1.325,1.926 -1.275,4.525 -13.121,2.622 -20.396,14.164 -21.825,34.625 -4.663,1.625 -8.113,4.641 -10.35,9.051 -0.383,0.75 -0.7,1.625 -0.95,2.625 -0.01,0.032 -0.019,0.065 -0.024,0.099 -0.087,0.364 -0.162,0.748 -0.226,1.151 l -0.425,5.599 c -0.006,4.388 0.594,9.896 1.8,16.525 -0.804,0.177 -1.587,0.36 -2.35,0.55 -0.256,0.058 -0.514,0.116 -0.775,0.175 -2.103,0.548 -4.012,1.173 -5.725,1.875 -0.478,-0.078 -0.895,0.105 -1.25,0.55 -0.024,0.009 -0.049,0.018 -0.075,0.025 -2.893,1.371 -5.177,2.996 -6.849,4.875 -0.477,-1.437 -0.636,-2.453 -0.476,-3.05 -1.333,2.422 -2.067,4.856 -2.2,7.3 -0.897,-1.317 -1.489,-2.418 -1.775,-3.3 L -73,82.95 c -0.239,0.995 -0.381,1.853 -0.425,2.575 -0.413,4.735 0.47,8.085 2.651,10.05 -1.243,2.13 -2.218,4.263 -2.926,6.4 -0.139,0.413 -0.264,0.821 -0.375,1.225 -1.356,4.665 -1.431,9.323 -0.225,13.975 0.418,1.649 1.001,3.299 1.75,4.95 0.833,1.824 1.858,3.649 3.075,5.475 7.115,10.64 15.049,17.215 23.8,19.725 6.737,1.935 11.437,2.685 14.1,2.25 0.499,-0.079 0.925,-0.196 1.275,-0.35 0.22,-0.106 0.412,-0.223 0.575,-0.35 1.87,-1.477 1.27,-3.16 -1.799,-5.05 -3.051,-1.896 -5.776,-3.03 -8.176,-3.4 7.563,0.854 11.996,0.487 13.301,-1.1 10.17,-1.776 17.328,-6.101 21.474,-12.975 m 19.8,-107.3 c 1.033,2.91 1.5,7.369 1.4,13.375 -0.092,5.987 -1.434,16.171 -4.025,30.551 -2.556,14.145 -1.23,23.437 3.976,27.874 0.095,0.076 0.187,0.151 0.274,0.225 0.212,0.169 0.42,0.336 0.625,0.5 5.189,3.929 9.823,4.962 13.9,3.1 4.243,-1.936 6.959,-4.402 8.151,-7.4 0.719,-1.836 0.81,-3.394 0.274,-4.675 C 39.117,81.788 38.525,81.088 37.676,80.5 37.522,80.398 37.364,80.307 37.2,80.225 35.037,79.075 31.929,79.567 27.875,81.7 25.77,82.812 23.887,82.912 22.226,82 20.413,81.01 19.056,78.718 18.15,75.125 17.259,71.542 17.992,62.434 20.351,47.8 22.696,33.165 21.771,22.823 17.575,16.775 m -33.25,59.25 0.175,-0.375 c 4.632,-3.266 8.215,-6.25 10.75,-8.95 0.033,-0.034 0.066,-0.067 0.101,-0.099 C 0.277,61.29 1.145,57.073 -2.05,53.95 -2.645,53.369 -3.245,52.845 -3.85,52.375 0.256,42.267 3.114,32.258 4.726,22.351 c 2.894,-0.454 5.76,-1.045 8.599,-1.776 0.011,-0.217 0.011,-0.425 0,-0.625 M -15.5,75.65 c 6.552,1.183 10.402,3.358 11.551,6.525 v -2.15 c 3.192,2.809 4.567,5.543 4.125,8.2 L 2.275,86.45 c 0.685,5.362 -0.306,9.678 -2.974,12.95 0.46,1.904 0.751,3.821 0.875,5.75 0.228,3.475 -0.089,7 -0.95,10.575 -0.166,0.673 -0.35,1.349 -0.55,2.025 -0.3,1.021 -0.642,2.046 -1.026,3.075 m -2.575,5.525 c 0.492,-0.827 0.942,-1.693 1.351,-2.6 0.452,-0.981 0.86,-1.956 1.224,-2.925" /></g></g></g><g
       id="g64"><g
         clip-path="url(#clipPath70)"
         id="g66"><g
           transform="translate(182.125,47.8252)"
           id="g72"><path
             id="path74"
             style="fill:#ea9e44;fill-opacity:1;fill-rule:evenodd;stroke:none"
             d="M 0,0 C 1.008,-1.258 1.666,-2.499 1.975,-3.726 1.666,-2.499 1.008,-1.258 0,0 m -8,-8.75 c -0.298,1.527 -1.022,3.352 -2.175,5.475 C -9.022,-5.398 -8.298,-7.223 -8,-8.75 M -1.8,1.975 C -1.106,1.309 -0.507,0.65 0,0 1.979,0.812 3.222,2.429 3.725,4.85 3.222,2.429 1.979,0.812 0,0 -0.507,0.65 -1.106,1.309 -1.8,1.975 M 7.4,5.05 C 7.119,2.781 6.21,1.057 4.675,-0.125 3.138,-1.31 2.238,-2.51 1.975,-3.726 c 0.178,-0.68 0.245,-1.355 0.2,-2.024 0.045,0.669 -0.022,1.344 -0.2,2.024 0.263,1.216 1.163,2.416 2.7,3.601 C 6.21,1.057 7.119,2.781 7.4,5.05 M 14.9,1.149 C 14.349,0.789 13.674,0.765 12.875,1.075 10.082,2.17 8.707,5.211 8.75,10.2 8.707,5.211 10.082,2.17 12.875,1.075 13.674,0.765 14.349,0.789 14.9,1.149 m -62.8,99.426 c 5.24,2.72 10.298,3.187 15.175,1.4 -4.877,1.787 -9.935,1.32 -15.175,-1.4 M -39.325,60.55 -40.2,60.375 c -0.196,3.698 0.454,6.266 1.95,7.7 1.489,1.437 3.48,2.645 5.975,3.625 2.481,0.988 4.856,0.504 7.125,-1.45 -4.518,-1.239 -8.226,-3.264 -11.125,-6.075 -1.143,-1.086 -2.16,-2.294 -3.05,-3.625 m 13.225,36.8 c -3.19,-5.746 -8.024,-8.77 -14.5,-9.075 -6.493,-0.309 -10.985,1.208 -13.475,4.55 2.49,-3.342 6.982,-4.859 13.475,-4.55 6.476,0.305 11.31,3.329 14.5,9.075 m -8.475,3.675 c -2.722,0.973 -5.731,0.973 -9.025,0 -1.521,-0.726 -0.037,-1.809 4.45,-3.25 3.579,1.494 5.104,2.577 4.575,3.25 m -4.575,-3.25 v -3.95 z m 11.125,-0.125 c 0.731,0.043 1.372,-0.057 1.925,-0.3 0.396,-0.162 0.746,-0.404 1.05,-0.725 -0.304,0.321 -0.654,0.563 -1.05,0.725 -0.553,0.243 -1.194,0.343 -1.925,0.3 m -3.2,7.925 c 2.155,0.038 4.364,-0.095 6.625,-0.4 1.015,-0.131 2.04,-0.298 3.075,-0.5 1.036,1.713 1.552,3.688 1.55,5.925 0,2.752 -0.784,5.102 -2.35,7.05 -1.524,1.949 -3.366,2.924 -5.525,2.925 -2.155,-0.001 -4.013,-0.976 -5.575,-2.925 -1.529,-1.948 -2.296,-4.298 -2.3,-7.05 0.002,-1.933 0.386,-3.667 1.15,-5.2 1.098,0.103 2.215,0.162 3.35,0.175 m -29.55,0 c 2.164,0.038 4.38,-0.095 6.65,-0.4 1.015,-0.131 2.04,-0.298 3.075,-0.5 1.035,1.713 1.552,3.688 1.55,5.925 0,2.752 -0.783,5.102 -2.35,7.05 -1.524,1.949 -3.366,2.924 -5.525,2.925 -2.155,-0.001 -4.013,-0.976 -5.575,-2.925 -1.529,-1.948 -2.296,-4.298 -2.3,-7.05 0.002,-1.933 0.386,-3.667 1.15,-5.2 1.09,0.103 2.199,0.162 3.325,0.175 m 49.1,-52.725 c 0.3,-0.677 0.575,-1.335 0.825,-1.975 0.449,-1.155 0.824,-2.247 1.125,-3.275 0.235,-0.825 0.418,-1.608 0.55,-2.35 0.47,-2.394 0.429,-4.359 -0.125,-5.9 -1.168,-3.248 -4.868,-5.557 -11.1,-6.925 -5.711,-1.263 -10.519,1.929 -14.425,9.575 0.616,0.63 1.232,1.204 1.85,1.725 1.142,1.013 2.476,1.73 4,2.15 1.483,0.38 2.967,0.696 4.45,0.95 1.523,0.299 2.898,0.915 4.125,1.85 0.713,0.633 1.364,1.307 1.95,2.025 0.841,1.135 1.441,2.227 1.8,3.275 1.378,0.01 2.736,0.286 4.075,0.825 0.322,-0.666 0.623,-1.317 0.9,-1.95 m -77.95,68.1 c 1.817,-0.505 2.809,-1.73 2.975,-3.675 0.171,-1.571 0.046,-3.121 -0.375,-4.65 -0.428,-1.479 -1.195,-2.745 -2.3,-3.8 -0.958,-0.858 -1.941,-1.674 -2.95,-2.45 -2.169,1.302 -3.585,3.561 -4.25,6.775 -1.603,7.728 0.114,12.97 5.15,15.725 5.036,2.737 9.636,2.02 13.8,-2.15 -0.749,-1.651 -1.333,-3.301 -1.75,-4.95 -1.603,0.969 -3.403,1.303 -5.4,1 -1.516,-0.233 -3.15,-0.842 -4.9,-1.825 M -0.75,-11.275 c 0.067,0.352 0.117,0.744 0.15,1.174 0.073,0.785 -0.069,1.626 -0.425,2.526 -0.657,1.695 -2.039,3.596 -4.15,5.7 2.111,-2.104 3.493,-4.005 4.15,-5.7 -0.468,-0.37 -1.084,-0.629 -1.85,-0.776 -1.562,-0.258 -3.27,-0.391 -5.125,-0.399 0.354,-1.742 0.145,-3.092 -0.625,-4.05 -0.389,0.001 -0.78,0.042 -1.175,0.125 -1.652,0.426 -2.943,1.318 -3.875,2.675 -0.887,1.396 -1.837,2.73 -2.85,4 -0.935,1.222 -1.785,2.38 -2.55,3.475 -0.381,-3.021 -0.448,-5.471 -0.2,-7.35 -1.441,-0.908 -2.682,-1.242 -3.725,-1 -1.053,0.255 -1.712,0.521 -1.975,0.8 -1.858,1.946 -1.85,5.363 0.025,10.25 1.592,0.194 3.301,0.336 5.125,0.425 1.604,0.082 3.187,0.014 4.75,-0.201 1.654,-0.251 3.288,-0.183 4.9,0.201 1.396,0.335 2.771,0.818 4.125,1.45 0.987,0.458 1.963,0.824 2.925,1.099 0.478,-0.396 0.919,-0.788 1.325,-1.174 0.388,0.42 0.738,0.853 1.05,1.299 0.792,1.157 1.342,2.423 1.65,3.801 1.677,0.555 2.835,1.596 3.475,3.125 0.585,1.435 1.318,2.784 2.2,4.05 0.892,1.316 2.058,2.399 3.5,3.25 1.524,0.932 2.349,2.224 2.475,3.875 2.504,-2.739 3.862,-6.522 4.075,-11.351 C 16.835,4.986 16.261,2.028 14.9,1.149 11.479,-8.012 7.237,-10.312 2.175,-5.75 2.064,-7.642 1.089,-9.483 -0.75,-11.275 M -42.2,121.9 c 10.242,4.832 18.25,4.832 24.025,0 4.187,-5.327 3.503,-12.227 -2.05,-20.7 5.002,-12.656 -3.231,-19.831 -24.7,-21.525 -6.825,-0.518 -12.734,0.882 -17.725,4.2 -3.431,3.095 -4.806,7.062 -4.125,11.9 0.14,0.956 0.357,1.948 0.65,2.975 0.129,0.45 0.271,0.909 0.425,1.375 -0.679,0.544 -1.304,1.127 -1.875,1.75 -1.898,2.084 -3.156,4.609 -3.775,7.575 -0.804,3.687 -0.337,7.161 1.4,10.425 1.821,3.348 4.446,5.765 7.875,7.25 3.813,1.652 7.604,1.61 11.375,-0.125 2.96,-1.319 5.794,-3.019 8.5,-5.1 m 38.775,2.05 c -0.224,-1.268 -0.341,-2.576 -0.35,-3.925 -0.41,1.384 -0.292,2.692 0.35,3.925 m -6.525,7 c 3.788,4.812 7.963,5.437 12.525,1.875 4.238,-3.294 5.779,-7.853 4.625,-13.675 -0.027,-0.116 -0.052,-0.233 -0.075,-0.35 -0.19,-0.845 -0.44,-1.628 -0.75,-2.35 0.163,0.784 0.279,1.568 0.35,2.35 0.244,2.333 0.093,4.617 -0.45,6.85 0.052,-2.856 -0.172,-5.122 -0.675,-6.8 -1.678,0.434 -3.252,1.076 -4.725,1.925 -1.354,0.756 -1.945,1.914 -1.775,3.475 0.17,1.571 0.953,2.887 2.35,3.95 -1.121,0.446 -2.163,0.688 -3.125,0.725 -2.414,0.124 -4.314,-1.043 -5.7,-3.5 -0.364,0.969 -0.772,1.944 -1.225,2.925 -0.409,0.906 -0.858,1.773 -1.35,2.6" /></g><g
           transform="translate(194.6748,69.2002)"
           id="g76"><path
             id="path78"
             style="fill:#881c0d;fill-opacity:1;fill-rule:evenodd;stroke:none"
             d="m 0,0 c -0.201,0.221 -0.409,0.438 -0.625,0.649 0.109,0.338 0.201,0.68 0.275,1.026 0.265,1.05 0.382,2.116 0.35,3.2 -0.08,1.65 -0.097,3.3 -0.05,4.95 0.037,1.567 0.096,3.133 0.175,4.699 0.13,1.618 0.238,3.234 0.325,4.851 0.087,1.646 0.237,3.271 0.45,4.875 0.168,1.57 0.251,3.162 0.25,4.774 -0.046,1.605 -0.304,3.189 -0.775,4.75 -0.46,1.527 -1.068,3.01 -1.825,4.451 -0.572,1.1 -0.905,2.308 -1,3.625 -0.019,0.242 -0.028,0.492 -0.025,0.75 -0.294,1.234 -0.544,2.476 -0.75,3.725 -0.253,1.499 -0.453,3.041 -0.6,4.625 -0.154,1.589 -0.404,3.231 -0.75,4.925 -0.335,1.697 -0.31,3.33 0.075,4.9 0.383,1.649 1.042,3.066 1.976,4.25 0.84,1.143 1.999,2.201 3.474,3.175 0.639,0.429 1.214,0.879 1.725,1.35 1.271,1.136 2.796,1.594 4.575,1.375 1.69,-0.165 3.231,-0.731 4.625,-1.7 1.315,-0.893 2.481,-1.935 3.5,-3.125 1.227,-1.434 2.643,-2.317 4.25,-2.65 C 17.462,62.3 14.354,62.792 10.3,64.925 8.194,66.036 6.312,66.136 4.65,65.225 2.838,64.234 1.48,61.943 0.575,58.35 -0.316,54.767 0.417,45.658 2.775,31.024 5.121,16.39 4.195,6.048 0,0 m -29.2,32.6 c -1.331,0.009 -2.681,0.268 -4.05,0.775 -5.586,-5.64 -10.644,-9.156 -15.175,-10.55 -2.018,-0.617 -3.934,-0.808 -5.75,-0.575 -0.041,-1.968 -0.083,-3.734 -0.125,-5.3 -0.043,-1.693 0.274,-3.302 0.95,-4.825 0.56,-1.314 1.294,-2.605 2.2,-3.875 0.047,-0.085 0.097,-0.168 0.15,-0.25 0.343,-1.526 0.876,-2.968 1.6,-4.325 0.714,-1.398 1.597,-2.69 2.65,-3.875 0.938,-1.058 2.088,-1.924 3.45,-2.6 1.517,-0.761 2.484,-1.902 2.9,-3.426 0.135,-0.426 0.46,-0.726 0.975,-0.899 1.562,-0.508 3.187,-0.783 4.875,-0.825 h 4.575 4.701 4.824 4.95 c 1.656,-0.002 3.439,-0.152 5.351,-0.45 -0.259,-0.968 -0.667,-1.676 -1.226,-2.125 -1.008,-0.818 -2.525,-0.785 -4.55,0.1 -0.315,0.128 -0.64,0.279 -0.974,0.449 -7.487,-2.003 -13.962,-2.462 -19.426,-1.375 -13.121,2.622 -20.396,14.164 -21.825,34.625 -4.663,1.625 -8.113,4.642 -10.35,9.051 -0.383,0.75 -0.7,1.625 -0.95,2.625 l 0.1,0.05 c 0.166,-0.008 0.374,-0.058 0.625,-0.15 0.807,-0.246 1.465,-0.705 1.975,-1.375 0.506,-0.595 0.906,-1.253 1.2,-1.975 0.298,-0.769 0.764,-1.451 1.4,-2.05 0.595,-0.59 1.254,-1.073 1.975,-1.45 0.72,-0.38 1.462,-0.738 2.225,-1.075 0.717,-0.302 1.433,-0.519 2.15,-0.651 0.808,-0.121 1.617,-0.179 2.425,-0.174 0.758,-0.005 1.517,0.053 2.275,0.174 0.767,0.086 1.534,0.279 2.3,0.576 0.717,0.258 1.433,0.516 2.15,0.775 0.762,0.254 1.546,0.487 2.35,0.7 0.805,0.211 1.547,0.528 2.225,0.949 0.55,0.292 1.1,0.584 1.65,0.875 0.592,0.342 1.142,0.725 1.65,1.151 0.639,0.508 1.214,1.057 1.725,1.65 0.467,0.636 0.817,1.494 1.05,2.574 -0.942,0.405 -1.9,0.78 -2.875,1.125 -1.088,0.37 -2.197,0.703 -3.325,1 -0.547,0.214 -1.03,0.365 -1.45,0.451 -0.03,-0.02 -0.063,-0.045 -0.1,-0.076 -1.984,0.494 -4.025,0.877 -6.125,1.151 0.891,1.331 1.907,2.539 3.05,3.625 0.712,-0.039 1.446,-0.247 2.2,-0.625 0.175,-0.092 0.35,-0.184 0.525,-0.276 0.333,-0.166 0.667,-0.333 1,-0.5 0.726,-0.34 1.409,-0.682 2.05,-1.024 0.633,-0.334 1.267,-0.626 1.9,-0.875 0.721,-0.338 1.462,-0.654 2.225,-0.95 0.679,-0.255 1.379,-0.446 2.1,-0.575 0.717,-0.166 1.433,-0.374 2.15,-0.625 0.55,-0.212 1.141,-0.446 1.776,-0.701 0.761,-0.254 1.545,-0.446 2.349,-0.574 0.681,-0.129 1.297,-0.046 1.85,0.25 0.719,0.299 1.351,0.641 1.9,1.025 0.255,0.121 0.487,0.262 0.7,0.424 0.213,0.134 0.405,0.267 0.576,0.401 0.17,0.125 0.32,0.25 0.449,0.375 0.167,0.083 0.334,0.208 0.5,0.375 0.167,0.208 0.334,0.417 0.5,0.625 0.472,0.557 0.881,1.157 1.225,1.8 0.125,0.213 0.209,0.445 0.25,0.7 0.037,0.204 0.055,0.429 0.05,0.675 v 2.049 2.026 c 0.007,0.971 0.099,1.962 0.276,2.974 l 0.049,0.051 c 4.927,-5.31 5.794,-9.527 2.6,-12.65 -0.595,-0.581 -1.195,-1.106 -1.8,-1.575 -0.835,-0.651 -1.677,-1.193 -2.525,-1.625 -0.39,-0.208 -0.781,-0.391 -1.175,-0.55 -1.339,-0.539 -2.697,-0.815 -4.075,-0.825 m -3.875,26.275 c -1.098,-0.202 -2.273,-0.376 -3.525,-0.525 -1.647,-0.178 -3.431,-0.311 -5.35,-0.4 -1.048,-0.045 -2.139,-0.078 -3.275,-0.1 0.944,0.174 1.844,0.366 2.7,0.575 3.433,-0.194 6.525,0.081 9.275,0.825 5.582,1.5 9.791,4.909 12.625,10.225 0.096,-1.213 0.07,-2.312 -0.075,-3.3 1.24,1.059 2.34,2.817 3.301,5.275 0.442,-2.658 -0.933,-5.391 -4.125,-8.2 v 2.15 c -1.149,-3.167 -4.999,-5.342 -11.551,-6.525 M -48.9,129.55 c 0.847,0.953 1.189,1.92 1.025,2.9 0.22,-0.106 0.412,-0.223 0.575,-0.35 1.87,-1.477 1.27,-3.161 -1.8,-5.05 -3.05,-1.896 -5.775,-3.03 -8.175,-3.4 h -4 c 6.442,1.905 10.567,3.871 12.375,5.9 m 4.775,-9.4 c -0.295,-2.261 -2.27,-3.361 -5.925,-3.3 1.647,-1.909 -0.345,-3.067 -5.975,-3.475 4.935,1.083 5.827,2.734 2.675,4.95 4.954,0.092 8.03,0.7 9.225,1.825 m 0.15,2.4 c 10.17,-1.777 17.329,-6.101 21.475,-12.975 0.492,-0.827 0.941,-1.694 1.351,-2.6 0.452,-0.981 0.86,-1.956 1.224,-2.925 0.384,-1.029 0.726,-2.054 1.026,-3.075 0.2,-0.677 0.383,-1.352 0.549,-2.025 0.862,-3.575 1.179,-7.1 0.951,-10.575 -0.124,-1.93 -0.415,-3.846 -0.875,-5.75 2.668,-3.272 3.659,-7.589 2.974,-12.95 -0.693,6.998 -2.918,11.331 -6.675,13 h 2.175 c 2.096,20.749 -5.846,33.541 -23.825,38.375 0.062,0.229 0.062,0.479 0,0.75 -0.06,0.272 -0.177,0.522 -0.35,0.75" /></g><g
           transform="translate(102.7998,169.6001)"
           id="g80"><path
             id="path82"
             style="fill:#ca7624;fill-opacity:1;fill-rule:evenodd;stroke:none"
             d="m 0,0 c -1.206,-4.652 -1.131,-9.311 0.225,-13.975 0.111,-0.404 0.236,-0.812 0.375,-1.225 -2.229,-0.727 -4.254,-1.194 -6.075,-1.4 0.392,0.226 0.767,0.576 1.125,1.05 0.895,1.18 1.345,2.53 1.35,4.05 0.036,1.452 0.136,2.902 0.3,4.35 -0.003,0.035 -0.003,0.068 0,0.1 0.003,1.571 -0.164,3.121 -0.5,4.65 C -3.538,-0.851 -4.271,0.283 -5.4,1 -3.402,1.303 -1.603,0.969 0,0 M 77.65,7.15 C 76.216,5.65 75.648,4.033 75.95,2.3 75.937,2.263 75.92,2.221 75.9,2.175 75.258,0.942 75.141,-0.366 75.55,-1.75 V -1.9 c 0.09,-1.485 0.581,-2.885 1.475,-4.2 0.799,-1.142 1.682,-2.242 2.65,-3.3 0.346,-0.392 0.713,-0.758 1.1,-1.1 -1.732,-0.861 -3.832,-1.369 -6.299,-1.525 0.228,3.475 -0.089,7 -0.951,10.575 -0.166,0.673 -0.349,1.348 -0.549,2.025 -0.3,1.021 -0.642,2.046 -1.026,3.075 1.386,2.457 3.286,3.624 5.7,3.5" /></g><g
           transform="translate(146.25,92.0254)"
           id="g84"><path
             id="path86"
             style="fill:#dc8a38;fill-opacity:1;fill-rule:evenodd;stroke:none"
             d="M 0,0 C 4.531,1.394 9.589,4.91 15.175,10.55 16.544,10.043 17.894,9.784 19.225,9.774 18.866,8.727 18.266,7.635 17.425,6.5 16.839,5.782 16.188,5.107 15.475,4.475 14.248,3.54 12.873,2.924 11.35,2.625 9.867,2.371 8.383,2.055 6.9,1.675 5.376,1.255 4.042,0.538 2.9,-0.476 2.282,-0.996 1.666,-1.57 1.05,-2.2 0.691,-1.507 0.341,-0.773 0,0 m -48.85,78.575 c 1.129,-0.718 1.862,-1.851 2.2,-3.4 0.336,-1.529 0.503,-3.079 0.5,-4.651 -0.003,-0.031 -0.003,-0.064 0,-0.099 -0.164,-1.448 -0.265,-2.898 -0.3,-4.35 -0.006,-1.52 -0.455,-2.87 -1.35,-4.051 -0.358,-0.473 -0.733,-0.823 -1.125,-1.049 -3.073,-0.341 -5.565,0.059 -7.475,1.2 1.009,0.776 1.992,1.592 2.95,2.45 1.105,1.055 1.872,2.321 2.3,3.8 0.421,1.529 0.546,3.078 0.375,4.65 -0.166,1.945 -1.158,3.17 -2.975,3.675 1.75,0.983 3.384,1.591 4.9,1.825 M 13.375,-38.7 c 0.588,-0.303 1.388,-0.119 2.4,0.55 4.067,-3.234 7.542,-3.567 10.425,-1 2.033,-1.535 3.583,-1.684 4.65,-0.451 0.687,-0.489 1.32,-0.972 1.9,-1.45 -0.962,-0.275 -1.937,-0.641 -2.925,-1.099 -1.354,-0.632 -2.729,-1.116 -4.125,-1.451 -1.612,-0.383 -3.246,-0.451 -4.9,-0.2 -1.563,0.215 -3.146,0.282 -4.75,0.2 -1.824,-0.088 -3.533,-0.23 -5.125,-0.424 0.609,1.61 1.425,3.385 2.45,5.325 M 34.85,-51.775 c 0.356,-0.9 0.498,-1.742 0.425,-2.526 -0.033,-0.43 -0.083,-0.822 -0.15,-1.175 -0.31,-1.517 -0.951,-2.384 -1.925,-2.599 -1.919,-0.423 -4.219,-0.348 -6.9,0.224 -0.168,-0.107 -0.352,-0.207 -0.55,-0.299 -3.085,-1.393 -5.535,-1.36 -7.35,0.099 -0.924,0.738 -1.524,2.063 -1.8,3.976 -0.248,1.879 -0.181,4.329 0.2,7.349 0.765,-1.094 1.615,-2.253 2.55,-3.474 1.013,-1.27 1.963,-2.604 2.85,-4 0.932,-1.358 2.223,-2.249 3.875,-2.675 0.395,-0.083 0.786,-0.124 1.175,-0.125 -0.251,-0.333 -0.567,-0.616 -0.95,-0.851 0.383,0.235 0.699,0.518 0.95,0.851 0.77,0.958 0.979,2.308 0.625,4.05 1.855,0.008 3.563,0.14 5.125,0.399 0.766,0.147 1.382,0.405 1.85,0.776 m 10.875,31.224 c 0.754,-0.486 1.445,-1.028 2.075,-1.625 0.216,-0.212 0.424,-0.428 0.625,-0.649 -0.126,-1.652 -0.951,-2.944 -2.475,-3.875 -1.442,-0.851 -2.608,-1.934 -3.5,-3.25 -0.882,-1.266 -1.615,-2.615 -2.2,-4.05 -0.64,-1.529 -1.798,-2.57 -3.475,-3.125 0.267,1.179 0.359,2.437 0.275,3.774 0.558,0.45 0.967,1.158 1.225,2.125 0.134,0.591 0.218,1.274 0.25,2.05 2.945,0.36 3.603,2.301 1.975,5.825 0.916,0.009 1.657,0.192 2.225,0.55 0.931,0.59 1.415,1.64 1.45,3.151 0.542,-0.274 1.058,-0.574 1.55,-0.901 M 17.875,42.3 C 15.642,39.237 11.65,37.004 5.9,35.6 5.043,35.391 4.144,35.199 3.2,35.024 1.642,34.743 -0.024,34.509 -1.8,34.325 -5.467,33.947 -8.817,33.873 -11.85,34.1 c -2.162,0.181 -4.162,0.514 -6,1 -1.217,0.306 -2.359,0.681 -3.425,1.125 -1.653,0.689 -3.137,1.539 -4.45,2.549 -0.372,0.289 -0.722,0.589 -1.05,0.901 4.991,-3.318 10.9,-4.718 17.725,-4.2 21.469,1.693 29.702,8.869 24.7,21.525 5.553,8.473 6.237,15.373 2.05,20.7 -5.775,4.832 -13.783,4.832 -24.025,0 0.193,0.152 0.384,0.302 0.575,0.449 9.267,7.094 17.167,8.31 23.7,3.651 1.461,-1.044 2.611,-2.26 3.45,-3.651 2.954,-4.942 1.929,-12.075 -3.075,-21.399 1.086,-2.768 1.636,-5.285 1.65,-7.55 0.02,-2.643 -0.68,-4.943 -2.1,-6.9 M 42.25,72.25 c -1.003,-2.334 -2.645,-4.06 -4.925,-5.175 -0.387,0.342 -0.754,0.708 -1.1,1.1 -0.968,1.057 -1.851,2.158 -2.65,3.3 -0.894,1.315 -1.386,2.715 -1.475,4.2 v 0.15 c 0.009,1.349 0.126,2.657 0.35,3.925 0.02,0.046 0.036,0.087 0.05,0.125 -0.302,1.733 0.266,3.35 1.7,4.85 0.962,-0.037 2.004,-0.279 3.125,-0.725 -1.397,-1.063 -2.18,-2.379 -2.35,-3.95 -0.17,-1.561 0.421,-2.719 1.775,-3.475 1.473,-0.849 3.047,-1.491 4.725,-1.926 0.503,1.679 0.727,3.945 0.675,6.801 0.543,-2.234 0.694,-4.517 0.45,-6.85 -0.071,-0.783 -0.187,-1.566 -0.35,-2.35" /></g><g
           transform="translate(171.2754,98.7002)"
           id="g88"><path
             id="path90"
             style="fill:#aa290f;fill-opacity:1;fill-rule:evenodd;stroke:none"
             d="M 0,0 C 1.293,-0.604 1.668,-1.694 1.125,-3.275 0.823,-2.247 0.448,-1.155 0,0 m -27.75,-21.25 c -0.571,0.906 -0.813,1.939 -0.726,3.1 0.043,1.276 0.277,2.467 0.701,3.575 0.592,1.564 1.417,2.981 2.475,4.25 0.44,0.511 0.882,0.994 1.324,1.45 3.907,-7.646 8.715,-10.838 14.425,-9.575 6.233,1.368 9.933,3.677 11.101,6.925 0.554,1.541 0.595,3.506 0.125,5.9 0.327,-0.722 0.776,-1.397 1.349,-2.025 0.549,-0.636 0.908,-1.377 1.076,-2.225 0.254,-1.612 0.487,-3.246 0.7,-4.9 0.083,-0.637 0.166,-1.295 0.25,-1.975 0.173,-1.69 0.472,-3.231 0.899,-4.625 0.248,-0.805 0.39,-1.471 0.426,-2 -3.092,0.351 -6.408,0.601 -9.95,0.75 -1.565,-0.204 -3.09,-0.555 -4.575,-1.05 -1.404,-0.46 -1.538,-1.109 -0.401,-1.95 0.387,-0.345 0.837,-0.52 1.351,-0.525 1.65,-0.001 3.259,0.082 4.825,0.25 1.649,0.176 3.3,0.268 4.949,0.275 1.609,0 3.217,-0.041 4.825,-0.125 1.564,-0.091 3.064,-0.499 4.5,-1.226 1.404,-0.712 2.871,-1.363 4.401,-1.949 0.47,-0.195 0.936,-0.378 1.399,-0.551 -0.567,-0.358 -1.308,-0.541 -2.224,-0.549 -3.006,-2.329 -5.398,-3.579 -7.175,-3.75 -1.654,-0.204 -3.288,-0.429 -4.901,-0.675 -0.554,-0.088 -1.087,-0.154 -1.599,-0.2 -1.609,-0.168 -3.217,-0.251 -4.825,-0.25 h -4.826 c -1.564,0 -3.022,0.275 -4.375,0.825 -1.442,0.593 -2.842,1.376 -4.199,2.349 -1.184,0.887 -2.367,1.837 -3.551,2.851 -1.229,1.062 -2.437,2.146 -3.625,3.25 -1.012,1.055 -2.045,2.088 -3.099,3.1 -0.355,0.32 -0.655,0.661 -0.901,1.025 -0.052,0.082 -0.102,0.165 -0.149,0.25 M -0.551,4.475 c 0.029,-0.914 -0.063,-1.748 -0.274,-2.5 -0.278,0.633 -0.578,1.284 -0.901,1.95 0.394,0.159 0.786,0.342 1.175,0.55 M -55.101,32 c -1.062,0.857 -1.778,2.057 -2.149,3.6 -0.428,1.607 -1.236,3.024 -2.425,4.25 0.972,1.27 0.781,2.328 -0.575,3.175 -1.729,1.055 -1.638,2.088 0.274,3.1 1.394,0.766 2.936,1.34 4.625,1.725 0.029,0.007 0.054,0.015 0.076,0.025 -0.294,-1.027 -0.511,-2.019 -0.65,-2.975 -0.681,-4.838 0.694,-8.805 4.125,-11.9 0.328,-0.312 0.677,-0.611 1.05,-0.9 1.313,-1.011 2.796,-1.861 4.45,-2.55 1.066,-0.444 2.207,-0.819 3.425,-1.125 -0.697,0.129 -1.381,0.262 -2.05,0.4 -0.804,0.176 -1.588,0.36 -2.35,0.55 -0.257,0.057 -0.515,0.116 -0.775,0.175 -2.104,0.548 -4.013,1.173 -5.725,1.875 -0.479,-0.079 -0.896,0.105 -1.25,0.55 -0.025,0.009 -0.05,0.017 -0.076,0.025 m 9.026,-26.45 c 0.028,-0.01 0.07,-0.027 0.125,-0.05 l -0.1,-0.05 c -0.011,0.032 -0.019,0.066 -0.025,0.1 M 5.824,-46.275 c -1.066,-1.234 -2.616,-1.084 -4.649,0.45 -2.883,-2.567 -6.359,-2.234 -10.425,1 -1.013,-0.669 -1.813,-0.853 -2.4,-0.55 -0.901,0.418 -1.326,1.926 -1.275,4.524 5.463,-1.087 11.939,-0.628 19.425,1.375 0.334,-0.17 0.659,-0.321 0.975,-0.449 -0.187,-3.157 -0.737,-5.274 -1.651,-6.35 m 16.95,17.424 c -0.629,0.597 -1.321,1.139 -2.075,1.625 1.033,2.911 1.5,7.37 1.401,13.375 -0.093,5.988 -1.435,16.171 -4.026,30.551 -2.555,14.145 -1.23,23.437 3.976,27.875 -0.789,-0.85 -0.122,-1.325 2,-1.425 1.559,-0.039 3.034,0.261 4.425,0.9 1.532,0.676 3.148,1.034 4.849,1.075 1.604,0.04 2.995,-0.343 4.176,-1.15 0.892,-0.632 1.742,-1.349 2.55,-2.15 1.145,-1.146 2.27,-2.312 3.375,-3.5 0.603,-0.685 1.221,-1.352 1.849,-2 -0.333,-0.812 -0.924,-1.512 -1.774,-2.1 -0.153,-0.102 -0.312,-0.193 -0.476,-0.275 -1.607,0.333 -3.023,1.216 -4.25,2.65 -1.018,1.19 -2.184,2.232 -3.5,3.125 -1.393,0.969 -2.934,1.535 -4.625,1.7 -1.779,0.219 -3.303,-0.239 -4.575,-1.375 -0.511,-0.471 -1.086,-0.921 -1.724,-1.35 -1.476,-0.974 -2.634,-2.032 -3.475,-3.175 -0.934,-1.184 -1.593,-2.601 -1.976,-4.25 -0.384,-1.57 -0.41,-3.203 -0.075,-4.9 0.346,-1.694 0.596,-3.336 0.75,-4.925 0.148,-1.584 0.348,-3.126 0.601,-4.625 0.206,-1.249 0.456,-2.491 0.75,-3.725 -0.003,-0.258 0.006,-0.508 0.024,-0.75 0.095,-1.317 0.428,-2.525 1,-3.625 0.757,-1.441 1.365,-2.924 1.825,-4.451 0.471,-1.561 0.729,-3.145 0.776,-4.75 10e-4,-1.612 -0.082,-3.204 -0.25,-4.774 -0.214,-1.604 -0.363,-3.229 -0.45,-4.875 -0.087,-1.617 -0.196,-3.233 -0.326,-4.851 -0.079,-1.566 -0.137,-3.132 -0.174,-4.699 -0.047,-1.65 -0.031,-3.3 0.049,-4.95 0.033,-1.084 -0.085,-2.15 -0.349,-3.2 -0.074,-0.346 -0.166,-0.688 -0.276,-1.026 M -14.3,19.375 c -2.27,1.954 -4.645,2.438 -7.125,1.45 -2.495,-0.98 -4.487,-2.188 -5.975,-3.625 -1.496,-1.434 -2.146,-4.002 -1.951,-7.7 L -33.65,8.475 c -1.169,2.266 -2.161,4.533 -2.975,6.799 -0.589,-0.51 -1.073,-1.127 -1.45,-1.849 -0.468,-0.72 -0.618,-1.503 -0.45,-2.35 0.172,-0.801 0.239,-1.6 0.2,-2.4 0.002,-0.43 -0.164,-0.838 -0.5,-1.225 -0.849,-0.801 -0.765,-1.284 0.25,-1.45 0.846,-0.174 1.671,-0.157 2.474,0.05 0.758,0.172 1.558,0.28 2.401,0.325 0.683,0.087 1.367,0.195 2.05,0.325 0.762,0.167 1.545,0.292 2.35,0.375 0.804,0.041 1.588,0.124 2.35,0.25 0.716,0.125 1.474,0.25 2.275,0.375 0.738,0.122 1.513,0.398 2.324,0.824 0.037,0.031 0.07,0.056 0.101,0.076 0.419,-0.086 0.903,-0.237 1.45,-0.451 1.128,-0.297 2.236,-0.63 3.324,-1 0.029,-0.212 -0.038,-0.363 -0.199,-0.449 -0.684,-0.386 -1.326,-0.878 -1.926,-1.475 -0.633,-0.504 -1.225,-1.029 -1.774,-1.576 -0.55,-0.553 -1.101,-1.087 -1.65,-1.599 -0.511,-0.463 -1.128,-0.904 -1.85,-1.325 -0.712,-0.384 -1.446,-0.726 -2.2,-1.025 -0.766,-0.295 -1.575,-0.42 -2.425,-0.375 -0.804,0.045 -1.629,0.112 -2.476,0.199 -0.72,0.125 -1.462,0.25 -2.224,0.375 -0.802,0.124 -1.518,0.332 -2.151,0.625 -0.767,0.345 -1.492,0.754 -2.174,1.226 -0.719,0.465 -1.311,1.016 -1.775,1.649 -0.469,0.629 -0.852,1.28 -1.15,1.951 -0.339,0.678 -0.614,1.379 -0.825,2.1 -0.256,0.679 -0.447,1.379 -0.576,2.1 -0.126,0.766 -0.168,1.533 -0.125,2.3 10e-4,0.716 -0.041,1.433 -0.125,2.15 -0.12,0.8 -0.261,1.6 -0.424,2.399 -0.129,0.767 -0.279,1.535 -0.451,2.301 -0.125,0.716 -0.209,1.474 -0.25,2.275 -0.002,0.68 0.164,1.296 0.5,1.85 0.422,0.632 1.056,1.073 1.901,1.324 0.72,0.257 1.503,0.366 2.349,0.326 0.764,0.002 1.505,0.152 2.226,0.45 0.763,0.337 1.463,0.736 2.1,1.2 0.635,0.467 1.377,0.658 2.225,0.575 0.846,-0.041 1.671,-0.124 2.475,-0.25 0.679,-0.088 1.378,-0.155 2.099,-0.2 0.676,-0.079 1.351,-0.179 2.026,-0.3 0.679,-0.135 1.378,-0.225 2.099,-0.275 0.639,-0.001 1.255,0.041 1.851,0.125 0.675,0.132 1.35,0.389 2.024,0.775 0.717,0.339 1.317,0.964 1.801,1.875 1.919,0.089 3.702,0.222 5.35,0.4 1.251,0.149 2.427,0.323 3.524,0.525 4.632,-3.267 8.215,-6.25 10.75,-8.95 0.033,-0.034 0.067,-0.068 0.101,-0.1 L 1.125,20.274 C 0.948,19.262 0.856,18.271 0.85,17.3 V 15.274 13.225 C 0.854,12.979 0.837,12.754 0.8,12.55 0.759,12.295 0.675,12.063 0.55,11.85 0.205,11.207 -0.203,10.607 -0.676,10.05 -0.842,9.842 -1.009,9.633 -1.176,9.425 -1.342,9.258 -1.509,9.133 -1.676,9.05 -1.805,8.925 -1.954,8.8 -2.125,8.675 -2.296,8.541 -2.487,8.408 -2.7,8.274 -2.913,8.112 -3.146,7.971 -3.4,7.85 -3.949,7.466 -4.582,7.124 -5.301,6.825 -5.854,6.529 -6.47,6.446 -7.15,6.575 c -0.805,0.128 -1.588,0.32 -2.35,0.574 -0.635,0.255 -1.226,0.489 -1.775,0.701 -0.717,0.251 -1.433,0.459 -2.15,0.625 -0.721,0.129 -1.422,0.32 -2.1,0.575 -0.763,0.296 -1.505,0.612 -2.225,0.95 -0.634,0.249 -1.267,0.541 -1.9,0.875 -0.642,0.342 -1.325,0.684 -2.05,1.024 -0.334,0.167 -0.667,0.334 -1,0.5 0.548,0.297 1.222,0.572 2.025,0.826 0.766,0.213 1.533,0.404 2.3,0.575 0.804,0.175 1.587,0.39 2.35,0.65 0.712,0.254 1.445,0.488 2.2,0.699 0.762,0.208 1.504,0.458 2.224,0.75 0.767,0.258 1.534,0.558 2.3,0.901 0.634,0.296 1.267,0.571 1.901,0.825 0.758,0.333 1.475,0.667 2.15,1 0.51,0.254 0.618,0.528 0.324,0.825 -0.343,0.375 -0.709,0.675 -1.099,0.9 -0.255,0.14 -0.522,0.248 -0.8,0.325 H -6.9 c -0.953,-0.097 -1.877,-0.213 -2.776,-0.35 -1.278,1.741 -3.103,3.484 -5.474,5.225 0.215,-0.764 0.515,-1.464 0.9,-2.1 0.418,-0.717 0.71,-1.474 0.875,-2.275 0.122,-0.572 0.163,-1.081 0.125,-1.526 -0.354,-0.091 -0.704,-0.183 -1.05,-0.274 m 7.15,16.25 c 1.42,1.958 2.12,4.257 2.099,6.9 -0.013,2.266 -0.563,4.782 -1.649,7.55 5.004,9.324 6.029,16.457 3.075,21.4 -0.84,1.39 -1.989,2.607 -3.45,3.65 -6.533,4.66 -14.434,3.443 -23.7,-3.65 -0.191,-0.148 -0.383,-0.298 -0.576,-0.45 -2.706,2.081 -5.539,3.781 -8.5,5.1 -3.77,1.735 -7.562,1.777 -11.375,0.125 -3.429,-1.485 -6.054,-3.902 -7.875,-7.25 -1.736,-3.264 -2.203,-6.738 -1.399,-10.425 0.618,-2.966 1.876,-5.491 3.774,-7.575 -9.798,4.464 -11.965,12.581 -6.5,24.35 4.318,9.317 11.177,16.476 20.576,21.475 5.42,2.832 11.137,3.907 17.15,3.225 -1.808,-2.029 -5.933,-3.995 -12.375,-5.9 h 4 c 7.562,0.853 11.996,0.487 13.3,-1.1 0.173,-0.228 0.289,-0.478 0.349,-0.75 0.062,-0.271 0.062,-0.521 0,-0.75 -0.063,-0.332 -0.23,-0.632 -0.5,-0.9 -1.195,-1.125 -4.27,-1.733 -9.224,-1.825 3.151,-2.216 2.26,-3.867 -2.675,-4.95 0.512,-0.89 1.554,-1.357 3.125,-1.4 1.562,-0.085 3.104,-0.36 4.625,-0.825 1.906,-0.55 3.39,-0.317 4.45,0.7 0.509,0.544 0.7,1.235 0.574,2.075 -0.336,1.954 0.556,2.829 2.676,2.625 1.265,-0.089 2.34,-0.388 3.225,-0.9 0.555,-0.253 1.006,-0.611 1.349,-1.075 1.059,-1.4 2.159,-2.566 3.3,-3.5 1.185,-0.929 2.326,-1.879 3.426,-2.85 1.273,-1.02 2.356,-2.103 3.25,-3.25 0.927,-1.227 1.686,-2.602 2.274,-4.125 0.59,-1.567 1.032,-3.134 1.326,-4.7 C 1.277,65.042 1.41,63.392 1.375,61.7 1.37,60.133 1.387,58.566 1.425,57 1.509,55.309 1.001,53.85 -0.101,52.625 -0.604,52.074 -1.129,51.566 -1.676,51.1 c -0.636,-0.508 -0.319,-1.017 0.95,-1.525 1.1,-0.467 1.967,-1.167 2.601,-2.1 0.548,-1.654 0.439,-3.054 -0.325,-4.2 -0.715,0.082 -1.322,0.248 -1.825,0.5 0.458,-2.455 -0.142,-4.338 -1.8,-5.65 C -3.088,37.326 -4.08,36.718 -5.051,36.3 -5.658,36.014 -6.358,35.789 -7.15,35.625" /></g><g
           transform="translate(143.5249,77.4502)"
           id="g92"><path
             id="path94"
             style="fill:#9e2110;fill-opacity:1;fill-rule:evenodd;stroke:none"
             d="m 0,0 c -0.906,1.27 -1.64,2.561 -2.2,3.875 -0.676,1.523 -0.993,3.132 -0.95,4.825 0.042,1.566 0.084,3.332 0.125,5.3 1.816,-0.233 3.732,-0.042 5.75,0.575 0.341,-0.773 0.692,-1.507 1.05,-2.2 C 3.332,11.919 2.89,11.436 2.45,10.925 1.392,9.656 0.567,8.239 -0.025,6.675 -0.449,5.567 -0.682,4.376 -0.725,3.1 -0.812,1.939 -0.57,0.906 0,0 m 43.225,-8.775 c 1.628,-3.525 0.97,-5.466 -1.975,-5.826 -0.032,-0.776 -0.116,-1.459 -0.25,-2.049 -1.911,0.298 -3.694,0.448 -5.35,0.45 H 30.7 25.875 21.175 16.6 c -1.688,0.042 -3.313,0.317 -4.875,0.825 -0.516,0.173 -0.84,0.473 -0.975,0.899 -0.416,1.524 -1.383,2.665 -2.9,3.426 -1.362,0.676 -2.512,1.542 -3.45,2.6 -1.053,1.185 -1.936,2.477 -2.65,3.875 -0.724,1.357 -1.257,2.799 -1.6,4.325 0.246,-0.364 0.546,-0.705 0.9,-1.025 1.054,-1.012 2.088,-2.045 3.1,-3.1 1.187,-1.104 2.395,-2.188 3.625,-3.25 1.183,-1.014 2.367,-1.964 3.55,-2.851 1.358,-0.973 2.758,-1.756 4.2,-2.349 1.352,-0.55 2.81,-0.825 4.375,-0.825 h 4.825 c 1.608,-10e-4 3.217,0.082 4.825,0.25 0.512,0.046 1.045,0.112 1.6,0.2 1.612,0.246 3.246,0.471 4.9,0.675 1.778,0.171 4.169,1.421 7.175,3.75 M -18.2,26.75 c -0.055,0.023 -0.096,0.04 -0.125,0.05 v 0.075 c -1.163,4.859 -0.78,12.593 1.15,23.2 0.67,-0.138 1.353,-0.271 2.05,-0.4 1.838,-0.486 3.838,-0.819 6,-1 3.033,-0.227 6.383,-0.153 10.05,0.225 1.776,0.184 3.442,0.418 5,0.7 1.136,0.022 2.227,0.055 3.275,0.1 C 8.716,48.789 8.117,48.164 7.4,47.825 6.725,47.439 6.05,47.182 5.375,47.05 4.779,46.966 4.163,46.924 3.525,46.925 c -0.721,0.05 -1.421,0.14 -2.1,0.275 -0.675,0.121 -1.35,0.221 -2.025,0.3 -0.721,0.045 -1.421,0.112 -2.1,0.2 -0.804,0.126 -1.629,0.209 -2.475,0.25 -0.847,0.083 -1.589,-0.108 -2.225,-0.575 -0.637,-0.464 -1.336,-0.863 -2.1,-1.2 -0.721,-0.298 -1.462,-0.448 -2.225,-0.45 -0.847,0.04 -1.63,-0.069 -2.35,-0.326 -0.845,-0.251 -1.478,-0.692 -1.9,-1.324 -0.336,-0.554 -0.503,-1.17 -0.5,-1.85 0.041,-0.801 0.124,-1.559 0.25,-2.275 0.171,-0.766 0.321,-1.534 0.45,-2.301 0.163,-0.799 0.305,-1.599 0.425,-2.399 0.084,-0.717 0.126,-1.434 0.125,-2.15 -0.043,-0.767 -0.001,-1.534 0.125,-2.3 0.128,-0.721 0.32,-1.421 0.575,-2.1 0.212,-0.721 0.486,-1.422 0.825,-2.1 0.299,-0.671 0.682,-1.322 1.15,-1.951 0.465,-0.633 1.056,-1.184 1.775,-1.649 0.683,-0.472 1.408,-0.881 2.175,-1.226 0.632,-0.293 1.349,-0.501 2.15,-0.625 0.763,-0.125 1.505,-0.25 2.225,-0.375 0.846,-0.087 1.671,-0.154 2.475,-0.199 0.851,-0.045 1.659,0.08 2.425,0.375 0.755,0.299 1.488,0.641 2.2,1.025 0.723,0.421 1.339,0.862 1.85,1.325 0.55,0.512 1.1,1.046 1.65,1.599 0.549,0.547 1.141,1.072 1.775,1.576 0.6,0.597 1.241,1.089 1.925,1.475 0.162,0.086 0.229,0.237 0.2,0.449 0.975,-0.345 1.933,-0.72 2.875,-1.125 C 12.917,26.194 12.566,25.336 12.1,24.7 11.589,24.107 11.014,23.558 10.375,23.05 9.867,22.624 9.317,22.241 8.725,21.899 8.175,21.608 7.625,21.316 7.075,21.024 6.397,20.603 5.655,20.286 4.85,20.075 4.045,19.862 3.262,19.629 2.5,19.375 1.783,19.116 1.067,18.858 0.35,18.6 c -0.767,-0.297 -1.534,-0.49 -2.3,-0.576 -0.758,-0.121 -1.517,-0.179 -2.275,-0.174 -0.808,-0.005 -1.617,0.053 -2.425,0.174 -0.717,0.132 -1.433,0.349 -2.15,0.651 -0.763,0.337 -1.505,0.695 -2.225,1.075 -0.722,0.377 -1.38,0.86 -1.975,1.45 -0.636,0.599 -1.103,1.281 -1.4,2.05 -0.294,0.722 -0.694,1.38 -1.2,1.975 -0.51,0.67 -1.169,1.129 -1.975,1.375 -0.251,0.092 -0.459,0.142 -0.625,0.15 M 8.625,50.175 c 5.75,1.404 9.742,3.638 11.975,6.7 0.792,0.164 1.492,0.389 2.1,0.675 0.97,0.418 1.963,1.026 2.975,1.825 1.658,1.312 2.258,3.195 1.8,5.65 0.503,-0.252 1.11,-0.418 1.825,-0.5 0.765,1.146 0.873,2.546 0.325,4.2 -0.633,0.933 -1.5,1.633 -2.6,2.1 -1.27,0.508 -1.586,1.017 -0.95,1.525 0.547,0.466 1.071,0.974 1.575,1.525 1.101,1.225 1.609,2.684 1.525,4.375 -0.038,1.566 -0.054,3.133 -0.05,4.7 0.036,1.692 -0.097,3.342 -0.4,4.95 -0.294,1.566 -0.735,3.133 -1.325,4.7 -0.589,1.523 -1.348,2.898 -2.275,4.125 -0.893,1.147 -1.976,2.23 -3.25,3.25 -1.099,0.971 -2.241,1.921 -3.425,2.85 -1.142,0.934 -2.242,2.1 -3.3,3.5 -0.344,0.464 -0.794,0.822 -1.35,1.075 -0.884,0.512 -1.959,0.811 -3.225,0.9 -2.119,0.204 -3.011,-0.671 -2.675,-2.625 0.126,-0.84 -0.066,-1.531 -0.575,-2.075 -1.06,-1.017 -2.543,-1.25 -4.45,-0.7 -1.521,0.465 -3.062,0.74 -4.625,0.825 -1.571,0.043 -2.612,0.51 -3.125,1.4 5.63,0.408 7.622,1.566 5.975,3.475 3.655,-0.061 5.63,1.039 5.925,3.3 0.27,0.268 0.437,0.568 0.5,0.9 17.979,-4.834 25.921,-17.626 23.825,-38.375 h -2.175 c 3.757,-1.669 5.982,-6.002 6.675,-13 l -2.1,1.775 c -0.96,-2.458 -2.06,-4.216 -3.3,-5.275 0.145,0.988 0.171,2.087 0.075,3.3 C 27.691,55.909 23.482,52.5 17.9,51 15.15,50.256 12.058,49.981 8.625,50.175" /></g><g
           transform="translate(142.7998,108.375)"
           id="g96"><path
             id="path98"
             style="fill:#da2d14;fill-opacity:1;fill-rule:evenodd;stroke:none"
             d="M 0,0 C 2.1,-0.273 4.141,-0.657 6.125,-1.15 5.313,-1.577 4.539,-1.853 3.8,-1.975 3,-2.1 2.241,-2.225 1.525,-2.35 0.763,-2.476 -0.02,-2.559 -0.825,-2.6 c -0.804,-0.083 -1.588,-0.208 -2.35,-0.375 -0.683,-0.129 -1.367,-0.238 -2.05,-0.325 -0.842,-0.045 -1.642,-0.153 -2.4,-0.325 -0.804,-0.207 -1.629,-0.224 -2.475,-0.05 -1.015,0.166 -1.098,0.65 -0.25,1.45 0.336,0.387 0.503,0.795 0.5,1.225 0.039,0.8 -0.027,1.6 -0.2,2.4 -0.167,0.847 -0.017,1.63 0.45,2.35 0.378,0.723 0.861,1.339 1.45,1.85 0.815,-2.267 1.807,-4.534 2.975,-6.8 l 4.3,1.025 z m 3.05,3.625 c 2.899,2.812 6.607,4.836 11.125,6.075 0.347,0.091 0.697,0.183 1.05,0.275 0.039,0.444 -0.003,0.953 -0.125,1.525 -0.164,0.801 -0.456,1.559 -0.875,2.275 -0.385,0.636 -0.684,1.336 -0.9,2.1 2.372,-1.741 4.196,-3.483 5.475,-5.225 0.898,0.137 1.823,0.253 2.775,0.35 h 0.075 c 0.279,-0.077 0.545,-0.185 0.8,-0.325 0.391,-0.225 0.757,-0.525 1.1,-0.9 C 23.844,9.479 23.735,9.204 23.226,8.95 22.551,8.617 21.834,8.283 21.075,7.95 20.441,7.696 19.809,7.421 19.175,7.125 18.408,6.782 17.642,6.482 16.875,6.225 16.155,5.933 15.413,5.683 14.65,5.475 13.896,5.263 13.162,5.029 12.45,4.775 11.688,4.516 10.905,4.3 10.1,4.125 9.333,3.954 8.567,3.763 7.8,3.55 6.998,3.296 6.323,3.021 5.775,2.725 5.6,2.816 5.425,2.908 5.25,3 4.496,3.378 3.762,3.586 3.05,3.625 m 70.7,23.025 c -0.629,0.648 -1.246,1.315 -1.85,2 -1.104,1.188 -2.229,2.354 -3.375,3.5 -0.807,0.801 -1.658,1.518 -2.549,2.15 -1.181,0.807 -2.573,1.19 -4.176,1.15 -1.701,-0.041 -3.318,-0.399 -4.85,-1.075 -1.39,-0.639 -2.865,-0.939 -4.425,-0.9 -2.122,0.1 -2.789,0.575 -2,1.425 0.096,0.076 0.188,0.151 0.275,0.225 0.212,0.168 0.42,0.335 0.625,0.5 5.189,3.929 9.823,4.962 13.9,3.1 4.242,-1.936 6.959,-4.402 8.151,-7.4 0.718,-1.836 0.81,-3.394 0.274,-4.675 M 47.625,-36 c -0.035,-1.511 -0.519,-2.561 -1.45,-3.15 -0.463,0.172 -0.93,0.355 -1.4,0.55 -1.53,0.586 -2.997,1.237 -4.4,1.95 -1.437,0.726 -2.937,1.134 -4.5,1.225 -1.608,0.084 -3.217,0.125 -4.825,0.125 -1.65,-0.007 -3.3,-0.098 -4.949,-0.275 -1.567,-0.168 -3.175,-0.251 -4.826,-0.25 -0.513,0.006 -0.963,0.18 -1.35,0.525 -1.137,0.841 -1.003,1.49 0.4,1.95 1.486,0.496 3.011,0.846 4.575,1.05 3.542,-0.149 6.859,-0.399 9.951,-0.75 -0.037,0.529 -0.178,1.196 -0.426,2 -0.427,1.394 -0.727,2.935 -0.9,4.625 -0.084,0.68 -0.167,1.338 -0.25,1.975 -0.212,1.654 -0.445,3.288 -0.7,4.9 -0.168,0.848 -0.526,1.589 -1.075,2.225 -0.573,0.628 -1.022,1.304 -1.35,2.025 -0.131,0.742 -0.315,1.526 -0.549,2.35 0.543,1.581 0.168,2.672 -1.125,3.275 -0.25,0.64 -0.526,1.298 -0.826,1.975 0.211,0.752 0.303,1.586 0.275,2.5 0.848,0.432 1.69,0.974 2.525,1.625 4.106,-10.109 6.964,-20.117 8.575,-30.025 2.895,-0.453 5.761,-1.045 8.6,-1.775 0.011,-0.217 0.011,-0.425 0,-0.625 M -28.25,41.325 c 0.571,-0.622 1.196,-1.206 1.875,-1.75 -0.154,-0.466 -0.295,-0.925 -0.425,-1.375 -0.022,-0.01 -0.047,-0.018 -0.075,-0.025 -1.689,-0.384 -3.231,-0.959 -4.625,-1.725 -1.912,-1.012 -2.004,-2.045 -0.275,-3.1 1.357,-0.847 1.548,-1.905 0.575,-3.175 1.19,-1.226 1.998,-2.643 2.425,-4.25 0.371,-1.543 1.088,-2.743 2.15,-3.6 -2.894,1.371 -5.177,2.996 -6.85,4.875 -0.477,-1.437 -0.635,-2.453 -0.475,-3.05 -1.334,2.422 -2.067,4.856 -2.2,7.3 -0.897,-1.318 -1.489,-2.418 -1.775,-3.3 L -38.7,27 c -0.239,0.995 -0.382,1.853 -0.425,2.575 -0.413,4.735 0.47,8.085 2.65,10.05 -1.242,2.129 -2.217,4.263 -2.925,6.4 -0.139,0.413 -0.264,0.821 -0.375,1.225 -1.356,4.665 -1.431,9.323 -0.225,13.975 0.417,1.649 1.001,3.299 1.75,4.95 0.833,1.824 1.858,3.649 3.075,5.475 7.115,10.64 15.049,17.215 23.8,19.725 6.737,1.935 11.437,2.685 14.1,2.25 0.499,-0.079 0.924,-0.196 1.275,-0.35 0.164,-0.98 -0.178,-1.946 -1.025,-2.9 -6.013,0.682 -11.729,-0.393 -17.15,-3.225 -9.399,-4.999 -16.257,-12.157 -20.575,-21.475 -5.465,-11.769 -3.299,-19.885 6.5,-24.35" /></g><g
           transform="translate(151.1001,159.8999)"
           id="g100"><path
             id="path102"
             style="fill:#ffffff;fill-opacity:1;fill-rule:evenodd;stroke:none"
             d="M 0,0 C 0.386,0.374 0.836,0.557 1.35,0.55 1.855,0.557 2.297,0.374 2.675,0 3.057,-0.386 3.249,-0.836 3.25,-1.35 3.249,-1.855 3.057,-2.297 2.675,-2.675 2.297,-3.057 1.855,-3.249 1.35,-3.25 0.836,-3.249 0.386,-3.057 0,-2.675 -0.374,-2.297 -0.558,-1.855 -0.55,-1.35 -0.558,-0.836 -0.374,-0.386 0,0 m 6.425,-6.9 c 0.085,0.089 0.169,0.181 0.25,0.275 0.978,1.059 1.47,2.351 1.475,3.875 C 8.145,-1.222 7.653,0.095 6.675,1.2 5.749,2.254 4.632,2.779 3.325,2.775 2.005,2.779 0.855,2.254 -0.125,1.2 c -0.933,-1.105 -1.399,-2.422 -1.4,-3.95 0.007,-1.465 0.449,-2.715 1.325,-3.75 -1.135,-0.013 -2.252,-0.071 -3.35,-0.175 -0.764,1.533 -1.148,3.267 -1.15,5.2 0.004,2.752 0.771,5.102 2.3,7.05 C -0.838,7.524 1.02,8.499 3.175,8.5 5.334,8.499 7.176,7.524 8.7,5.575 10.266,3.627 11.05,1.277 11.05,-1.475 11.052,-3.712 10.536,-5.687 9.5,-7.4 8.465,-7.197 7.439,-7.03 6.425,-6.9 m -33.275,4.225 c -0.387,-0.382 -0.837,-0.574 -1.35,-0.575 -0.505,10e-4 -0.947,0.193 -1.325,0.575 -0.382,0.378 -0.574,0.82 -0.575,1.325 0.001,0.514 0.193,0.964 0.575,1.35 0.378,0.374 0.82,0.557 1.325,0.55 0.513,0.007 0.963,-0.176 1.35,-0.55 0.382,-0.386 0.574,-0.836 0.575,-1.35 -0.001,-0.505 -0.193,-0.947 -0.575,-1.325 M -23.1,-6.9 c 0.085,0.089 0.168,0.181 0.25,0.275 0.97,1.059 1.454,2.351 1.45,3.875 0.004,1.528 -0.48,2.845 -1.45,3.95 -0.935,1.054 -2.06,1.579 -3.375,1.575 -1.311,0.004 -2.453,-0.521 -3.425,-1.575 -0.933,-1.105 -1.399,-2.422 -1.4,-3.95 -10e-4,-1.465 0.432,-2.715 1.3,-3.75 -1.126,-0.013 -2.235,-0.071 -3.325,-0.175 -0.764,1.533 -1.148,3.267 -1.15,5.2 0.004,2.752 0.771,5.102 2.3,7.05 1.562,1.949 3.42,2.924 5.575,2.925 2.159,-10e-4 4.001,-0.976 5.525,-2.925 1.567,-1.948 2.35,-4.298 2.35,-7.05 0.002,-2.237 -0.515,-4.212 -1.55,-5.925 -1.036,0.203 -2.06,0.37 -3.075,0.5" /></g><g
           transform="translate(151.1001,159.8999)"
           id="g104"><path
             id="path106"
             style="fill:#000000;fill-opacity:1;fill-rule:evenodd;stroke:none"
             d="M 0,0 C -0.374,-0.386 -0.558,-0.836 -0.55,-1.35 -0.558,-1.855 -0.374,-2.297 0,-2.675 0.386,-3.057 0.836,-3.249 1.35,-3.25 c 0.505,10e-4 0.947,0.193 1.325,0.575 0.382,0.378 0.574,0.82 0.575,1.325 C 3.249,-0.836 3.057,-0.386 2.675,0 2.297,0.374 1.855,0.557 1.35,0.55 0.836,0.557 0.386,0.374 0,0 m -0.2,-6.5 c -0.876,1.035 -1.318,2.285 -1.325,3.75 10e-4,1.528 0.467,2.845 1.4,3.95 0.98,1.054 2.13,1.579 3.45,1.575 C 4.632,2.779 5.749,2.254 6.675,1.2 7.653,0.095 8.145,-1.222 8.15,-2.75 8.145,-4.274 7.653,-5.566 6.675,-6.625 6.594,-6.719 6.51,-6.811 6.425,-6.9 4.164,-6.595 1.955,-6.461 -0.2,-6.5 m -26.65,3.825 c 0.382,0.378 0.574,0.82 0.575,1.325 -0.001,0.514 -0.193,0.964 -0.575,1.35 -0.387,0.374 -0.837,0.557 -1.35,0.55 -0.505,0.007 -0.947,-0.176 -1.325,-0.55 -0.382,-0.386 -0.574,-0.836 -0.575,-1.35 0.001,-0.505 0.193,-0.947 0.575,-1.325 0.378,-0.382 0.82,-0.574 1.325,-0.575 0.513,10e-4 0.963,0.193 1.35,0.575 M -23.1,-6.9 c -2.27,0.305 -4.486,0.439 -6.65,0.4 -0.868,1.035 -1.301,2.285 -1.3,3.75 0.001,1.528 0.467,2.845 1.4,3.95 0.972,1.054 2.114,1.579 3.425,1.575 1.315,0.004 2.44,-0.521 3.375,-1.575 0.97,-1.105 1.454,-2.422 1.45,-3.95 0.004,-1.524 -0.48,-2.816 -1.45,-3.875 -0.082,-0.094 -0.165,-0.186 -0.25,-0.275" /></g><g
           transform="translate(147.5498,148.8501)"
           id="g108"><path
             id="path110"
             style="fill:#b45a25;fill-opacity:1;fill-rule:evenodd;stroke:none"
             d="M 0,0 C 0.529,-0.673 -0.996,-1.756 -4.575,-3.25 -9.062,-1.809 -10.545,-0.726 -9.025,0 -5.73,0.973 -2.722,0.973 0,0" /></g><g
           transform="translate(152.1499,127.625)"
           id="g112"><path
             id="path114"
             style="fill:none;stroke:#be6f21;stroke-width:0.60000002;stroke-linecap:round;stroke-linejoin:round;stroke-miterlimit:3;stroke-dasharray:none;stroke-opacity:1"
             d="m 0,0 c 5.75,1.404 9.742,3.638 11.975,6.7 m 18,-86.5 c 1.008,-1.258 1.666,-2.499 1.975,-3.725 m -9.975,-5.025 c -0.298,1.528 -1.022,3.352 -2.175,5.475 m 9.425,-8 c 0.067,0.352 0.117,0.744 0.15,1.175 0.073,0.784 -0.069,1.626 -0.425,2.525 m -6.975,-1.175 c 0.354,-1.742 0.145,-3.092 -0.625,-4.05 m 0,0 c -0.251,-0.333 -0.567,-0.616 -0.95,-0.85 m -9.5,11.125 c -0.381,-3.021 -0.448,-5.471 -0.2,-7.35 m 18.25,2.3 c -0.657,1.695 -2.039,3.596 -4.15,5.7 m 2.05,5.025 c 0.478,-0.397 0.919,-0.788 1.325,-1.175 0.388,0.42 0.739,0.853 1.05,1.3 0.792,1.156 1.342,2.422 1.65,3.8 M 26.85,-76.65 c -0.58,0.477 -1.213,0.961 -1.9,1.45 m 3.225,-2.625 c 0.694,-0.666 1.293,-1.324 1.8,-1.975 1.98,0.812 3.222,2.429 3.725,4.85 m 3.675,0.2 c -0.281,-2.269 -1.19,-3.993 -2.725,-5.175 -1.537,-1.184 -2.437,-2.385 -2.7,-3.6 0.178,-0.681 0.245,-1.356 0.2,-2.025 m 12.725,6.9 c -0.551,-0.361 -1.226,-0.385 -2.025,-0.075 -2.793,1.095 -4.168,4.136 -4.125,9.125 m -44.625,34 c 0.341,-0.773 0.692,-1.506 1.05,-2.2 m -13.075,58.575 c 5.24,2.721 10.299,3.187 15.175,1.4 m -7.475,-41.6 c -0.195,3.698 0.454,6.266 1.95,7.7 1.489,1.437 3.481,2.645 5.975,3.625 2.481,0.988 4.856,0.504 7.125,-1.45 m -0.95,27.1 C 0.685,11.805 -4.148,8.78 -10.625,8.475 -17.118,8.167 -21.61,9.683 -24.1,13.025 M -23.75,-0.5 c -1.217,0.306 -2.359,0.681 -3.425,1.125 -1.653,0.689 -3.137,1.54 -4.45,2.55 -0.372,0.289 -0.722,0.589 -1.05,0.9 -3.431,3.095 -4.806,7.062 -4.125,11.9 0.14,0.957 0.357,1.948 0.65,2.975 0.129,0.45 0.271,0.909 0.425,1.375 -0.679,0.544 -1.304,1.128 -1.875,1.75 M -23.75,-0.5 c 1.838,-0.486 3.838,-0.819 6,-1 3.033,-0.227 6.383,-0.152 10.05,0.225 1.776,0.185 3.442,0.418 5,0.7 m -6.475,18.55 v -3.95 M 1.95,17.85 c 0.731,0.044 1.372,-0.057 1.925,-0.3 0.396,-0.162 0.747,-0.404 1.05,-0.725 m -29.075,8.55 c -2.269,0.305 -4.486,0.438 -6.65,0.4 m 29.55,0 C -2.385,25.762 -3.501,25.704 -4.6,25.6 c -0.764,1.533 -1.148,3.267 -1.15,5.2 0.004,2.752 0.771,5.102 2.3,7.05 1.562,1.949 3.42,2.924 5.575,2.925 C 4.284,40.774 6.126,39.799 7.65,37.85 9.216,35.902 10,33.552 10,30.8 10.002,28.563 9.486,26.588 8.45,24.875 c -1.035,0.203 -2.06,0.37 -3.075,0.5 -2.261,0.305 -4.47,0.438 -6.625,0.4 z m -22.9,-0.4 c 1.015,-0.13 2.04,-0.297 3.075,-0.5 1.035,1.713 1.552,3.688 1.55,5.925 0,2.752 -0.783,5.102 -2.35,7.05 -1.524,1.949 -3.366,2.924 -5.525,2.925 -2.155,-10e-4 -4.013,-0.976 -5.575,-2.925 -1.529,-1.948 -2.296,-4.298 -2.3,-7.05 0.003,-1.933 0.386,-3.667 1.15,-5.2 1.09,0.104 2.199,0.162 3.325,0.175 M -59.65,41.15 c 1.751,0.983 3.384,1.592 4.9,1.825 1.998,0.303 3.797,-0.031 5.4,-1 M 31.15,-68.95 c 0.084,-1.338 -0.008,-2.596 -0.275,-3.775 M -4.85,-37.8 c 3.906,-7.646 8.714,-10.838 14.425,-9.575 6.232,1.368 9.932,3.677 11.1,6.925 0.554,1.541 0.595,3.507 0.125,5.9 -0.132,0.742 -0.315,1.526 -0.55,2.35 -0.301,1.028 -0.676,2.12 -1.125,3.275 -0.25,0.64 -0.525,1.298 -0.825,1.975 M 17.4,-25 c 0.322,-0.666 0.623,-1.316 0.9,-1.95 M 0,0 c -0.856,-0.208 -1.756,-0.4 -2.7,-0.575 m -46.05,27.35 c -2.229,-0.727 -4.254,-1.194 -6.075,-1.4 -3.073,-0.341 -5.565,0.06 -7.475,1.2 -2.169,1.302 -3.585,3.561 -4.25,6.775 -1.603,7.729 0.114,12.97 5.15,15.725 5.036,2.737 9.636,2.02 13.8,-2.15 M 38.275,-55.25 c 0.542,-0.273 1.058,-0.573 1.55,-0.9 0.754,-0.487 1.445,-1.029 2.075,-1.625 0.216,-0.212 0.424,-0.429 0.625,-0.65 2.504,-2.739 3.862,-6.522 4.075,-11.35 0.21,-5.038 -0.364,-7.996 -1.725,-8.875 -3.42,-9.162 -7.663,-11.461 -12.725,-6.9 -0.11,-1.891 -1.086,-3.733 -2.925,-5.525 -0.309,-1.518 -0.951,-2.385 -1.925,-2.6 -1.919,-0.423 -4.218,-0.347 -6.9,0.225 -0.168,-0.108 -0.352,-0.207 -0.55,-0.3 -3.085,-1.393 -5.535,-1.359 -7.35,0.1 -0.924,0.737 -1.524,2.062 -1.8,3.975 -1.441,-0.908 -2.682,-1.242 -3.725,-1 -1.053,0.255 -1.712,0.522 -1.975,0.8 -1.858,1.946 -1.85,5.363 0.025,10.25 0.609,1.61 1.425,3.386 2.45,5.325 M -37.6,22.075 c -1.898,2.085 -3.156,4.61 -3.775,7.575 -0.804,3.687 -0.337,7.162 1.4,10.425 1.821,3.348 4.446,5.765 7.875,7.25 3.813,1.652 7.604,1.611 11.375,-0.125 2.96,-1.319 5.794,-3.019 8.5,-5.1 0.193,0.152 0.384,0.302 0.575,0.45 9.267,7.093 17.167,8.31 23.7,3.65 1.461,-1.043 2.611,-2.26 3.45,-3.65 2.955,-4.943 1.929,-12.076 -3.075,-21.4 1.086,-2.768 1.636,-5.284 1.65,-7.55 0.02,-2.642 -0.68,-4.942 -2.1,-6.9 m 13.15,23.25 c 2.468,0.156 4.568,0.664 6.3,1.525 2.281,1.116 3.922,2.841 4.925,5.175 m 0,0 c 0.31,0.722 0.56,1.505 0.75,2.35 0.024,0.117 0.048,0.234 0.075,0.35 1.155,5.822 -0.387,10.381 -4.625,13.675 -4.562,3.562 -8.737,2.937 -12.525,-1.875 M 22.6,45.625 c 1.386,2.458 3.286,3.624 5.7,3.5 0.962,-0.037 2.004,-0.278 3.125,-0.725" /></g><g
           transform="translate(164.4502,119.375)"
           id="g116"><path
             id="path118"
             style="fill:none;stroke:#320a04;stroke-width:0.60000002;stroke-linecap:round;stroke-linejoin:round;stroke-miterlimit:3;stroke-dasharray:none;stroke-opacity:1"
             d="M 0,0 C 0.278,-0.077 0.545,-0.185 0.8,-0.325 M 27.524,-47.9 c 1.034,2.91 1.5,7.369 1.401,13.375 -0.093,5.987 -1.435,16.171 -4.026,30.55 -2.555,14.145 -1.23,23.437 3.976,27.875 0.096,0.076 0.188,0.151 0.274,0.225 0.212,0.168 0.42,0.335 0.625,0.5 5.19,3.929 9.824,4.962 13.901,3.1 4.242,-1.936 6.959,-4.402 8.15,-7.4 0.719,-1.836 0.811,-3.394 0.275,-4.675 -0.333,-0.812 -0.925,-1.512 -1.775,-2.1 -0.153,-0.102 -0.311,-0.193 -0.475,-0.275 -2.163,-1.15 -5.272,-0.658 -9.326,1.475 -2.105,1.111 -3.988,1.211 -5.649,0.3 C 33.063,14.06 31.705,11.768 30.8,8.175 29.908,4.592 30.642,-4.517 33,-19.15 c 2.346,-14.635 1.42,-24.977 -2.775,-31.025" /></g><g
           transform="translate(151.1001,159.8999)"
           id="g120"><path
             id="path122"
             style="fill:none;stroke:#000000;stroke-width:0.1;stroke-linecap:round;stroke-linejoin:round;stroke-miterlimit:3;stroke-dasharray:none;stroke-opacity:1"
             d="M 0,0 C 0.386,0.374 0.836,0.557 1.35,0.55 1.855,0.557 2.297,0.374 2.675,0 3.057,-0.386 3.249,-0.836 3.25,-1.35 3.249,-1.855 3.057,-2.297 2.675,-2.675 2.297,-3.057 1.855,-3.249 1.35,-3.25 0.836,-3.249 0.386,-3.057 0,-2.675 -0.374,-2.297 -0.558,-1.855 -0.55,-1.35 -0.558,-0.836 -0.374,-0.386 0,0 Z m -0.2,-6.5 c -0.876,1.035 -1.318,2.285 -1.325,3.75 10e-4,1.528 0.467,2.845 1.4,3.95 0.98,1.054 2.13,1.579 3.45,1.575 C 4.632,2.779 5.749,2.254 6.675,1.2 7.653,0.095 8.145,-1.222 8.15,-2.75 8.145,-4.274 7.653,-5.566 6.675,-6.625 6.594,-6.719 6.51,-6.811 6.425,-6.9 m -33.275,4.225 c -0.387,-0.382 -0.837,-0.574 -1.35,-0.575 -0.505,10e-4 -0.947,0.193 -1.325,0.575 -0.382,0.378 -0.574,0.82 -0.575,1.325 0.001,0.514 0.193,0.964 0.575,1.35 0.378,0.374 0.82,0.557 1.325,0.55 0.513,0.007 0.963,-0.176 1.35,-0.55 0.382,-0.386 0.574,-0.836 0.575,-1.35 -0.001,-0.505 -0.193,-0.947 -0.575,-1.325 z m -2.9,-3.825 c -0.868,1.035 -1.301,2.285 -1.3,3.75 0.001,1.528 0.467,2.845 1.4,3.95 0.972,1.054 2.114,1.579 3.425,1.575 1.315,0.004 2.44,-0.521 3.375,-1.575 0.97,-1.105 1.454,-2.422 1.45,-3.95 0.004,-1.524 -0.48,-2.816 -1.45,-3.875 -0.082,-0.094 -0.165,-0.186 -0.25,-0.275" /></g><g
           transform="translate(147.5498,148.8501)"
           id="g124"><path
             id="path126"
             style="fill:none;stroke:#743a18;stroke-width:0.60000002;stroke-linecap:round;stroke-linejoin:round;stroke-miterlimit:3;stroke-dasharray:none;stroke-opacity:1"
             d="m 0,0 c -2.722,0.973 -5.73,0.973 -9.025,0 -1.52,-0.726 -0.037,-1.809 4.45,-3.25 C -0.996,-1.756 0.529,-0.673 0,0 Z" /></g><g
           transform="translate(128.4053,127.1157)"
           id="g128"><path
             id="path130"
             style="fill:none;stroke:#320a04;stroke-width:0.60000002;stroke-linecap:round;stroke-linejoin:round;stroke-miterlimit:3;stroke-dasharray:none;stroke-opacity:1"
             d="M 0,0 C -0.702,0.134 -1.391,0.271 -2.064,0.413 M 50.334,-68.34 c -0.309,0.127 -0.626,0.275 -0.952,0.445 -7.49,-2 -13.968,-2.456 -19.436,-1.365 m 15.37,21.625 c -1.431,-2.086 -3.568,-3.208 -6.414,-3.365 0.128,-0.006 0.255,-0.016 0.381,-0.033 3.549,-0.152 6.873,-0.407 9.971,-0.761 1.434,-0.158 2.821,-0.337 4.161,-0.539 m -8.575,30.009 c -0.829,-0.649 -1.666,-1.189 -2.509,-1.62 -0.39,-0.205 -0.78,-0.385 -1.175,-0.54 -1.345,-0.539 -2.712,-0.814 -4.096,-0.826 -1.327,0.007 -2.671,0.261 -4.033,0.764 m -23.818,4.604 -2.89,-0.7 m 1.81,-14.004 c 0.853,-0.298 1.754,-0.562 2.7,-0.794 0.42,-0.102 0.844,-0.176 1.27,-0.222 1.815,-0.234 3.731,-0.045 5.748,0.571 4.532,1.392 9.591,4.906 15.18,10.545 -0.495,0.191 -0.993,0.415 -1.493,0.666 -1.069,0.537 -2.159,1.034 -3.27,1.492 -0.937,0.399 -1.889,0.77 -2.859,1.111 -1.092,0.375 -2.204,0.713 -3.334,1.018 -0.512,0.138 -1.031,0.264 -1.557,0.381 -1.985,0.489 -4.028,0.872 -6.129,1.141 m -8.129,5.59 c 0.807,-2.265 1.792,-4.53 2.953,-6.795 l 5.176,1.205 c 0.89,1.33 1.907,2.537 3.049,3.621 2.905,2.809 6.621,4.829 11.147,6.066 0.346,0.094 0.695,0.19 1.047,0.286 1.14,0.264 2.326,0.486 3.558,0.666 m -5.463,5.24 c 2.368,-1.747 4.187,-3.493 5.463,-5.24 0.904,0.137 1.835,0.253 2.793,0.349 M 33.027,1.335 33.186,0.953 C 32.087,0.758 30.912,0.588 29.66,0.445 28.018,0.263 26.239,0.125 24.325,0.032 23.278,-0.011 22.189,-0.043 21.054,-0.063 M 10.257,55.448 c 4.933,1.085 5.821,2.736 2.668,4.954 4.948,0.097 8.018,0.711 9.209,1.841 0.273,0.265 0.442,0.562 0.508,0.889 0.062,0.234 0.062,0.488 0,0.763 -0.06,0.266 -0.177,0.509 -0.349,0.73 M -23.85,47.445 c 0.835,1.82 1.861,3.641 3.08,5.462 7.111,10.638 15.039,17.212 23.787,19.721 6.736,1.935 11.436,2.687 14.1,2.254 0.497,-0.079 0.92,-0.194 1.27,-0.348 0.219,-0.107 0.409,-0.222 0.571,-0.35 1.877,-1.476 1.285,-3.16 -1.778,-5.049 -3.057,-1.895 -5.787,-3.028 -8.194,-3.399 7.566,0.85 12.001,0.48 13.307,-1.111 10.167,-1.771 17.322,-6.089 21.467,-12.956 0.497,-0.829 0.953,-1.697 1.366,-2.605 0.446,-0.98 0.848,-1.954 1.207,-2.921 0.392,-1.03 0.74,-2.057 1.048,-3.08 0.197,-0.679 0.377,-1.357 0.54,-2.033 0.863,-3.574 1.181,-7.1 0.952,-10.574 -0.128,-1.93 -0.424,-3.846 -0.89,-5.749 2.672,-3.274 3.667,-7.593 2.987,-12.957 l -2.097,1.779 C 49.314,10.873 47.939,8.143 44.745,5.335 v 2.16 C 43.594,4.323 39.74,2.142 33.186,0.953 c 4.635,-3.268 8.224,-6.252 10.765,-8.955 0.03,-0.033 0.063,-0.065 0.095,-0.096 4.929,-5.306 5.797,-9.52 2.604,-12.638 -0.598,-0.586 -1.202,-1.115 -1.81,-1.588 4.105,-10.105 6.963,-20.108 8.575,-30.009 2.897,-0.455 5.764,-1.047 8.605,-1.78 0.011,-0.22 0.011,-0.431 0,-0.635 -0.039,-1.508 -0.526,-2.556 -1.46,-3.143 -0.567,-0.357 -1.308,-0.536 -2.223,-0.541 1.63,-3.53 0.974,-5.478 -1.969,-5.843 -0.033,-0.77 -0.119,-1.447 -0.254,-2.032 -0.252,-0.969 -0.655,-1.678 -1.207,-2.128 -1.016,-0.819 -2.541,-0.787 -4.573,0.095 -0.187,-3.157 -0.737,-5.275 -1.652,-6.351 -1.062,-1.236 -2.606,-1.087 -4.636,0.445 -2.88,-2.561 -6.353,-2.223 -10.416,1.016 -1.016,-0.676 -1.821,-0.867 -2.414,-0.572 -0.9,0.424 -1.322,1.938 -1.27,4.542 -13.118,2.618 -20.39,14.156 -21.817,34.614 -4.664,1.624 -8.115,4.641 -10.352,9.051 -0.384,0.754 -0.702,1.633 -0.952,2.636 -0.014,0.03 -0.024,0.062 -0.033,0.094 -1.165,4.907 -0.784,12.667 1.144,23.278 -0.805,0.174 -1.588,0.354 -2.351,0.54 -0.252,0.063 -0.506,0.126 -0.761,0.191 -2.102,0.547 -4.007,1.172 -5.717,1.873 -0.486,-0.082 -0.909,0.098 -1.27,0.541 -0.021,0.011 -0.042,0.021 -0.063,0.031 -2.898,1.366 -5.184,2.984 -6.86,4.859 -0.477,-1.437 -0.636,-2.453 -0.477,-3.05 -1.331,2.425 -2.061,4.86 -2.19,7.305 -0.899,-1.319 -1.493,-2.419 -1.779,-3.303 l -0.761,-1.143 c -0.248,0.994 -0.396,1.852 -0.446,2.573 -0.407,4.739 0.483,8.095 2.668,10.066 -1.242,2.124 -2.215,4.252 -2.922,6.384 -0.142,0.416 -0.268,0.829 -0.381,1.238 -1.355,4.664 -1.429,9.321 -0.222,13.973 0.417,1.65 0.998,3.302 1.746,4.954 z" /></g></g></g></g></svg>